<svg width="52" height="73" viewBox="0 0 52 73" fill="none" xmlns="http://www.w3.org/2000/svg">
<path d="M18.5 63.5L24.5 67.5L24 64L25 62.5L25.5 59.5L24.5 59L24 58L22.5 57.5L21 57L20 60V62L18.5 63.5Z" fill="#A1A1A1"/>
<path d="M42 54C40 52.8 34.8333 58.5 32.5 61.5L32 61V60L32.5 58L33.5 56.5L34 56L34.5 53.5L38.5 52L39.5 51.5H41.5H43L44 53.5L45 55L46.5 56L47.5 57H46C45.5 56.5 44 55.2 42 54Z" fill="#A1A1A1"/>
<path d="M8 56.5L9 63.5L11 59L13.5 56.5V55.5L11 53L9 51.5L8 50L7 49V48V45.5L4.5 44.5L6.5 41.5H5.5L2.5 42.5L0 48L2 52.5L8 56.5Z" fill="#A1A1A1"/>
<path d="M16.5 4.56665L20 1.06665L21 1.56665H23.5L25 1.06665H26.5L28.5 2.06665L30.5 4.56665L32 6.06665L33 9.06665L34 12.0667L36 14.5667L37 15.5667L38 18.0667L37 20.0667L38 22.5667L39.5 24.0667L43 27.0667L44 29.5667L44.5 31.0667H46.5L47.5 33.0667L49.5 36.5667V39.0667L50.5 42.0667V44.0667L49.5 45.5667L48 46.5667V48.0667L49.5 49.5667L51 51.5667L51.5 53.0667V55.5667L49.5 57.0667L48 57.5667L47.5 57.0667L47 56.0667L45 55.0667L43.5 53.0667L43 50.5667L41.5 51.5667H39.5L34.5 53.5667L34 55.5667L33.5 57.0667L32.5 57.5667L32 59.0667V61.0667L32.5 62.0667L33.5 64.0667L34.5 66.5667V68.0667L34 68.5667L33.5 69.5667H32L31 70.5667L30.5 71.5667H28.5V72.0667L27.5 71.5667L27 71.0667L25 68.5667L24 66.5667V64.5667L25.5 62.0667V59.5667L24.5 58.5667L23.5 57.5667L21.5 57.0667L21 57.5667L20 58.5667V61.0667V62.5667L19 64.0667L15.5 65.0667L12.5 66.0667L12 65.0667L10 64.0667L9.5 63.0667L10 59.5667L14 55.5667L13.5 55.0667L11 52.5667L8.5 51.5667L8 49.5667L7.5 46.5667L6.5 44.0667V42.0667L6 38.5667L5 37.5667L6 35.5667V33.0667L6.5 30.5667L8.5 29.5667L6.5 27.5667L9.5 23.5667L10.5 20.0667L11.5 17.0667V15.0667V11.0667L14 6.06665L16.5 4.56665Z" fill="white"/>
<path d="M21 16.5L20 17.5L21.5 19L23.5 20.5L24 21.5L25.5 23H26.5L27 22V20.5L26.5 17L26 16L24 17L23.5 16.5H21Z" fill="#FDD2DC"/>
<path d="M14.2433 11.2212C14.5128 10.6821 15.0519 9.52303 15.0519 9.19957C15.0519 8.87612 15.0519 7.17798 15.0519 6.36935C15.1867 5.96503 15.6988 4.9138 16.6692 3.94344C17.8822 2.73048 19.4994 1.11321 19.9038 1.11321C20.3081 1.11321 21.9253 1.51753 23.5426 1.51753C24.1144 1.51753 26.3728 0.708891 26.7772 1.11321C27.1815 1.51753 32.0333 5.15639 32.0333 5.96503C32.0333 6.77366 30.8203 9.19957 30.8203 9.60389C30.8203 10.0082 31.2247 10.4125 31.2247 10.8168C31.2247 11.2212 31.2247 11.6255 31.2247 12.4341C31.2247 13.081 30.9551 13.7818 30.8203 14.0514M32.4376 6.77366C32.8419 8.39094 33.8932 11.8681 34.8635 12.8384C36.0765 14.0514 36.8851 16.4773 35.6722 19.3075C34.4592 22.1378 33.6506 22.9464 32.8419 22.9464C32.0333 22.9464 32.8419 21.7334 32.4376 20.5205C32.0333 19.3075 30.8203 17.6903 30.8203 16.8816C30.8203 16.073 32.0333 14.4557 31.2247 14.4557C30.5778 14.4557 30.416 15.2643 30.416 15.6687" stroke="black" stroke-width="0.5" stroke-linecap="round"/>
<path d="M31.2247 13.2428C31.4942 13.6471 32.0333 14.5366 32.0333 14.86C32.0333 15.1835 32.0333 16.073 32.0333 16.4773" stroke="black" stroke-width="0.5" stroke-linecap="round"/>
<path d="M15.4562 4.75204C15.3215 4.4825 14.8902 4.26686 14.2433 5.56068C13.5964 6.8545 12.3565 9.06477 11.8174 10.0082C11.6826 10.5473 11.4131 11.7063 11.4131 12.0298C11.4131 12.4341 10.6044 15.2643 10.6044 15.6686C10.6044 16.073 11.4131 16.4773 11.4131 16.8816C11.4131 17.2859 11.0087 17.6902 11.4131 17.6902C11.8174 17.6902 13.0303 16.4773 13.0303 16.8816" stroke="black" stroke-width="0.5" stroke-linecap="round"/>
<path d="M13.839 13.2428C13.0303 14.321 11.4131 16.5582 11.4131 16.8816" stroke="black" stroke-width="0.5" stroke-linecap="round"/>
<path d="M13.4347 12.0298C13.0303 12.7037 12.1408 14.3749 11.8174 15.6687" stroke="black" stroke-width="0.5" stroke-linecap="round"/>
<path d="M20.3081 7.58233C20.7124 7.31278 21.1167 6.77369 21.521 6.77369C22.3297 6.77369 22.3297 7.17801 22.734 7.17801C23.0574 7.17801 23.4078 7.17801 23.5426 7.17801" stroke="black" stroke-width="0.5" stroke-linecap="round"/>
<path d="M16.6692 5.96499C16.804 5.83022 17.0735 5.47981 17.0735 5.15636C17.0735 4.75204 17.0735 4.75204 17.4778 4.34772C17.8821 3.9434 17.8821 3.9434 18.2865 3.53908C18.6908 3.13477 19.4994 2.32613 19.9037 2.73045C20.3081 3.13477 20.3081 4.75204 19.9037 5.15636" stroke="black" stroke-width="0.5" stroke-linecap="round"/>
<path d="M17.0735 11.2212C16.6692 11.7603 15.9414 13.081 16.2649 14.0514C16.6692 15.2644 17.0735 17.2859 17.8822 17.2859C18.6908 17.2859 19.9038 15.2644 20.7124 15.2644C21.521 15.2644 21.521 15.2644 22.3297 15.6687C23.1383 16.073 23.5426 16.8816 23.9469 16.8816C24.2704 16.8816 26.2381 15.5339 27.1815 14.86C27.8553 14.4557 28.9605 14.0514 27.9901 15.6687L26.7772 17.6903" stroke="black" stroke-width="0.5" stroke-linecap="round"/>
<path d="M16.2649 13.2428C15.9953 13.5123 15.618 14.4557 16.2649 16.073C16.9118 17.6903 17.3431 19.1728 17.4778 19.7119C17.7474 20.5205 18.6908 22.2186 20.3081 22.5421C22.3296 22.9464 22.3296 22.5421 23.1383 22.5421C23.7852 22.5421 24.2165 22.2725 24.3512 22.1378" stroke="black" stroke-width="0.5" stroke-linecap="round"/>
<path d="M21.1167 15.2643C20.4698 15.2643 19.2299 16.3425 18.6908 16.8816C18.6908 17.2859 20.3081 17.2859 20.7124 16.8816C21.1167 16.4773 21.521 16.8816 23.5426 16.8816C23.5426 16.4773 21.9253 15.2643 21.1167 15.2643Z" fill="black" stroke="black" stroke-width="0.5" stroke-linecap="round"/>
<path d="M26.7772 17.6903L25.9685 16.073L26.3728 15.2644L27.1815 14.8601L27.5858 14.4557H28.3944V14.8601L26.7772 17.6903Z" fill="black" stroke="black" stroke-width="0.5"/>
<path d="M19.9038 17.2859C20.4429 17.825 21.6828 18.9841 22.3297 19.3075C23.1383 19.7118 23.9469 20.9248 23.9469 21.3291M23.9469 21.3291C23.9469 21.7334 25.5642 23.3507 25.9685 22.9464M23.9469 21.3291C23.9469 21.6526 22.5992 21.7334 21.9254 21.7334C19.6612 22.0569 17.7474 18.6336 17.0735 16.8816M25.9685 22.9464C26.3729 22.5421 27.1815 22.5421 27.1815 21.7334C27.1815 20.9248 27.1815 17.2859 25.9685 16.4773M25.9685 22.9464C26.6154 20.0353 25.4294 18.7684 24.7556 18.4989M17.4779 17.2859C18.1517 18.3641 20.1464 20.7226 21.1167 20.7226C22.0871 20.7226 23.0035 20.79 23.5426 20.9248" stroke="black" stroke-width="0.5" stroke-linecap="round"/>
<path d="M11.8174 18.4989C10.874 19.3076 8.98716 21.2483 8.98716 22.5421C10.2001 21.7335 10.2001 21.3292 10.2001 22.1378C10.5236 22.1378 10.6044 22.1378 10.6044 22.1378L11.0088 21.7335M10.2001 22.9464C10.0653 22.9464 9.7958 23.0273 9.7958 23.3508" stroke="black" stroke-width="0.5" stroke-linecap="round"/>
<path d="M9.7958 24.1594C9.52626 24.6985 8.9063 25.7766 8.58285 25.7766C8.17853 25.7766 7.77421 25.3723 7.36989 25.3723C7.04644 25.3723 7.50467 24.8332 7.77421 24.5637" stroke="black" stroke-width="0.5" stroke-linecap="round"/>
<path d="M13.0303 26.5852C13.0303 27.2322 11.9522 28.2025 11.4131 28.6068M11.0087 26.9896C10.3349 27.2591 8.98716 27.9599 8.98716 28.6068C8.98716 29.4155 7.36988 29.8198 6.96557 30.2241C6.56125 30.6284 4.94397 33.0543 5.75261 34.6716M7.7742 28.2025C6.96556 27.7982 5.34829 26.8278 5.34829 26.1809C5.61783 26.3157 6.23779 26.5852 6.56124 26.5852C6.8847 26.5852 7.50465 26.8548 7.7742 26.9896M6.56124 35.0759C5.75261 35.8846 4.37793 37.5018 5.34829 37.5018M11.0087 34.2673C10.2001 35.3455 9.14888 37.8253 11.4131 39.1191C11.4131 40.0895 11.1435 41.4102 11.0087 41.9493C12.2217 40.7364 12.626 40.3321 12.626 40.7364C12.626 41.1407 12.2217 42.758 12.626 42.758C12.9495 42.758 13.2999 42.4884 13.4347 42.3537M12.2217 41.545C12.0869 42.0841 11.6557 43.324 11.0087 43.9709C10.3618 44.6178 9.93056 45.3187 9.79579 45.5882M8.58284 46.8012C8.71761 46.5316 9.06802 45.9925 9.39147 45.9925M14.2433 42.3537C14.3781 42.8927 14.5667 44.0518 14.2433 44.3752M15.0519 43.5666C15.0519 44.3752 15.1328 45.9117 15.4562 45.5882C15.8606 45.1839 16.2649 45.5882 16.6692 45.1839C17.0735 44.7796 17.0735 44.3752 17.0735 43.5666C17.0735 42.758 16.6692 42.758 16.6692 41.9493C16.6692 41.3024 16.9387 39.5234 17.0735 38.7148H16.6692M15.4562 43.1623C15.591 44.2405 15.9414 46.5586 16.2649 47.2055M17.8822 42.758C18.1517 43.0275 18.6099 44.0518 18.2865 45.9925M18.6908 43.1623C18.556 43.8362 18.3673 45.1839 18.6908 45.1839C19.0142 45.1839 19.6342 44.6448 19.9037 44.3752C20.0808 44.0212 20.3043 43.4658 20.4453 42.8716M20.3081 40.7364C20.6718 41.2819 20.6265 42.1086 20.4453 42.8716M21.1167 41.545C20.9387 41.6208 20.5551 41.9922 20.4453 42.8716M19.9037 37.5018C19.4994 38.1757 18.7717 39.6852 19.0951 40.3321M21.9253 39.1191C21.7906 39.5234 21.6019 40.4129 21.9253 40.7364M21.9253 41.545C22.0601 41.8146 22.3297 43.0006 22.3297 45.5882M23.5426 43.1623C23.1383 43.9709 22.4105 45.5882 22.734 45.5882C23.1383 45.5882 23.1383 45.1839 23.5426 45.1839C23.8661 45.1839 24.486 43.8362 24.7556 43.1623M24.3512 42.3537C24.6208 41.6798 24.9982 40.0895 24.3512 39.1191C23.5426 37.9062 23.9469 34.2673 24.7556 33.863M6.96556 37.0975C7.10034 37.0975 7.20815 37.2592 6.56125 37.9062C5.75261 38.7148 4.94397 39.5234 5.75261 39.9277M7.36988 37.5018C6.96556 37.7714 6.23779 38.7148 6.56125 40.3321C6.96556 42.3537 4.13534 44.7796 4.53965 44.7796C4.94397 44.7796 7.36988 45.5882 7.36988 45.9925C7.36988 46.3968 6.96557 47.2055 6.96557 47.6098C6.96557 48.0141 7.7742 48.0141 7.36988 48.4184C7.04643 48.7419 5.61784 50.1705 4.94398 50.8443M13.4347 29.8198C12.4643 30.4667 11.9522 30.6284 11.8174 30.6284M12.626 33.0543C12.4912 33.1891 12.3026 33.4587 12.626 33.4587C13.0303 33.4587 12.626 33.0543 13.4347 33.0543M28.3944 25.7766C28.7665 25.5906 29.0672 24.4149 29.2812 23.1418M29.2031 26.5852C29.2552 25.6374 29.3438 23.6217 29.2812 23.1418M29.2812 23.1418C29.5247 23.8853 30.0117 25.534 30.0117 26.1809C30.0117 26.8278 29.7422 27.2591 29.6074 27.3939M31.629 24.1593C31.629 24.968 32.0333 29.4155 30.0117 28.6068M32.0333 23.3507C32.4376 24.4289 33.1654 26.747 32.8419 27.3939" stroke="black" stroke-width="0.5" stroke-linecap="round"/>
<path d="M7.77421 42.758C7.63943 42.8927 7.36989 43.2431 7.36989 43.5666C7.36989 43.9709 8.17852 45.9925 7.77421 45.9925M7.77421 48.8227C7.63943 49.2271 7.45075 50.1166 7.77421 50.44C8.09766 50.7635 8.17852 51.1139 8.17852 51.2486M8.98716 49.6314C9.12193 50.0357 9.39148 50.9252 9.39148 51.2486C9.39148 51.5721 9.39148 51.9225 9.39148 52.0573M9.7958 49.2271C9.7958 49.6314 9.87666 50.6017 10.2001 51.2486C10.6044 52.0573 10.2001 52.8659 10.6044 52.8659M11.0088 52.0573C11.2783 52.8659 12.06 54.5641 13.0303 54.8875C14.0007 55.211 13.9738 55.8309 13.839 56.1005C12.4913 57.0439 9.7958 59.335 9.7958 60.9523C9.7958 62.9739 9.39148 63.7825 10.2001 64.1868M13.4347 46.8011C13.2999 47.3402 13.1112 48.5801 13.4347 49.2271C13.839 50.0357 14.2433 52.0573 14.2433 52.8659C14.2433 53.347 14.3864 53.9713 14.332 54.4832C14.295 54.8317 14.1665 55.1281 13.839 55.2918M11.4131 62.1652C11.4131 62.4348 11.4131 63.0547 11.4131 63.3782C11.4131 63.7825 11.4131 64.5911 11.8174 64.9955C12.2217 65.3998 12.2217 66.2084 12.626 66.2084C13.0303 66.2084 13.0303 65.8041 13.4347 65.8041C13.839 65.8041 15.0519 64.5911 16.2649 64.5911C17.4778 64.5911 20.7124 62.9739 20.3081 61.7609C19.9038 60.548 19.9038 59.7393 20.3081 58.9307C20.6315 58.2838 20.9819 57.583 21.1167 57.3134M21.1167 57.3134C21.9253 55.8309 23.5426 52.7851 23.5426 52.4616M21.1167 57.3134C21.521 57.3134 22.4914 57.3943 23.1383 57.7177C23.7852 58.0412 24.486 58.6611 24.7556 58.9307M24.7556 56.5048C24.8903 56.6396 25.1599 56.99 25.1599 57.3134C25.4833 57.3134 25.8338 56.5048 25.9685 56.1005" stroke="black" stroke-width="0.5" stroke-linecap="round"/>
<path d="M26.3728 44.7795C26.5076 46.1273 26.6963 48.9845 26.3728 49.6314C25.9685 50.44 25.9685 50.44 26.3728 50.8443C26.7772 51.2486 27.1815 54.4832 26.7772 55.6961C26.3728 56.9091 25.5642 62.1652 24.7556 62.9739C23.9469 63.7825 23.9469 65.8041 24.3513 67.017M25.1599 65.3998C24.7556 65.6693 24.1895 66.6127 25.1599 68.23C26.3728 70.2516 25.9685 70.2516 26.3728 70.6559C26.6963 70.9794 27.8553 71.8689 28.3944 72.2732C28.5292 72.0036 28.8796 71.4645 29.2031 71.4645C29.6074 71.4645 30.0117 71.8689 30.416 71.8689C30.7395 71.8689 31.3594 70.7907 31.629 70.2516C31.4942 69.5777 31.3055 68.23 31.629 68.23C31.9524 68.23 32.0333 67.9605 32.0333 67.8257M32.0333 67.8257C32.0333 67.2866 32.1142 66.2084 32.4376 66.2084M32.0333 67.8257C32.1681 68.0952 32.4376 68.796 32.4376 69.443C32.8419 69.443 32.8419 69.0386 33.2463 69.443C34.0549 69.0386 34.0549 67.8257 34.4592 67.8257C34.8635 67.8257 33.6506 62.9739 32.8419 62.1652C32.0333 61.3566 31.629 60.548 32.0333 59.7393C32.4376 58.9307 32.8419 56.5048 33.6506 56.5048C34.2975 56.5048 34.4592 55.4266 34.4592 54.8875C34.3244 53.6745 34.1358 51.2486 34.4592 51.2486M35.6722 44.7795C35.8367 46.3688 35.9862 49.7259 35.2678 50.44M26.3728 54.0789C26.2381 54.2136 26.0494 54.6449 26.3728 55.2918M28.7988 67.8257C28.5292 68.7691 28.071 70.8176 28.3944 71.4645M29.2031 67.017C29.0683 68.4995 28.9605 71.4645 29.6074 71.4645M34.4592 41.9493C34.0549 41.9493 33.2463 42.111 33.2463 42.758C33.2463 43.4049 32.7072 44.1057 32.4376 44.3752M27.9901 38.3105C27.9901 38.8495 28.071 40.1703 28.3944 41.1407C28.7988 42.3536 29.2031 44.3752 28.3944 45.5882C27.7475 46.5585 27.3163 48.4184 27.1815 49.227M35.6722 52.8659C35.9417 53.1355 36.4808 53.8363 36.4808 54.4832M35.2678 55.2918C35.4026 55.6961 35.5913 56.5856 35.2678 56.9091C34.8635 57.3134 34.0549 57.3134 34.0549 57.7177M36.8851 48.8227C36.6745 49.1387 36.3486 49.8003 36.3706 50.3832M36.8851 52.4616C36.8851 52.192 36.8043 51.4912 36.4808 50.8443C36.4101 50.703 36.3768 50.5461 36.3706 50.3832M35.6722 51.653C35.7335 51.3455 35.959 50.6611 36.3706 50.3832M37.6938 52.0573C37.8285 51.7877 38.1789 51.1678 38.5024 50.8443C38.8258 50.5209 39.1763 49.9009 39.311 49.6314M37.6938 52.8659C37.9633 52.7311 38.5833 52.3807 38.9067 52.0573C39.311 51.653 39.7153 50.44 40.1197 50.44C40.4431 50.44 41.0631 50.1705 41.3326 50.0357M41.3326 51.653C41.8717 51.3834 43.0308 50.7635 43.3542 50.44C43.7585 50.0357 44.5672 48.8227 44.9715 48.8227C45.3758 48.8227 45.3758 48.8227 45.7801 48.4184C45.9854 48.2132 46.2015 47.8885 46.3665 47.6098M46.5888 47.2055C46.5395 47.304 46.4615 47.4493 46.3665 47.6098M46.3665 47.6098C46.5753 47.8793 46.9931 48.3375 46.9931 48.0141C46.9931 47.6098 47.3974 45.5882 47.8017 45.9925C48.1252 46.316 48.4756 46.3968 48.6103 46.3968C49.1494 45.723 50.2276 44.4561 50.2276 44.7795C50.2276 45.1839 51.0363 43.1623 50.2276 42.3536C50.5511 42.3536 50.6319 42.3536 50.6319 42.3536C50.2276 41.6798 49.419 40.0895 49.419 39.1191C49.419 37.9061 49.8233 36.6932 49.419 35.8845C49.0955 35.2376 48.4756 34.5368 48.206 34.2673C47.8017 32.9195 46.5888 30.3858 44.9715 31.0327M47.8017 35.0759C48.3408 35.615 49.419 36.8549 49.419 37.5018M39.311 23.755C40.3892 24.6984 42.5456 26.6661 42.5456 26.9895C42.5456 27.3939 44.1628 27.3939 44.1628 32.2457M43.7585 32.2457C43.7585 32.65 41.7369 33.4586 41.3326 36.2889M45.3758 42.758C44.9715 43.297 44.1628 44.4561 44.1628 44.7795M39.311 39.9277C39.1763 40.1973 38.9067 40.8981 38.9067 41.545C38.9067 42.1919 38.6372 43.4318 38.5024 43.9709M38.0981 36.6932C38.5024 36.6932 39.311 35.0759 39.311 34.6716C39.311 34.3481 38.7719 34.8064 38.5024 35.0759L38.9067 34.2673C38.9318 34.1667 38.9673 34.0306 39.0125 33.863M38.5024 37.0975C38.2936 37.6297 37.933 38.4123 37.4796 39.1787M35.2678 41.545C35.3024 41.5316 35.337 41.5168 35.3715 41.5009M37.4796 39.1787C37.6858 39.9675 37.8555 41.7876 36.8851 42.758M37.4796 39.1787C36.8904 40.1749 36.1444 41.144 35.3715 41.5009M35.3715 41.5009C36.111 42.6358 37.3683 45.2039 36.4808 46.3968M36.8851 15.2643C37.2894 16.073 38.0172 17.9328 37.6938 18.9032C36.4808 18.9032 36.0765 18.4989 36.8851 20.1161C37.6938 21.7334 38.5024 21.3291 38.5024 22.1377C38.5024 22.7846 38.2328 22.6768 38.0981 22.542" stroke="black" stroke-width="0.5" stroke-linecap="round"/>
<path d="M47.8017 46.3969C47.8017 46.8012 47.8826 47.6907 48.206 48.0141C48.6103 48.4184 49.419 49.2271 49.8233 50.0357C50.2276 50.8444 51.0362 50.8444 51.4406 53.6746C51.4824 53.9675 51.4976 54.2365 51.491 54.4832M42.9499 50.8444C42.9499 51.8147 44.0281 53.6746 44.5671 54.4832C44.7384 54.7401 45.0838 55.1602 45.4788 55.4324M45.7801 52.0573C45.4444 52.8249 44.9142 54.5745 45.4788 55.4324M45.4788 55.4324C45.7055 55.5886 45.9485 55.6962 46.1844 55.6962C46.8313 55.6962 47.8017 57.0439 48.206 57.7178L49.0146 57.3134L49.419 57.1113M47.8017 52.4616C48.0052 53.783 48.3709 56.5225 48.206 56.9091M49.419 57.1113L49.8233 56.9091C50.41 56.7918 51.4461 56.1432 51.491 54.4832M49.419 57.1113C49.1494 56.7744 48.6912 56.1005 49.0146 56.1005C49.3381 56.1005 49.419 55.5614 49.419 55.2919C49.5537 55.4266 49.9041 55.6962 50.2276 55.6962C50.5511 55.6962 50.6319 55.9657 50.6319 56.1005M50.6319 52.8659C50.9564 53.1355 51.5824 53.8363 51.491 54.4832" stroke="black" stroke-width="0.5" stroke-linecap="round"/>
<path d="M21.9253 11.6255C21.8758 12.2981 21.7914 13.7246 21.851 14.0496M21.851 14.0496C21.8774 14.0508 21.9023 14.0514 21.9253 14.0514V13.2428C22.1949 13.108 22.9766 12.5959 23.9469 11.6255C25.1599 10.8169 24.3513 9.60393 23.9469 9.19961C23.5426 8.79529 22.734 8.79529 22.3297 8.79529C21.9253 8.79529 21.9253 8.39098 21.521 8.39098C21.1167 8.39098 20.3081 8.79529 19.9038 8.79529C19.4994 8.79529 18.6908 10.8169 19.0951 11.2212C19.4186 11.5447 20.0385 10.8169 20.3081 10.4126C20.3081 9.19961 21.1167 9.60393 21.521 10.0082C21.9253 10.4126 21.1167 10.8169 20.7124 11.2212C20.3081 11.6255 19.9038 11.6255 19.9038 12.0298C19.9038 12.4342 21.1167 13.2428 21.1167 13.6471C21.1167 13.943 21.5677 14.0359 21.851 14.0496Z" stroke="black" stroke-width="0.5" stroke-linecap="round"/>
<path d="M22.3296 10.8169C22.3296 10.4934 22.2797 10.5624 22.3296 10.4126C22.4003 10.2007 22.5221 10.0789 22.734 10.0082C22.8838 9.95831 23.1383 10.0082 23.1383 10.0082C23.1383 10.0082 23.472 10.2007 23.5426 10.4126C23.5925 10.5624 23.5925 10.6671 23.5426 10.8169C23.472 11.0287 23.3501 11.1506 23.1383 11.2212C22.9885 11.2711 22.734 11.2212 22.734 11.2212C22.5992 11.2212 22.3296 11.1403 22.3296 10.8169Z" fill="black"/>
<path d="M20.3303 10.6369C20.3303 10.3134 20.2803 10.3824 20.3303 10.2326C20.4009 10.0207 20.5227 9.89888 20.7346 9.82826C20.8844 9.77833 21.1389 9.82826 21.1389 9.82826C21.1389 9.82826 21.4726 10.0207 21.5432 10.2326C21.5932 10.3824 21.5932 10.4871 21.5432 10.6369C21.4726 10.8487 21.3507 10.9706 21.1389 11.0412C20.9891 11.0911 20.7346 11.0412 20.7346 11.0412C20.5998 11.0412 20.3303 10.9604 20.3303 10.6369Z" fill="black"/>
<path d="M26.3728 8.79528C26.0494 8.79528 25.9685 7.98664 25.9685 7.58232C26.1033 7.7171 26.6154 7.98664 27.5858 7.98664C28.2327 7.66319 28.3944 8.12142 28.3944 8.39096C28.664 8.25619 29.2031 7.90578 29.2031 7.58232C29.2031 7.17801 28.7988 7.17801 28.7988 6.77369C28.7988 6.36937 27.1815 5.56073 25.9685 5.56073C24.9982 5.56073 25.0251 6.90846 25.1599 7.58232V8.39096L25.9685 9.1996C26.3728 9.60392 26.7772 8.79528 26.3728 8.79528Z" fill="black"/>
<path d="M16.6692 8.3909C16.3457 8.3909 15.9953 8.12136 15.8606 7.98658C15.4562 7.98658 16.6692 7.17795 16.6692 6.77363C16.6692 6.36931 18.2865 5.15636 18.6908 5.15636C19.0142 5.15636 19.9037 6.23454 20.3081 6.77363C20.1733 6.77363 19.9037 6.85449 19.9037 7.17795C19.9037 7.58227 17.8822 8.3909 17.4778 7.98658C17.0735 7.58227 17.0735 8.3909 16.6692 8.3909Z" fill="black"/>
<path d="M15 19C15.1348 19.6739 15.3235 21.1833 15 21.8302M15.8086 19.8086L15 23.0432M16.213 21.4259C16.0782 21.8302 15.8086 22.7197 15.8086 23.0432M16.6173 22.2345C16.752 22.6389 16.9407 23.5284 16.6173 23.8518M17.4259 23.0432C17.5607 23.4475 17.7494 24.2561 17.4259 24.2561" stroke="black" stroke-width="0.5" stroke-linecap="round"/>
</svg>
