<svg width="53" height="73" viewBox="0 0 53 73" fill="none" xmlns="http://www.w3.org/2000/svg">
<path d="M19 63.5L25 67.5L24.5 64L25.5 62.5L26 59.5L25 59L24.5 58L23 57.5L21.5 57L20.5 60V62L19 63.5Z" fill="#A1A1A1"/>
<path d="M42.5 54C40.5 52.8 35.3333 58.5 33 61.5L32.5 61V60L33 58L34 56.5L34.5 56L35 53.5L39 52L40 51.5H42H43.5L44.5 53.5L45.5 55L47 56L48 57H46.5C46 56.5 44.5 55.2 42.5 54Z" fill="#A1A1A1"/>
<path d="M8.5 56.5L9.5 63.5L11.5 59L14 56.5V55.5L11.5 53L9.5 51.5L8.5 50L7.5 49V48V45.5L5 44.5L7 41.5H6L3 42.5L0.5 48L2.5 52.5L8.5 56.5Z" fill="#A1A1A1"/>
<path d="M17 4.56665L20.5 1.06665L21.5 1.56665H24L25.5 1.06665H27L29 2.06665L31 4.56665L32.5 6.06665L33.5 9.06665L34.5 12.0667L36.5 14.5667L37.5 15.5667L38.5 18.0667L37.5 20.0667L38.5 22.5667L40 24.0667L43.5 27.0667L44.5 29.5667L45 31.0667H47L48 33.0667L50 36.5667V39.0667L51 42.0667V44.0667L50 45.5667L48.5 46.5667V48.0667L50 49.5667L51.5 51.5667L52 53.0667V55.5667L50 57.0667L48.5 57.5667L48 57.0667L47.5 56.0667L45.5 55.0667L44 53.0667L43.5 50.5667L42 51.5667H40L35 53.5667L34.5 55.5667L34 57.0667L33 57.5667L32.5 59.0667V61.0667L33 62.0667L34 64.0667L35 66.5667V68.0667L34.5 68.5667L34 69.5667H32.5L31.5 70.5667L31 71.5667H29V72.0667L28 71.5667L27.5 71.0667L25.5 68.5667L24.5 66.5667V64.5667L26 62.0667V59.5667L25 58.5667L24 57.5667L22 57.0667L21.5 57.5667L20.5 58.5667V61.0667V62.5667L19.5 64.0667L16 65.0667L13 66.0667L12.5 65.0667L10.5 64.0667L10 63.0667L10.5 59.5667L14.5 55.5667L14 55.0667L11.5 52.5667L9 51.5667L8.5 49.5667L8 46.5667L7 44.0667V42.0667L6.5 38.5667L5.5 37.5667L6.5 35.5667V33.0667L7 30.5667L9 29.5667L7 27.5667L10 23.5667L11 20.0667L12 17.0667V15.0667V11.0667L14.5 6.06665L17 4.56665Z" fill="white"/>
<path d="M21.5 16.5L20.5 17.5L22 19L24 20.5L24.5 21.5L26 23H27L27.5 22V20.5L27 17L26.5 16L24.5 17L24 16.5H21.5Z" fill="#FDD2DC"/>
<path d="M14.7433 11.2212C15.0128 10.6821 15.5519 9.52303 15.5519 9.19957C15.5519 8.87612 15.5519 7.17798 15.5519 6.36935C15.6867 5.96503 16.1988 4.9138 17.1692 3.94344C18.3822 2.73048 19.9994 1.11321 20.4038 1.11321C20.8081 1.11321 22.4253 1.51753 24.0426 1.51753C24.6144 1.51753 26.8728 0.708891 27.2772 1.11321C27.6815 1.51753 32.5333 5.15639 32.5333 5.96503C32.5333 6.77366 31.3203 9.19957 31.3203 9.60389C31.3203 10.0082 31.7247 10.4125 31.7247 10.8168C31.7247 11.2212 31.7247 11.6255 31.7247 12.4341C31.7247 13.081 31.4551 13.7818 31.3203 14.0514M32.9376 6.77366C33.3419 8.39094 34.3932 11.8681 35.3635 12.8384C36.5765 14.0514 37.3851 16.4773 36.1722 19.3075C34.9592 22.1378 34.1506 22.9464 33.3419 22.9464C32.5333 22.9464 33.3419 21.7334 32.9376 20.5205C32.5333 19.3075 31.3203 17.6903 31.3203 16.8816C31.3203 16.073 32.5333 14.4557 31.7247 14.4557C31.0778 14.4557 30.916 15.2643 30.916 15.6687" stroke="black" stroke-width="0.5" stroke-linecap="round"/>
<path d="M31.7247 13.2428C31.9942 13.6471 32.5333 14.5366 32.5333 14.86C32.5333 15.1835 32.5333 16.073 32.5333 16.4773" stroke="black" stroke-width="0.5" stroke-linecap="round"/>
<path d="M15.9562 4.75204C15.8215 4.4825 15.3902 4.26686 14.7433 5.56068C14.0964 6.8545 12.8565 9.06477 12.3174 10.0082C12.1826 10.5473 11.9131 11.7063 11.9131 12.0298C11.9131 12.4341 11.1044 15.2643 11.1044 15.6686C11.1044 16.073 11.9131 16.4773 11.9131 16.8816C11.9131 17.2859 11.5087 17.6902 11.9131 17.6902C12.3174 17.6902 13.5303 16.4773 13.5303 16.8816" stroke="black" stroke-width="0.5" stroke-linecap="round"/>
<path d="M14.339 13.2428C13.5303 14.321 11.9131 16.5582 11.9131 16.8816" stroke="black" stroke-width="0.5" stroke-linecap="round"/>
<path d="M13.9347 12.0298C13.5303 12.7037 12.6408 14.3749 12.3174 15.6687" stroke="black" stroke-width="0.5" stroke-linecap="round"/>
<path d="M20.8081 7.58233C21.2124 7.31278 21.6167 6.77369 22.021 6.77369C22.8297 6.77369 22.8297 7.17801 23.234 7.17801C23.5574 7.17801 23.9078 7.17801 24.0426 7.17801" stroke="black" stroke-width="0.5" stroke-linecap="round"/>
<path d="M17.1692 5.96499C17.304 5.83022 17.5735 5.47981 17.5735 5.15636C17.5735 4.75204 17.5735 4.75204 17.9778 4.34772C18.3822 3.9434 18.3822 3.9434 18.7865 3.53908C19.1908 3.13477 19.9994 2.32613 20.4037 2.73045C20.8081 3.13477 20.8081 4.75204 20.4037 5.15636" stroke="black" stroke-width="0.5" stroke-linecap="round"/>
<path d="M17.5735 11.2212C17.1692 11.7603 16.4414 13.081 16.7649 14.0514C17.1692 15.2644 17.5735 17.2859 18.3822 17.2859C19.1908 17.2859 20.4037 15.2644 21.2124 15.2644C22.021 15.2644 22.021 15.2644 22.8297 15.6687C23.6383 16.073 24.0426 16.8816 24.4469 16.8816C24.7704 16.8816 26.7381 15.5339 27.6815 14.86C28.3553 14.4557 29.4605 14.0514 28.4901 15.6687L27.2772 17.6903" stroke="black" stroke-width="0.5" stroke-linecap="round"/>
<path d="M16.7649 13.2428C16.4953 13.5123 16.118 14.4557 16.7649 16.073C17.4118 17.6903 17.8431 19.1728 17.9778 19.7119C18.2474 20.5205 19.1908 22.2186 20.8081 22.5421C22.8296 22.9464 22.8296 22.5421 23.6383 22.5421C24.2852 22.5421 24.7165 22.2725 24.8512 22.1378" stroke="black" stroke-width="0.5" stroke-linecap="round"/>
<path d="M21.6167 15.2643C20.9698 15.2643 19.7299 16.3425 19.1908 16.8816C19.1908 17.2859 20.8081 17.2859 21.2124 16.8816C21.6167 16.4773 22.021 16.8816 24.0426 16.8816C24.0426 16.4773 22.4253 15.2643 21.6167 15.2643Z" fill="black" stroke="black" stroke-width="0.5" stroke-linecap="round"/>
<path d="M27.2772 17.6903L26.4685 16.073L26.8728 15.2644L27.6815 14.8601L28.0858 14.4557H28.8944V14.8601L27.2772 17.6903Z" fill="black" stroke="black" stroke-width="0.5"/>
<path d="M20.4038 17.2859C20.9429 17.825 22.1828 18.9841 22.8297 19.3075C23.6383 19.7118 24.4469 20.9248 24.4469 21.3291M24.4469 21.3291C24.4469 21.7334 26.0642 23.3507 26.4685 22.9464M24.4469 21.3291C24.4469 21.6526 23.0992 21.7334 22.4254 21.7334C20.1612 22.0569 18.2474 18.6336 17.5735 16.8816M26.4685 22.9464C26.8729 22.5421 27.6815 22.5421 27.6815 21.7334C27.6815 20.9248 27.6815 17.2859 26.4685 16.4773M26.4685 22.9464C27.1154 20.0353 25.9294 18.7684 25.2556 18.4989M17.9779 17.2859C18.6517 18.3641 20.6464 20.7226 21.6167 20.7226C22.5871 20.7226 23.5035 20.79 24.0426 20.9248" stroke="black" stroke-width="0.5" stroke-linecap="round"/>
<path d="M12.3174 18.4989C11.374 19.3076 9.48716 21.2483 9.48716 22.5421C10.7001 21.7335 10.7001 21.3292 10.7001 22.1378C11.0236 22.1378 11.1044 22.1378 11.1044 22.1378L11.5087 21.7335M10.7001 22.9464C10.5653 22.9464 10.2958 23.0273 10.2958 23.3508" stroke="black" stroke-width="0.5" stroke-linecap="round"/>
<path d="M10.2958 24.1594C10.0263 24.6985 9.40631 25.7766 9.08285 25.7766C8.67853 25.7766 8.27422 25.3723 7.8699 25.3723C7.54644 25.3723 8.00467 24.8332 8.27422 24.5637" stroke="black" stroke-width="0.5" stroke-linecap="round"/>
<path d="M12.7217 21.3291C13.3956 21.0596 14.905 20.197 15.5519 18.9032M13.5303 22.9464C13.9347 22.2725 14.8242 20.9248 15.1476 20.9248M16.7649 18.9032C16.8997 19.5771 17.0883 21.0865 16.7649 21.7334M17.5735 19.7118L16.7649 22.9464M17.9778 21.3291C17.8431 21.7334 17.5735 22.6229 17.5735 22.9464M18.3822 22.1377C18.5169 22.5421 18.7056 23.4316 18.3822 23.755M19.1908 22.9464C19.3256 23.3507 19.5142 24.1593 19.1908 24.1593M15.1476 22.5421C14.7433 22.8116 13.8538 23.4316 13.5303 23.755C13.126 24.1593 11.9131 26.5852 11.9131 26.9896M15.1476 23.3507C14.6085 24.1593 13.5303 25.9383 13.5303 26.5852C13.5303 27.2322 12.4522 28.2025 11.9131 28.6068M11.5087 26.9896C10.8349 27.2591 9.48716 27.9599 9.48716 28.6068C9.48716 29.4155 7.86988 29.8198 7.46557 30.2241C7.06125 30.6284 5.44397 33.0543 6.25261 34.6716M8.2742 28.2025C7.46556 27.7982 5.84829 26.8278 5.84829 26.1809C6.11783 26.3157 6.73779 26.5852 7.06124 26.5852C7.3847 26.5852 8.00465 26.8548 8.2742 26.9896M7.06124 35.0759C6.25261 35.8846 4.87793 37.5018 5.84829 37.5018M11.5087 34.2673C10.7001 35.3455 9.64888 37.8253 11.9131 39.1191C11.9131 40.0895 11.6435 41.4102 11.5087 41.9493C12.7217 40.7364 13.126 40.3321 13.126 40.7364C13.126 41.1407 12.7217 42.758 13.126 42.758C13.4495 42.758 13.7999 42.4884 13.9347 42.3537M12.7217 41.545C12.5869 42.0841 12.1557 43.324 11.5087 43.9709C10.8618 44.6178 10.4306 45.3187 10.2958 45.5882M9.08284 46.8012C9.21761 46.5316 9.56802 45.9925 9.89147 45.9925M14.7433 42.3537C14.8781 42.8927 15.0667 44.0518 14.7433 44.3752M15.5519 43.5666C15.5519 44.3753 15.6328 45.9117 15.9562 45.5882C16.3606 45.1839 16.7649 45.5882 17.1692 45.1839C17.5735 44.7796 17.5735 44.3753 17.5735 43.5666C17.5735 42.758 17.1692 42.758 17.1692 41.9493C17.1692 41.3024 17.4387 39.5234 17.5735 38.7148H17.1692M15.9562 43.1623C16.091 44.2405 16.4414 46.5586 16.7649 47.2055M18.3822 42.758C18.6517 43.0275 19.1099 44.0518 18.7865 45.9925M19.1908 43.1623C19.056 43.8362 18.8673 45.1839 19.1908 45.1839C19.5142 45.1839 20.1342 44.6448 20.4037 44.3752C20.5808 44.0212 20.8043 43.4658 20.9453 42.8716M20.8081 40.7364C21.1718 41.2819 21.1265 42.1086 20.9453 42.8716M21.6167 41.545C21.4387 41.6208 21.0551 41.9922 20.9453 42.8716M20.4037 37.5018C19.9994 38.1757 19.2717 39.6852 19.5951 40.3321M22.4253 39.1191C22.2906 39.5234 22.1019 40.4129 22.4253 40.7364M22.4253 41.545C22.5601 41.8146 22.8297 43.0006 22.8297 45.5882M24.0426 43.1623C23.6383 43.9709 22.9105 45.5882 23.234 45.5882C23.6383 45.5882 23.6383 45.1839 24.0426 45.1839C24.3661 45.1839 24.986 43.8362 25.2556 43.1623M24.8512 42.3537C25.1208 41.6798 25.4982 40.0895 24.8512 39.1191C24.0426 37.9062 24.4469 34.2673 25.2556 33.863M7.46556 37.0975C7.60034 37.0975 7.70815 37.2592 7.06125 37.9062C6.25261 38.7148 5.44397 39.5234 6.25261 39.9277M7.86988 37.5018C7.46556 37.7714 6.73779 38.7148 7.06125 40.3321C7.46556 42.3537 4.63534 44.7796 5.03965 44.7796C5.44397 44.7796 7.86988 45.5882 7.86988 45.9925C7.86988 46.3968 7.46557 47.2055 7.46557 47.6098C7.46557 48.0141 8.2742 48.0141 7.86988 48.4184C7.54643 48.7419 6.11784 50.1705 5.44398 50.8443M17.5735 26.9896C16.7649 26.8548 15.1476 26.8278 15.1476 27.7982M15.1476 27.7982C15.1476 29.0112 14.339 29.8198 15.1476 29.8198M15.1476 27.7982C15.4711 27.1513 16.6301 27.2591 17.1692 27.3939M16.3606 26.1809C15.9562 26.72 15.0667 27.8791 14.7433 28.2025C14.339 28.6068 15.1476 29.0112 13.9347 29.8198C12.9643 30.4667 12.4522 30.6284 12.3174 30.6284M19.9994 28.6068C19.4603 28.0677 18.1396 27.2322 17.1692 28.2025M13.126 33.0543C12.9912 33.1891 12.8026 33.4587 13.126 33.4587C13.5303 33.4587 13.126 33.0543 13.9347 33.0543C14.7433 33.0543 14.339 32.2457 14.7433 32.2457C15.0667 32.2457 15.4172 31.7066 15.5519 31.4371C15.6867 30.898 16.118 29.7389 16.7649 29.4155C17.4118 29.092 18.1126 29.0112 18.3822 29.0112M28.8944 25.7766C29.2665 25.5906 29.5672 24.4149 29.7812 23.1418M30.1074 18.4989C29.9726 18.9032 29.7031 19.8736 29.7031 20.5205M30.1074 20.5205C30.0501 21.2076 29.9393 22.2013 29.7812 23.1418M29.7031 26.5852C29.7552 25.6374 29.8438 23.6217 29.7812 23.1418M29.7812 23.1418C30.0247 23.8853 30.5117 25.534 30.5117 26.1809C30.5117 26.8278 30.2422 27.2591 30.1074 27.3939M30.916 18.0946C30.7813 18.4989 30.5926 19.4692 30.916 20.1162C31.3203 20.9248 31.7247 21.3291 31.7247 21.7334M31.7247 19.3075C31.8594 19.9162 32.129 21.3345 32.129 22.1377C32.129 22.941 31.5899 22.742 31.3203 22.5421C31.5899 22.8116 32.129 23.5124 32.129 24.1593C32.129 24.968 32.5333 29.4155 30.5117 28.6068M32.5333 23.3507C32.9376 24.4289 33.6654 26.747 33.3419 27.3939M30.916 25.7766C30.6465 26.9896 29.7031 29.5772 28.0858 30.2241M28.4901 29.0112C28.2206 29.4155 27.6815 30.3858 27.6815 31.0327C27.6815 31.8414 28.8944 33.863 28.4901 35.0759M29.7812 33.863C29.8899 34.2673 29.9457 35.2377 29.2988 35.8846M30.1074 30.2241C29.9726 30.7632 29.7839 31.8414 30.1074 31.8414C30.4308 31.8414 30.7813 31.5718 30.916 31.4371" stroke="black" stroke-width="0.5" stroke-linecap="round"/>
<path d="M8.27421 42.758C8.13943 42.8927 7.86989 43.2431 7.86989 43.5666C7.86989 43.9709 8.67852 45.9925 8.27421 45.9925M8.27421 48.8227C8.13943 49.2271 7.95075 50.1166 8.27421 50.44C8.59766 50.7635 8.67852 51.1139 8.67852 51.2486M9.48716 49.6314C9.62193 50.0357 9.89148 50.9252 9.89148 51.2486C9.89148 51.5721 9.89148 51.9225 9.89148 52.0573M10.2958 49.2271C10.2958 49.6314 10.3767 50.6017 10.7001 51.2486C11.1044 52.0573 10.7001 52.8659 11.1044 52.8659M11.5088 52.0573C11.7783 52.8659 12.56 54.5641 13.5303 54.8875C14.5007 55.211 14.4738 55.8309 14.339 56.1005C12.9913 57.0439 10.2958 59.335 10.2958 60.9523C10.2958 62.9739 9.89148 63.7825 10.7001 64.1868M13.9347 46.8011C13.7999 47.3402 13.6112 48.5801 13.9347 49.2271C14.339 50.0357 14.7433 52.0573 14.7433 52.8659C14.7433 53.347 14.8864 53.9713 14.832 54.4832C14.795 54.8317 14.6665 55.1281 14.339 55.2918M11.9131 62.1652C11.9131 62.4348 11.9131 63.0547 11.9131 63.3782C11.9131 63.7825 11.9131 64.5911 12.3174 64.9955C12.7217 65.3998 12.7217 66.2084 13.126 66.2084C13.5303 66.2084 13.5303 65.8041 13.9347 65.8041C14.339 65.8041 15.5519 64.5911 16.7649 64.5911C17.9778 64.5911 21.2124 62.9739 20.8081 61.7609C20.4038 60.548 20.4038 59.7393 20.8081 58.9307C21.1315 58.2838 21.4819 57.583 21.6167 57.3134M21.6167 57.3134C22.4253 55.8309 24.0426 52.7851 24.0426 52.4616M21.6167 57.3134C22.021 57.3134 22.9914 57.3943 23.6383 57.7177C24.2852 58.0412 24.986 58.6611 25.2556 58.9307M25.2556 56.5048C25.3903 56.6396 25.6599 56.99 25.6599 57.3134C25.9833 57.3134 26.3338 56.5048 26.4685 56.1005" stroke="black" stroke-width="0.5" stroke-linecap="round"/>
<path d="M26.8728 44.7795C27.0076 46.1273 27.1963 48.9845 26.8728 49.6314C26.4685 50.44 26.4685 50.44 26.8728 50.8443C27.2772 51.2486 27.6815 54.4832 27.2772 55.6961C26.8728 56.9091 26.0642 62.1652 25.2556 62.9739C24.4469 63.7825 24.4469 65.8041 24.8512 67.017M25.6599 65.3998C25.2556 65.6693 24.6895 66.6127 25.6599 68.23C26.8728 70.2516 26.4685 70.2516 26.8728 70.6559C27.1963 70.9794 28.3553 71.8689 28.8944 72.2732C29.0292 72.0036 29.3796 71.4645 29.7031 71.4645C30.1074 71.4645 30.5117 71.8689 30.916 71.8689C31.2395 71.8689 31.8594 70.7907 32.129 70.2516C31.9942 69.5777 31.8055 68.23 32.129 68.23C32.4524 68.23 32.5333 67.9605 32.5333 67.8257M32.5333 67.8257C32.5333 67.2866 32.6142 66.2084 32.9376 66.2084M32.5333 67.8257C32.6681 68.0952 32.9376 68.796 32.9376 69.443C33.3419 69.443 33.3419 69.0386 33.7463 69.443C34.5549 69.0386 34.5549 67.8257 34.9592 67.8257C35.3635 67.8257 34.1506 62.9739 33.3419 62.1652C32.5333 61.3566 32.129 60.548 32.5333 59.7393C32.9376 58.9307 33.3419 56.5048 34.1506 56.5048C34.7975 56.5048 34.9592 55.4266 34.9592 54.8875C34.8244 53.6745 34.6358 51.2486 34.9592 51.2486M36.1722 44.7795C36.3367 46.3688 36.4862 49.7259 35.7678 50.44M26.8728 54.0789C26.7381 54.2136 26.5494 54.6449 26.8728 55.2918M29.2988 67.8257C29.0292 68.7691 28.571 70.8176 28.8944 71.4645M29.7031 67.017C29.5683 68.4995 29.4605 71.4645 30.1074 71.4645M34.9592 41.9493C34.5549 41.9493 33.7463 42.111 33.7463 42.758C33.7463 43.4049 33.2072 44.1057 32.9376 44.3752M32.129 31.437C32.3985 31.5718 32.8568 32.1648 32.5333 33.4586C32.129 35.0759 31.7247 37.5018 31.7247 38.3105C31.7247 39.1191 31.7247 43.5666 32.129 43.5666M28.4901 38.3105C28.4901 38.8495 28.571 40.1703 28.8944 41.1407C29.2988 42.3536 29.7031 44.3752 28.8944 45.5882C28.2475 46.5585 27.8163 48.4184 27.6815 49.227M36.1722 52.8659C36.4417 53.1355 36.9808 53.8363 36.9808 54.4832M35.7678 55.2918C35.9026 55.6961 36.0913 56.5856 35.7678 56.9091C35.3635 57.3134 34.5549 57.3134 34.5549 57.7177M37.3851 48.8227C37.1745 49.1387 36.8486 49.8003 36.8706 50.3832M37.3851 52.4616C37.3851 52.192 37.3043 51.4912 36.9808 50.8443C36.9101 50.703 36.8768 50.5461 36.8706 50.3832M36.1722 51.653C36.2335 51.3455 36.459 50.6611 36.8706 50.3832M38.1938 52.0573C38.3285 51.7877 38.6789 51.1678 39.0024 50.8443C39.3258 50.5209 39.6763 49.9009 39.811 49.6314M38.1938 52.8659C38.4633 52.7311 39.0833 52.3807 39.4067 52.0573C39.811 51.653 40.2153 50.44 40.6197 50.44C40.9431 50.44 41.5631 50.1705 41.8326 50.0357M41.8326 51.653C42.3717 51.3834 43.5308 50.7635 43.8542 50.44C44.2585 50.0357 45.0672 48.8227 45.4715 48.8227C45.8758 48.8227 45.8758 48.8227 46.2801 48.4184C46.4854 48.2132 46.7015 47.8885 46.8664 47.6098M47.0888 47.2055C47.0395 47.304 46.9615 47.4493 46.8664 47.6098M46.8664 47.6098C47.0753 47.8793 47.4931 48.3375 47.4931 48.0141C47.4931 47.6098 47.8974 45.5882 48.3017 45.9925C48.6252 46.316 48.9756 46.3968 49.1103 46.3968C49.6494 45.723 50.7276 44.4561 50.7276 44.7795C50.7276 45.1839 51.5363 43.1623 50.7276 42.3536C51.0511 42.3536 51.1319 42.3536 51.1319 42.3536C50.7276 41.6798 49.919 40.0895 49.919 39.1191C49.919 37.9061 50.3233 36.6932 49.919 35.8845C49.5955 35.2376 48.9756 34.5368 48.706 34.2673C48.3017 32.9195 47.0888 30.3858 45.4715 31.0327M48.3017 35.0759C48.8408 35.615 49.919 36.8549 49.919 37.5018M39.811 23.755C40.8892 24.6984 43.0456 26.6661 43.0456 26.9895C43.0456 27.3939 44.6628 27.3939 44.6628 32.2457M42.6413 31.0327C42.5065 32.5152 41.9943 35.9654 41.024 37.9061M41.024 40.332C41.4377 37.719 42.5022 32.3625 43.4499 31.8414M44.2585 32.2457C44.2585 32.65 42.2369 33.4586 41.8326 36.2889M45.8758 42.758C45.4715 43.297 44.6628 44.4561 44.6628 44.7795M39.811 39.9277C39.6763 40.1973 39.4067 40.8981 39.4067 41.545C39.4067 42.1919 39.1372 43.4318 39.0024 43.9709M40.2153 26.1809C40.6197 26.72 41.2666 28.2834 40.6197 30.2241C40.0934 31.8029 39.7098 33.1319 39.5125 33.863M38.5981 36.6932C39.0024 36.6932 39.811 35.0759 39.811 34.6716C39.811 34.3481 39.2719 34.8064 39.0024 35.0759L39.4067 34.2673C39.4318 34.1667 39.4673 34.0306 39.5125 33.863M39.0024 37.0975C38.7936 37.6297 38.433 38.4123 37.9796 39.1787M35.7678 41.545C35.8024 41.5316 35.837 41.5168 35.8715 41.5009M37.9796 39.1787C38.1858 39.9675 38.3555 41.7876 37.3851 42.758M37.9796 39.1787C37.3904 40.1749 36.6444 41.144 35.8715 41.5009M35.8715 41.5009C36.611 42.6358 37.8682 45.2039 36.9808 46.3968M37.3851 15.2643C37.7894 16.073 38.5172 17.9328 38.1938 18.9032C36.9808 18.9032 36.5765 18.4989 37.3851 20.1161C38.1938 21.7334 39.0024 21.3291 39.0024 22.1377C39.0024 22.7846 38.7328 22.6768 38.5981 22.542M37.3851 18.4989C37.7894 19.1727 38.6789 21.2482 39.0024 24.1593C39.3258 27.0704 39.4773 31.8414 39.5125 33.863" stroke="black" stroke-width="0.5" stroke-linecap="round"/>
<path d="M48.3017 46.3969C48.3017 46.8012 48.3826 47.6907 48.706 48.0141C49.1103 48.4184 49.919 49.2271 50.3233 50.0357C50.7276 50.8444 51.5362 50.8444 51.9406 53.6746C51.9824 53.9675 51.9976 54.2365 51.991 54.4832M43.4499 50.8444C43.4499 51.8147 44.5281 53.6746 45.0671 54.4832C45.2384 54.7401 45.5838 55.1602 45.9788 55.4324M46.2801 52.0573C45.9444 52.8249 45.4142 54.5745 45.9788 55.4324M45.9788 55.4324C46.2055 55.5886 46.4485 55.6962 46.6844 55.6962C47.3313 55.6962 48.3017 57.0439 48.706 57.7178L49.5146 57.3134L49.919 57.1113M48.3017 52.4616C48.5052 53.783 48.8709 56.5225 48.706 56.9091M49.919 57.1113L50.3233 56.9091C50.91 56.7918 51.9461 56.1432 51.991 54.4832M49.919 57.1113C49.6494 56.7744 49.1912 56.1005 49.5146 56.1005C49.8381 56.1005 49.919 55.5614 49.919 55.2919C50.0537 55.4266 50.4041 55.6962 50.7276 55.6962C51.0511 55.6962 51.1319 55.9657 51.1319 56.1005M51.1319 52.8659C51.4564 53.1355 52.0824 53.8363 51.991 54.4832" stroke="black" stroke-width="0.5" stroke-linecap="round"/>
<path d="M22.4254 11.6255C22.3758 12.2981 22.2914 13.7246 22.351 14.0496M22.351 14.0496C22.3774 14.0508 22.4023 14.0514 22.4254 14.0514V13.2428C22.6949 13.108 23.4766 12.5959 24.4469 11.6255C25.6599 10.8169 24.8513 9.60393 24.4469 9.19961C24.0426 8.79529 23.234 8.79529 22.8297 8.79529C22.4254 8.79529 22.4254 8.39098 22.021 8.39098C21.6167 8.39098 20.8081 8.79529 20.4038 8.79529C19.9994 8.79529 19.1908 10.8169 19.5951 11.2212C19.9186 11.5447 20.5385 10.8169 20.8081 10.4126C20.8081 9.19961 21.6167 9.60393 22.021 10.0082C22.4254 10.4126 21.6167 10.8169 21.2124 11.2212C20.8081 11.6255 20.4038 11.6255 20.4038 12.0298C20.4038 12.4342 21.6167 13.2428 21.6167 13.6471C21.6167 13.943 22.0677 14.0359 22.351 14.0496Z" stroke="black" stroke-width="0.5" stroke-linecap="round"/>
<path d="M22.8296 10.8169C22.8296 10.4934 22.7797 10.5624 22.8296 10.4126C22.9003 10.2007 23.0221 10.0789 23.234 10.0082C23.3838 9.95831 23.6383 10.0082 23.6383 10.0082C23.6383 10.0082 23.972 10.2007 24.0426 10.4126C24.0925 10.5624 24.0925 10.6671 24.0426 10.8169C23.972 11.0287 23.8501 11.1506 23.6383 11.2212C23.4885 11.2711 23.234 11.2212 23.234 11.2212C23.0992 11.2212 22.8296 11.1403 22.8296 10.8169Z" fill="black"/>
<path d="M20.8303 10.6369C20.8303 10.3134 20.7803 10.3824 20.8303 10.2326C20.9009 10.0207 21.0227 9.89888 21.2346 9.82826C21.3844 9.77833 21.6389 9.82826 21.6389 9.82826C21.6389 9.82826 21.9726 10.0207 22.0432 10.2326C22.0931 10.3824 22.0931 10.4871 22.0432 10.6369C21.9726 10.8487 21.8507 10.9706 21.6389 11.0412C21.4891 11.0911 21.2346 11.0412 21.2346 11.0412C21.0998 11.0412 20.8303 10.9604 20.8303 10.6369Z" fill="black"/>
<path d="M26.8728 8.79528C26.5494 8.79528 26.4685 7.98664 26.4685 7.58232C26.6033 7.7171 27.1154 7.98664 28.0858 7.98664C28.7327 7.66319 28.8944 8.12142 28.8944 8.39096C29.164 8.25619 29.7031 7.90578 29.7031 7.58232C29.7031 7.17801 29.2988 7.17801 29.2988 6.77369C29.2988 6.36937 27.6815 5.56073 26.4685 5.56073C25.4982 5.56073 25.5251 6.90846 25.6599 7.58232V8.39096L26.4685 9.1996C26.8728 9.60392 27.2772 8.79528 26.8728 8.79528Z" fill="black"/>
<path d="M17.1692 8.3909C16.8457 8.3909 16.4953 8.12136 16.3606 7.98658C15.9562 7.98658 17.1692 7.17795 17.1692 6.77363C17.1692 6.36931 18.7865 5.15636 19.1908 5.15636C19.5142 5.15636 20.4037 6.23454 20.8081 6.77363C20.6733 6.77363 20.4037 6.85449 20.4037 7.17795C20.4037 7.58227 18.3822 8.3909 17.9778 7.98658C17.5735 7.58227 17.5735 8.3909 17.1692 8.3909Z" fill="black"/>
</svg>
