<svg width="153" height="76" viewBox="0 0 153 76" fill="none" xmlns="http://www.w3.org/2000/svg">
<path d="M72.5 57.6264L68.5 58.1264L61.5 57.6264L59.5 58.1264L58.5 58.6264L45.5 58.1264L37.5915 74.932C37.5654 75.0829 37.5 75.1264 37.5 75.1264L37.5915 74.932C37.6905 74.3603 37.2256 72.2477 30.5 65.1264C27.26 61.6959 25.4769 65.6033 23.5 63.6264C18.5 58.6264 15.0904 60.644 9.5 55.6264C6.61558 53.0376 0 47.1264 0 47.1264L1 39.6264L7.5 33.1264L14 30.1264L45.5 33.1264L72.5 47.1264V57.6264Z" fill="#A1A1A1"/>
<path fill-rule="evenodd" clip-rule="evenodd" d="M74 56.6264L71.5 57.1264L67 56.6264H65V55.1264L59.5 54.1264V56.1264L58.5 58.6264L57 59.1264H56L53.5 58.1264L50.5 58.6264L48.5 58.1264L47.5 57.1264L47 58.6264L46 59.1264V59.6264L45.5 60.6264V61.6264H47L49 63.6264V64.1264L47.5 65.1264L48.5 66.1264L46.5 66.6264L44 65.6264L43 65.1264H40L40.5 67.6264L39.5 75.1264L38.5 74.6264L33 65.1264L31.5 62.1264H24.5L24 56.6264L15.5 51.1264L11.5 48.6264L10.5 45.1264L9.5 38.1264L10.5 33.6264L14 29.1264L23.5 24.1264L34 21.6264H38H41.5L47.5 21.1264L57.5 23.6264L65 30.6264L65.5 32.6264L65 34.6264L69 37.6264L70.5 40.1264V41.6264L71.5 43.1264H72L77 51.6264V53.6264L76.5 54.1264L74 53.1264L75.5 56.1264L75 57.1264L74 56.6264ZM35 48.1264L34 49.6264V50.6264L33.5 52.1264L35 52.6264H40L42 52.1264H44.5L46 52.6264L45.5 53.6264H47.5L48.5 54.6264L49.5 52.6264V51.1264L49 50.6264L48.5 50.1264H48L47 51.1264H46V50.1264H44.5L43.5 49.6264H42.5L42 48.6264L41.5 47.1264V46.1264H40.5L37.5 47.6264L36 48.6264L35 48.1264Z" fill="white"/>
<path d="M65.5 40.6264C64 38.6264 66.2 32.7264 65 31.1264C63.5 29.1264 62 27.1264 60 25.6264C58 24.1264 58.5 24.1264 57.5 23.6264C57.0528 23.4028 54.5 22.6264 51 21.6264C48.2 20.8264 46.5 20.9598 46 21.1264C45 21.2931 42.8 21.6264 42 21.6264C41 21.6264 39.5 21.1264 37.5 21.6264C35.5 22.1264 34.5 21.6264 34 21.6264C33.5 21.6264 28 23.1264 24.5 23.6264C21 24.1264 14 29.6264 13.5 29.6264C13 29.6264 12.5 31.6264 11 33.1264C9.8 34.3264 9.5 36.6264 9.5 37.6264C9.5 39.2931 9.7 42.9264 10.5 44.1264M65.5 34.6264C65.5 34.6264 68.5 37.1264 69.5 38.1264C70.5 39.1264 70.5 40.3264 70.5 41.1264C70.5 41.9264 70.5 42.1264 70.5 42.1264C70.8333 42.2931 71.5 42.7264 71.5 43.1264C71.6667 43.1264 72 43.0264 72 42.6264C72.3333 43.7931 73.2 46.2264 74 46.6264C75 47.1264 77 52.1264 77 52.6264C77 53.0264 77.3333 53.7931 77.5 54.1264C77.3333 53.9598 76.9 53.7264 76.5 54.1264C76.1 54.1264 74.6667 52.7931 74 52.1264L73.5 52.6264M70.5 50.6264C69.8333 48.7931 68.3 45.1264 67.5 45.1264M10.5 44.6264C10.3333 45.7931 10.8 48.5264 14 50.1264C18 52.1264 19 53.6264 19 54.1264M19.5 53.6264C19.8333 54.1264 20.6 55.0264 21 54.6264C21.4 54.2264 21.5 54.4598 21.5 54.6264M22 55.1264C22.6667 55.6264 24 56.8264 24 57.6264M23.5 48.1264C24.1667 48.4598 25.5 49.3264 25.5 50.1264M26 48.6264C25.6667 50.4598 24.9 54.2264 24.5 54.6264C24 55.1264 24 59.1264 24 59.6264C24 60.0264 25 60.4598 25.5 60.6264M24.5 60.1264C24.1667 60.9598 24.2 62.6264 27 62.6264C28.1667 62.4598 30.7 62.3264 31.5 63.1264M42 65.6264C42.1667 65.1264 42.9 64.5264 44.5 66.1264M45 65.6264C45.3333 65.9598 46.1 66.6264 46.5 66.6264M48 66.1264C48.5 66.4598 49.2 66.8264 48 65.6264C46.8 64.4264 48.5 64.1264 49.5 64.1264C48.8333 62.9598 47.2 60.8264 46 61.6264C45.5 61.1264 44.9 60.1264 46.5 60.1264H48C45.5 59.6264 44.2 57.3264 41 58.1264C39.5 57.9598 36.4 58.6264 36 58.6264" stroke="black" stroke-width="0.5" stroke-linecap="round" stroke-linejoin="round"/>
<path d="M36.5 59.1264C35.7 57.5264 33.1667 55.7931 32 55.1264L31.5 62.1264C32.8333 64.4598 36.2624 69.4137 37 71.6264C38 74.6264 39.5 76.6264 39.5 73.1264C40 69.6264 40.5 68.4264 40.5 67.6264C40.5 66.6264 39.5 63.6264 39 63.1264C38.5 62.6264 37.5 61.1264 36.5 59.1264Z" stroke="black" stroke-width="0.5" stroke-linecap="round"/>
<path d="M60.5 34.6264C61 34.4598 62.1 34.5264 62.5 36.1264C63 38.1264 65 41.1264 65.5 41.1264C65.9 41.1264 67 43.7931 67.5 45.1264" stroke="black" stroke-width="0.5" stroke-linecap="round"/>
<path d="M63 43.6264C62.8333 44.2931 62.4 45.7264 62 46.1264C62.8 45.7264 63 45.9598 63 46.1264L63.5 46.6264" stroke="black" stroke-width="0.5" stroke-linecap="round" stroke-linejoin="round"/>
<path d="M52 39.1264C50.5 39.9598 47.4 42.9264 47 48.1264" stroke="black" stroke-width="0.5" stroke-linecap="round"/>
<path d="M49 42.1264C49.1667 42.9598 49.4 44.7264 49 45.1264C48.6 45.5264 48.1667 47.6264 48 48.6264" stroke="black" stroke-width="0.5" stroke-linecap="round"/>
<path d="M50.5 41.6265C51 40.9598 52.2 39.7265 53 40.1265C54 40.6265 54 40.6264 54 41.1264C54 41.5264 54.3333 42.9598 54.5 43.6264M57.5 46.1264C57.5 45.7931 57.6 45.0264 58 44.6264C57.2 45.0264 57 45.1264 57 45.1264C57.6667 44.1264 59.3 42.2264 60.5 42.6264C61.7 43.0264 61.6667 44.7931 61.5 45.6264" stroke="black" stroke-width="0.5" stroke-linecap="round" stroke-linejoin="round"/>
<path d="M63.5 47.1264C63.3333 47.9598 63.2 49.5264 64 49.1264C64.5 49.6264 64 51.1264 64 51.6264C64.4 52.0264 64.5 52.7931 64.5 53.1264C65.5 52.6264 66 52.1264 67 53.6264C67.8 54.8264 68 54.7931 68 54.6264C68.8333 52.6264 69.9 48.1264 67.5 46.1264L67 48.6264" stroke="black" stroke-width="0.5" stroke-linecap="round" stroke-linejoin="round"/>
<path d="M57.5 32.1264C57.5 32.6264 57.6 33.5264 58 33.1264C58.5 32.6264 60 31.6264 60 32.1264C60 32.5264 60.3333 32.9598 60.5 33.1264M61.5 33.1264C61.6667 33.4598 62 34.2264 62 34.6264M63 35.6264L64 37.1264M57.5 36.1264C57.1667 35.9598 56.5 35.5264 56.5 35.1264C56.5 34.6264 56 33.6264 55 35.1264M54 35.6264C54 35.1264 53.7 34.3264 52.5 35.1264C51.3 35.9264 50.6667 36.1264 50.5 36.1264C49.5 35.7931 47.1 36.1264 45.5 40.1264L44 42.6264C44.5 42.6264 45.5 42.1264 45.5 42.6264C45.5 43.1264 44 45.1264 44.5 46.1264C44.808 46.7425 44.9263 47.1687 45.2055 47.2884M46 47.1264C45.616 47.3184 45.3795 47.363 45.2055 47.2884M45.2055 47.2884C45.637 47.7344 46.4 48.9264 46 50.1264C45.5 51.6264 46.5 51.6264 47 51.1264C47.5 50.6264 48.6165 47.9503 49.3083 47.2884" stroke="black" stroke-width="0.5" stroke-linecap="round"/>
<path d="M60 48C59.6 48 58.5 47 58 46.5C57.6 48.5 58.5 53.6667 59 56L59.5 54.5L60 52V49.5H61V46C60.8333 46.6667 60.4 48 60 48Z" fill="#EBEBEB"/>
<path d="M49 46.1264C49 46.2931 49.1 46.7264 49.5 47.1264C50 47.6264 50 47.1264 50 47.6264C50 48.1264 48.5 50.6264 49.5 51.6264C49.5 53.1264 46.5 57.1264 48.5 58.1264C50.1 58.9264 50.8333 58.4598 51 58.1264" stroke="black" stroke-width="0.5" stroke-linecap="round"/>
<path d="M55 58.1264C55.3333 58.6264 56.2 59.5264 57 59.1264C57.8 58.7264 58.6507 58.1743 59 57.1264C60 54.1264 59.7 49.6264 60.5 49.6264C61.3 49.6264 61.8333 49.2931 62 49.1264" stroke="black" stroke-width="0.5" stroke-linecap="round"/>
<path d="M48.5 57C50 56.3333 53.1 54.7 53.5 53.5C53.6667 51.6667 54 47.9 54 47.5C54 47.1 53.3333 46.3333 53 46L51.5 45L50 43.5L49.5 44L48.5 46L49 47L49.5 47.5H50L49.5 50V51V52L48.5 54L48 56.5V57.5L48.5 57Z" fill="black" fill-opacity="0.08"/>
<path d="M59.5 54.1264C61.3333 54.2931 65 54.8264 65 55.6264C65 56.6264 65 56.6264 65.5 56.6264C66 56.6264 66.5 56.6264 67.5 56.6264C68.5 56.6264 71.5 56.6264 71.5 57.1264C71.5 57.6264 74.5 56.6264 74.5 57.1264C74.5 57.3406 74.8668 57.1879 75.2469 56.9433M69 49.6264L70.5 50.6264C72.1 50.2264 74.1667 52.7931 75 54.1264C75.1667 54.7931 75.6 56.1264 76 56.1264C76.2859 56.1264 75.7545 56.6168 75.2469 56.9433M73.5 55.1264C74.1646 55.5044 75.4445 56.3969 75.2469 56.9433M70 54.6264C70.5 54.6264 71.7 55.1264 72.5 57.1264" stroke="black" stroke-width="0.5" stroke-linecap="round"/>
<path d="M32 54.6264C32.3333 53.4598 33.3 51.0264 34.5 50.6264M34.5 41.1264C35.1667 43.1264 36 47.6264 34 49.6264M26 59.1264C26 59.4598 26.2 60.1264 27 60.1264M31.5 58.1264C31.3333 58.1264 31 57.8264 31 56.6264" stroke="black" stroke-width="0.5" stroke-linecap="round"/>
<path d="M21 39.1264C20.6667 39.9598 19.9 41.6264 19.5 41.6264M21.5 40.1264C21.1667 40.7931 20.6 42.3264 21 43.1264M22 42.6264C22 43.1264 21.9 44.1264 21.5 44.1264C21 44.1264 23 43.6264 23 44.1264" stroke="black" stroke-width="0.5" stroke-linecap="round"/>
<path d="M24.5 45.1264V44.6264" stroke="black" stroke-width="0.5" stroke-linecap="round"/>
<path d="M18.5 36.1264C17.5 35.9598 15.6 36.2264 16 38.6264C16.4 41.0264 16.1667 41.6264 16 41.6264C16 41.7931 16.1 42.1264 16.5 42.1264C16.9 42.1264 17 41.7931 17 41.6264C16.8333 42.4598 16.7 44.1264 17.5 44.1264C18.5 44.6264 18.5 46.6264 19 46.1264C19.4 45.7264 19.8333 45.2931 20 45.1264M13 34.1264C12.8333 33.9598 12.6 33.5264 13 33.1264C11.5 35.6264 12 33.6264 11.5 36.1264M13 42.1264C12.6667 42.1264 12.1 41.5264 12.5 39.1264M19 44.1264C19.1667 44.7931 19.6 46.1264 20 46.1264C20.4751 46.1264 20.9502 46.1264 20.9963 46.5554M21 46.6264C21 46.6015 20.9988 46.5779 20.9963 46.5554M21.5 46.1264L20.9963 46.5554M22 47.6264C21.8333 47.2458 21.7 46.4986 22.5 46.5554M22.5 47.1264C22.5 47.4598 22.7 48.0264 23.5 47.6264C24.3 47.2264 24.8333 47.4598 25 47.6264M21.5 34.1264C21.5 33.6264 21.7 32.6264 22.5 32.6264C23.3 32.6264 23.5 32.6264 23.5 32.6264M27.5 30.1264C27.3333 30.4598 27.2 31.3264 28 32.1264M30 34.1264C29.8333 34.4598 29.4 34.7264 29 33.1264M31 31.6264C30.6667 31.9598 30.1 32.7264 30.5 33.1264C30.9 33.5264 30.3333 33.2931 30 33.1264C30.8333 33.2931 32.5 33.8264 32.5 34.6264C32.5 35.6264 32 36.1264 32.5 36.1264M31 34.1264C32.1667 34.7931 34.6 36.7264 35 39.1264C35.3333 39.6264 36 40.7264 36 41.1264C36 41.5264 36.3333 41.6264 36.5 41.6264M32 27.6264C31.6667 27.9598 30.9 28.6264 30.5 28.6264M36.5 24.6264C35.6667 24.6264 33.7 24.8264 32.5 25.6264C31 26.6264 31.5 26.6264 32 26.6264M40.5 31.6264C41.1667 30.4598 42.6 28.2264 43 28.6264M41 32.6264C41.5 32.4598 42.2 32.4264 41 33.6264C40.2 34.8264 41 34.4598 41.5 34.1264M44 33.1264C44.6667 32.6264 45.7 31.7264 44.5 32.1264M42 35.1264C41.5 35.7931 40.5 37.2264 40.5 37.6264M43 36.1264C42.6667 36.4598 42 37.3264 42 38.1264M45.5 31.1264C45.3333 31.9598 45 33.8264 45 34.6264C45 35.6264 45 36.6264 44.5 36.6264M43 37.6264C43.1667 38.6264 43.4 40.8264 43 41.6264M40 41.6264V42.1264M53 30.1264C52.3333 29.9598 51 29.8264 51 30.6264M51.5 31.6264V32.1264" stroke="black" stroke-width="0.5" stroke-linecap="round" stroke-linejoin="round"/>
<path d="M33.5 52.1264C33.6667 52.2931 34.2 52.6264 35 52.6264C35.8 52.6264 36.6667 52.6264 37 52.6264C38 52.6264 40.1 52.6264 40.5 52.6264C41 52.6264 42 52.1264 42.5 52.1264C43 52.1264 45 52.6264 45.5 52.6264C46 52.6264 46 53.1264 45.5 53.6264C45 54.1264 46 53.6264 46.5 53.6264C47 53.6264 48 54.1264 48 54.6264M44.5 58.6264C45.3333 58.7931 47 59.0264 47 58.6264C47 58.1264 47 57.1264 47.5 57.1264" stroke="black" stroke-width="0.5" stroke-linecap="round" stroke-linejoin="round"/>
<path d="M35 48.1264C35.1667 48.2931 35.6 48.6264 36 48.6264C36.5 48.6264 40 46.1264 40.5 46.1264C40.9 46.1264 41.1667 46.4598 41.5 46.6264M39.5 44.1264V44.6264" stroke="black" stroke-width="0.5" stroke-linecap="round" stroke-linejoin="round"/>
<path d="M44.5 37.6264C44.1667 39.2931 43.3 42.9264 42.5 44.1264C41.5 45.6264 41 48.1264 42 48.6264C42.8 49.0264 42.6667 49.1264 42.5 49.1264C42.3333 49.4598 42.4 50.0264 44 49.6264C45 50.6264 45 50.1264 45.5 50.1264M47.75 50.1264C48.25 50.1264 49 50.2264 49 50.6264" stroke="black" stroke-width="0.5" stroke-linecap="round" stroke-linejoin="round"/>
<path d="M41.5 56.6264C41.5 56.2264 41.1667 55.4598 41 55.1264C41.8 54.3264 42.5833 55.1264 42.75 55.6264C42.9167 56.1264 42.5 56.1264 43 56.6264C43.4 56.2264 44.0833 56.5431 44.25 56.8764C44.4167 57.2098 44.0976 57.2788 44 57.3764C43.8047 57.5717 43.5 57.6264 43.5 57.6264L43 58.1264C42.8333 58.2931 41.9 58.1264 41.5 58.1264C41 58.1264 41.5 57.1264 41.5 56.6264Z" fill="black"/>
<path d="M44 53.1264C43.6 52.7264 42.8333 53.9598 42.5 54.6264C43 55.1264 44 54.6264 44 54.1264C44 53.6264 44.5 53.6264 44 53.1264Z" fill="black"/>
<path d="M46.795 63.1619C46.5852 62.4479 44.9226 63.389 44.1176 63.9488C44.3799 64.8413 45.5488 64.5473 46.1648 64.3167C47.1065 63.9642 47.0573 64.0544 46.795 63.1619Z" fill="black"/>
<path d="M42.592 63.4071C42.2149 62.6715 40.5 63.6264 39.8336 64.8215C40.3051 65.741 41.5197 65.1776 42.144 64.7981C43.0985 64.2179 43.0635 64.3266 42.592 63.4071Z" fill="black"/>
<path d="M46.902 54.7223C46.6213 54.1674 45.3977 55.1927 44.821 55.7747C45.1718 56.4684 46.3877 56.289 46.5591 55.7668C46.7305 55.2445 47.2528 55.416 46.902 54.7223Z" fill="black"/>
<path d="M45.5 57.6264C45.1 58.0264 45 57.4598 45 57.1264C45.4 57.1264 45.1667 56.7931 45 56.6264C45 56.1264 45.5 56.1264 46 56.1264C46.4 56.1264 46.5 56.4598 46.5 56.6264H46C45.5 56.6264 46 57.1264 45.5 57.6264Z" fill="black"/>
<path fill-rule="evenodd" clip-rule="evenodd" d="M58 46.1265C58.6667 45.4598 60.1 44.2265 60.5 44.6265C60.75 44.8765 60.75 45.0014 60.75 45.1264C60.75 45.2514 60.75 45.3764 61 45.6264C61.5 46.1264 60.5 48.6264 59 47.6264C58.2 46.8264 58 46.2931 58 46.1265ZM60 45.1264C60.1667 45.7931 60.3 47.1264 59.5 47.1264C60 47.1264 61.5 47.1264 60 45.1264Z" fill="black"/>
<path fill-rule="evenodd" clip-rule="evenodd" d="M50 43.6264C51 42.7931 53.1 41.4264 53.5 42.6264C53.6667 43.1264 53.8333 43.4598 53.963 43.719C54.2222 44.2375 54.3333 44.4598 54 45.1264C53.5 46.1264 52.5 45.6264 52 45.1264C51.8672 44.9937 51.7344 44.7903 51.5923 44.5727C51.1992 43.9708 50.7344 43.2592 50 43.6264ZM52.75 44.3764C53.75 43.8764 53.75 45.3764 53.25 45.3764C53.25 45.0431 53.15 44.4764 52.75 44.8764C52.25 45.3764 51.25 43.8764 51.75 43.3764C52.15 42.9764 52.25 43.2098 52.25 43.3764C52.0833 43.8764 51.95 44.7764 52.75 44.3764Z" fill="black"/>
<path d="M50.5 57.1264C50.5 56.7264 51.8333 55.9598 52.5 56.1264C52.5 56.9264 53.8333 57.7931 54.5 57.6264H55.5C55.9 57.6264 55.3333 58.6264 55 59.1264H54C53.5 59.1264 53 59.6264 52.5 59.6264C52.1 59.6264 52 58.9598 52 58.6264C52 58.7931 51.9 59.1264 51.5 59.1264C51 59.1264 50.5 57.6264 50.5 57.1264Z" fill="black"/>
<path d="M54.5 54.6264C54.3333 55.2931 54.2 56.6264 55 56.6264C55.8 56.6264 56.3333 57.2931 56.5 57.6264" stroke="black" stroke-width="0.5" stroke-linecap="round" stroke-linejoin="round"/>
<rect x="151" y="48" width="2" height="4" fill="#EB5757"/>
<rect x="32" width="2" height="4" fill="#EB5757"/>
</svg>
