<svg width="52" height="67" viewBox="0 0 52 67" fill="none" xmlns="http://www.w3.org/2000/svg">
<path d="M24.5 12.5L22.5 15L24.5 18V19L23 24L21.5 26.5L18.5 30.5L15 41.5L14.5 44L15.5 48L18 50.5L20.5 51.5L21.5 52.5L24 53L25 54.5L26.5 58L29.5 60.1821H31.5L34 57L34.5 55L33 51.5H34.5L37 50L39.5 49L40 50.5L41 50V52L40.5 55L40 58V60.1821L43 63.5L44.5 64L47 65.5L48 64L48.5 62L49 60.1821L48.5 58.5L46 51L45.5 48L46 41L47 40L47.5 42L49 40.5L48.5 39L49 29.5L48 25.5L47 22.5L46 19.5L48.5 17L50 14L50.5 11.5L50 10L49 8.5L47 6L45.5 4.5L42 2.5L39.5 1L36.5 2L33 1L31 3L25.5 6.5L25 8.5L24.5 12.5Z" fill="white"/>
<path d="M40.7928 61.7167L43.4002 63.5792L40.7928 66.0004L33.9017 60.5992V56.5018L33.7154 54.8256L33.5292 52.0319L33.9017 51.6594L36.3229 51.1007L40.2341 56.8743L39.6753 58.3643L40.2341 59.1093L40.7928 61.7167Z" fill="black" fill-opacity="0.3"/>
<path d="M13.2283 55.5706C15.3143 58.4015 24.2789 59.4817 28.5005 59.668L24.9617 55.5706V53.1494L23.8442 54.0806L22.7267 53.1494H21.7955L20.4918 51.6594L17.5118 49.6107L15.0906 45.6995V44.0233V42.1608V39.7396C13.1661 39.0567 8.86999 37.6909 7.08202 37.6909C4.84706 37.6909 1.49481 41.2296 0.936068 44.0233C0.377329 46.817 10.6209 52.0319 13.2283 55.5706Z" fill="black" fill-opacity="0.3"/>
<path d="M22.9516 28.5661C22.9638 28.5706 22.9766 28.5748 22.9902 28.5789C22.9776 28.5744 22.9648 28.5702 22.9516 28.5661Z" fill="#333333"/>
<path d="M41.0448 49.7292C41.0527 49.7314 41.0603 49.7333 41.0676 49.7347C41.0605 49.7319 41.0529 49.7301 41.0448 49.7292Z" fill="#333333"/>
<path d="M31.6526 17.0491C31.6822 17.5244 31.7221 18.0608 31.7224 18.5876C31.6235 18.0653 31.6269 17.4205 31.6526 17.0491Z" fill="#333333"/>
<path d="M50.5471 13.3124C51.6494 12.4093 49.6433 8.0042 48.1442 7.60773C46.6451 7.21127 47.1301 4.81046 45.2342 4.30387C43.788 4.21576 40.8251 2.06458 39.5244 1C38.7969 1.49235 37.7984 1.97 36.6365 1.97C34.9169 1.97 34.7405 1 33.2415 1C31.7424 1 29.5378 4.30387 28.7221 4.30387C27.9064 4.30387 25.7239 6.46728 25.3271 6.46728C24.9303 6.46728 24.7319 10.0827 24.7319 10.9866C24.7319 11.8905 23.321 13.9848 22.8139 14.6902C22.3069 15.3957 23.4312 17.2916 24.7319 18.3939C26.0326 19.4962 26.0735 20.5851 27.223 21.1937C28.7221 21.9873 28.7221 21.6787 30.5298 21.1937C31.9562 20.811 31.7493 18.6027 31.6526 17.0491M49.8417 13.3124C49.5771 14.411 48.8673 16.7449 48.1442 17.2916C47.3406 17.8992 46.4498 18.838 45.5649 19.5345M43.4485 6.46728C44.661 6.8641 44.4405 9.26706 44.4405 10.0827C44.4405 10.8984 44.0437 12.0889 43.4485 12.7723C42.8533 13.4557 42.743 15.6823 42.236 16.7846C41.7289 17.8868 44.2421 20.4882 45.2342 19.7828C45.3442 19.7045 45.4545 19.6214 45.5649 19.5345M28.7221 7.60773C29.2218 9.14921 29.1841 12.4877 29.431 12.9198C29.7396 13.4599 31.7423 14.6902 31.6321 15.9909C31.6089 16.2653 31.6268 16.6338 31.6526 17.0491M45.5649 19.5345C45.8882 19.6687 46.5613 20.0164 46.6672 20.3339C46.7994 20.7307 47.4388 23.4423 47.571 24.1037C47.7033 24.765 47.593 25.8673 48.1442 26.0657M48.4969 28.3364C48.9305 28.9169 49.5375 30.6909 48.4969 33.1423C49.1363 35.1705 48.1442 35.6178 48.1442 36.8019C48.1442 38.1026 49.4449 39.8662 48.4969 40.9685M46.6672 40.5717C46.9685 40.7407 47.571 41.1845 47.571 41.6078C47.571 42.0311 47.3212 42.4308 47.1963 42.5778M46.6672 37.3089C46.2997 38.9403 45.5649 42.3838 45.5649 43.1069C45.5649 44.0108 45.609 48.9489 46.1381 49.6764C46.6672 50.4039 46.1381 51.881 46.6672 52.5424C47.1963 53.2037 48.056 57.2381 48.4969 58.0758C48.9379 58.9135 49.9079 60.0819 49.2024 60.4787C48.4969 60.8756 49.5772 63.521 47.571 64.1824C47.2712 64.7644 46.8435 65.5125 46.6672 65.8137C46.1822 65.123 45.0358 63.7018 44.3303 63.5431C43.6249 63.7547 43.4485 64.0575 43.4485 64.1824C43.3741 63.9266 43.1536 63.4664 42.7514 63.0557C42.5181 62.8176 42.2237 62.5961 41.8612 62.4408C40.6267 61.9117 40.296 61.4708 40.3622 59.7733C40.4283 58.0758 39.4362 58.7371 39.8992 58.0758C40.3621 57.4144 40.9353 53.336 41.0676 51.5062C41.1113 50.9011 41.1599 50.2525 41.2364 49.6324M42.236 46.8105C41.8399 47.1051 41.5888 47.7365 41.4203 48.5108M43.9335 44.6721C43.7425 45.0028 43.0605 45.7788 41.8612 46.2373M43.0297 37.3089C43.4191 38.7492 43.9644 42.0046 43.0297 43.5037C42.0949 45.0028 41.3321 45.9508 41.0676 46.2373C41.4644 46.2373 41.6187 46.6562 41.4203 46.8105C41.2219 46.9649 40.759 47.1853 40.4283 47.3396M24.7319 19.0993C24.3424 19.8268 23.5194 21.4009 23.343 21.8771C23.1226 22.4723 22.9021 23.8612 22.7037 24.28C22.545 24.6151 23.2255 24.1257 23.5855 23.8391C23.4239 24.0302 23.149 24.4784 23.343 24.743M23.343 25.9114C22.8727 26.6242 22.1746 27.9396 23.1446 27.4987C23.3033 27.6927 23.4018 27.7706 23.4311 27.7853C23.0637 27.9837 22.4611 28.4202 22.9902 28.5789C22.5346 28.4172 21.7204 28.5172 22.1084 30.2103C22.5934 32.3266 22.8799 32.9439 22.7918 33.3628C23.343 33.0762 23.828 32.3928 23.5855 34.1123C23.343 35.8319 24.6877 32.7455 24.5995 32.503C24.529 32.309 24.4526 32.1576 24.4232 32.1062M25.3796 37.1546C25.4824 37.1546 25.6573 37.3266 25.5339 38.0144C25.3796 38.8742 25.0048 40.3732 25.0709 40.6157C25.5339 40.2851 25.5559 39.7339 25.8646 39.8221C26.1732 39.9103 26.3055 40.0867 26.4598 40.1748M27.7164 40.7039C27.7311 41.1007 27.809 41.9561 28.003 42.203C28.2455 42.5117 28.3998 42.5998 28.6864 42.2912C28.973 41.9826 29.2155 41.718 29.458 41.7401M30.6484 42.5778C30.7219 42.7248 30.9615 42.9923 31.3318 42.8864C31.7022 42.7806 31.8977 42.6366 31.9491 42.5778M21.9625 26.4625C21.8964 26.4625 20.1548 28.2482 19.9343 28.5789C19.7139 28.9096 19.2289 29.6371 18.8541 29.9678C18.4793 30.2985 17.5534 31.7755 17.7518 32.4369C17.9502 33.0982 18.1487 33.1644 17.9502 33.3628C17.7518 33.5612 18.0605 32.7014 17.6416 32.7455C17.2227 32.7896 17.2448 33.2526 17.1346 33.7376C17.0243 34.2226 16.4512 36.4932 16.2087 36.9342C15.9662 37.3751 15.8118 38.6317 15.6355 39.0726C15.4591 39.5135 14.7757 40.9023 14.8859 41.3433C14.9962 41.7842 14.7756 43.0187 15.8558 43.8785C15.7236 43.8785 14.5772 42.9305 14.5331 43.5919C14.489 44.2533 15.2386 44.7823 15.3268 45.4217C15.4149 46.061 15.8559 48.0451 16.9361 48.5521L17.3329 48.8167C17.0978 48.7799 16.6892 48.7638 16.9361 48.993C17.2447 49.2796 18.6777 51.2637 19.317 51.2417C19.9563 51.2196 20.6838 51.1755 21.0586 51.4842M20.8161 52.3439C21.2056 52.6599 22.1256 53.3051 22.69 53.358C23.3954 53.4242 23.5497 54.1737 23.9686 53.9753C24.3037 53.8166 24.461 53.4977 24.4977 53.358M22.69 52.6526C23.0133 52.7261 23.7658 52.9083 24.1891 53.0494C24.6123 53.1905 25.3354 53.3139 25.6441 53.358M27.1652 44.2973C27.1211 44.3782 27.0285 44.628 27.0109 44.9808C26.9888 45.4217 26.9007 45.9508 26.9007 46.2594C26.9007 46.568 26.8126 49.2355 26.4598 49.8749C26.107 50.5142 24.2993 53.336 25.3795 55.2099C26.4598 57.0837 26.9668 58.0096 27.1652 58.186C27.3636 58.3624 27.7384 59.4206 28.047 59.641C28.3557 59.8615 28.3116 59.3324 28.6423 59.4867C28.9729 59.641 30.1414 60.9637 30.7366 60.7212C31.3318 60.4787 31.5743 59.9276 31.7286 59.641C31.8829 59.3544 32.6545 57.9435 33.0293 57.8774C33.3291 57.8245 33.0367 57.5614 32.8529 57.4365C33.3747 56.8559 34.3697 55.6464 34.1757 55.4524C33.9817 55.2584 33.7568 55.0629 33.6686 54.9894L34.3961 54.5485C34.2124 54.3721 33.8097 53.9224 33.6686 53.5344C33.4923 53.0494 33.5804 51.1314 32.4561 50.9771C32.3753 51.0212 32.1651 51.1359 31.9711 51.2417C31.9711 50.9771 32.8309 48.4419 32.4561 48.1774M32.1695 43.8785C32.3092 44.5766 32.3371 46.1933 31.3318 47.0751C32.4561 46.2373 32.5443 46.061 32.6986 46.2373C32.8529 46.4137 31.5743 47.7364 31.5082 48.1774C31.442 48.6183 32.39 47.3396 33.0293 47.0751M33.0293 49.3899C32.9117 49.772 32.875 50.4833 33.6686 50.2717M34.1757 50.6464C34.1904 50.7934 34.3079 51.0433 34.6607 50.8669C35.0134 50.6905 35.6307 50.6464 35.8952 50.6464C36.0658 50.6963 36.3118 50.7336 36.5786 50.7176M41.4203 48.5108C40.867 49.3595 40.2841 49.23 40.0618 49.0592C39.9516 48.993 39.6915 48.9004 39.5327 49.0592C39.3343 49.2576 39.0477 49.3899 37.9014 49.8749C37.6065 50.4872 37.059 50.6888 36.5786 50.7176M41.4203 48.5108C41.344 48.8614 41.2847 49.2412 41.2364 49.6324M34.1757 52.0133C34.161 51.9177 34.1845 51.6782 34.3961 51.4842C34.6607 51.2417 34.9914 51.1976 35.5205 51.0874C35.9437 50.9992 36.4023 50.8041 36.5786 50.7176M38.5848 51.4842C38.717 51.2417 38.8714 50.899 39.202 50.7176C39.5327 50.5362 40.5029 49.3899 40.8555 49.6324C40.944 49.6932 41.0135 49.7239 41.0676 49.7347M41.2364 49.6324C41.2299 49.6878 41.1858 49.7585 41.0676 49.7347M39.202 52.0133C39.202 51.903 40.7149 49.5946 41.0676 49.7347M36.5786 48.5108C36.5213 48.5108 36.4662 48.5153 36.4134 48.5237M31.6526 17.0491C31.6118 17.637 31.6272 18.9098 32.0152 19.2978C32.5002 19.7828 32.5002 19.8709 32.5664 20.5323C32.6325 21.1937 32.2136 22.2298 32.8529 22.7589C33.4923 23.288 33.2718 24.1037 33.9111 24.1037C34.5505 24.1037 35.1457 23.7289 35.763 23.2439C36.3802 22.7589 37.1739 21.2598 37.7911 21.5684C38.4084 21.8771 38.3423 21.9653 38.9595 22.0755C39.5768 22.1857 40.5248 22.4282 41.098 22.0755C41.6711 21.7228 42.3546 21.7669 42.7514 21.37C43.1482 20.9732 43.3466 20.0253 42.6411 19.2096C42.5548 18.9156 42.3528 18.2572 42.236 17.975M39.202 44.9808C39.0257 45.3266 39.302 45.1103 38.3708 46.8105C37.4396 48.5108 38.557 48.508 37.4396 49.0592C36.3221 49.6103 35.758 49.3898 35.3882 49.6324C35.4695 49.2874 35.7836 48.6243 36.4134 48.5237M38.5848 43.1069C38.1845 43.8785 37.7714 44.0761 37.4396 44.9808C37.1077 45.8854 36.7991 46.4023 36.1598 47.0751C35.5205 47.7478 37.4386 47.9882 36.4134 48.5237M35.8952 42.8864C35.8952 43.5037 35.2681 46.4365 34.8321 47.7478C34.3961 49.0592 34.0275 49.3192 33.5284 49.9828M41.7232 41.2292C41.4203 41.9742 40.5909 43.4401 40.0618 44.4765C39.5327 45.5129 39.8193 46.972 39.202 47.7478M40.8555 39.8221C40.6057 40.298 40.1888 41.4755 39.8608 42.2912" stroke="#333333" stroke-width="0.5"/>
<path d="M36.4957 15.8254L36.5344 16.0724L36.624 16.0583L36.6838 15.9901L36.4957 15.8254ZM38.476 15.8254L38.6067 16.0385L38.6617 16.0047L38.6935 15.9487L38.476 15.8254ZM38.0151 15.986L38.1981 15.8157L38.1766 15.7926L38.15 15.7756L38.0151 15.986ZM35.4202 18.331L35.3289 18.5638L35.8179 18.7555L35.6584 18.2551L35.4202 18.331ZM35.369 18.3792L35.5293 18.1874L35.5293 18.1874L35.369 18.3792ZM37.6736 17.9455L37.438 17.8621L37.4043 17.9573L37.4461 18.0492L37.6736 17.9455ZM38.4077 18.6041L38.4989 18.3713L38.4771 18.3627L38.4539 18.3584L38.4077 18.6041ZM36.457 15.5784C36.3964 15.5879 36.3322 15.6112 36.276 15.6589C36.221 15.7056 36.192 15.7604 36.1758 15.8011C36.1611 15.8378 36.1521 15.8762 36.1478 15.8932C36.1422 15.9158 36.139 15.9273 36.1352 15.9376C36.1305 15.9505 36.125 15.9622 36.104 15.9785C36.0778 15.999 36.0184 16.0333 35.8906 16.0642L36.0082 16.5502C36.1792 16.5088 36.3118 16.4508 36.412 16.3724C36.5175 16.2899 36.5728 16.1961 36.6044 16.1106C36.6187 16.0718 36.6275 16.0359 36.6329 16.0145C36.6396 15.9875 36.6406 15.9854 36.6401 15.9866C36.638 15.9919 36.6273 16.0165 36.5998 16.0399C36.5712 16.0642 36.5438 16.0709 36.5344 16.0724L36.457 15.5784ZM35.8906 16.0642C35.6039 16.1336 35.2402 16.21 34.9469 16.3041C34.7993 16.3514 34.6537 16.4079 34.5349 16.4786C34.4232 16.545 34.29 16.6502 34.2415 16.8147L34.721 16.9563C34.7151 16.9761 34.7122 16.9549 34.7904 16.9084C34.8615 16.8661 34.9656 16.8232 35.0996 16.7802C35.3697 16.6936 35.6974 16.6254 36.0082 16.5502L35.8906 16.0642ZM34.2415 16.8147C34.225 16.8704 34.1992 16.9321 34.1656 17.0102C34.1345 17.0827 34.0959 17.1713 34.0679 17.2599C34.0127 17.4345 33.972 17.6977 34.1838 17.9124L34.5397 17.5611C34.5296 17.5509 34.5059 17.5331 34.5446 17.4105C34.5636 17.3505 34.5911 17.2865 34.6251 17.2075C34.6566 17.134 34.6948 17.0451 34.721 16.9563L34.2415 16.8147ZM34.1838 17.9124C34.2165 17.9454 34.2629 18.0115 34.3264 18.1157C34.3565 18.1652 34.3876 18.2184 34.4208 18.2751C34.4536 18.3312 34.4882 18.3905 34.5236 18.4488C34.5933 18.5635 34.6724 18.6854 34.7578 18.7849C34.8365 18.8767 34.9542 18.9903 35.1101 19.0249L35.2181 18.5367C35.2289 18.5391 35.2015 18.5343 35.1372 18.4594C35.0797 18.3923 35.0179 18.2993 34.951 18.1892C34.9181 18.1351 34.8855 18.0794 34.8524 18.0228C34.8197 17.9669 34.7863 17.9096 34.7535 17.8557C34.691 17.7531 34.618 17.6405 34.5397 17.5611L34.1838 17.9124ZM35.1101 19.0249C35.1922 19.043 35.2888 19.1039 35.4177 19.2092C35.5264 19.2981 35.6804 19.4403 35.82 19.5247L36.0788 19.0969C35.9794 19.0368 35.8859 18.9461 35.7342 18.8221C35.6027 18.7147 35.4262 18.5827 35.2181 18.5367L35.1101 19.0249ZM35.82 19.5247C35.8496 19.5426 35.8658 19.5593 35.8808 19.5779C35.8908 19.5904 35.8981 19.6009 35.9133 19.6215C35.9262 19.6391 35.9459 19.6655 35.9708 19.6917C36.0288 19.7528 36.1041 19.8017 36.208 19.8255C36.3005 19.8467 36.4054 19.8456 36.5237 19.8323L36.4676 19.3354C36.3726 19.3462 36.3324 19.3411 36.3198 19.3382C36.3156 19.3372 36.3184 19.3374 36.3244 19.3409C36.3305 19.3445 36.3338 19.3479 36.3335 19.3475C36.3317 19.3456 36.3276 19.3409 36.3162 19.3254C36.307 19.3129 36.2894 19.2882 36.2704 19.2645C36.2272 19.2109 36.1687 19.1513 36.0788 19.0969L35.82 19.5247ZM36.5237 19.8323C36.699 19.8125 36.7979 19.8342 36.9416 19.8553C37.0999 19.8786 37.2747 19.8927 37.5451 19.8267L37.4266 19.341C37.236 19.3875 37.1291 19.3775 37.0143 19.3606C36.8849 19.3416 36.7192 19.307 36.4676 19.3354L36.5237 19.8323ZM37.5451 19.8267C37.7632 19.7735 37.9893 19.744 38.2199 19.7061C38.4342 19.6708 38.6708 19.6261 38.849 19.5318L38.6151 19.0898C38.5202 19.1401 38.3641 19.1756 38.1388 19.2127C37.9298 19.2471 37.6694 19.2818 37.4266 19.341L37.5451 19.8267ZM38.849 19.5318C39.0193 19.4417 39.1303 19.336 39.2139 19.2485C39.307 19.1508 39.3349 19.1154 39.3771 19.0889L39.1114 18.6653C38.9999 18.7353 38.9083 18.8444 38.8521 18.9033C38.7862 18.9724 38.718 19.0354 38.6151 19.0898L38.849 19.5318ZM39.3771 19.0889C39.3984 19.0756 39.4491 19.0457 39.4751 19.0278C39.5142 19.0009 39.5647 18.9593 39.6016 18.8901C39.6342 18.8286 39.645 18.7654 39.6508 18.7178C39.6568 18.6691 39.6604 18.6078 39.6645 18.5385L39.1654 18.509C39.1609 18.5843 39.1582 18.6274 39.1545 18.657C39.1508 18.6877 39.1487 18.6768 39.16 18.6554C39.1755 18.6263 39.1962 18.6128 39.1916 18.616C39.1875 18.6188 39.1807 18.6231 39.1656 18.6322C39.1521 18.6404 39.1328 18.6519 39.1114 18.6653L39.3771 19.0889ZM39.6645 18.5385C39.6804 18.2693 39.7436 18.0793 39.7939 18.0036L39.3774 17.7269C39.257 17.9082 39.1836 18.2 39.1654 18.509L39.6645 18.5385ZM39.7939 18.0036C39.9044 17.8372 40.0029 17.5703 40.0228 17.2886L39.5241 17.2533C39.5099 17.4534 39.4376 17.6363 39.3774 17.7269L39.7939 18.0036ZM40.0228 17.2886C40.0274 17.2236 40.0397 17.2295 40.0803 17.1339C40.1016 17.0839 40.1349 16.9827 40.0844 16.8664C40.0443 16.7742 39.9678 16.7155 39.9146 16.6791L39.6323 17.0918C39.6485 17.1029 39.653 17.1076 39.6517 17.1062C39.6503 17.1048 39.637 17.0914 39.6258 17.0656C39.6131 17.0363 39.6088 17.0046 39.6117 16.9757C39.6129 16.963 39.6153 16.9532 39.6171 16.9472C39.618 16.9442 39.6188 16.9419 39.6193 16.9404C39.6199 16.939 39.6202 16.9382 39.6202 16.9382C39.6202 16.9382 39.6201 16.9384 39.62 16.9387C39.6199 16.939 39.6197 16.9394 39.6194 16.94C39.6188 16.9413 39.618 16.9429 39.6169 16.9453C39.6142 16.9507 39.6117 16.9555 39.6072 16.9645C39.5991 16.9807 39.5875 17.0039 39.576 17.0316C39.5521 17.0894 39.5305 17.1619 39.5241 17.2533L40.0228 17.2886ZM39.9146 16.6791C39.8458 16.6321 39.8151 16.5978 39.7775 16.554C39.7326 16.5016 39.6745 16.4306 39.5653 16.3484L39.2646 16.7479C39.3261 16.7942 39.3534 16.8276 39.3981 16.8797C39.4501 16.9403 39.5133 17.0104 39.6323 17.0918L39.9146 16.6791ZM39.5653 16.3484C39.5257 16.3186 39.493 16.2707 39.436 16.1741C39.3902 16.0964 39.3136 15.9572 39.187 15.8646L38.8917 16.2681C38.9188 16.2879 38.9446 16.3253 39.0055 16.4283C39.0552 16.5125 39.1334 16.6492 39.2646 16.7479L39.5653 16.3484ZM39.187 15.8646C39.1647 15.8482 39.1332 15.8184 39.0775 15.7657C39.0294 15.7202 38.9657 15.6603 38.8986 15.6114C38.8383 15.5674 38.7367 15.5025 38.6133 15.4959C38.5443 15.4923 38.4708 15.507 38.4027 15.5486C38.337 15.5888 38.2908 15.6451 38.2585 15.7021L38.6935 15.9487C38.6953 15.9455 38.6875 15.9606 38.6635 15.9753C38.6371 15.9914 38.6086 15.9964 38.5868 15.9952C38.5578 15.9937 38.5597 15.983 38.6039 16.0153C38.6415 16.0427 38.6833 16.0811 38.7339 16.129C38.7769 16.1697 38.8372 16.2282 38.8917 16.2681L39.187 15.8646ZM38.3452 15.6123C38.2415 15.676 38.1667 15.7271 38.1123 15.765C38.0841 15.7846 38.0656 15.7977 38.0493 15.8087C38.0326 15.82 38.0281 15.8222 38.0296 15.8215C38.0307 15.8209 38.0535 15.8089 38.0898 15.806C38.1335 15.8025 38.1725 15.8136 38.201 15.829C38.2227 15.8407 38.2332 15.8523 38.2274 15.8467C38.2222 15.8417 38.2153 15.8342 38.1981 15.8157L37.832 16.1562C37.8447 16.1699 37.8623 16.1891 37.8787 16.2051C37.8946 16.2205 37.9237 16.2475 37.9636 16.269C38.0102 16.2942 38.0668 16.3094 38.13 16.3044C38.1858 16.2999 38.2299 16.2806 38.2566 16.267C38.3021 16.2438 38.3569 16.204 38.398 16.1754C38.4481 16.1405 38.5142 16.0952 38.6067 16.0385L38.3452 15.6123ZM38.15 15.7756C38.0313 15.6994 37.9133 15.6542 37.794 15.6473C37.6713 15.6402 37.572 15.6749 37.496 15.7165C37.4332 15.7508 37.3649 15.805 37.3493 15.8161C37.3144 15.8409 37.3362 15.8163 37.3834 15.8163V16.3163C37.5075 16.3163 37.5996 16.2516 37.6389 16.2237C37.6975 16.182 37.707 16.171 37.736 16.1551C37.7517 16.1465 37.7581 16.1461 37.765 16.1465C37.7754 16.1471 37.8111 16.1521 37.8801 16.1964L38.15 15.7756ZM37.3834 15.8163C37.3874 15.8163 37.4078 15.8164 37.4356 15.8251C37.4643 15.8341 37.5171 15.8579 37.5565 15.9163C37.5973 15.977 37.5997 16.0392 37.5946 16.0772C37.59 16.1116 37.5787 16.1348 37.5751 16.1419C37.5682 16.1555 37.5634 16.1596 37.5741 16.1463C37.578 16.1414 37.5826 16.1359 37.5888 16.1284C37.5945 16.1216 37.602 16.1127 37.6092 16.1038C37.6228 16.0871 37.6433 16.0613 37.6612 16.0321C37.6704 16.017 37.6815 15.9969 37.691 15.9728C37.7002 15.9494 37.711 15.9145 37.7125 15.8719C37.7141 15.8267 37.7051 15.7724 37.674 15.7201C37.6433 15.6683 37.601 15.635 37.5628 15.6148C37.4952 15.579 37.425 15.5754 37.3834 15.5754V16.0754C37.4016 16.0754 37.3714 16.0792 37.3287 16.0566C37.3029 16.043 37.2692 16.0177 37.244 15.9752C37.2184 15.932 37.2116 15.8881 37.2128 15.8542C37.2139 15.8228 37.2216 15.8001 37.2257 15.7897C37.2301 15.7786 37.2341 15.7721 37.2347 15.7711C37.2353 15.7702 37.2326 15.7745 37.2216 15.7879C37.2166 15.7941 37.2114 15.8002 37.2048 15.8082C37.1987 15.8156 37.1911 15.8246 37.1838 15.8338C37.1718 15.8488 37.1477 15.8793 37.1293 15.9155C37.12 15.9338 37.1049 15.9674 37.099 16.011C37.0927 16.0581 37.0964 16.1283 37.1417 16.1956C37.1855 16.2606 37.2459 16.2896 37.2859 16.3021C37.3249 16.3144 37.3602 16.3163 37.3834 16.3163V15.8163ZM37.3834 15.5754C37.2782 15.5754 37.1901 15.6038 37.1249 15.6319C37.0924 15.6458 37.0639 15.6605 37.042 15.672C37.0164 15.6855 37.0062 15.6913 36.9947 15.6969C36.9825 15.7028 36.9918 15.6967 37.0122 15.6928C37.0366 15.6881 37.0971 15.6829 37.1599 15.7229C37.2182 15.7599 37.2365 15.8098 37.24 15.8204C37.2438 15.8318 37.2417 15.8317 37.2402 15.8088L36.7413 15.8419C36.7441 15.8833 36.75 15.9314 36.7655 15.978C36.7807 16.0237 36.8143 16.0956 36.8915 16.1447C36.9732 16.1967 37.0563 16.1935 37.1067 16.1838C37.1532 16.1749 37.1922 16.1568 37.2131 16.1466C37.322 16.0938 37.339 16.0754 37.3834 16.0754V15.5754ZM37.2402 15.8088C37.2236 15.5579 37.2408 15.5249 37.2408 15.3596H36.7408C36.7408 15.4513 36.7238 15.5788 36.7413 15.8419L37.2402 15.8088ZM37.2408 15.3596C37.2408 15.3022 37.2316 15.2386 37.2109 15.1778C37.1911 15.1199 37.1533 15.0423 37.0801 14.9828C36.9962 14.9146 36.8853 14.8873 36.7712 14.9161C36.6714 14.9413 36.5889 15.004 36.5221 15.0721L36.879 15.4222C36.9147 15.3859 36.9196 15.3944 36.8935 15.401C36.8778 15.4049 36.8547 15.4071 36.8278 15.401C36.8011 15.3951 36.7798 15.383 36.7648 15.3709C36.7386 15.3496 36.7349 15.3312 36.7376 15.3391C36.7393 15.344 36.7408 15.3528 36.7408 15.3596H37.2408ZM36.5221 15.0721C36.3626 15.2347 36.3269 15.4159 36.3116 15.5401C36.3025 15.6135 36.3027 15.6348 36.2963 15.6697C36.2915 15.6958 36.2896 15.6812 36.3076 15.6606L36.6838 15.9901C36.753 15.9111 36.7768 15.8211 36.788 15.7604C36.7975 15.7086 36.8041 15.6317 36.8078 15.6013C36.8181 15.5178 36.8337 15.4684 36.879 15.4222L36.5221 15.0721ZM35.6584 18.2551C35.6371 18.1885 35.6376 18.1681 35.6379 18.1614C35.6386 18.1467 35.6417 18.1335 35.6618 18.0579L35.1786 17.9295C35.1645 17.9824 35.142 18.0576 35.1384 18.1393C35.1344 18.229 35.152 18.313 35.182 18.407L35.6584 18.2551ZM35.6618 18.0579C35.674 18.012 35.6799 17.9735 35.6837 17.9493C35.6858 17.9362 35.6867 17.9302 35.6877 17.9254C35.6885 17.9213 35.6884 17.9227 35.6871 17.9267C35.6855 17.9314 35.6827 17.9381 35.6783 17.9457C35.6738 17.9533 35.6693 17.9591 35.6658 17.9628C35.66 17.9691 35.6613 17.9653 35.6835 17.9522L35.43 17.5212C35.332 17.5789 35.2519 17.6519 35.213 17.7676C35.1986 17.8105 35.1927 17.8533 35.1897 17.872C35.186 17.8955 35.1834 17.9112 35.1786 17.9295L35.6618 18.0579ZM35.6835 17.9522C35.7068 17.9385 35.7159 17.9355 35.7169 17.9351C35.7205 17.9339 35.7184 17.9346 35.7452 17.9286C35.811 17.9141 35.8786 17.8909 35.9925 17.8227L35.7356 17.3937C35.6617 17.438 35.6439 17.4389 35.6371 17.4404C35.6277 17.4425 35.5925 17.4492 35.555 17.4621C35.515 17.4758 35.475 17.4948 35.43 17.5212L35.6835 17.9522ZM35.9925 17.8227C36.1522 17.7271 36.2145 17.594 36.2409 17.5462C36.2477 17.5339 36.2487 17.533 36.2468 17.5356C36.2443 17.539 36.2339 17.5529 36.2138 17.5669C36.1916 17.5824 36.1661 17.5923 36.1411 17.5959C36.1186 17.5991 36.1042 17.5962 36.1031 17.596L36.2054 17.1065C36.1217 17.089 36.0197 17.0925 35.9272 17.1572C35.8534 17.2088 35.8152 17.2827 35.803 17.3049C35.7696 17.3654 35.7637 17.3769 35.7356 17.3937L35.9925 17.8227ZM36.1031 17.596C36.2847 17.6339 36.3026 17.6253 36.3857 17.684L36.674 17.2755C36.484 17.1414 36.3311 17.1328 36.2054 17.1065L36.1031 17.596ZM36.3857 17.684C36.4431 17.7245 36.4554 17.7389 36.4631 17.7481C36.4724 17.759 36.4773 17.7658 36.4973 17.791C36.5148 17.8131 36.5366 17.8397 36.567 17.873L36.9366 17.5362C36.9157 17.5133 36.9013 17.4958 36.8889 17.4802C36.879 17.4677 36.8604 17.4435 36.8441 17.4242C36.8006 17.3731 36.7531 17.3313 36.674 17.2755L36.3857 17.684ZM36.567 17.873C36.5796 17.8868 36.5621 17.8727 36.5525 17.8349C36.5473 17.8141 36.546 17.7922 36.5485 17.7711C36.5509 17.7513 36.556 17.7375 36.5579 17.7325C36.5593 17.7291 36.5602 17.7277 36.5551 17.7378C36.5515 17.7451 36.5433 17.7612 36.5356 17.7796C36.5183 17.8208 36.5018 17.8762 36.5018 17.9455H37.0018C37.0018 17.9587 36.998 17.9699 36.9967 17.973C36.9967 17.9731 36.9969 17.9724 36.9979 17.9705C36.9989 17.9683 37.0001 17.9659 37.0024 17.9613C37.0058 17.9546 37.0146 17.9371 37.0224 17.9176C37.041 17.871 37.0591 17.7992 37.0374 17.7128C37.0183 17.6369 36.9752 17.5786 36.9366 17.5362L36.567 17.873ZM36.5018 17.9455C36.5018 17.9673 36.501 17.9785 36.5004 17.9954C36.4997 18.0112 36.4981 18.0471 36.5072 18.0899C36.5155 18.1286 36.5299 18.1609 36.5387 18.1802C36.5475 18.1996 36.5619 18.2293 36.5769 18.2611L37.029 18.0476C37.0099 18.0071 37.0008 17.9886 36.9937 17.9729C36.9864 17.957 36.9923 17.9672 36.9963 17.9859C37.0011 18.0086 36.9995 18.0265 37 18.0151C37.0004 18.0049 37.0018 17.98 37.0018 17.9455H36.5018ZM36.5769 18.2611C36.584 18.276 36.5747 18.2626 36.5751 18.232C36.5755 18.2029 36.5867 18.1768 36.578 18.2014C36.5689 18.2271 36.5498 18.2832 36.5563 18.3586C36.5621 18.4267 36.5865 18.4885 36.6164 18.5447L37.0579 18.3101C37.0451 18.286 37.0524 18.2916 37.0545 18.316C37.0572 18.3478 37.0477 18.3727 37.0493 18.3683C37.0513 18.3628 37.0742 18.3076 37.0751 18.2388C37.076 18.1686 37.0561 18.1049 37.029 18.0476L36.5769 18.2611ZM36.6164 18.5447C36.6463 18.601 36.6763 18.6432 36.7012 18.6754C36.7122 18.6897 36.7246 18.7049 36.7304 18.7122C36.7339 18.7166 36.7363 18.7197 36.7381 18.7221C36.7399 18.7245 36.7406 18.7254 36.7405 18.7253C36.7389 18.7229 36.7256 18.7018 36.7226 18.6697C36.7201 18.6429 36.7272 18.6314 36.721 18.6491L37.1923 18.8161C37.2116 18.7614 37.2273 18.6958 37.2205 18.6232C37.2132 18.5455 37.1829 18.4872 37.1557 18.4467C37.1372 18.4192 37.1027 18.3772 37.0968 18.3696C37.0833 18.3522 37.0707 18.3341 37.0579 18.3101L36.6164 18.5447ZM36.721 18.6491C36.6767 18.7739 36.6895 18.8896 36.6895 18.8972C36.6895 18.904 36.6873 18.8616 36.717 18.815C36.7468 18.7684 36.7835 18.7554 36.7778 18.7577L36.9648 19.2214C37.0188 19.1996 37.0897 19.1606 37.1386 19.0838C37.1875 19.0071 37.1895 18.9306 37.1895 18.8972C37.1895 18.8245 37.1853 18.8358 37.1923 18.8161L36.721 18.6491ZM36.7778 18.7577C36.7406 18.7727 36.706 18.7895 36.6895 18.797C36.6696 18.8062 36.6649 18.8074 36.664 18.8076C36.6639 18.8077 36.664 18.8076 36.6641 18.8076C36.6643 18.8076 36.6643 18.8076 36.6642 18.8076C36.664 18.8076 36.662 18.8078 36.6575 18.8076C36.648 18.8072 36.6281 18.8049 36.592 18.7956L36.4677 19.2799C36.5849 19.31 36.6861 19.3182 36.7883 19.2919C36.8343 19.2801 36.8723 19.2633 36.8983 19.2514C36.9277 19.2378 36.9422 19.2305 36.9648 19.2214L36.7778 18.7577ZM36.592 18.7956C36.5087 18.7742 36.4455 18.7564 36.3817 18.7478C36.3164 18.739 36.2495 18.7396 36.1543 18.7396V19.2396C36.2639 19.2396 36.2909 19.2401 36.3151 19.2434C36.341 19.2468 36.3632 19.2531 36.4677 19.2799L36.592 18.7956ZM36.1543 18.7396C36.0813 18.7396 36.0269 18.7484 35.9842 18.7584C35.9744 18.7607 35.9658 18.7628 35.9594 18.7645C35.9519 18.7665 35.9491 18.7672 35.9459 18.768C35.9394 18.7696 35.9485 18.7669 35.9633 18.766C35.9817 18.765 36.0022 18.7671 36.0223 18.7732C36.0402 18.7786 36.0504 18.7851 36.0509 18.7855C36.0512 18.7857 36.0463 18.7825 36.0339 18.7721C36.0219 18.762 36.0059 18.7476 35.9841 18.7272L35.6415 19.0913C35.6887 19.1357 35.7357 19.1775 35.7822 19.2072C35.8386 19.2431 35.9075 19.2699 35.991 19.2653C36.0239 19.2635 36.0514 19.257 36.0656 19.2535C36.0892 19.2476 36.0827 19.2488 36.0976 19.2453C36.1088 19.2427 36.1248 19.2396 36.1543 19.2396V18.7396ZM35.9841 18.7272C35.8893 18.6379 35.8755 18.6202 35.8674 18.6092C35.8585 18.597 35.8567 18.5932 35.8345 18.5606C35.816 18.5335 35.7918 18.4993 35.7545 18.4512L35.3589 18.757C35.4326 18.8522 35.4169 18.8401 35.4637 18.9042C35.5026 18.9574 35.5486 19.0039 35.6415 19.0913L35.9841 18.7272ZM35.7545 18.4512C35.7238 18.4115 35.71 18.3905 35.7038 18.3806C35.7009 18.3759 35.6991 18.3727 35.6973 18.3695C35.6953 18.3657 35.6961 18.3672 35.6931 18.3616C35.6912 18.3582 35.6882 18.3527 35.6845 18.3465C35.6639 18.3115 35.641 18.2859 35.6152 18.2616C35.5947 18.2423 35.5661 18.2182 35.5293 18.1874L35.2086 18.571C35.2486 18.6045 35.2649 18.6185 35.2726 18.6258C35.2751 18.6281 35.2639 18.6176 35.254 18.6007C35.2538 18.6003 35.2514 18.5962 35.2583 18.6088C35.2633 18.618 35.2699 18.6297 35.279 18.6444C35.2968 18.673 35.3214 18.7083 35.3589 18.757L35.7545 18.4512ZM35.5293 18.1874C35.5239 18.1829 35.5199 18.1794 35.517 18.1767C35.5156 18.1754 35.5145 18.1744 35.5138 18.1737C35.5134 18.1734 35.5131 18.1731 35.513 18.1729C35.5128 18.1727 35.5127 18.1726 35.5127 18.1726C35.5127 18.1727 35.5128 18.1728 35.513 18.173C35.5132 18.1732 35.5135 18.1736 35.514 18.174C35.5148 18.1749 35.5161 18.1765 35.5178 18.1786C35.5208 18.1824 35.5274 18.191 35.5345 18.2039C35.5404 18.2148 35.5922 18.308 35.5385 18.4199C35.4827 18.5362 35.3722 18.5522 35.355 18.5545C35.3256 18.5583 35.3051 18.5547 35.3036 18.5545C35.2988 18.5538 35.2975 18.5532 35.3007 18.5541C35.307 18.5558 35.3175 18.5593 35.3289 18.5638L35.5114 18.0983C35.4887 18.0894 35.4603 18.0793 35.4314 18.0715C35.4156 18.0672 35.3556 18.0502 35.2907 18.0586C35.2638 18.0621 35.1464 18.0814 35.0878 18.2035C35.0312 18.3213 35.0843 18.4229 35.0965 18.4452C35.1281 18.5025 35.1794 18.5466 35.2086 18.571L35.5293 18.1874ZM37.9093 18.029C37.9384 17.947 37.9388 17.8661 37.9361 17.811C37.9337 17.7595 37.9253 17.6937 37.9225 17.6645C37.9184 17.622 37.9198 17.6095 37.9198 17.6097C37.9185 17.6173 37.9077 17.6581 37.8643 17.6872L37.5854 17.2722C37.4823 17.3416 37.4416 17.4426 37.4275 17.5225C37.4146 17.595 37.4204 17.6668 37.4248 17.7126C37.4305 17.7717 37.4349 17.7983 37.4367 17.8351C37.4383 17.8684 37.4345 17.8718 37.438 17.8621L37.9093 18.029ZM37.8643 17.6872C37.8692 17.6839 37.8626 17.6838 37.8987 17.6806C37.9187 17.6788 37.9635 17.6754 38.0125 17.6613C38.066 17.6458 38.1184 17.62 38.1693 17.5801L37.8608 17.1866C37.8605 17.1869 37.8659 17.1831 37.8742 17.1808C37.8778 17.1797 37.8789 17.1803 37.854 17.1826C37.8338 17.1844 37.7907 17.1877 37.7426 17.2003C37.6911 17.2139 37.6388 17.2364 37.5854 17.2722L37.8643 17.6872ZM38.1693 17.5801C38.1858 17.5672 38.2077 17.5491 38.2277 17.5271C38.2416 17.5118 38.2899 17.4581 38.3005 17.3737C38.3149 17.2585 38.2529 17.1787 38.2098 17.1419C38.1771 17.114 38.1421 17.0986 38.1386 17.0969C38.0999 17.0787 38.1666 17.1024 38.186 17.1662L37.7076 17.3115C37.7326 17.3939 37.7802 17.4536 37.832 17.4943C37.856 17.5131 37.8787 17.5261 37.8954 17.5348C37.9037 17.5391 37.911 17.5425 37.9162 17.545C37.9254 17.5492 37.921 17.5471 37.9257 17.5494C37.9273 17.5501 37.9238 17.5485 37.9185 17.5455C37.9136 17.5428 37.9005 17.5352 37.8851 17.5221C37.8697 17.5089 37.845 17.4842 37.8263 17.4454C37.806 17.4033 37.7987 17.3567 37.8043 17.3117C37.8095 17.2705 37.8242 17.2403 37.8341 17.2233C37.8441 17.2063 37.8538 17.1951 37.8581 17.1904C37.8661 17.1816 37.8699 17.1795 37.8608 17.1866L38.1693 17.5801ZM38.186 17.1662C38.1817 17.1519 38.1763 17.1351 38.1739 17.1271C38.1706 17.1164 38.1694 17.112 38.1689 17.1102C38.1671 17.1029 38.1777 17.1368 38.1661 17.1839C38.1599 17.2092 38.1492 17.2312 38.1368 17.2489C38.1253 17.2654 38.1144 17.2752 38.1098 17.2791C38.1053 17.2828 38.104 17.2833 38.1088 17.2803C38.1135 17.2774 38.1211 17.2729 38.1334 17.2663L37.8967 16.8259C37.8648 16.843 37.8241 16.8661 37.7886 16.8959C37.7487 16.9293 37.7005 16.9834 37.6805 17.0648C37.6625 17.1381 37.6763 17.201 37.6836 17.2304C37.6901 17.257 37.7026 17.295 37.7076 17.3115L38.186 17.1662ZM38.1334 17.2663C38.1813 17.2405 38.2188 17.2124 38.2419 17.1951C38.2549 17.1853 38.2614 17.1805 38.2676 17.1761C38.2731 17.1722 38.2736 17.1723 38.2708 17.1737C38.2675 17.1754 38.2599 17.179 38.2488 17.1817C38.2374 17.1845 38.2256 17.1856 38.2146 17.1851C38.1935 17.1841 38.1884 17.1778 38.2065 17.1873L38.4382 16.7442C38.3795 16.7135 38.3125 16.6892 38.2381 16.6857C38.159 16.682 38.093 16.7027 38.041 16.7297C37.997 16.7525 37.958 16.783 37.9418 16.7952C37.9201 16.8115 37.9086 16.8195 37.8967 16.8259L38.1334 17.2663ZM38.2065 17.1873C38.2241 17.1965 38.2356 17.2028 38.2429 17.2071C38.2508 17.2117 38.2503 17.2119 38.246 17.2086C38.2412 17.205 38.2276 17.1941 38.2132 17.1754C38.1971 17.1544 38.1878 17.1338 38.1827 17.1195C38.1808 17.114 38.1798 17.1102 38.1801 17.1114C38.1803 17.1121 38.1803 17.1122 38.1809 17.1145C38.1814 17.1161 38.1821 17.1187 38.183 17.1215C38.1867 17.1344 38.1924 17.152 38.2017 17.1729C38.2199 17.2141 38.2456 17.2545 38.2805 17.2983L38.6715 16.9866C38.6551 16.9661 38.6553 16.9624 38.6591 16.9709C38.6611 16.9756 38.6624 16.9797 38.6628 16.9809C38.6655 16.99 38.6586 16.9653 38.654 16.9525C38.6458 16.9292 38.6325 16.9004 38.6097 16.8708C38.5887 16.8434 38.566 16.8237 38.5476 16.8098C38.5153 16.7854 38.4756 16.7638 38.4382 16.7442L38.2065 17.1873ZM38.2805 17.2983C38.2739 17.29 38.2687 17.2557 38.281 17.3635C38.285 17.3989 38.297 17.4985 38.3771 17.5799C38.4621 17.6662 38.5708 17.6816 38.6467 17.6816V17.1816C38.6288 17.1816 38.6819 17.1768 38.7334 17.229C38.7799 17.2763 38.7801 17.3277 38.7777 17.3069C38.7767 17.2978 38.7766 17.2928 38.7747 17.2697C38.7731 17.2513 38.7707 17.2252 38.7653 17.1963C38.7541 17.1358 38.7298 17.0598 38.6715 16.9866L38.2805 17.2983ZM38.6467 17.6816C38.7113 17.6816 38.7693 17.6747 38.8233 17.6587C38.8796 17.6419 38.919 17.6188 38.9439 17.6032C38.9716 17.5858 38.9608 17.5929 38.9527 17.5961C38.9376 17.6021 38.929 17.6012 38.9369 17.6012V17.1012C38.8766 17.1012 38.821 17.1104 38.768 17.1315C38.7221 17.1497 38.6825 17.1769 38.6782 17.1796C38.671 17.1841 38.6753 17.181 38.6809 17.1794C38.6841 17.1784 38.6761 17.1816 38.6467 17.1816V17.6816ZM38.9369 17.6012C38.9555 17.6012 38.9643 17.6013 38.9696 17.6014C38.972 17.6015 38.97 17.6015 38.9656 17.6011C38.963 17.6009 38.948 17.5996 38.9282 17.5941C38.9137 17.59 38.8576 17.5737 38.8101 17.5189C38.7835 17.4882 38.7641 17.4506 38.7552 17.4088C38.7467 17.369 38.7496 17.3348 38.7541 17.3109C38.7621 17.2691 38.7794 17.2405 38.7814 17.237C38.7853 17.2303 38.7891 17.2248 38.7863 17.229C38.7783 17.241 38.7457 17.2882 38.7322 17.3583C38.7184 17.4303 38.7283 17.5029 38.7559 17.5723L39.2204 17.3872C39.2224 17.3923 39.2301 17.4168 39.2233 17.4526C39.2167 17.4866 39.2001 17.5097 39.2028 17.5056C39.2032 17.505 39.2048 17.5026 39.2065 17.5C39.2081 17.4975 39.2111 17.4928 39.2144 17.487C39.2182 17.4805 39.2367 17.4492 39.2452 17.4051C39.2561 17.3484 39.2506 17.2637 39.188 17.1915C39.1391 17.135 39.0806 17.1175 39.0625 17.1124C39.0245 17.1019 38.9879 17.1017 38.9829 17.1016C38.9693 17.1012 38.9525 17.1012 38.9369 17.1012V17.6012ZM38.7559 17.5723C38.7753 17.6211 38.8015 17.6934 38.8293 17.7456C38.8656 17.814 38.9215 17.8853 39.0183 17.9308L39.2312 17.4784C39.2411 17.4831 39.2526 17.4909 39.2624 17.5012C39.271 17.5102 39.2734 17.5159 39.2708 17.511C39.2677 17.5051 39.2626 17.4942 39.2535 17.4715C39.2491 17.4605 39.2445 17.4486 39.2389 17.4342C39.2334 17.4202 39.2272 17.4043 39.2204 17.3872L38.7559 17.5723ZM39.0183 17.9308C39.0307 17.9367 39.0403 17.9408 39.0468 17.9436C39.0482 17.9442 39.0497 17.9448 39.0503 17.9451C39.0513 17.9454 39.0513 17.9454 39.051 17.9453C39.0508 17.9452 39.0491 17.9445 39.0467 17.9434C39.0446 17.9424 39.0396 17.9401 39.0332 17.9366C39.0277 17.9335 39.015 17.9263 39.0003 17.9148C38.9874 17.9047 38.9578 17.8797 38.9348 17.8369C38.9224 17.8139 38.9117 17.7853 38.9073 17.7519C38.9028 17.7182 38.9054 17.6856 38.9131 17.6561C38.9276 17.6003 38.9574 17.5648 38.9711 17.5499C38.986 17.5338 38.9996 17.5235 39.0043 17.52C39.0099 17.5158 39.0145 17.5128 39.0148 17.5125C39.0183 17.5102 39.0111 17.5149 39.0062 17.5184C38.9922 17.5283 38.9731 17.5436 38.9538 17.5658C38.9347 17.5878 38.9189 17.6127 38.9065 17.64C38.8824 17.6933 38.8747 17.749 38.8747 17.801H39.3747C39.3747 17.7967 39.3756 17.8163 39.3621 17.846C39.3459 17.882 39.3196 17.9092 39.2945 17.927C39.2916 17.9289 39.2863 17.9325 39.2913 17.9291C39.2924 17.9284 39.2976 17.925 39.3038 17.9204C39.3091 17.9164 39.3231 17.9057 39.3383 17.8893C39.3524 17.874 39.3824 17.8381 39.397 17.782C39.4141 17.7162 39.4028 17.6515 39.3752 17.6002C39.352 17.5571 39.3221 17.5317 39.3087 17.5212C39.2935 17.5094 39.2802 17.5018 39.2738 17.4983C39.2615 17.4915 39.2505 17.4869 39.2492 17.4863C39.2467 17.4852 39.2421 17.4833 39.2418 17.4832C39.239 17.482 39.2358 17.4806 39.2312 17.4784L39.0183 17.9308ZM38.8747 17.801C38.8747 17.8166 38.8735 17.8228 38.8734 17.8234C38.8734 17.8236 38.8735 17.8231 38.8738 17.822C38.874 17.8215 38.8742 17.821 38.8743 17.8206C38.8745 17.8203 38.8746 17.82 38.8746 17.8201C38.8744 17.8205 38.8726 17.8242 38.8645 17.8367C38.8603 17.8432 38.8559 17.8497 38.8495 17.8594C38.8435 17.8685 38.8363 17.8793 38.8286 17.8914L39.2501 18.1603C39.2613 18.1428 39.3037 18.0829 39.3279 18.0309C39.3611 17.9596 39.3747 17.8861 39.3747 17.801H38.8747ZM38.8286 17.8914C38.8086 17.9228 38.7872 17.9669 38.7806 18.0223C38.7735 18.0816 38.7856 18.1347 38.8055 18.1774C38.8229 18.215 38.8451 18.2413 38.8535 18.2512C38.8577 18.2561 38.8631 18.2621 38.8636 18.2627C38.8654 18.2648 38.8646 18.2639 38.8631 18.262C38.8599 18.258 38.8489 18.2438 38.8397 18.2214C38.8297 18.1971 38.8245 18.1699 38.8256 18.1424C38.8276 18.0927 38.8488 18.0712 38.8354 18.0901L39.2433 18.3792C39.2812 18.3258 39.3216 18.2522 39.3252 18.1623C39.3271 18.1147 39.3183 18.0704 39.302 18.031C39.2866 17.9936 39.2669 17.9664 39.2541 17.9503C39.2477 17.9423 39.2419 17.9357 39.2387 17.9321C39.2379 17.9312 39.2371 17.9303 39.2365 17.9296C39.2359 17.9289 39.2354 17.9284 39.235 17.9279C39.2342 17.927 39.234 17.9268 39.2342 17.927C39.2344 17.9272 39.2376 17.9309 39.2417 17.9368C39.246 17.9429 39.2525 17.9529 39.2589 17.9666C39.2731 17.9973 39.2824 18.0374 39.2771 18.0816C39.2723 18.1219 39.2573 18.149 39.2501 18.1603L38.8286 17.8914ZM38.8354 18.0901C38.7953 18.1467 38.7648 18.2083 38.7552 18.2779C38.7504 18.3124 38.7521 18.3399 38.7533 18.3548C38.7536 18.3574 38.7539 18.3607 38.7539 18.3608C38.754 18.3617 38.7538 18.3603 38.7537 18.358C38.7534 18.3539 38.7525 18.3392 38.7548 18.3198C38.7573 18.2985 38.7634 18.2732 38.776 18.2471C38.7884 18.2214 38.8037 18.2019 38.8173 18.1879C38.8302 18.1746 38.8418 18.1662 38.848 18.1619C38.8544 18.1576 38.8586 18.1555 38.8587 18.1554C38.8591 18.1552 38.8575 18.1561 38.853 18.158C38.8487 18.16 38.8427 18.1626 38.8344 18.1659C38.8176 18.1728 38.7949 18.1816 38.7635 18.1934L38.9396 18.6614C39.0001 18.6386 39.0527 18.6182 39.0904 18.5985C39.1088 18.5889 39.1436 18.5695 39.1757 18.5365C39.2172 18.4938 39.2442 18.4392 39.2514 18.3784C39.2558 18.3411 39.2503 18.2977 39.2516 18.3127C39.2518 18.3157 39.2528 18.3293 39.2504 18.3465C39.2456 18.3815 39.2322 18.3949 39.2433 18.3792L38.8354 18.0901ZM38.7635 18.1934C38.5886 18.2593 38.4877 18.3604 38.4554 18.3858C38.44 18.3981 38.4549 18.3826 38.4859 18.3774C38.5159 18.3723 38.5269 18.3823 38.4989 18.3713L38.3165 18.8368C38.391 18.866 38.4767 18.886 38.5691 18.8704C38.6624 18.8547 38.7276 18.8081 38.7654 18.7781C38.8399 18.7193 38.8585 18.6919 38.9396 18.6614L38.7635 18.1934ZM38.4539 18.3584C38.0265 18.278 37.921 18.2738 37.8785 18.2738V18.7738C37.8796 18.7738 37.8797 18.7738 37.8805 18.7738C37.8816 18.7738 37.8846 18.774 37.89 18.7744C37.9012 18.7752 37.922 18.7771 37.9571 18.7817C38.0275 18.7909 38.1505 18.8101 38.3615 18.8498L38.4539 18.3584ZM37.8785 18.2738C37.9192 18.2738 37.9514 18.2837 37.9717 18.2919C37.9923 18.3003 38.0079 18.3099 38.0178 18.3167C38.0368 18.3297 38.0493 18.3424 38.0545 18.3478C38.0654 18.3592 38.0715 18.3681 38.0717 18.3683C38.0733 18.3706 38.0712 18.3679 38.0653 18.3573C38.0544 18.3378 38.0389 18.3073 38.0231 18.2723C38.0073 18.2372 37.9932 18.2023 37.9836 18.1736C37.9788 18.1592 37.976 18.149 37.9746 18.1428C37.9728 18.1348 37.9748 18.1402 37.9748 18.1543H37.4748C37.4748 18.2221 37.4955 18.2904 37.5093 18.3319C37.5259 18.3815 37.547 18.4329 37.5674 18.4781C37.5879 18.5234 37.6098 18.5672 37.6292 18.6019C37.6385 18.6184 37.6499 18.6378 37.6623 18.6554C37.6678 18.6633 37.6786 18.6782 37.6934 18.6936C37.7005 18.701 37.7148 18.7152 37.7353 18.7293C37.7497 18.7391 37.8019 18.7738 37.8785 18.7738V18.2738ZM37.9748 18.1543C37.9748 18.0237 37.9232 17.8904 37.9011 17.8419L37.4461 18.0492C37.4493 18.0562 37.4578 18.0772 37.465 18.1029C37.4727 18.1303 37.4748 18.1483 37.4748 18.1543H37.9748Z" fill="#333333"/>
<path d="M39.9299 8.92995C39.803 8.92995 39.877 9.24715 39.9299 9.40574L39.6133 9.56434L39.7719 10.3573C39.8247 10.3573 39.9305 10.2939 39.9305 10.0401C39.9305 9.72294 40.2234 10.2658 40.382 10.1072C40.5406 9.94865 41.624 9.6521 41.8106 9.21439C42.0334 8.69146 41.632 8.63873 41.632 8.32153C41.632 8.00434 40.7191 8.14296 40.5605 8.14296C40.402 8.14296 40.342 8.32153 40.0248 8.32153C39.7076 8.32153 40.0885 8.92995 39.9299 8.92995Z" fill="#333333"/>
<path d="M39.9299 9.40574L40.0419 9.62927L40.2356 9.53224L40.1671 9.32669L39.9299 9.40574ZM41.8106 9.21439L41.5806 9.11638L41.5806 9.11638L41.8106 9.21439ZM39.7719 10.3573L39.5267 10.4064L39.5669 10.6073H39.7719V10.3573ZM39.6133 9.56434L39.5013 9.34082L39.3307 9.42627L39.3681 9.61337L39.6133 9.56434ZM40.1671 9.32669C40.1436 9.25614 40.1182 9.15748 40.1114 9.08514C40.1076 9.04453 40.1126 9.04032 40.1075 9.05663C40.1042 9.06724 40.0924 9.09934 40.0582 9.13C40.0191 9.16514 39.971 9.17995 39.9299 9.17995V8.67995C39.8571 8.67995 39.7836 8.70467 39.7244 8.75778C39.6702 8.80641 39.6437 8.86453 39.6303 8.90735C39.6051 8.9881 39.6081 9.0731 39.6136 9.13161C39.6253 9.25751 39.6634 9.39675 39.6927 9.4848L40.1671 9.32669ZM39.9299 9.17995C39.9805 9.17995 40.0442 9.16726 40.1027 9.12382C40.1606 9.08081 40.1901 9.02499 40.2044 8.98078C40.2289 8.90508 40.2192 8.83135 40.2143 8.79826C40.204 8.72846 40.1732 8.61932 40.1613 8.56855C40.1425 8.48851 40.1443 8.4625 40.1437 8.4655C40.1417 8.47514 40.1319 8.51043 40.0949 8.54085C40.0775 8.55515 40.0599 8.56333 40.0459 8.56758C40.0392 8.5696 40.0339 8.57058 40.0303 8.57106C40.0268 8.57153 40.0249 8.57153 40.0248 8.57153V8.07153C39.9458 8.07153 39.855 8.09087 39.7775 8.1545C39.7 8.21819 39.6666 8.30101 39.6533 8.36769C39.63 8.48477 39.6576 8.61087 39.6745 8.68293C39.6983 8.78427 39.7132 8.82723 39.7197 8.87151C39.7233 8.89547 39.7149 8.86926 39.7287 8.82684C39.7376 8.79926 39.7587 8.75651 39.8046 8.72242C39.851 8.68789 39.8991 8.67995 39.9299 8.67995V9.17995ZM40.0248 8.57153C40.2408 8.57153 40.3793 8.50747 40.4807 8.44666C40.5381 8.41226 40.5443 8.40572 40.568 8.39364C40.5781 8.3885 40.5722 8.39296 40.5605 8.39296V7.89296C40.4696 7.89296 40.3967 7.91975 40.3411 7.94808C40.2991 7.96949 40.2407 8.00759 40.2236 8.01783C40.1761 8.04631 40.1261 8.07153 40.0248 8.07153V8.57153ZM40.5605 8.39296C40.6125 8.39296 40.721 8.38246 40.8134 8.37557C40.919 8.3677 41.0386 8.36099 41.1507 8.36325C41.2681 8.36561 41.3538 8.37767 41.4024 8.39511C41.4534 8.41341 41.382 8.40129 41.382 8.32153H41.882C41.882 8.08318 41.6965 7.96944 41.5713 7.92451C41.4438 7.87874 41.2914 7.86598 41.1608 7.86335C41.0248 7.86061 40.8865 7.86874 40.7763 7.87695C40.653 7.88614 40.5879 7.89296 40.5605 7.89296V8.39296ZM41.382 8.32153C41.382 8.45949 41.4274 8.56636 41.4761 8.64862C41.499 8.68734 41.5239 8.72269 41.543 8.74972C41.5638 8.77922 41.5786 8.8002 41.5917 8.82152C41.6152 8.85982 41.625 8.8868 41.6274 8.91768C41.6299 8.95088 41.6252 9.01161 41.5806 9.11638L42.0405 9.3124C42.1073 9.15571 42.136 9.01375 42.1259 8.88006C42.1157 8.74408 42.0669 8.64 42.0179 8.5601C41.9948 8.52232 41.9699 8.48742 41.9515 8.46137C41.9314 8.43287 41.9176 8.41302 41.9064 8.39402C41.8867 8.36084 41.882 8.34217 41.882 8.32153H41.382ZM41.5806 9.11638C41.5615 9.16121 41.505 9.22868 41.3869 9.31192C41.2741 9.39145 41.1313 9.46733 40.9788 9.53953C40.824 9.61281 40.6785 9.67367 40.5434 9.73433C40.4789 9.7633 40.4165 9.79246 40.3634 9.82082C40.3163 9.84601 40.2532 9.88246 40.2052 9.93047L40.5588 10.284C40.5504 10.2924 40.5559 10.2849 40.5991 10.2618C40.6364 10.2419 40.686 10.2184 40.7483 10.1904C40.8668 10.1372 41.0335 10.0668 41.1928 9.99144C41.3543 9.91497 41.5273 9.82472 41.675 9.72059C41.8175 9.62016 41.9664 9.48643 42.0405 9.3124L41.5806 9.11638ZM40.2052 9.93047C40.2287 9.90695 40.2658 9.88878 40.3068 9.8871C40.3393 9.88577 40.3567 9.89559 40.3518 9.89325C40.3359 9.88571 40.3109 9.86651 40.2552 9.82085C40.2333 9.80293 40.2027 9.77784 40.1719 9.75691C40.1482 9.74088 40.0883 9.70104 40.0103 9.69111C39.9643 9.68525 39.9037 9.6887 39.8428 9.72057C39.7819 9.75235 39.7441 9.80018 39.7221 9.84211C39.6841 9.91446 39.6805 9.99251 39.6805 10.0401H40.1805C40.1805 10.0085 40.1861 10.0341 40.1646 10.0748C40.1509 10.1009 40.1233 10.1381 40.0744 10.1637C40.0252 10.1894 39.9781 10.1911 39.9471 10.1871C39.8991 10.181 39.8749 10.1596 39.8912 10.1707C39.9002 10.1768 39.9136 10.1874 39.9383 10.2076C39.9756 10.2382 40.0536 10.3051 40.1373 10.3449C40.1821 10.3662 40.2484 10.3899 40.3273 10.3867C40.4146 10.3831 40.4956 10.3472 40.5588 10.284L40.2052 9.93047ZM39.6805 10.0401C39.6805 10.1353 39.6603 10.159 39.6657 10.1513C39.6711 10.1435 39.7029 10.1073 39.7719 10.1073V10.6073C40.039 10.6073 40.1805 10.3408 40.1805 10.0401H39.6805ZM40.017 10.3083L39.8584 9.51531L39.3681 9.61337L39.5267 10.4064L40.017 10.3083ZM39.7252 9.78787L40.0419 9.62927L39.8179 9.18222L39.5013 9.34082L39.7252 9.78787Z" fill="#333333"/>
<path d="M40.8616 9.65024C41.0876 9.55191 41.3297 9.56482 41.4873 9.50699C41.4885 9.48498 41.5152 9.3981 41.6127 9.22668C41.7346 9.01241 41.6905 9.01006 41.635 8.80841C41.5796 8.60676 41.4265 8.57652 41.0986 8.51489C40.7708 8.45326 40.9367 8.24133 40.6808 8.07315C40.4249 7.90497 40.1478 8.13303 40.1395 8.28714C40.1313 8.44124 40.1161 8.72742 40.0452 8.81195C39.9743 8.89648 39.8849 9.33325 39.9149 9.59976C39.9448 9.86628 40.2146 10.1897 40.204 10.3879C40.1934 10.586 40.4136 10.5977 40.4632 10.9095C40.5128 11.2212 40.4051 11.1713 40.1559 11.2905C39.9067 11.4096 39.8375 11.0527 39.3221 10.7824C38.8067 10.5121 39.227 9.25401 39.2399 9.01185C39.2528 8.76969 39.4336 8.69103 39.5299 8.54162C39.6262 8.39222 39.6819 8.17443 39.7342 8.02268C39.7864 7.87093 40.0274 7.90585 40.1712 7.69275C40.315 7.47965 40.527 7.64549 40.6996 7.72092C40.8722 7.79636 40.8942 7.79753 41.1143 7.80927C41.3345 7.82101 41.3274 7.95309 41.5683 7.98801C41.8092 8.02294 41.7492 7.90935 41.6867 7.83979C41.6242 7.77023 41.5015 7.58706 41.5942 7.5037C41.6868 7.42033 41.856 7.56181 42.0959 7.61875C42.3357 7.67569 42.2602 7.84829 42.5857 7.95395C42.9113 8.05961 42.9691 8.21724 43.1197 8.29149C43.2702 8.36575 43.3037 8.56623 43.4299 8.68334C43.5561 8.80046 43.5318 8.84331 43.6824 8.91757C43.8329 8.99183 43.6718 9.1157 43.5107 9.23957C43.3495 9.36344 43.1549 9.28683 42.9116 9.29593C42.6682 9.30503 42.7633 9.17764 42.6371 9.06053C42.5109 8.94342 42.9154 8.81045 42.788 8.71535C42.6606 8.62025 42.6107 8.72797 42.4496 8.85184C42.2884 8.97571 42.6228 9.74415 42.3956 9.86449C42.1684 9.98484 42.0155 9.95461 41.6295 10.1548C41.2435 10.355 40.9561 10.3617 40.6931 10.3256C40.4301 10.2895 40.7025 10.1495 40.6505 9.88183C40.5986 9.61414 40.6355 9.74857 40.8616 9.65024Z" fill="#333333"/>
<path d="M34.9526 10.7481C35.237 11.0458 35.0539 11.195 34.9268 11.2324C34.7507 11.4438 34.6406 11.2171 34.5422 10.9911C34.4439 10.7651 34.168 10.9712 33.826 11.1737C33.4841 11.3763 33.5061 11.3774 33.3368 11.6554C33.1674 11.9334 32.6391 11.9052 32.1641 11.7033C31.6892 11.5013 31.5005 11.3146 31.0625 11.2471C30.6246 11.1796 30.5718 10.5145 30.5941 10.0962C30.6164 9.67797 30.4708 9.09621 30.6469 9.1056C30.823 9.11499 31.1905 8.84759 31.7502 8.70081C32.31 8.55404 32.8556 8.67145 33.4941 8.70549C34.1325 8.73953 34.1783 9.53673 34.4087 9.76979C34.6391 10.0028 34.5971 10.3759 34.9526 10.7481Z" fill="#333333"/>
</svg>
