<svg width="136" height="177" viewBox="0 0 136 177" fill="none" xmlns="http://www.w3.org/2000/svg">
<path d="M107.5 164L114.5 169L107.5 175.5L89.0005 161V150L88.5005 145.5L88.0005 138L89.0005 137L95.5005 135.5L106 151L104.5 155L106 157L107.5 164Z" fill="black" fill-opacity="0.4"/>
<path d="M33.5005 147.5C39.1005 155.1 63.1671 158 74.5005 158.5L65 147.5V141L62 143.5L59 141H56.5L53 137L45 131.5L38.5 121V116.5V111.5V105C33.3333 103.167 21.8 99.5 17 99.5C11 99.5 2.00048 109 0.500482 116.5C-0.999518 124 26.5005 138 33.5005 147.5Z" fill="black" fill-opacity="0.4"/>
<path d="M59.6055 75.0045C59.6381 75.0164 59.6726 75.0278 59.7091 75.0388C59.6753 75.0268 59.6407 75.0153 59.6055 75.0045Z" fill="#333333"/>
<path d="M108.179 131.819C108.2 131.825 108.22 131.83 108.24 131.834C108.221 131.826 108.2 131.822 108.179 131.819Z" fill="#333333"/>
<path d="M82.9643 44.0857C83.0437 45.3615 83.1508 46.8018 83.1516 48.216C82.8861 46.8138 82.8951 45.0828 82.9643 44.0857Z" fill="#333333"/>
<path d="M133.689 34.0541C136.648 31.6297 131.262 19.8036 127.238 18.7392C123.213 17.6749 124.515 11.2296 119.426 9.86961C115.543 9.63309 107.589 3.85799 104.097 1C102.144 2.32177 99.4632 3.60408 96.344 3.60408C91.7277 3.60408 91.2542 1 87.2297 1C83.2052 1 77.2869 9.86961 75.097 9.86961C72.9071 9.86961 67.0481 15.6776 65.9828 15.6776C64.9175 15.6776 64.3847 25.3837 64.3847 27.8102C64.3847 30.2367 60.597 35.8592 59.2358 37.7531C57.8745 39.6469 60.8929 44.7367 64.3847 47.6959C67.8766 50.6551 67.9865 53.5784 71.0726 55.2122C75.097 57.3429 75.097 56.5143 79.95 55.2122C83.7794 54.1848 83.2237 48.2565 82.9643 44.0857M131.795 34.0541C131.085 37.0034 129.179 43.269 127.238 44.7367C125.08 46.3679 122.689 48.888 120.313 50.758M114.632 15.6776C117.887 16.7429 117.295 23.1939 117.295 25.3837C117.295 27.5735 116.23 30.7694 114.632 32.6041C113.034 34.4388 112.738 40.4163 111.377 43.3755C110.015 46.3347 116.762 53.3184 119.426 51.4245C119.721 51.2144 120.017 50.9913 120.313 50.758M75.097 18.7392C76.4385 22.8775 76.3371 31.84 77 33C77.8286 34.45 83.2051 37.7531 82.9092 41.2449C82.8468 41.9814 82.895 42.9708 82.9643 44.0857M120.313 50.758C121.181 51.1183 122.989 52.0518 123.273 52.9041C123.628 53.9694 125.344 61.249 125.699 63.0245C126.054 64.8 125.758 67.7592 127.238 68.2918M128.185 74.3878C129.349 75.9463 130.978 80.7086 128.185 87.2898C129.901 92.7347 127.238 93.9354 127.238 97.1143C127.238 100.606 130.73 105.341 128.185 108.3M123.273 107.235C124.081 107.688 125.699 108.88 125.699 110.016C125.699 111.153 125.028 112.226 124.693 112.62M123.273 98.4755C122.286 102.855 120.313 112.1 120.313 114.041C120.313 116.467 120.432 129.724 121.852 131.678C123.273 133.631 121.852 137.596 123.273 139.371C124.693 141.147 127.001 151.978 128.185 154.227C129.368 156.476 131.973 159.612 130.079 160.678C128.185 161.743 131.085 168.845 125.699 170.62C124.894 172.183 123.746 174.191 123.273 175C121.971 173.146 118.893 169.33 116.999 168.904C115.105 169.472 114.632 170.285 114.632 170.62C114.432 169.934 113.84 168.698 112.76 167.596C112.134 166.957 111.344 166.362 110.371 165.945C107.056 164.524 106.168 163.341 106.346 158.784C106.524 154.227 103.86 156.002 105.103 154.227C106.346 152.451 107.885 141.502 108.24 136.59C108.357 134.965 108.488 133.224 108.693 131.559M111.377 123.984C110.313 124.774 109.639 126.469 109.187 128.548M115.934 118.243C115.421 119.131 113.59 121.214 110.371 122.445M113.507 98.4755C114.553 102.342 116.017 111.082 113.507 115.106C110.998 119.131 108.95 121.676 108.24 122.445C109.305 122.445 109.72 123.569 109.187 123.984C108.654 124.398 107.411 124.99 106.524 125.404M64.3847 49.5898C63.3392 51.5429 61.1297 55.7686 60.6562 57.0469C60.0644 58.6449 59.4726 62.3735 58.9399 63.498C58.5138 64.3976 60.3406 63.0837 61.3073 62.3143C60.8733 62.8272 60.1354 64.0306 60.6562 64.7408M60.6562 67.8775C59.3937 69.7912 57.5195 73.3224 60.1236 72.1388C60.5497 72.6596 60.8139 72.8687 60.8927 72.9082C59.9064 73.4408 58.2887 74.6127 59.7091 75.0388C58.4859 74.6048 56.3001 74.8731 57.3417 79.4184C58.6438 85.1 59.4129 86.7571 59.1764 87.8816C60.6562 87.1122 61.9583 85.2775 61.3073 89.8939C60.6562 94.5102 64.2662 86.2245 64.0295 85.5735C63.8401 85.0527 63.6349 84.6463 63.556 84.5082M66.1235 98.0612C66.3997 98.0612 66.8693 98.5229 66.5378 100.369C66.1235 102.678 65.1174 106.702 65.295 107.353C66.5378 106.465 66.597 104.986 67.4256 105.222C68.2542 105.459 68.6093 105.933 69.0235 106.169M72.397 107.59C72.4365 108.655 72.6456 110.951 73.1664 111.614C73.8174 112.443 74.2317 112.68 75.0011 111.851C75.7705 111.022 76.4215 110.312 77.0725 110.371M80.2684 112.62C80.4657 113.015 81.1088 113.733 82.1031 113.449C83.0974 113.165 83.6222 112.778 83.7603 112.62M56.9501 69.3571C56.7725 69.3571 52.097 74.151 51.5052 75.0388C50.9133 75.9265 49.6113 77.8796 48.6052 78.7673C47.5991 79.6551 45.1133 83.6204 45.646 85.3959C46.1787 87.1714 46.7114 87.349 46.1787 87.8816C45.646 88.4143 46.4746 86.1061 45.3501 86.2245C44.2256 86.3429 44.2848 87.5857 43.9889 88.8878C43.693 90.1898 42.1542 96.2857 41.5032 97.4694C40.8522 98.6531 40.4379 102.027 39.9644 103.21C39.4909 104.394 37.6562 108.122 37.9522 109.306C38.2481 110.49 37.656 113.804 40.556 116.112C40.2009 116.112 37.1234 113.567 37.005 115.343C36.8867 117.118 38.8989 118.539 39.1356 120.255C39.3724 121.971 40.5561 127.298 43.4561 128.659L44.5214 129.369C43.8901 129.271 42.7932 129.227 43.4561 129.843C44.2847 130.612 48.1316 135.939 49.8479 135.88C51.5643 135.82 53.5173 135.702 54.5235 136.531M53.8724 138.839C54.918 139.687 57.3879 141.419 58.903 141.561C60.7969 141.739 61.2112 143.751 62.3357 143.218C63.2353 142.792 63.6575 141.936 63.7561 141.561M58.903 139.667C59.7711 139.865 61.7912 140.354 62.9275 140.733C64.0639 141.111 66.0051 141.443 66.8337 141.561M70.9173 117.237C70.799 117.454 70.5504 118.124 70.503 119.071C70.4439 120.255 70.2071 121.676 70.2071 122.504C70.2071 123.333 69.9706 130.494 69.0235 132.21C68.0765 133.927 63.2234 141.502 66.1235 146.533C69.0235 151.563 70.3847 154.049 70.9173 154.522C71.45 154.996 72.4561 157.837 73.2847 158.429C74.1132 159.02 73.9949 157.6 74.8826 158.014C75.7704 158.429 78.9071 161.98 80.5051 161.329C82.103 160.678 82.7541 159.198 83.1683 158.429C83.5826 157.659 85.6541 153.871 86.6602 153.694C87.4651 153.552 86.6799 152.846 86.1867 152.51C87.5874 150.952 90.2586 147.704 89.7377 147.184C89.2169 146.663 88.6132 146.138 88.3765 145.941L90.3296 144.757C89.8364 144.284 88.7553 143.076 88.3765 142.035C87.903 140.733 88.1397 135.584 85.1214 135.169C84.9044 135.288 84.3402 135.596 83.8194 135.88C83.8194 135.169 86.1275 128.363 85.1214 127.653M84.352 116.112C84.7269 117.986 84.802 122.327 82.1031 124.694C85.1214 122.445 85.3581 121.971 85.7724 122.445C86.1867 122.918 82.7541 126.469 82.5765 127.653C82.399 128.837 84.9439 125.404 86.6602 124.694M86.6602 130.908C86.3445 131.934 86.2459 133.844 88.3765 133.276M89.7377 134.282C89.7772 134.676 90.0928 135.347 91.0398 134.873C91.9867 134.4 93.6439 134.282 94.3541 134.282C94.8119 134.415 95.4725 134.516 96.1888 134.473M109.187 128.548C107.701 130.827 106.136 130.479 105.54 130.02C105.244 129.843 104.545 129.594 104.119 130.02C103.587 130.553 102.817 130.908 99.7398 132.21C98.9483 133.854 97.4784 134.395 96.1888 134.473M109.187 128.548C108.982 129.489 108.823 130.509 108.693 131.559M89.7377 137.951C89.6983 137.695 89.7614 137.051 90.3296 136.531C91.0398 135.88 91.9275 135.761 93.3479 135.465C94.4843 135.229 95.7153 134.705 96.1888 134.473M95.0643 140.141C95.1826 139.687 95.5259 138.661 95.952 138.188C96.4847 137.596 96.3663 137.3 97.6092 136.59C98.852 135.88 98.1418 135.465 99.2071 134.873C100.272 134.282 100.568 133.986 101.574 133.631C102.379 133.347 102.699 132.999 102.758 132.861M101.574 136.531C101.93 135.88 102.344 134.96 103.232 134.473C104.119 133.986 106.724 130.908 107.67 131.559C107.908 131.723 108.095 131.805 108.24 131.834M108.693 131.559C108.676 131.708 108.557 131.898 108.24 131.834M103.232 137.951C103.232 137.655 107.293 131.458 108.24 131.834M96.1888 128.548C96.0348 128.548 95.887 128.56 95.7452 128.583M82.9643 44.0857C82.8548 45.6639 82.8961 49.0808 83.9377 50.1224C85.2398 51.4245 85.2398 51.6612 85.4173 53.4367C85.5949 55.2122 84.4704 57.9939 86.1867 59.4143C87.903 60.8347 87.3112 63.0245 89.0275 63.0245C90.7439 63.0245 92.3418 62.0184 93.999 60.7163C95.6561 59.4143 97.7867 55.3898 99.4439 56.2184C101.101 57.0469 100.923 57.2837 102.581 57.5796C104.238 57.8755 106.783 58.5265 108.321 57.5796C109.86 56.6327 111.695 56.751 112.76 55.6857C113.825 54.6204 114.358 52.0755 112.464 49.8857C112.232 49.0966 111.69 47.329 111.377 46.5714M103.232 119.071C102.758 120 103.5 119.419 101 123.984C98.5 128.548 101.5 128.541 98.5 130.02C95.5 131.5 93.9857 130.908 92.9928 131.559C93.2112 130.633 94.0543 128.853 95.7452 128.583M101.574 114.041C100.5 116.112 99.3908 116.643 98.5 119.071C97.6092 121.5 96.7806 122.888 95.0643 124.694C93.3479 126.5 98.4975 127.145 95.7452 128.583M94.3541 113.449C94.3541 115.106 92.6704 122.98 91.5 126.5C90.3296 130.02 89.3398 130.718 88 132.5M110 109C109.187 111 106.96 114.935 105.54 117.718C104.119 120.5 104.889 124.417 103.232 126.5M107.67 105.222C107 106.5 105.881 109.661 105 111.851M111.645 112.62C110.371 115.106 109.956 115.486 108.24 118.243" stroke="#333333" stroke-width="1.5"/>
<path d="M107.687 24.2231C108.294 23.9591 108.944 23.9938 109.367 23.8385C109.371 23.7794 109.442 23.5462 109.704 23.086C110.031 22.5107 109.913 22.5044 109.764 21.9631C109.615 21.4217 109.204 21.3406 108.324 21.1751C107.444 21.0097 107.889 20.4407 107.202 19.9892C106.515 19.5377 105.771 20.15 105.749 20.5637C105.727 20.9774 105.686 21.7457 105.496 21.9726C105.306 22.1995 105.066 23.3721 105.146 24.0876C105.226 24.8031 105.951 25.6714 105.922 26.2033C105.894 26.7352 106.485 26.7668 106.618 27.6036C106.751 28.4405 106.462 28.3065 105.793 28.6264C105.124 28.9464 104.938 27.9882 103.555 27.2625C102.171 26.5367 103.299 23.1594 103.334 22.5093C103.369 21.8592 103.854 21.648 104.112 21.2469C104.371 20.8458 104.521 20.2611 104.661 19.8537C104.801 19.4463 105.448 19.5401 105.834 18.968C106.22 18.3959 106.789 18.8411 107.253 19.0436C107.716 19.2461 107.775 19.2493 108.366 19.2808C108.957 19.3123 108.938 19.6669 109.585 19.7606C110.232 19.8544 110.07 19.5495 109.903 19.3627C109.735 19.176 109.405 18.6842 109.654 18.4604C109.903 18.2366 110.357 18.6165 111.001 18.7693C111.645 18.9222 111.442 19.3855 112.316 19.6692C113.19 19.9529 113.345 20.376 113.75 20.5754C114.154 20.7747 114.244 21.3129 114.583 21.6273C114.921 21.9417 114.856 22.0568 115.26 22.2562C115.664 22.4555 115.232 22.7881 114.799 23.1206C114.367 23.4531 113.844 23.2475 113.191 23.2719C112.538 23.2963 112.793 22.9544 112.454 22.6399C112.115 22.3255 113.201 21.9686 112.859 21.7133C112.517 21.458 112.383 21.7471 111.951 22.0797C111.518 22.4122 112.416 24.4752 111.806 24.7983C111.196 25.1214 110.785 25.0402 109.749 25.5776C108.713 26.1151 107.941 26.1332 107.235 26.0363C106.529 25.9394 107.26 25.5635 107.121 24.8448C106.981 24.1262 107.081 24.4871 107.687 24.2231Z" fill="#333333"/>
<path d="M91.8242 27.1704C92.5876 27.9697 92.0961 28.3703 91.7549 28.4706C91.2822 29.0381 90.9865 28.4296 90.7225 27.8229C90.4585 27.2161 89.7178 27.7693 88.7998 28.313C87.8818 28.8568 87.9409 28.8599 87.4863 29.6062C87.0317 30.3524 85.6132 30.2768 84.3382 29.7346C83.0632 29.1925 82.5565 28.6914 81.3808 28.5101C80.2052 28.3289 80.0633 26.5433 80.1232 25.4204C80.1831 24.2975 79.7922 22.7357 80.265 22.7609C80.7378 22.7861 81.7244 22.0683 83.2271 21.6742C84.7298 21.2802 86.1947 21.5954 87.9086 21.6868C89.6225 21.7782 89.7454 23.9184 90.364 24.544C90.9826 25.1697 90.8699 26.1712 91.8242 27.1704Z" fill="#333333"/>
<path d="M95.9659 40.8003L96.024 41.1708L96.1584 41.1497L96.248 41.0474L95.9659 40.8003ZM101.282 40.8003L101.478 41.1199L101.561 41.0693L101.608 40.9852L101.282 40.8003ZM100.045 41.2315L100.319 40.9761L100.287 40.9414L100.247 40.9158L100.045 41.2315ZM93.0785 47.527L92.9417 47.8761L93.6752 48.1637L93.4358 47.4131L93.0785 47.527ZM92.941 47.6563L93.1816 47.3687L93.1816 47.3687L92.941 47.6563ZM99.1282 46.4921L98.7747 46.3669L98.7241 46.5097L98.7869 46.6476L99.1282 46.4921ZM101.099 48.26L101.236 47.9109L101.203 47.898L101.168 47.8915L101.099 48.26ZM95.9078 40.4298C95.7866 40.4488 95.6685 40.4935 95.568 40.5789C95.4691 40.663 95.4148 40.7631 95.3821 40.8451C95.3517 40.921 95.3322 41.0026 95.3194 41.0541C95.3043 41.1141 95.2925 41.1595 95.2761 41.2041C95.2474 41.2818 95.2032 41.3616 95.0968 41.4448C94.9827 41.5341 94.7797 41.6402 94.4111 41.7294L94.5875 42.4584C95.021 42.3535 95.3336 42.2117 95.5589 42.0356C95.792 41.8533 95.911 41.6501 95.9797 41.4636C96.012 41.3762 96.0324 41.2943 96.0469 41.2362C96.0636 41.1696 96.0709 41.1424 96.0785 41.1233C96.0837 41.1103 96.0785 41.1293 96.0536 41.1505C96.027 41.1731 96.0077 41.1733 96.024 41.1708L95.9078 40.4298ZM94.4111 41.7294C93.6272 41.9191 92.6721 42.1193 91.8985 42.3674C91.5102 42.492 91.1439 42.6356 90.8532 42.8085C90.5732 42.975 90.2963 43.2078 90.1982 43.54L90.9175 43.7524C90.934 43.6966 91.0066 43.5898 91.2365 43.4531C91.4556 43.3228 91.7596 43.1996 92.1275 43.0816C92.8664 42.8446 93.7673 42.6568 94.5875 42.4584L94.4111 41.7294ZM90.1982 43.54C90.1483 43.7092 90.0716 43.891 89.9827 44.0979C89.8975 44.2964 89.8003 44.5197 89.7305 44.7406C89.5922 45.1785 89.5209 45.7398 89.9702 46.195L90.504 45.6681C90.3574 45.5196 90.332 45.3264 90.4457 44.9665C90.5019 44.7886 90.5824 44.6022 90.6719 44.3938C90.7577 44.1938 90.8529 43.9713 90.9175 43.7524L90.1982 43.54ZM89.9702 46.195C90.0849 46.3112 90.2253 46.5161 90.3951 46.7949C90.4775 46.9303 90.5625 47.0756 90.6513 47.2275C90.7395 47.3783 90.8313 47.5353 90.9248 47.6893C91.1102 47.9946 91.3122 48.3047 91.525 48.5527C91.7277 48.789 91.9902 49.0297 92.31 49.1005L92.4721 48.3682C92.4024 48.3528 92.2753 48.2754 92.0942 48.0644C91.9232 47.865 91.7471 47.5984 91.5658 47.3C91.4761 47.1522 91.3874 47.0006 91.2987 46.8489C91.2107 46.6983 91.1223 46.5471 91.0357 46.4049C90.8675 46.1286 90.6872 45.8538 90.504 45.6681L89.9702 46.195ZM92.31 49.1005C92.6052 49.1658 92.9119 49.3712 93.2594 49.6553C93.5766 49.9146 93.9543 50.2659 94.3052 50.4782L94.6934 49.8365C94.4028 49.6607 94.1159 49.3867 93.7341 49.0747C93.3827 48.7874 92.9561 48.4754 92.4721 48.3682L92.31 49.1005ZM94.3052 50.4782C94.4204 50.5478 94.4889 50.618 94.5459 50.6888C94.5781 50.7289 94.6039 50.7654 94.641 50.816C94.6749 50.862 94.7184 50.9201 94.7716 50.976C94.8902 51.101 95.0416 51.2005 95.2598 51.2505C95.4608 51.2966 95.7041 51.2973 96.008 51.263L95.9238 50.5177C95.6549 50.5481 95.5086 50.5381 95.4274 50.5195C95.3635 50.5048 95.3402 50.4857 95.3156 50.4597C95.2971 50.4403 95.2769 50.4147 95.2454 50.3719C95.2172 50.3335 95.176 50.2756 95.1302 50.2187C95.0311 50.0955 94.899 49.9608 94.6934 49.8365L94.3052 50.4782ZM96.008 51.263C96.5236 51.2048 96.8287 51.2706 97.2061 51.3261C97.6053 51.3848 98.0344 51.4202 98.7129 51.2547L98.5352 50.526C97.9763 50.6624 97.6492 50.6331 97.3152 50.584C96.9593 50.5317 96.554 50.4466 95.9238 50.5177L96.008 51.263ZM98.7129 51.2547C99.3132 51.1083 99.9405 51.0259 100.547 50.9262C101.129 50.8306 101.716 50.7158 102.145 50.4888L101.794 49.8259C101.49 49.9869 101.023 50.0878 100.425 50.1862C99.8513 50.2805 99.1724 50.3706 98.5352 50.526L98.7129 51.2547ZM102.145 50.4888C102.562 50.268 102.835 50.0097 103.049 49.7855C103.277 49.5463 103.39 49.4075 103.544 49.3108L103.145 48.6754C102.887 48.8374 102.679 49.0866 102.506 49.2679C102.319 49.4641 102.11 49.6586 101.794 49.8259L102.145 50.4888ZM103.544 49.3108C103.621 49.2622 103.732 49.1984 103.796 49.1537C103.881 49.0955 103.975 49.0165 104.042 48.8888C104.104 48.7728 104.128 48.6471 104.142 48.5294C104.157 48.4099 104.166 48.2562 104.177 48.0665L103.429 48.0223C103.417 48.2208 103.409 48.3474 103.398 48.4381C103.386 48.5306 103.376 48.5451 103.38 48.5368C103.391 48.5169 103.404 48.5134 103.371 48.536C103.319 48.5721 103.274 48.5946 103.145 48.6754L103.544 49.3108ZM104.177 48.0665C104.221 47.3203 104.397 46.7498 104.574 46.484L103.949 46.069C103.667 46.4932 103.476 47.2163 103.429 48.0223L104.177 48.0665ZM104.574 46.484C104.841 46.0822 105.089 45.4155 105.139 44.7076L104.391 44.6546C104.35 45.2402 104.14 45.7809 103.949 46.069L104.574 46.484ZM105.139 44.7076C105.156 44.4674 105.231 44.4 105.317 44.1972C105.361 44.0925 105.416 43.9151 105.328 43.7131C105.256 43.5471 105.113 43.4293 104.977 43.3367L104.554 43.9557C104.67 44.0355 104.658 44.0526 104.641 44.0119C104.607 43.9352 104.639 43.8736 104.627 43.9037C104.598 43.9704 104.42 44.248 104.391 44.6546L105.139 44.7076ZM104.977 43.3367C104.763 43.19 104.661 43.0767 104.552 42.9492C104.431 42.8089 104.293 42.6405 104.028 42.4411L103.577 43.0403C103.771 43.1859 103.862 43.2977 103.982 43.4377C104.114 43.5905 104.264 43.7574 104.554 43.9557L104.977 43.3367ZM104.028 42.4411C103.868 42.3203 103.753 42.1389 103.605 41.887C103.473 41.6635 103.297 41.35 103.016 41.1445L102.573 41.7497C102.705 41.846 102.804 42.0068 102.959 42.2684C103.096 42.5016 103.28 42.8161 103.577 43.0403L104.028 42.4411ZM103.016 41.1445C102.937 41.0867 102.836 40.9896 102.694 40.8553C102.563 40.7317 102.405 40.5836 102.242 40.465C102.09 40.3538 101.876 40.2244 101.635 40.2116C101.504 40.2046 101.367 40.2325 101.24 40.31C101.117 40.3854 101.025 40.4941 100.956 40.6154L101.608 40.9852C101.631 40.9447 101.643 40.943 101.631 40.95C101.616 40.9591 101.6 40.9608 101.595 40.9605C101.595 40.9605 101.6 40.9607 101.61 40.9637C101.621 40.9666 101.635 40.9719 101.654 40.9808C101.694 40.9992 101.742 41.0285 101.8 41.0709C101.918 41.1571 102.044 41.2731 102.178 41.4001C102.301 41.5165 102.446 41.6566 102.573 41.7497L103.016 41.1445ZM101.086 40.4807C100.814 40.6475 100.619 40.7813 100.475 40.8812C100.318 40.9907 100.257 41.0338 100.218 41.0537C100.205 41.0605 100.226 41.0468 100.269 41.0434C100.323 41.039 100.371 41.0533 100.403 41.0706C100.425 41.0824 100.43 41.0906 100.408 41.0697C100.388 41.0497 100.363 41.0228 100.319 40.9761L99.7702 41.4868C99.807 41.5264 99.8479 41.5708 99.8854 41.6073C99.922 41.6429 99.9767 41.6925 100.047 41.7306C100.128 41.7741 100.223 41.7995 100.329 41.791C100.425 41.7833 100.504 41.7501 100.559 41.7219C100.657 41.6717 100.78 41.5828 100.904 41.4968C101.041 41.4014 101.223 41.2764 101.478 41.1199L101.086 40.4807ZM100.247 40.9158C99.9579 40.7302 99.69 40.6328 99.4342 40.6179C99.1734 40.6028 98.9619 40.6756 98.7936 40.7677C98.645 40.849 98.4963 40.9689 98.429 41.0168C98.3328 41.0851 98.3238 41.0721 98.3491 41.0721V41.8221C98.5807 41.8221 98.7606 41.7012 98.8635 41.6281C98.9953 41.5344 99.0557 41.4792 99.1535 41.4257C99.2315 41.3831 99.3035 41.3616 99.3908 41.3667C99.4831 41.372 99.6276 41.4093 99.8423 41.5471L100.247 40.9158ZM98.3491 41.0721C98.3437 41.0721 98.3655 41.071 98.4005 41.082C98.4369 41.0935 98.5117 41.1261 98.5681 41.2099C98.6267 41.297 98.6295 41.3855 98.6226 41.437C98.6164 41.4832 98.6016 41.512 98.5997 41.5158C98.5961 41.5229 98.6004 41.5134 98.6297 41.4768C98.6635 41.4347 98.6795 41.4173 98.7257 41.3606C98.7607 41.3177 98.8052 41.2611 98.8422 41.2006C98.8732 41.1499 98.9319 41.0454 98.9365 40.9146C98.9392 40.8401 98.9244 40.7526 98.8745 40.6686C98.8252 40.5856 98.7566 40.531 98.6919 40.4967C98.5759 40.4352 98.4469 40.4253 98.3491 40.4253V41.1753C98.4117 41.1753 98.3901 41.1855 98.3409 41.1595C98.3096 41.1429 98.2642 41.1097 98.2295 41.0513C98.1943 40.9919 98.1854 40.9323 98.187 40.8881C98.1895 40.8179 98.2177 40.7842 98.2024 40.8092C98.193 40.8245 98.1753 40.8488 98.1443 40.8868C98.1247 40.9109 98.0712 40.9744 98.0443 41.008C98.0129 41.0472 97.9653 41.1085 97.9309 41.1762C97.9136 41.2104 97.8887 41.2669 97.8792 41.3378C97.869 41.4139 97.8754 41.5239 97.9459 41.6287C98.0142 41.7302 98.1092 41.7767 98.1759 41.7976C98.241 41.8181 98.3029 41.8221 98.3491 41.8221V41.0721ZM98.3491 40.4253C97.9157 40.4253 97.5483 40.6666 97.4348 40.7217C97.3969 40.7401 97.3934 40.7381 97.4086 40.7352C97.4297 40.7312 97.5072 40.7222 97.5901 40.7749C97.6276 40.7988 97.6517 40.8267 97.6657 40.8476C97.6725 40.8577 97.6768 40.866 97.6793 40.8713C97.6819 40.8767 97.6829 40.8799 97.683 40.8802C97.6831 40.8804 97.6824 40.8785 97.6813 40.8739C97.6803 40.8693 97.6789 40.8626 97.6774 40.8536C97.6744 40.8352 97.6714 40.8097 97.6692 40.7754L96.9208 40.8251C96.9274 40.9252 96.9411 41.0259 96.9712 41.1166C97.0009 41.206 97.0605 41.327 97.1875 41.4078C97.3213 41.4928 97.4592 41.4893 97.5504 41.4717C97.6355 41.4553 97.7115 41.4211 97.7624 41.3963C98.0041 41.279 98.1408 41.1753 98.3491 41.1753V40.4253ZM97.6692 40.7754C97.6239 40.0947 97.67 39.9499 97.67 39.5498H96.92C96.92 39.8396 96.8744 40.126 96.9208 40.8251L97.6692 40.7754ZM97.67 39.5498C97.67 39.4256 97.6499 39.2874 97.6055 39.1573C97.5627 39.0315 97.4856 38.88 97.3481 38.7683C97.1944 38.6433 96.9928 38.5923 96.7779 38.6465C96.5846 38.6953 96.409 38.8214 96.2482 38.9853L96.7835 39.5106C96.8382 39.4548 96.8817 39.42 96.9136 39.3989C96.9293 39.3886 96.9412 39.3822 96.9494 39.3784C96.9576 39.3747 96.9615 39.3737 96.9613 39.3737C96.9597 39.3741 96.9447 39.3772 96.9222 39.3721C96.8998 39.3671 96.8837 39.3573 96.8752 39.3503C96.8679 39.3444 96.8688 39.3429 96.8746 39.3523C96.8803 39.3615 96.888 39.3769 96.8956 39.3992C96.9114 39.4456 96.92 39.5015 96.92 39.5498H97.67ZM96.2482 38.9853C95.8876 39.3529 95.8037 39.7614 95.7656 40.0707C95.7444 40.2423 95.7409 40.3323 95.7217 40.4361C95.7051 40.5265 95.6871 40.5494 95.6838 40.5532L96.248 41.0474C96.3822 40.8942 96.433 40.7146 96.4593 40.5721C96.4831 40.443 96.4968 40.2696 96.51 40.1625C96.5406 39.9142 96.5942 39.7036 96.7835 39.5106L96.2482 38.9853ZM93.4358 47.4131C93.3736 47.218 93.3643 47.1256 93.3672 47.0585C93.3707 46.9794 93.3906 46.9073 93.441 46.7178L92.7161 46.5252C92.6748 46.6806 92.6259 46.8457 92.618 47.0253C92.6095 47.2169 92.646 47.4048 92.7213 47.6409L93.4358 47.4131ZM93.441 46.7178C93.4694 46.6108 93.4833 46.521 93.4934 46.4565C93.5047 46.3848 93.5091 46.3628 93.5143 46.3473C93.5156 46.3434 93.515 46.3433 93.521 46.3369C93.5318 46.3253 93.5615 46.2982 93.6353 46.2548L93.2551 45.6083C93.0272 45.7423 92.8767 45.8899 92.8032 46.1087C92.7741 46.1956 92.7613 46.2841 92.7525 46.3404C92.7425 46.4039 92.7335 46.4596 92.7161 46.5252L93.441 46.7178ZM93.6353 46.2548C93.7107 46.2105 93.7534 46.1928 93.7793 46.1839C93.809 46.1738 93.8254 46.1712 93.8872 46.1575C94.0288 46.1262 94.1808 46.0772 94.4628 45.9083L94.0775 45.2648C93.8554 45.3978 93.7782 45.4135 93.725 45.4253C93.6895 45.4332 93.617 45.4468 93.5365 45.4743C93.452 45.5032 93.363 45.5449 93.2551 45.6083L93.6353 46.2548ZM94.4628 45.9083C94.8136 45.6983 94.9476 45.4131 95.0225 45.2771C95.0667 45.197 95.0674 45.2133 95.0393 45.2329C94.9832 45.2722 94.9374 45.2564 94.9725 45.2637L95.126 44.5296C94.9549 44.4938 94.7716 44.5049 94.6095 44.6183C94.4754 44.7121 94.4017 44.8497 94.3657 44.9151C94.2802 45.0702 94.2308 45.173 94.0775 45.2648L94.4628 45.9083ZM94.9725 45.2637C95.4269 45.3587 95.5548 45.3459 95.8413 45.548L96.2738 44.9352C95.827 44.6199 95.4966 44.6071 95.126 44.5296L94.9725 45.2637ZM95.8413 45.548C96.1656 45.7768 96.0396 45.7284 96.3761 46.0978L96.9306 45.5928C96.7171 45.3585 96.6828 45.2238 96.2738 44.9352L95.8413 45.548ZM96.3761 46.0978C96.4254 46.1519 96.4143 46.1569 96.4057 46.1228C96.4007 46.103 96.3992 46.0805 96.4018 46.0587C96.4042 46.039 96.4089 46.0278 96.4081 46.0299C96.4064 46.0343 96.4029 46.0417 96.3904 46.0668C96.38 46.0877 96.3625 46.1222 96.3462 46.1611C96.3108 46.2456 96.2783 46.3547 96.2783 46.4921H97.0283C97.0283 46.4367 97.0281 46.5 97.1048 46.3075C97.1403 46.2186 97.1713 46.0918 97.133 45.9397C97.0986 45.8032 97.0188 45.6896 96.9306 45.5928L96.3761 46.0978ZM96.2783 46.4921C96.2783 46.5581 96.276 46.5962 96.2743 46.6377C96.2728 46.6773 96.2704 46.7419 96.2865 46.818C96.3014 46.888 96.3281 46.9495 96.3508 46.9993C96.3735 47.0492 96.409 47.1223 96.4518 47.2128L97.1299 46.8925C97.081 46.789 97.0535 46.7327 97.0333 46.6883C97.013 46.6437 97.0167 46.646 97.0201 46.6621C97.0249 46.6843 97.0225 46.7003 97.0238 46.6672C97.025 46.6359 97.0283 46.5771 97.0283 46.4921H96.2783ZM96.4518 47.2128C96.4826 47.278 96.475 47.2876 96.4753 47.2652C96.4756 47.2449 96.4854 47.2231 96.466 47.2778C96.446 47.3342 96.4118 47.4368 96.4236 47.5758C96.4346 47.7037 96.4813 47.8298 96.5514 47.9617L97.2136 47.6097C97.1691 47.526 97.17 47.5011 97.1709 47.5119C97.1728 47.5336 97.1643 47.5526 97.173 47.5282C97.1822 47.5021 97.2235 47.4021 97.2252 47.2753C97.227 47.1466 97.1908 47.0213 97.1299 46.8925L96.4518 47.2128ZM96.5514 47.9617C96.6215 48.0936 96.6918 48.1926 96.7519 48.2704C96.8235 48.363 96.8431 48.3819 96.869 48.4205C96.8818 48.4395 96.872 48.4298 96.87 48.4088C96.8688 48.3955 96.8744 48.4104 96.8498 48.4798L97.5568 48.7302C97.601 48.6055 97.6295 48.4748 97.6168 48.339C97.6034 48.1954 97.5478 48.0859 97.4918 48.0025C97.4489 47.9387 97.3769 47.8525 97.3453 47.8117C97.3023 47.7561 97.2581 47.6934 97.2136 47.6097L96.5514 47.9617ZM96.8498 48.4798C96.7532 48.7526 96.7825 48.988 96.7825 49.047C96.7825 49.0809 96.7766 49.0375 96.8098 48.9855C96.843 48.9334 96.8779 48.9294 96.8339 48.9471L97.1144 49.6427C97.2308 49.5958 97.3574 49.5217 97.4422 49.3887C97.5269 49.2559 97.5325 49.1208 97.5325 49.047C97.5325 48.8904 97.516 48.8454 97.5568 48.7302L96.8498 48.4798ZM96.8339 48.9471C96.7427 48.9839 96.6617 49.0233 96.6099 49.0471C96.5529 49.0733 96.5206 49.0859 96.4914 49.0934C96.4482 49.1045 96.3678 49.1167 96.1507 49.061L95.9643 49.7875C96.2514 49.8612 96.469 49.8734 96.6778 49.8198C96.7747 49.795 96.8569 49.759 96.9231 49.7286C96.9944 49.6959 97.0452 49.6706 97.1144 49.6427L96.8339 48.9471ZM96.1507 49.061C95.9146 49.0004 95.7692 48.9594 95.6205 48.9394C95.4694 48.9191 95.3134 48.9199 95.0493 48.9199V49.6699C95.335 49.6699 95.4312 49.6707 95.5206 49.6827C95.6126 49.6951 95.6964 49.7187 95.9643 49.7875L96.1507 49.061ZM95.0493 48.9199C94.8791 48.9199 94.7559 48.9403 94.6599 48.9627C94.6259 48.9706 94.5684 48.9858 94.5607 48.9877C94.5389 48.993 94.5416 48.9912 94.5531 48.9905C94.6024 48.9878 94.632 49.0091 94.6128 48.9969C94.5788 48.9752 94.5153 48.9244 94.3896 48.8062L93.8757 49.3524C94.0021 49.4713 94.1104 49.5661 94.2097 49.6293C94.3236 49.702 94.4478 49.7475 94.5945 49.7394C94.6547 49.7361 94.7068 49.7241 94.7403 49.7158C94.788 49.7041 94.7917 49.7021 94.83 49.6931C94.8786 49.6818 94.9444 49.6699 95.0493 49.6699V48.9199ZM94.3896 48.8062C94.1361 48.5677 94.0801 48.5031 94.0401 48.4484C94.0122 48.4101 93.9172 48.2575 93.7419 48.0307L93.1485 48.4894C93.3398 48.7369 93.3365 48.7567 93.4346 48.8909C93.5207 49.0087 93.6251 49.1166 93.8757 49.3524L94.3896 48.8062ZM93.7419 48.0307C93.6554 47.9188 93.6118 47.8541 93.5883 47.8162C93.5768 47.7978 93.5692 47.7842 93.5626 47.7721C93.5588 47.7651 93.5447 47.7385 93.5332 47.719C93.4634 47.6008 93.363 47.5203 93.1816 47.3687L92.7005 47.944C92.9316 48.1373 92.8999 48.1215 92.8874 48.1003C92.8873 48.1003 92.8876 48.1007 92.8883 48.1019C92.889 48.1032 92.89 48.1049 92.8914 48.1076C92.8926 48.1099 92.9001 48.1238 92.904 48.131C92.9155 48.1521 92.9304 48.1785 92.9512 48.212C92.9921 48.2779 93.0517 48.3641 93.1485 48.4894L93.7419 48.0307ZM93.1816 47.3687C93.1464 47.3393 93.1254 47.3194 93.1141 47.3078C93.0996 47.2928 93.1109 47.3012 93.126 47.3287C93.1312 47.3381 93.2082 47.4731 93.1293 47.6375C93.0472 47.8084 92.8854 47.8305 92.8655 47.8331C92.8437 47.8359 92.8278 47.8355 92.8213 47.8352C92.8174 47.835 92.8146 47.8347 92.813 47.8345C92.8122 47.8344 92.8116 47.8344 92.8112 47.8343C92.811 47.8343 92.8108 47.8343 92.8108 47.8343C92.8107 47.8342 92.8106 47.8342 92.8106 47.8342C92.8106 47.8342 92.8106 47.8342 92.8107 47.8343C92.8108 47.8343 92.8109 47.8343 92.8111 47.8343C92.8114 47.8344 92.8119 47.8345 92.8126 47.8346C92.8138 47.8348 92.8156 47.8352 92.8178 47.8357C92.8223 47.8367 92.8281 47.8381 92.8353 47.84C92.8656 47.8482 92.9043 47.8615 92.9417 47.8761L93.2154 47.1779C93.1611 47.1566 93.0956 47.1335 93.0314 47.1161C92.9867 47.104 92.878 47.0752 92.7691 47.0893C92.7228 47.0953 92.5427 47.1263 92.4531 47.3129C92.3667 47.493 92.447 47.6504 92.4691 47.6905C92.5239 47.79 92.6203 47.877 92.7005 47.944L93.1816 47.3687ZM99.4817 46.6173C99.5405 46.4514 99.5437 46.2802 99.5371 46.1452C99.5309 46.0156 99.5108 45.8623 99.5015 45.7661C99.4903 45.65 99.4899 45.5813 99.4975 45.5388C99.503 45.5074 99.5046 45.5329 99.4749 45.5529L99.0565 44.9304C98.8664 45.0581 98.7878 45.2454 98.759 45.408C98.7321 45.5595 98.7433 45.7172 98.7549 45.8382C98.7686 45.9793 98.7828 46.0739 98.788 46.1814C98.793 46.2836 98.7847 46.3387 98.7747 46.3669L99.4817 46.6173ZM99.4749 45.5529C99.553 45.5003 99.5987 45.4954 99.7059 45.4858C99.8399 45.4738 100.048 45.4565 100.276 45.278L99.8134 44.6878C99.7662 44.7249 99.7456 44.7292 99.639 44.7388C99.5056 44.7507 99.2992 44.7673 99.0565 44.9304L99.4749 45.5529ZM100.276 45.278C100.316 45.2467 100.36 45.21 100.397 45.1693C100.425 45.1386 100.501 45.0519 100.517 44.9203C100.539 44.7424 100.444 44.6186 100.375 44.5598C100.322 44.5143 100.263 44.4879 100.25 44.4819C100.221 44.4681 100.218 44.4671 100.205 44.4605C100.197 44.4564 100.196 44.4554 100.199 44.4574C100.202 44.4598 100.208 44.4649 100.213 44.4725C100.218 44.4803 100.22 44.4859 100.22 44.4859L99.5027 44.7038C99.5504 44.8608 99.6394 44.9718 99.7361 45.0476C99.821 45.1141 99.916 45.1534 99.931 45.1605C99.9372 45.1634 99.9354 45.1628 99.9305 45.16C99.9262 45.1576 99.9092 45.1479 99.8883 45.1302C99.8673 45.1122 99.8318 45.077 99.8048 45.0209C99.7753 44.9598 99.7649 44.8922 99.773 44.8272C99.7804 44.7679 99.8014 44.7254 99.8144 44.7031C99.8276 44.6807 99.8395 44.6674 99.8425 44.6642C99.8474 44.6588 99.8423 44.6652 99.8134 44.6878L100.276 45.278ZM100.22 44.4859C100.209 44.4478 100.196 44.4077 100.188 44.3822C100.179 44.3528 100.174 44.3343 100.17 44.3208C100.167 44.3072 100.168 44.3075 100.169 44.3159C100.169 44.3258 100.17 44.3481 100.163 44.3769C100.155 44.4071 100.143 44.4328 100.129 44.4522C100.117 44.4698 100.107 44.4775 100.109 44.4759C100.111 44.4743 100.119 44.4675 100.14 44.4548C100.16 44.4424 100.186 44.4271 100.222 44.4077L99.8673 43.7471C99.7841 43.7918 99.6978 43.8419 99.6271 43.9012C99.5499 43.9659 99.468 44.0607 99.4343 44.1983C99.4035 44.3236 99.4261 44.4353 99.4423 44.501C99.4576 44.5626 99.4851 44.6458 99.5027 44.7038L100.22 44.4859ZM100.222 44.4077C100.33 44.35 100.415 44.2865 100.476 44.2405C100.546 44.1884 100.572 44.1691 100.595 44.1571C100.603 44.1531 100.605 44.1532 100.602 44.1539C100.6 44.1542 100.599 44.1545 100.597 44.1547C100.595 44.1549 100.594 44.1548 100.594 44.1548C100.594 44.1548 100.596 44.1549 100.6 44.1556C100.604 44.1563 100.61 44.1576 100.618 44.1602C100.635 44.1655 100.66 44.1754 100.696 44.1941L101.043 43.5294C100.91 43.4597 100.773 43.4124 100.63 43.4057C100.479 43.3986 100.354 43.4375 100.251 43.491C100.159 43.5383 100.077 43.6026 100.026 43.6407C99.9669 43.685 99.9205 43.7185 99.8673 43.7471L100.222 44.4077ZM100.696 44.1941C100.801 44.2488 100.835 44.271 100.843 44.2774C100.844 44.2781 100.829 44.2671 100.812 44.2441C100.791 44.2177 100.78 44.1918 100.774 44.1757C100.774 44.1754 100.769 44.1588 100.78 44.1967C100.787 44.2229 100.799 44.2572 100.817 44.2982C100.853 44.3793 100.906 44.4662 100.989 44.5698L101.575 44.1024C101.521 44.0335 101.506 44.0018 101.503 43.9953C101.502 43.9926 101.501 43.9908 101.5 43.9858C101.498 43.9795 101.498 43.9799 101.494 43.9673C101.492 43.9585 101.487 43.9429 101.481 43.9252C101.444 43.8209 101.381 43.7436 101.296 43.6792C101.231 43.6305 101.145 43.5826 101.043 43.5294L100.696 44.1941ZM100.989 44.5698C101.04 44.6336 101.027 44.6677 101.053 44.896C101.063 44.9824 101.088 45.1604 101.228 45.3026C101.375 45.4524 101.571 45.4873 101.741 45.4873V44.7373C101.658 44.7373 101.705 44.7183 101.762 44.7764C101.812 44.827 101.805 44.8756 101.798 44.8111C101.79 44.7376 101.8 44.3836 101.575 44.1024L100.989 44.5698ZM101.741 45.4873C101.893 45.4873 102.019 45.471 102.13 45.438C102.245 45.404 102.325 45.3574 102.381 45.3221C102.441 45.2842 102.442 45.2829 102.453 45.2788C102.454 45.2782 102.458 45.2767 102.466 45.2753C102.476 45.2737 102.492 45.2717 102.52 45.2717V44.5217C102.389 44.5217 102.278 44.5414 102.176 44.5819C102.084 44.6182 102.008 44.6708 101.982 44.6868C101.953 44.7054 101.938 44.7127 101.917 44.7191C101.892 44.7266 101.84 44.7373 101.741 44.7373V45.4873ZM102.52 45.2717C102.568 45.2717 102.596 45.2717 102.615 45.2722C102.624 45.2724 102.626 45.2727 102.623 45.2724C102.623 45.2724 102.603 45.2709 102.576 45.2633C102.561 45.2592 102.537 45.2513 102.508 45.2365C102.48 45.2215 102.44 45.1957 102.403 45.1527C102.363 45.1072 102.335 45.0512 102.321 44.9892C102.309 44.9301 102.313 44.8793 102.32 44.8442C102.326 44.8099 102.337 44.784 102.343 44.7694C102.35 44.7542 102.356 44.7432 102.359 44.738C102.363 44.7298 102.368 44.7237 102.362 44.7323C102.344 44.7598 102.285 44.8449 102.261 44.9715C102.236 45.1008 102.252 45.2384 102.309 45.3805L103.006 45.1028C102.993 45.0724 103.004 45.0806 102.998 45.1129C102.992 45.1425 102.976 45.1629 102.987 45.1473C102.988 45.1451 102.999 45.1296 103.008 45.1131C103.015 45.1014 103.043 45.0529 103.056 44.9855C103.073 44.8991 103.064 44.771 102.97 44.6617C102.896 44.5761 102.806 44.549 102.777 44.5408C102.716 44.5238 102.654 44.523 102.635 44.5225C102.604 44.5216 102.563 44.5217 102.52 44.5217V45.2717ZM102.309 45.3805C102.368 45.5297 102.428 45.6953 102.492 45.8165C102.569 45.9618 102.679 46.0973 102.864 46.1846L103.183 45.506C103.18 45.5043 103.179 45.5035 103.179 45.5038C103.18 45.5042 103.18 45.5044 103.18 45.5039C103.178 45.5025 103.17 45.4933 103.154 45.4645C103.138 45.4343 103.12 45.3929 103.095 45.3297C103.064 45.2526 103.048 45.2083 103.006 45.1028L102.309 45.3805ZM102.864 46.1846C102.893 46.1981 102.915 46.2076 102.93 46.2141C102.94 46.218 102.941 46.2185 102.943 46.2196C102.948 46.2215 102.936 46.2167 102.921 46.2084C102.913 46.2041 102.894 46.1935 102.872 46.1765C102.853 46.1615 102.809 46.1242 102.775 46.0603C102.756 46.0259 102.74 45.9831 102.734 45.9331C102.727 45.8826 102.731 45.8338 102.742 45.7896C102.764 45.7062 102.809 45.6531 102.829 45.6309C102.851 45.607 102.871 45.5918 102.878 45.5867C102.886 45.5807 102.892 45.5765 102.893 45.5764C102.897 45.5735 102.885 45.5813 102.876 45.5874C102.853 45.604 102.821 45.6294 102.789 45.6666C102.757 45.7035 102.73 45.7459 102.708 45.7938C102.665 45.8879 102.649 45.9928 102.649 46.104H103.399C103.399 46.0643 103.405 46.0722 103.391 46.1029C103.373 46.1428 103.341 46.1772 103.309 46.2002C103.306 46.2023 103.299 46.2069 103.307 46.2013C103.309 46.1999 103.318 46.1945 103.327 46.1873C103.335 46.1812 103.357 46.1649 103.38 46.14C103.401 46.1169 103.446 46.0629 103.468 45.9786C103.494 45.8796 103.477 45.7824 103.435 45.7052C103.401 45.6403 103.355 45.6021 103.335 45.5861C103.312 45.5681 103.292 45.5564 103.282 45.5509C103.262 45.5403 103.244 45.5327 103.241 45.5311C103.235 45.5287 103.226 45.5249 103.223 45.5235C103.213 45.5194 103.201 45.514 103.183 45.506L102.864 46.1846ZM102.649 46.104C102.649 46.2115 102.634 46.2526 102.621 46.2801C102.612 46.2998 102.598 46.3232 102.574 46.361C102.558 46.3849 102.509 46.4587 102.478 46.5061L103.111 46.9093C103.158 46.8356 103.247 46.7125 103.301 46.5963C103.368 46.4513 103.399 46.2983 103.399 46.104H102.649ZM102.478 46.5061C102.441 46.565 102.405 46.6413 102.394 46.7333C102.382 46.8311 102.402 46.9185 102.435 46.9898C102.465 47.0532 102.503 47.0993 102.521 47.1206C102.553 47.158 102.542 47.1437 102.553 47.1571C102.554 47.1581 102.543 47.1446 102.533 47.12C102.521 47.0925 102.515 47.0617 102.517 47.0323C102.519 46.9815 102.539 46.9803 102.489 47.0515L103.101 47.4851C103.188 47.3622 103.26 47.2208 103.266 47.0622C103.273 46.8828 103.194 46.7584 103.139 46.6896C103.127 46.674 103.115 46.6607 103.108 46.6519C103.098 46.6411 103.096 46.6385 103.092 46.6344C103.085 46.6261 103.101 46.6424 103.115 46.6736C103.133 46.7125 103.146 46.7649 103.139 46.8223C103.133 46.8738 103.114 46.9043 103.111 46.9093L102.478 46.5061ZM102.489 47.0515C102.398 47.1792 102.342 47.3 102.325 47.425C102.317 47.487 102.319 47.5366 102.322 47.5658C102.322 47.5715 102.323 47.5782 102.323 47.5799C102.323 47.5829 102.323 47.5823 102.323 47.5804C102.323 47.5773 102.322 47.5579 102.325 47.5315C102.333 47.4593 102.367 47.3946 102.411 47.3492C102.441 47.3181 102.465 47.3087 102.447 47.3179C102.413 47.3356 102.336 47.368 102.158 47.4347L102.423 48.1367C102.589 48.074 102.712 48.0255 102.794 47.9826C102.835 47.9615 102.895 47.9269 102.948 47.872C103.016 47.8028 103.058 47.716 103.07 47.6195C103.074 47.5809 103.073 47.5489 103.072 47.5323C103.071 47.5236 103.07 47.5159 103.07 47.5116C103.07 47.506 103.069 47.505 103.069 47.5028C103.069 47.5002 103.07 47.5124 103.068 47.5279C103.064 47.5599 103.054 47.5514 103.101 47.4851L102.489 47.0515ZM102.158 47.4347C101.744 47.5906 101.522 47.8184 101.411 47.9065C101.356 47.9498 101.349 47.9451 101.358 47.9435C101.366 47.9421 101.338 47.9511 101.236 47.9109L100.962 48.6092C101.134 48.6767 101.307 48.7127 101.483 48.683C101.66 48.6531 101.787 48.5648 101.876 48.4949C102.051 48.3567 102.149 48.2395 102.423 48.1367L102.158 47.4347ZM101.168 47.8915C100.021 47.6757 99.7621 47.6694 99.6782 47.6694V48.4194C99.6859 48.4194 99.8849 48.4132 101.03 48.6286L101.168 47.8915ZM99.6782 47.6694C99.7909 47.6694 99.8665 47.7204 99.8848 47.7329C99.9124 47.7518 99.9302 47.7699 99.9368 47.7768C99.9509 47.7915 99.9572 47.8013 99.9543 47.7971C99.9504 47.7915 99.9394 47.7743 99.9215 47.7424C99.887 47.681 99.8417 47.5913 99.7965 47.4912C99.7513 47.391 99.7093 47.2875 99.6794 47.198C99.6455 47.0965 99.6407 47.0519 99.6407 47.0527H98.8907C98.8907 47.1828 98.9317 47.3269 98.968 47.4355C99.0083 47.5563 99.0609 47.6845 99.113 47.7999C99.1652 47.9155 99.2201 48.0252 99.2673 48.1093C99.2903 48.1502 99.3154 48.1923 99.3403 48.2278C99.3518 48.2441 99.3707 48.27 99.3952 48.2955C99.407 48.3078 99.4294 48.3301 99.4611 48.3518C99.4835 48.3671 99.5626 48.4194 99.6782 48.4194V47.6694ZM99.6407 47.0527C99.6407 46.7653 99.5228 46.4538 99.4695 46.3367L98.7869 46.6476C98.8019 46.6804 98.8297 46.7508 98.8532 46.8342C98.8774 46.9203 98.8907 46.9979 98.8907 47.0527H99.6407Z" fill="#333333"/>
</svg>
