<svg width="52" height="67" viewBox="0 0 52 67" fill="none" xmlns="http://www.w3.org/2000/svg">
<path d="M24.5 12.5L22.5 15L24.5 18V19L23 24L21.5 26.5L18.5 30.5L15 41.5L14.5 44L15.5 48L18 50.5L20.5 51.5L21.5 52.5L24 53L25 54.5L26.5 58L29.5 60.1821H31.5L34 57L34.5 55L33 51.5H34.5L37 50L39.5 49L40 50.5L41 50V52L40.5 55L40 58V60.1821L43 63.5L44.5 64L47 65.5L48 64L48.5 62L49 60.1821L48.5 58.5L46 51L45.5 48L46 41L47 40L47.5 42L49 40.5L48.5 39L49 29.5L48 25.5L47 22.5L46 19.5L48.5 17L50 14L50.5 11.5L50 10L49 8.5L47 6L45.5 4.5L42 2.5L39.5 1L36.5 2L33 1L31 3L25.5 6.5L25 8.5L24.5 12.5Z" fill="white"/>
<path d="M40.7928 61.7167L43.4002 63.5792L40.7928 66.0004L33.9017 60.5992V56.5018L33.7154 54.8256L33.5292 52.0319L33.9017 51.6594L36.3229 51.1007L40.2341 56.8743L39.6753 58.3643L40.2341 59.1093L40.7928 61.7167Z" fill="black" fill-opacity="0.3"/>
<path d="M13.2283 55.5706C15.3143 58.4015 24.2789 59.4817 28.5005 59.668L24.9617 55.5706V53.1494L23.8442 54.0806L22.7267 53.1494H21.7955L20.4918 51.6594L17.5118 49.6107L15.0906 45.6995V44.0233V42.1608V39.7396C13.1661 39.0567 8.86999 37.6909 7.08202 37.6909C4.84706 37.6909 1.49481 41.2296 0.936068 44.0233C0.377329 46.817 10.6209 52.0319 13.2283 55.5706Z" fill="black" fill-opacity="0.3"/>
<path d="M22.9516 28.5661C22.9638 28.5706 22.9766 28.5748 22.9902 28.5789C22.9776 28.5744 22.9648 28.5702 22.9516 28.5661Z" fill="#333333"/>
<path d="M41.0448 49.7292C41.0527 49.7314 41.0603 49.7333 41.0676 49.7347C41.0605 49.7319 41.0529 49.7301 41.0448 49.7292Z" fill="#333333"/>
<path d="M31.6526 17.0491C31.6822 17.5244 31.7221 18.0608 31.7224 18.5876C31.6235 18.0653 31.6269 17.4205 31.6526 17.0491Z" fill="#333333"/>
<path d="M50.5471 13.3124C51.6494 12.4093 49.6433 8.0042 48.1442 7.60773C46.6451 7.21127 47.1301 4.81046 45.2342 4.30387C43.788 4.21576 40.8251 2.06458 39.5244 1C38.7969 1.49235 37.7984 1.97 36.6365 1.97C34.9169 1.97 34.7405 1 33.2415 1C31.7424 1 29.5378 4.30387 28.7221 4.30387C27.9064 4.30387 25.7239 6.46728 25.3271 6.46728C24.9303 6.46728 24.7319 10.0827 24.7319 10.9866C24.7319 11.8905 23.321 13.9848 22.8139 14.6902C22.3069 15.3957 23.4312 17.2916 24.7319 18.3939C26.0326 19.4962 26.0735 20.5851 27.223 21.1937C28.7221 21.9873 28.7221 21.6787 30.5298 21.1937C31.9562 20.811 31.7493 18.6027 31.6526 17.0491M49.8417 13.3124C49.5771 14.411 48.8673 16.7449 48.1442 17.2916C47.3406 17.8992 46.4498 18.838 45.5649 19.5345M43.4485 6.46728C44.661 6.8641 44.4405 9.26706 44.4405 10.0827C44.4405 10.8984 44.0437 12.0889 43.4485 12.7723C42.8533 13.4557 42.743 15.6823 42.236 16.7846C41.7289 17.8868 44.2421 20.4882 45.2342 19.7828C45.3442 19.7045 45.4545 19.6214 45.5649 19.5345M28.7221 7.60773C29.2218 9.14921 29.1841 12.4877 29.431 12.9198C29.7396 13.4599 31.7423 14.6902 31.6321 15.9909C31.6089 16.2653 31.6268 16.6338 31.6526 17.0491M45.5649 19.5345C45.8882 19.6687 46.5613 20.0164 46.6672 20.3339C46.7994 20.7307 47.4388 23.4423 47.571 24.1037C47.7033 24.765 47.593 25.8673 48.1442 26.0657M48.4969 28.3364C48.9305 28.9169 49.5375 30.6909 48.4969 33.1423C49.1363 35.1705 48.1442 35.6178 48.1442 36.8019C48.1442 38.1026 49.4449 39.8662 48.4969 40.9685M46.6672 40.5717C46.9685 40.7407 47.571 41.1845 47.571 41.6078C47.571 42.0311 47.3212 42.4308 47.1963 42.5778M46.6672 37.3089C46.2997 38.9403 45.5649 42.3838 45.5649 43.1069C45.5649 44.0108 45.609 48.9489 46.1381 49.6764C46.6672 50.4039 46.1381 51.881 46.6672 52.5424C47.1963 53.2037 48.056 57.2381 48.4969 58.0758C48.9379 58.9135 49.9079 60.0819 49.2024 60.4787C48.4969 60.8756 49.5772 63.521 47.571 64.1824C47.2712 64.7644 46.8435 65.5125 46.6672 65.8137C46.1822 65.123 45.0358 63.7018 44.3303 63.5431C43.6249 63.7547 43.4485 64.0575 43.4485 64.1824C43.3741 63.9266 43.1536 63.4664 42.7514 63.0557C42.5181 62.8176 42.2237 62.5961 41.8612 62.4408C40.6267 61.9117 40.296 61.4708 40.3622 59.7733C40.4283 58.0758 39.4362 58.7371 39.8992 58.0758C40.3621 57.4144 40.9353 53.336 41.0676 51.5062C41.1113 50.9011 41.1599 50.2525 41.2364 49.6324M42.236 46.8105C41.8399 47.1051 41.5888 47.7365 41.4203 48.5108M43.9335 44.6721C43.7425 45.0028 43.0605 45.7788 41.8612 46.2373M43.0297 37.3089C43.4191 38.7492 43.9644 42.0046 43.0297 43.5037C42.0949 45.0028 41.3321 45.9508 41.0676 46.2373C41.4644 46.2373 41.6187 46.6562 41.4203 46.8105C41.2219 46.9649 40.759 47.1853 40.4283 47.3396M24.7319 19.0993C24.3424 19.8268 23.5194 21.4009 23.343 21.8771C23.1226 22.4723 22.9021 23.8612 22.7037 24.28C22.545 24.6151 23.2255 24.1257 23.5855 23.8391C23.4239 24.0302 23.149 24.4784 23.343 24.743M23.343 25.9114C22.8727 26.6242 22.1746 27.9396 23.1446 27.4987C23.3033 27.6927 23.4018 27.7706 23.4311 27.7853C23.0637 27.9837 22.4611 28.4202 22.9902 28.5789C22.5346 28.4172 21.7204 28.5172 22.1084 30.2103C22.5934 32.3266 22.8799 32.9439 22.7918 33.3628C23.343 33.0762 23.828 32.3928 23.5855 34.1123C23.343 35.8319 24.6877 32.7455 24.5995 32.503C24.529 32.309 24.4526 32.1576 24.4232 32.1062M25.3796 37.1546C25.4824 37.1546 25.6573 37.3266 25.5339 38.0144C25.3796 38.8742 25.0048 40.3732 25.0709 40.6157C25.5339 40.2851 25.5559 39.7339 25.8646 39.8221C26.1732 39.9103 26.3055 40.0867 26.4598 40.1748M27.7164 40.7039C27.7311 41.1007 27.809 41.9561 28.003 42.203C28.2455 42.5117 28.3998 42.5998 28.6864 42.2912C28.973 41.9826 29.2155 41.718 29.458 41.7401M30.6484 42.5778C30.7219 42.7248 30.9615 42.9923 31.3318 42.8864C31.7022 42.7806 31.8977 42.6366 31.9491 42.5778M21.9625 26.4625C21.8964 26.4625 20.1548 28.2482 19.9343 28.5789C19.7139 28.9096 19.2289 29.6371 18.8541 29.9678C18.4793 30.2985 17.5534 31.7755 17.7518 32.4369C17.9502 33.0982 18.1487 33.1644 17.9502 33.3628C17.7518 33.5612 18.0605 32.7014 17.6416 32.7455C17.2227 32.7896 17.2448 33.2526 17.1346 33.7376C17.0243 34.2226 16.4512 36.4932 16.2087 36.9342C15.9662 37.3751 15.8118 38.6317 15.6355 39.0726C15.4591 39.5135 14.7757 40.9023 14.8859 41.3433C14.9962 41.7842 14.7756 43.0187 15.8558 43.8785C15.7236 43.8785 14.5772 42.9305 14.5331 43.5919C14.489 44.2533 15.2386 44.7823 15.3268 45.4217C15.4149 46.061 15.8559 48.0451 16.9361 48.5521L17.3329 48.8167C17.0978 48.7799 16.6892 48.7638 16.9361 48.993C17.2447 49.2796 18.6777 51.2637 19.317 51.2417C19.9563 51.2196 20.6838 51.1755 21.0586 51.4842M20.8161 52.3439C21.2056 52.6599 22.1256 53.3051 22.69 53.358C23.3954 53.4242 23.5497 54.1737 23.9686 53.9753C24.3037 53.8166 24.461 53.4977 24.4977 53.358M22.69 52.6526C23.0133 52.7261 23.7658 52.9083 24.1891 53.0494C24.6123 53.1905 25.3354 53.3139 25.6441 53.358M27.1652 44.2973C27.1211 44.3782 27.0285 44.628 27.0109 44.9808C26.9888 45.4217 26.9007 45.9508 26.9007 46.2594C26.9007 46.568 26.8126 49.2355 26.4598 49.8749C26.107 50.5142 24.2993 53.336 25.3795 55.2099C26.4598 57.0837 26.9668 58.0096 27.1652 58.186C27.3636 58.3624 27.7384 59.4206 28.047 59.641C28.3557 59.8615 28.3116 59.3324 28.6423 59.4867C28.9729 59.641 30.1414 60.9637 30.7366 60.7212C31.3318 60.4787 31.5743 59.9276 31.7286 59.641C31.8829 59.3544 32.6545 57.9435 33.0293 57.8774C33.3291 57.8245 33.0367 57.5614 32.8529 57.4365C33.3747 56.8559 34.3697 55.6464 34.1757 55.4524C33.9817 55.2584 33.7568 55.0629 33.6686 54.9894L34.3961 54.5485C34.2124 54.3721 33.8097 53.9224 33.6686 53.5344C33.4923 53.0494 33.5804 51.1314 32.4561 50.9771C32.3753 51.0212 32.1651 51.1359 31.9711 51.2417C31.9711 50.9771 32.8309 48.4419 32.4561 48.1774M32.1695 43.8785C32.3092 44.5766 32.3371 46.1933 31.3318 47.0751C32.4561 46.2373 32.5443 46.061 32.6986 46.2373C32.8529 46.4137 31.5743 47.7364 31.5082 48.1774C31.442 48.6183 32.39 47.3396 33.0293 47.0751M33.0293 49.3899C32.9117 49.772 32.875 50.4833 33.6686 50.2717M34.1757 50.6464C34.1904 50.7934 34.3079 51.0433 34.6607 50.8669C35.0134 50.6905 35.6307 50.6464 35.8952 50.6464C36.0658 50.6963 36.3118 50.7336 36.5786 50.7176M41.4203 48.5108C40.867 49.3595 40.2841 49.23 40.0618 49.0592C39.9516 48.993 39.6915 48.9004 39.5327 49.0592C39.3343 49.2576 39.0477 49.3899 37.9014 49.8749C37.6065 50.4872 37.059 50.6888 36.5786 50.7176M41.4203 48.5108C41.344 48.8614 41.2847 49.2412 41.2364 49.6324M34.1757 52.0133C34.161 51.9177 34.1845 51.6782 34.3961 51.4842C34.6607 51.2417 34.9914 51.1976 35.5205 51.0874C35.9437 50.9992 36.4023 50.8041 36.5786 50.7176M38.5848 51.4842C38.717 51.2417 38.8714 50.899 39.202 50.7176C39.5327 50.5362 40.5029 49.3899 40.8555 49.6324C40.944 49.6932 41.0135 49.7239 41.0676 49.7347M41.2364 49.6324C41.2299 49.6878 41.1858 49.7585 41.0676 49.7347M39.202 52.0133C39.202 51.903 40.7149 49.5946 41.0676 49.7347M36.5786 48.5108C36.5213 48.5108 36.4662 48.5153 36.4134 48.5237M31.6526 17.0491C31.6118 17.637 31.6272 18.9098 32.0152 19.2978C32.5002 19.7828 32.5002 19.8709 32.5664 20.5323C32.6325 21.1937 32.2136 22.2298 32.8529 22.7589C33.4923 23.288 33.2718 24.1037 33.9111 24.1037C34.5505 24.1037 35.1457 23.7289 35.763 23.2439C36.3802 22.7589 37.1739 21.2598 37.7911 21.5684C38.4084 21.8771 38.3423 21.9653 38.9595 22.0755C39.5768 22.1857 40.5248 22.4282 41.098 22.0755C41.6711 21.7228 42.3546 21.7669 42.7514 21.37C43.1482 20.9732 43.3466 20.0253 42.6411 19.2096C42.5548 18.9156 42.3528 18.2572 42.236 17.975M39.202 44.9808C39.0257 45.3266 39.302 45.1103 38.3708 46.8105C37.4396 48.5108 38.557 48.508 37.4396 49.0592C36.3221 49.6103 35.758 49.3898 35.3882 49.6324C35.4695 49.2874 35.7836 48.6243 36.4134 48.5237M38.5848 43.1069C38.1845 43.8785 37.7714 44.0761 37.4396 44.9808C37.1077 45.8854 36.7991 46.4023 36.1598 47.0751C35.5205 47.7478 37.4386 47.9882 36.4134 48.5237M35.8952 42.8864C35.8952 43.5037 35.2681 46.4365 34.8321 47.7478C34.3961 49.0592 34.0275 49.3192 33.5284 49.9828M41.7232 41.2292C41.4203 41.9742 40.5909 43.4401 40.0618 44.4765C39.5327 45.5129 39.8193 46.972 39.202 47.7478M40.8555 39.8221C40.6057 40.298 40.1888 41.4755 39.8608 42.2912" stroke="#333333" stroke-width="0.75"/>
<path d="M36.4957 15.8254L36.5538 16.1958L36.6882 16.1748L36.7778 16.0725L36.4957 15.8254ZM38.476 15.8254L38.6721 16.145L38.7545 16.0944L38.8022 16.0103L38.476 15.8254ZM38.0151 15.986L38.2897 15.7306L38.2574 15.6959L38.2175 15.6704L38.0151 15.986ZM35.4202 18.331L35.2833 18.6802L36.0168 18.9677L35.7774 18.2171L35.4202 18.331ZM35.369 18.3792L35.6095 18.0915L35.6095 18.0915L35.369 18.3792ZM37.6736 17.9455L37.3202 17.8203L37.2696 17.9631L37.3324 18.101L37.6736 17.9455ZM38.4077 18.6041L38.5446 18.2549L38.5117 18.2421L38.4771 18.2355L38.4077 18.6041ZM36.4376 15.4549C36.3595 15.4671 36.2724 15.4979 36.1951 15.5636C36.1194 15.6279 36.0806 15.7026 36.0597 15.7548C36.0413 15.8009 36.0302 15.8484 36.0266 15.8628C36.0208 15.8858 36.0191 15.8912 36.018 15.8944C36.0176 15.8953 36.0192 15.891 36.0231 15.8853C36.0272 15.8794 36.0299 15.8778 36.027 15.8801C36.0193 15.8861 35.9781 15.9145 35.8612 15.9427L36.0376 16.6717C36.2194 16.6277 36.3703 16.5637 36.489 16.4709C36.6157 16.3719 36.6834 16.2575 36.7216 16.1539C36.7386 16.1079 36.7489 16.0659 36.7542 16.0449C36.7615 16.0153 36.7605 16.0223 36.7562 16.033C36.7495 16.0498 36.7289 16.0942 36.6807 16.1351C36.631 16.1774 36.5806 16.1916 36.5538 16.1958L36.4376 15.4549ZM35.8612 15.9427C35.5806 16.0106 35.2078 16.0891 34.9087 16.1851C34.7577 16.2335 34.6018 16.2934 34.471 16.3712C34.3509 16.4425 34.1837 16.5688 34.1216 16.7793L34.8409 16.9916C34.8214 17.0576 34.7844 17.0574 34.8543 17.0158C34.9134 16.9806 35.0071 16.9411 35.1378 16.8992C35.4021 16.8144 35.7207 16.7484 36.0376 16.6717L35.8612 15.9427ZM34.1216 16.7793C34.1076 16.8267 34.0848 16.8816 34.0508 16.9609C34.0204 17.0317 33.9789 17.1265 33.9487 17.2222C33.8894 17.4098 33.8326 17.7344 34.0948 18.0002L34.6286 17.4733C34.6383 17.4832 34.6472 17.5033 34.6484 17.5172C34.6486 17.5195 34.6471 17.5011 34.6638 17.4482C34.6805 17.3953 34.7053 17.3375 34.7399 17.2568C34.771 17.1844 34.8122 17.0888 34.8409 16.9916L34.1216 16.7793ZM34.0948 18.0002C34.1161 18.0217 34.1559 18.0761 34.2196 18.1807C34.249 18.229 34.2796 18.2812 34.3129 18.3382C34.3456 18.3941 34.3808 18.4543 34.4168 18.5136C34.4872 18.6295 34.5705 18.7587 34.6629 18.8663C34.7452 18.9623 34.8855 19.1032 35.083 19.1469L35.2452 18.4146C35.2976 18.4262 35.2928 18.4487 35.2321 18.378C35.1815 18.319 35.124 18.2333 35.0578 18.1243C35.0256 18.0712 34.9935 18.0165 34.9603 17.9597C34.9278 17.904 34.8938 17.8458 34.8602 17.7907C34.798 17.6885 34.7184 17.5642 34.6286 17.4733L34.0948 18.0002ZM35.083 19.1469C35.1337 19.1581 35.2104 19.2012 35.3386 19.306C35.4365 19.386 35.6057 19.5412 35.7553 19.6317L36.1435 18.9899C36.0541 18.9359 35.9757 18.8581 35.8133 18.7253C35.6812 18.6173 35.4847 18.4677 35.2452 18.4146L35.083 19.1469ZM35.7553 19.6317C35.7698 19.6405 35.7754 19.6464 35.7834 19.6563C35.7912 19.6659 35.7959 19.6729 35.8126 19.6955C35.8259 19.7136 35.8495 19.7455 35.8801 19.7778C35.9538 19.8554 36.0504 19.9176 36.1801 19.9474C36.2926 19.9732 36.4136 19.9705 36.5378 19.9565L36.4536 19.2112C36.3644 19.2213 36.3403 19.2146 36.3477 19.2163C36.3723 19.222 36.4038 19.24 36.4241 19.2615C36.4281 19.2657 36.4279 19.2663 36.4169 19.2514C36.4092 19.2409 36.3891 19.2127 36.3677 19.1862C36.3176 19.1238 36.2485 19.0534 36.1435 18.9899L35.7553 19.6317ZM36.5378 19.9565C36.6939 19.9389 36.7761 19.9573 36.9234 19.979C37.0926 20.0038 37.2844 20.019 37.5747 19.9482L37.397 19.2195C37.2263 19.2612 37.1365 19.2522 37.0325 19.2369C36.9067 19.2184 36.7243 19.1807 36.4536 19.2112L36.5378 19.9565ZM37.5747 19.9482C37.7867 19.8965 38.0042 19.8682 38.2402 19.8294C38.4518 19.7946 38.7085 19.7476 38.9075 19.6423L38.5567 18.9794C38.4825 19.0186 38.3466 19.0519 38.1185 19.0893C37.915 19.1228 37.6459 19.1588 37.397 19.2195L37.5747 19.9482ZM38.9075 19.6423C39.0946 19.5432 39.2163 19.427 39.3043 19.3347C39.4067 19.2274 39.4187 19.2104 39.4435 19.1948L39.045 18.5595C38.9161 18.6403 38.8086 18.7678 38.7616 18.8171C38.7002 18.8815 38.6427 18.9338 38.5567 18.9794L38.9075 19.6423ZM39.4435 19.1948C39.4562 19.1868 39.5179 19.1501 39.546 19.1308C39.5937 19.0979 39.6621 19.0426 39.7119 18.9487C39.7556 18.8665 39.7685 18.7848 39.7749 18.7331C39.7814 18.6795 39.7853 18.6137 39.7893 18.5459L39.0406 18.5017C39.0384 18.5382 39.0367 18.567 39.035 18.5912C39.0332 18.6156 39.0317 18.6313 39.0305 18.6418C39.0291 18.6525 39.0287 18.6519 39.0305 18.645C39.0324 18.6372 39.0377 18.6192 39.0497 18.5968C39.0623 18.5729 39.0781 18.5523 39.0944 18.5358C39.109 18.521 39.1204 18.5132 39.1207 18.513C39.121 18.5128 39.1199 18.5136 39.1163 18.5158C39.1127 18.5181 39.108 18.521 39.101 18.5252C39.0881 18.533 39.0675 18.5453 39.045 18.5595L39.4435 19.1948ZM39.7893 18.5459C39.7965 18.4237 39.8143 18.3163 39.8371 18.2306C39.8609 18.141 39.8859 18.091 39.898 18.0727L39.2733 17.6577C39.1353 17.8654 39.0594 18.1827 39.0406 18.5017L39.7893 18.5459ZM39.898 18.0727C40.0211 17.8874 40.1261 17.5995 40.1475 17.2975L39.3994 17.2444C39.3866 17.4242 39.3209 17.5861 39.2733 17.6577L39.898 18.0727ZM40.1475 17.2975C40.1501 17.2602 40.1451 17.3011 40.1954 17.1828C40.2219 17.1204 40.2697 16.9793 40.199 16.8166C40.144 16.6899 40.0415 16.6145 39.9852 16.576L39.5617 17.1949C39.5743 17.2036 39.5722 17.2034 39.5635 17.1948C39.5547 17.1861 39.5305 17.16 39.5111 17.1154C39.4895 17.0657 39.4824 17.0125 39.4873 16.9634C39.4915 16.9211 39.5036 16.893 39.5052 16.8893C39.5128 16.8714 39.4138 17.0408 39.3994 17.2444L40.1475 17.2975ZM39.9852 16.576C39.929 16.5375 39.9063 16.5121 39.8723 16.4725C39.8274 16.4202 39.7616 16.3397 39.6405 16.2485L39.1894 16.8478C39.239 16.8851 39.2586 16.9091 39.3033 16.9611C39.3589 17.0259 39.4301 17.1049 39.5617 17.1949L39.9852 16.576ZM39.6405 16.2485C39.6238 16.236 39.6025 16.2102 39.5437 16.1105C39.5015 16.0392 39.4123 15.8745 39.2608 15.7637L38.8179 16.3689C38.8133 16.3656 38.8187 16.3681 38.8345 16.39C38.8516 16.4138 38.8687 16.4425 38.8978 16.4919C38.9457 16.5729 39.0354 16.7318 39.1894 16.8478L39.6405 16.2485ZM39.2608 15.7637C39.2465 15.7532 39.2223 15.7306 39.1634 15.6749C39.1159 15.63 39.0467 15.5647 38.9723 15.5104C38.9079 15.4634 38.7814 15.3797 38.6199 15.3711C38.5282 15.3662 38.4292 15.3859 38.3376 15.442C38.2494 15.4959 38.1897 15.57 38.1498 15.6404L38.8022 16.0103C38.7964 16.0206 38.7752 16.0535 38.7287 16.0819C38.6787 16.1125 38.6246 16.1224 38.5801 16.12C38.5411 16.118 38.5177 16.1071 38.515 16.1058C38.5115 16.1042 38.5162 16.106 38.5302 16.1163C38.5604 16.1383 38.5968 16.1713 38.648 16.2198C38.6879 16.2575 38.7554 16.3232 38.8179 16.3689L39.2608 15.7637ZM38.2799 15.5058C38.1733 15.5711 38.0964 15.6238 38.0409 15.6624C38.0116 15.6828 37.9946 15.6948 37.9794 15.7051C37.9634 15.7158 37.9642 15.7145 37.9728 15.7101C37.9809 15.706 38.0204 15.6862 38.0798 15.6814C38.1501 15.6757 38.2131 15.6934 38.2604 15.719C38.2806 15.7299 38.2949 15.7405 38.3026 15.7467C38.3067 15.75 38.3097 15.7526 38.3115 15.7542C38.3133 15.7559 38.3144 15.7569 38.3146 15.7571C38.3146 15.7571 38.3129 15.7554 38.3081 15.7504C38.3032 15.7452 38.2979 15.7395 38.2897 15.7306L37.7405 16.2414C37.7521 16.2538 37.7723 16.2759 37.7916 16.2947C37.81 16.3125 37.8489 16.3492 37.9042 16.379C37.9696 16.4143 38.0502 16.4362 38.14 16.429C38.2189 16.4226 38.2797 16.3955 38.3134 16.3783C38.3688 16.3501 38.4339 16.3026 38.4694 16.278C38.5184 16.2438 38.5824 16.2001 38.6721 16.145L38.2799 15.5058ZM38.2175 15.6704C38.0863 15.5862 37.9478 15.531 37.8013 15.5225C37.6497 15.5137 37.5271 15.557 37.436 15.6068C37.3648 15.6458 37.2817 15.7108 37.2769 15.7142C37.2431 15.7382 37.2934 15.6913 37.3834 15.6913V16.4413C37.5503 16.4413 37.6709 16.3543 37.7114 16.3255C37.7246 16.3161 37.7372 16.3067 37.7467 16.2996C37.7573 16.2917 37.7645 16.2863 37.772 16.2809C37.7865 16.2704 37.7931 16.2664 37.796 16.2648C37.7967 16.2644 37.7798 16.2725 37.7578 16.2713C37.7409 16.2703 37.756 16.2653 37.8126 16.3016L38.2175 15.6704ZM37.3834 15.6913C37.3942 15.6913 37.4286 15.6919 37.473 15.7058C37.5189 15.7202 37.6001 15.7572 37.6602 15.8465C37.7226 15.9392 37.7265 16.0344 37.7185 16.0937C37.7113 16.1476 37.6933 16.1851 37.6866 16.1985C37.6733 16.2245 37.6614 16.2373 37.6716 16.2245C37.6747 16.2207 37.6786 16.216 37.6848 16.2085C37.6903 16.2019 37.6983 16.1923 37.7061 16.1827C37.7204 16.1652 37.7454 16.134 37.7678 16.0973C37.7795 16.0783 37.7944 16.0514 37.8073 16.0186C37.8198 15.9868 37.8352 15.9375 37.8374 15.8763C37.8397 15.8113 37.8268 15.7326 37.7815 15.6563C37.7368 15.5809 37.6755 15.5331 37.6213 15.5043C37.5695 15.4769 37.5203 15.4646 37.4845 15.4585C37.4476 15.4522 37.4129 15.4504 37.3834 15.4504V16.2004C37.3831 16.2004 37.3808 16.2004 37.3768 16.2001C37.3729 16.1998 37.3663 16.1992 37.3577 16.1977C37.3425 16.1951 37.3096 16.188 37.2702 16.1671C37.2284 16.145 37.1757 16.1051 37.1365 16.0389C37.0967 15.9718 37.086 15.9035 37.0879 15.8497C37.0896 15.7999 37.102 15.7628 37.1094 15.7439C37.1173 15.724 37.125 15.7108 37.128 15.7059C37.1332 15.6974 37.135 15.6964 37.1247 15.709C37.1203 15.7144 37.1157 15.7199 37.1088 15.7281C37.1027 15.7355 37.0944 15.7454 37.0862 15.7557C37.0739 15.7711 37.0426 15.8102 37.0178 15.8589C37.0053 15.8835 36.9836 15.9313 36.9751 15.9944C36.966 16.0629 36.9712 16.1661 37.038 16.2654C37.1026 16.3613 37.1912 16.4034 37.2484 16.4214C37.3041 16.4389 37.3534 16.4413 37.3834 16.4413V15.6913ZM37.3834 15.4504C37.2555 15.4504 37.15 15.485 37.0755 15.517C37.0385 15.5329 37.0065 15.5494 36.9836 15.5615C36.9553 15.5764 36.9491 15.58 36.9401 15.5844C36.93 15.5893 36.9515 15.5772 36.9886 15.5701C37.0317 15.5618 37.1281 15.5545 37.227 15.6174C37.3191 15.676 37.3504 15.7563 37.3586 15.781C37.3672 15.8069 37.3662 15.8188 37.3649 15.8005L36.6166 15.8502C36.6196 15.8962 36.6266 15.9563 36.6469 16.0174C36.6667 16.0772 36.7134 16.1796 36.8244 16.2502C36.9422 16.3251 37.0612 16.3199 37.1304 16.3066C37.1936 16.2944 37.2446 16.2703 37.2677 16.2591C37.2917 16.2474 37.322 16.2309 37.3337 16.2248C37.3507 16.2158 37.3621 16.2102 37.3718 16.206C37.3906 16.1979 37.3918 16.2004 37.3834 16.2004V15.4504ZM37.3649 15.8005C37.3485 15.5527 37.3658 15.5433 37.3658 15.3596H36.6158C36.6158 15.4329 36.5989 15.584 36.6166 15.8502L37.3649 15.8005ZM37.3658 15.3596C37.3658 15.2895 37.3547 15.2122 37.3292 15.1375C37.3052 15.0671 37.2569 14.9654 37.159 14.8858C37.0447 14.793 36.8935 14.7564 36.7406 14.7949C36.6093 14.8281 36.5074 14.9085 36.4329 14.9845L36.9682 15.5098C36.9961 15.4814 36.9817 15.5076 36.924 15.5222C36.8914 15.5304 36.8484 15.5337 36.8005 15.523C36.7529 15.5124 36.7143 15.4909 36.686 15.4679C36.635 15.4265 36.6209 15.3841 36.6193 15.3794C36.6162 15.3704 36.6158 15.3654 36.6158 15.3596H37.3658ZM36.4329 14.9845C36.2448 15.1762 36.2041 15.3905 36.1875 15.5248C36.1772 15.609 36.179 15.6164 36.1733 15.647C36.1701 15.6644 36.1738 15.6237 36.2136 15.5783L36.7778 16.0725C36.8688 15.9685 36.8981 15.8524 36.9109 15.7831C36.9212 15.727 36.9295 15.6363 36.9319 15.6166C36.9409 15.5433 36.9514 15.5269 36.9682 15.5098L36.4329 14.9845ZM35.7774 18.2171C35.7584 18.1573 35.7634 18.1528 35.7628 18.1669C35.7626 18.1717 35.7619 18.1715 35.7646 18.1597C35.768 18.1442 35.7726 18.1278 35.7826 18.09L35.0577 17.8974C35.0452 17.9446 35.0179 18.0353 35.0135 18.1337C35.0086 18.2442 35.0307 18.3441 35.0629 18.4449L35.7774 18.2171ZM35.7826 18.09C35.7966 18.0372 35.8034 17.993 35.8072 17.9687C35.8093 17.955 35.8099 17.9515 35.8103 17.9495C35.8105 17.9487 35.8092 17.9556 35.8056 17.9665C35.8016 17.9782 35.7955 17.993 35.7862 18.0089C35.7769 18.0248 35.7668 18.0378 35.7574 18.0478C35.7485 18.0574 35.7417 18.0628 35.7397 18.0644C35.7378 18.0658 35.7395 18.0643 35.7468 18.06L35.3666 17.4135C35.3146 17.4441 35.2578 17.4836 35.2077 17.5376C35.1527 17.5969 35.1168 17.6615 35.0945 17.7278C35.0761 17.7827 35.0688 17.8365 35.0662 17.8526C35.0626 17.876 35.0608 17.886 35.0577 17.8974L35.7826 18.09ZM35.7468 18.06C35.7647 18.0495 35.7661 18.0504 35.7574 18.0534C35.7525 18.0551 35.741 18.0576 35.7722 18.0507C35.8033 18.0438 35.8452 18.0332 35.8982 18.0114C35.9476 17.9912 35.999 17.9645 36.0567 17.93L35.6714 17.2865C35.6352 17.3082 35.6183 17.3156 35.6138 17.3175C35.613 17.3178 35.6153 17.3173 35.6101 17.3184C35.6051 17.3195 35.5605 17.3281 35.5146 17.3438C35.4647 17.3608 35.417 17.3839 35.3666 17.4135L35.7468 18.06ZM36.0567 17.93C36.15 17.8741 36.2171 17.8074 36.2665 17.7417C36.3109 17.6829 36.3427 17.6205 36.3504 17.6065C36.3568 17.5949 36.3547 17.5997 36.348 17.6089C36.3404 17.6194 36.3205 17.6448 36.2854 17.6694C36.2472 17.6961 36.2033 17.7132 36.159 17.7196C36.1184 17.7255 36.0888 17.7207 36.0775 17.7183L36.231 16.9842C36.1246 16.9619 35.9845 16.9646 35.8556 17.0547C35.7548 17.1252 35.7044 17.2248 35.6935 17.2445C35.6714 17.2848 35.6712 17.2856 35.6675 17.2905C35.6674 17.2906 35.6684 17.2893 35.6702 17.2877C35.672 17.286 35.6727 17.2857 35.6714 17.2865L36.0567 17.93ZM36.0775 17.7183C36.1204 17.7273 36.1627 17.7348 36.1886 17.7398C36.2182 17.7454 36.2348 17.749 36.2477 17.7526C36.264 17.7572 36.2804 17.7627 36.3136 17.7861L36.746 17.1733C36.5293 17.0204 36.3427 17.0075 36.231 16.9842L36.0775 17.7183ZM36.3136 17.7861C36.3413 17.8057 36.3546 17.8165 36.3607 17.8219C36.365 17.8256 36.366 17.8269 36.3679 17.8291C36.3754 17.8378 36.3769 17.8404 36.3993 17.8687C36.4181 17.8924 36.4419 17.9213 36.4746 17.9572L37.029 17.4521C37.0104 17.4317 36.9979 17.4164 36.9868 17.4025C36.9794 17.3932 36.9575 17.3646 36.9393 17.3432C36.8869 17.2817 36.8306 17.233 36.746 17.1733L36.3136 17.7861ZM36.4746 17.9572C36.476 17.9587 36.4699 17.9524 36.4615 17.9387C36.4527 17.9244 36.4399 17.8996 36.4313 17.8654C36.4223 17.8295 36.4201 17.7922 36.4244 17.7563C36.4284 17.7225 36.4372 17.6977 36.4418 17.6862C36.4455 17.6771 36.4488 17.671 36.4433 17.6819C36.4399 17.6887 36.4299 17.7084 36.4204 17.7312C36.4101 17.7557 36.3988 17.787 36.3903 17.8242C36.3818 17.8619 36.3768 17.9023 36.3768 17.9455H37.1268C37.1268 17.9793 37.1179 18.0071 37.112 18.0214C37.1104 18.0251 37.1092 18.0272 37.1142 18.0172C37.1172 18.0113 37.1285 17.9891 37.1385 17.9639C37.1632 17.902 37.1888 17.8023 37.1586 17.6823C37.1323 17.5779 37.0741 17.5016 37.029 17.4521L36.4746 17.9572ZM36.3768 17.9455C36.3768 17.9641 36.3762 17.9719 36.3755 17.9905C36.3748 18.0073 36.3724 18.0567 36.385 18.1159C36.3962 18.169 36.4157 18.2119 36.4249 18.232C36.4342 18.2524 36.4499 18.2849 36.4639 18.3145L37.142 17.9942C37.1332 17.9754 37.1255 17.9594 37.1197 17.9472C37.1135 17.9342 37.1099 17.9265 37.1074 17.9211C37.1049 17.9154 37.1058 17.9171 37.1078 17.9225C37.1102 17.9288 37.1148 17.942 37.1186 17.9599C37.1226 17.9788 37.1242 17.9956 37.1247 18.0085C37.1251 18.0187 37.1247 18.0252 37.1249 18.02C37.1252 18.0116 37.1268 17.9832 37.1268 17.9455H36.3768ZM36.4639 18.3145C36.4659 18.3188 36.4494 18.2861 36.4501 18.2304C36.4509 18.1767 36.4706 18.1303 36.4602 18.1596C36.4492 18.1907 36.423 18.267 36.4317 18.3693C36.4395 18.4604 36.4719 18.5392 36.506 18.6034L37.1683 18.2514C37.1597 18.2353 37.1749 18.2578 37.179 18.3053C37.1812 18.331 37.1795 18.3563 37.1751 18.3793C37.1712 18.3997 37.1658 18.4138 37.1671 18.4101C37.1674 18.4093 37.1988 18.3338 37.2001 18.2405C37.2014 18.1451 37.1742 18.0621 37.142 17.9942L36.4639 18.3145ZM36.506 18.6034C36.5402 18.6677 36.5745 18.7159 36.6023 18.7519C36.614 18.767 36.628 18.7843 36.6326 18.79C36.6399 18.7991 36.6393 18.7989 36.6367 18.795C36.6335 18.7901 36.6247 18.7764 36.6162 18.7556C36.6073 18.7334 36.6007 18.7082 36.5982 18.6814C36.5934 18.6297 36.6061 18.5989 36.6031 18.6073L37.3101 18.8578C37.3327 18.794 37.354 18.709 37.3449 18.6116C37.3351 18.5064 37.2939 18.4283 37.2594 18.377C37.244 18.3541 37.2286 18.3345 37.2193 18.3228C37.2073 18.3078 37.2032 18.3029 37.1957 18.2932C37.1851 18.2794 37.1768 18.2674 37.1683 18.2514L36.506 18.6034ZM36.6031 18.6073C36.5496 18.7585 36.5645 18.9059 36.5645 18.8972C36.5645 18.8959 36.5644 18.8775 36.5696 18.8516C36.5753 18.8228 36.5874 18.7857 36.6116 18.7478C36.661 18.6703 36.7247 18.6443 36.731 18.6418L37.0115 19.3374C37.0776 19.3107 37.1754 19.2586 37.244 19.151C37.3126 19.0435 37.3145 18.9373 37.3145 18.8972C37.3145 18.8083 37.3124 18.8512 37.3101 18.8578L36.6031 18.6073ZM36.731 18.6418C36.6902 18.6582 36.6505 18.6774 36.6373 18.6834C36.619 18.6919 36.6226 18.6892 36.6329 18.6866C36.6471 18.6829 36.659 18.6825 36.6635 18.6828C36.6649 18.6828 36.6538 18.6824 36.623 18.6745L36.4366 19.401C36.5655 19.4341 36.6896 19.4463 36.8194 19.413C36.8767 19.3983 36.923 19.3776 36.9505 19.3649C36.9832 19.3499 36.9926 19.345 37.0115 19.3374L36.731 18.6418ZM36.623 18.6745C36.545 18.6545 36.4716 18.6338 36.3984 18.6239C36.3227 18.6138 36.2459 18.6146 36.1543 18.6146V19.3646C36.2675 19.3646 36.2845 19.3654 36.2985 19.3672C36.3028 19.3678 36.3108 19.3691 36.3326 19.3744C36.3572 19.3803 36.3854 19.3878 36.4366 19.401L36.623 18.6745ZM36.1543 18.6146C36.1137 18.6146 36.0767 18.617 36.0426 18.6212C36.0082 18.6254 35.9793 18.6312 35.9558 18.6366C35.9446 18.6393 35.9348 18.6418 35.928 18.6435C35.9197 18.6457 35.9182 18.6461 35.9159 18.6466C35.9115 18.6477 35.9297 18.6427 35.9564 18.6412C35.9711 18.6404 35.988 18.6406 36.0065 18.6428C36.0251 18.6449 36.0426 18.6487 36.0588 18.6536C36.0905 18.6633 36.111 18.6756 36.1181 18.6801C36.1247 18.6843 36.1244 18.6849 36.1144 18.6764C36.1048 18.6684 36.0907 18.6558 36.0698 18.6361L35.5559 19.1824C35.6031 19.2269 35.6576 19.276 35.715 19.3126C35.7872 19.3586 35.8817 19.3965 35.9979 19.3901C36.0428 19.3876 36.0794 19.3788 36.0955 19.3748C36.1258 19.3674 36.1103 19.3707 36.1259 19.3671C36.1292 19.3663 36.1357 19.3646 36.1543 19.3646V18.6146ZM36.0698 18.6361C35.9744 18.5464 35.9687 18.5359 35.9684 18.5354C35.9609 18.5252 35.9633 18.5276 35.9378 18.4902C35.9179 18.4611 35.8922 18.4249 35.8534 18.3747L35.2601 18.8334C35.2896 18.8716 35.3065 18.8957 35.3181 18.9127C35.3241 18.9215 35.3468 18.956 35.3628 18.9779C35.4094 19.0416 35.4634 19.0954 35.5559 19.1824L36.0698 18.6361ZM35.8534 18.3747C35.8245 18.3372 35.8132 18.3199 35.8099 18.3146C35.8086 18.3125 35.808 18.3114 35.8071 18.3097C35.8048 18.3055 35.8068 18.3092 35.803 18.3021C35.8009 18.2982 35.797 18.2911 35.7922 18.2829C35.7639 18.235 35.7325 18.2004 35.7009 18.1706C35.6771 18.1482 35.6455 18.1216 35.6095 18.0915L35.1284 18.6669C35.1692 18.701 35.1824 18.7126 35.1869 18.7168C35.1878 18.7176 35.1811 18.7115 35.172 18.7005C35.161 18.6874 35.1524 18.6745 35.1463 18.6642C35.1447 18.6614 35.1399 18.6528 35.1485 18.6686C35.1544 18.6793 35.1622 18.6932 35.1728 18.7103C35.1935 18.7437 35.2207 18.7826 35.2601 18.8334L35.8534 18.3747ZM35.6095 18.0915C35.5765 18.0639 35.6124 18.0863 35.644 18.1436C35.6545 18.1627 35.7325 18.3047 35.6512 18.474C35.5668 18.6499 35.3993 18.6748 35.371 18.6784C35.3246 18.6844 35.2906 18.679 35.2847 18.6781C35.2787 18.6772 35.2744 18.6763 35.2721 18.6757C35.2697 18.6752 35.2683 18.6748 35.268 18.6748C35.2677 18.6747 35.2692 18.6751 35.2727 18.6763C35.276 18.6774 35.2797 18.6787 35.2833 18.6802L35.557 17.9819C35.5315 17.9719 35.4987 17.9602 35.4641 17.9508C35.4492 17.9468 35.367 17.9227 35.2747 17.9346C35.2366 17.9396 35.0623 17.9678 34.9751 18.1495C34.891 18.3246 34.9702 18.475 34.987 18.5055C35.0312 18.5857 35.1 18.6431 35.1284 18.6669L35.6095 18.0915ZM38.0271 18.0708C38.0643 17.9657 38.0639 17.8655 38.061 17.805C38.0594 17.772 38.0564 17.7409 38.0537 17.7162C38.0506 17.6871 38.0489 17.6728 38.0469 17.6525C38.0429 17.6108 38.0461 17.6131 38.0429 17.6315C38.0377 17.6609 38.014 17.7372 37.934 17.791L37.5157 17.1685C37.3759 17.2624 37.3224 17.3989 37.3044 17.5007C37.2883 17.5913 37.2959 17.678 37.3004 17.7246C37.3068 17.7912 37.3103 17.808 37.3119 17.8412C37.3132 17.8689 37.3086 17.8531 37.3202 17.8203L38.0271 18.0708ZM37.934 17.791C37.9287 17.7946 37.9168 17.8008 37.9016 17.8048C37.8915 17.8074 37.8841 17.8074 37.9098 17.8051C37.9286 17.8034 37.9849 17.7993 38.047 17.7814C38.1161 17.7615 38.1829 17.7283 38.2464 17.6785L37.7837 17.0883C37.796 17.0786 37.8159 17.0675 37.8396 17.0606C37.8563 17.0558 37.8689 17.0557 37.8429 17.0581C37.8238 17.0598 37.7705 17.0637 37.7108 17.0794C37.646 17.0965 37.5808 17.1248 37.5157 17.1685L37.934 17.791ZM38.2464 17.6785C38.2648 17.6641 38.2931 17.6409 38.3201 17.6113C38.338 17.5917 38.4089 17.5137 38.4245 17.3892C38.4336 17.3165 38.4219 17.2418 38.3893 17.1741C38.3592 17.1115 38.3186 17.0704 38.291 17.0468C38.2437 17.0065 38.1939 16.9848 38.1918 16.9838C38.1466 16.9626 38.268 17.0061 38.3056 17.1299L37.588 17.3478C37.6213 17.4574 37.6851 17.538 37.7549 17.5927C37.8128 17.638 37.879 17.6655 37.8725 17.6625C37.8724 17.6624 37.8709 17.6617 37.8687 17.6606C37.8664 17.6594 37.8624 17.6574 37.8573 17.6545C37.8487 17.6497 37.8279 17.6376 37.804 17.6172C37.7799 17.5966 37.7421 17.5588 37.7137 17.4997C37.6828 17.4356 37.6717 17.3647 37.6803 17.2962C37.6882 17.2333 37.7106 17.1868 37.7263 17.1601C37.742 17.1332 37.7577 17.115 37.7657 17.1062C37.7808 17.0897 37.7909 17.0826 37.7837 17.0883L38.2464 17.6785ZM38.3056 17.1299C38.3012 17.1155 38.2952 17.0965 38.2933 17.0901C38.2901 17.0798 38.2898 17.0783 38.2903 17.0802C38.2907 17.0821 38.2942 17.0962 38.2958 17.1173C38.2975 17.14 38.2973 17.1739 38.2875 17.2137C38.2656 17.3032 38.2132 17.3555 38.1901 17.3749C38.1734 17.3889 38.1658 17.3908 38.1926 17.3764L37.8375 16.7158C37.8046 16.7335 37.7543 16.7615 37.7083 16.8001C37.6558 16.8441 37.5874 16.9195 37.5591 17.035C37.5338 17.1384 37.5536 17.2255 37.5622 17.2604C37.5698 17.2912 37.5847 17.3372 37.588 17.3478L38.3056 17.1299ZM38.1926 17.3764C38.2495 17.3458 38.2935 17.3127 38.317 17.2951C38.3309 17.2846 38.3352 17.2814 38.3393 17.2785C38.3423 17.2764 38.3377 17.2798 38.3282 17.2848C38.318 17.2901 38.3011 17.2976 38.2787 17.3031C38.2557 17.3087 38.2318 17.3111 38.2087 17.31C38.1637 17.3079 38.1406 17.2939 38.1486 17.2981L38.4961 16.6334C38.4273 16.5975 38.3423 16.5654 38.2439 16.5608C38.1386 16.5559 38.0509 16.5838 37.9836 16.6187C37.9282 16.6473 37.8799 16.6854 37.8668 16.6952C37.8454 16.7112 37.8404 16.7142 37.8375 16.7158L38.1926 17.3764ZM38.1486 17.2981C38.1654 17.3069 38.1749 17.3122 38.18 17.3151C38.1857 17.3184 38.1805 17.3158 38.1706 17.3083C38.16 17.3003 38.1374 17.2818 38.1141 17.2515C38.1022 17.236 38.0918 17.2196 38.083 17.2027C38.0743 17.186 38.0685 17.1715 38.0649 17.1613C38.0631 17.1563 38.0619 17.1522 38.0611 17.1497C38.0603 17.1472 38.0598 17.1455 38.0598 17.1455C38.0589 17.142 38.0617 17.1523 38.063 17.1567C38.0678 17.1731 38.0753 17.1961 38.0873 17.2234C38.111 17.277 38.1433 17.3266 38.1828 17.3762L38.7692 16.9087C38.7575 16.894 38.7642 16.8994 38.7734 16.9205C38.7783 16.9315 38.7814 16.941 38.7828 16.9458C38.7876 16.9623 38.7779 16.9277 38.7719 16.9108C38.7602 16.878 38.7413 16.8369 38.7089 16.7946C38.679 16.7558 38.6472 16.7284 38.623 16.7101C38.5814 16.6786 38.533 16.6527 38.4961 16.6334L38.1486 17.2981ZM38.1828 17.3762C38.1473 17.3317 38.1415 17.244 38.1568 17.3776C38.1612 17.4167 38.1763 17.5541 38.288 17.6676C38.4072 17.7886 38.5563 17.8066 38.6467 17.8066V17.0566C38.6479 17.0566 38.6693 17.0564 38.7012 17.0664C38.7364 17.0774 38.7815 17.0998 38.8224 17.1413C38.8625 17.1821 38.8826 17.2249 38.8922 17.2532C38.9008 17.2786 38.9023 17.296 38.9019 17.2928C38.9012 17.2862 38.9014 17.2861 38.8992 17.2594C38.8976 17.2397 38.8947 17.2086 38.8882 17.1735C38.8745 17.0994 38.8439 17.0024 38.7692 16.9087L38.1828 17.3762ZM38.6467 17.8066C38.7201 17.8066 38.7906 17.7988 38.8589 17.7785C38.9306 17.7572 38.981 17.7274 39.0103 17.7091C39.0439 17.688 39.0205 17.7037 38.9989 17.7123C38.9668 17.725 38.9421 17.7262 38.9369 17.7262V16.9762C38.8635 16.9762 38.7918 16.9875 38.7218 17.0153C38.689 17.0284 38.6628 17.0426 38.6439 17.0538C38.6349 17.0591 38.6271 17.064 38.622 17.0672C38.615 17.0717 38.6151 17.0716 38.6118 17.0737C38.609 17.0755 38.6242 17.0658 38.6453 17.0595C38.6629 17.0543 38.6673 17.0566 38.6467 17.0566V17.8066ZM38.9369 17.7262C38.9563 17.7262 38.963 17.7263 38.9663 17.7264C38.9676 17.7264 38.9626 17.7263 38.9545 17.7256C38.949 17.7251 38.9252 17.723 38.8947 17.7145C38.872 17.7082 38.7872 17.6834 38.7156 17.6007C38.6756 17.5545 38.6464 17.4978 38.633 17.435C38.6202 17.3751 38.6245 17.3234 38.6314 17.2874C38.6435 17.2241 38.6697 17.1805 38.6732 17.1745C38.6794 17.1637 38.6856 17.1546 38.6822 17.1598C38.6729 17.1738 38.6279 17.2386 38.6095 17.3348C38.5905 17.4336 38.6047 17.5306 38.6398 17.6186L39.3365 17.3409C39.346 17.3646 39.3581 17.4134 39.346 17.4761C39.3345 17.5362 39.3055 17.5769 39.3069 17.5748C39.3073 17.5743 39.3093 17.5712 39.3115 17.5678C39.3137 17.5644 39.3179 17.5578 39.3227 17.5495C39.3279 17.5405 39.3554 17.4942 39.3679 17.4287C39.3842 17.3441 39.376 17.2176 39.2825 17.1096C39.2095 17.0254 39.1223 16.9993 39.096 16.992C39.0409 16.9767 38.989 16.9767 38.9862 16.9766C38.9706 16.9762 38.9517 16.9762 38.9369 16.9762V17.7262ZM38.6398 17.6186C38.6561 17.6596 38.6869 17.744 38.7189 17.8043C38.7638 17.8888 38.837 17.9837 38.9651 18.0439L39.2844 17.3653C39.2951 17.3704 39.3072 17.3771 39.3196 17.386C39.3321 17.395 39.3432 17.4048 39.3528 17.4148C39.3716 17.4345 39.3803 17.4507 39.3812 17.4523C39.3816 17.4532 39.3809 17.4518 39.3787 17.4469C39.3765 17.4419 39.3736 17.435 39.3695 17.4249C39.3654 17.4147 39.361 17.4033 39.3553 17.3888C39.3499 17.3748 39.3435 17.3585 39.3365 17.3409L38.6398 17.6186ZM38.9651 18.0439C38.9794 18.0507 38.9906 18.0555 38.9981 18.0587C38.9996 18.0593 39.0013 18.06 39.0018 18.0602C39.0026 18.0606 39.0022 18.0604 39.0014 18.0601C39.0007 18.0598 38.9979 18.0586 38.9941 18.0568C38.9906 18.0552 38.9828 18.0515 38.9731 18.0461C38.9645 18.0415 38.9453 18.0306 38.9232 18.0132C38.9037 17.9979 38.8592 17.9603 38.8247 17.8961C38.7835 17.8195 38.7665 17.7229 38.7921 17.6246C38.8139 17.5409 38.8586 17.4874 38.8793 17.465C38.9017 17.4408 38.9222 17.4253 38.9294 17.4199C38.938 17.4135 38.945 17.4089 38.9457 17.4084C38.9513 17.4047 38.941 17.4114 38.9341 17.4163C38.8857 17.4504 38.8304 17.5051 38.7926 17.5885C38.7591 17.6626 38.7497 17.7371 38.7497 17.801H39.4997C39.4997 17.8086 39.4989 17.847 39.476 17.8976C39.449 17.9573 39.4064 18.0009 39.3665 18.0291C39.3618 18.0324 39.3533 18.038 39.3605 18.0333C39.3619 18.0323 39.3695 18.0273 39.3787 18.0204C39.3865 18.0146 39.4074 17.9987 39.4301 17.9741C39.4512 17.9513 39.4961 17.8976 39.518 17.8135C39.5436 17.7148 39.5266 17.6179 39.4853 17.541C39.4506 17.4764 39.4058 17.4385 39.3858 17.4228C39.3631 17.4051 39.3433 17.3938 39.334 17.3887C39.3159 17.3788 39.3 17.3721 39.2987 17.3715C39.2964 17.3705 39.2943 17.3696 39.2933 17.3692C39.2918 17.3686 39.2914 17.3684 39.2906 17.3681C39.2887 17.3673 39.2871 17.3666 39.2844 17.3653L38.9651 18.0439ZM38.7497 17.801C38.7497 17.8103 38.749 17.8081 38.7508 17.799C38.7517 17.7943 38.7531 17.7888 38.7551 17.7828C38.7571 17.7767 38.7593 17.7715 38.7612 17.7673C38.7646 17.76 38.7665 17.758 38.7596 17.7688C38.7559 17.7744 38.7521 17.7801 38.7454 17.7902C38.7393 17.7995 38.7315 17.8111 38.7232 17.8242L39.3555 18.2275C39.3725 18.2008 39.3662 18.2118 39.3891 18.1765C39.4029 18.1552 39.4229 18.1231 39.4413 18.0836C39.4836 17.9927 39.4997 17.9006 39.4997 17.801H38.7497ZM38.7232 17.8242C38.6964 17.8662 38.666 17.9282 38.6565 18.0074C38.6463 18.0926 38.6637 18.169 38.6921 18.2301C38.7169 18.2834 38.7481 18.3202 38.7583 18.3322C38.7615 18.336 38.7644 18.3392 38.7662 18.3412C38.7671 18.3423 38.768 18.3433 38.7685 18.3439C38.7692 18.3446 38.7695 18.345 38.7698 18.3454C38.7713 18.3471 38.7689 18.3443 38.7653 18.3399C38.7581 18.3308 38.7395 18.3063 38.7241 18.269C38.7076 18.2288 38.6988 18.1837 38.7007 18.1374C38.704 18.0528 38.7406 18.0076 38.7334 18.0178L39.3453 18.4515C39.3893 18.3894 39.4451 18.2921 39.4501 18.1673C39.4527 18.1009 39.4404 18.0387 39.4176 17.9834C39.3961 17.9311 39.3686 17.8935 39.3518 17.8724C39.3435 17.8619 39.336 17.8535 39.3325 17.8495C39.3271 17.8434 39.329 17.8455 39.3294 17.846C39.3302 17.847 39.353 17.8727 39.3722 17.9139C39.395 17.963 39.4096 18.0264 39.4012 18.0965C39.3935 18.1606 39.3695 18.2055 39.3555 18.2275L38.7232 17.8242ZM38.7334 18.0178C38.686 18.0847 38.6446 18.165 38.6314 18.2607C38.6282 18.2836 38.627 18.3047 38.627 18.3236C38.627 18.342 38.6281 18.357 38.6288 18.3653C38.6289 18.3673 38.6291 18.369 38.6292 18.3701C38.6295 18.3731 38.6292 18.3702 38.6294 18.3721C38.6295 18.3729 38.6292 18.37 38.6289 18.366C38.6285 18.3587 38.6271 18.3353 38.6307 18.3051C38.6346 18.272 38.644 18.2331 38.6634 18.1928C38.6825 18.1532 38.7062 18.1229 38.7277 18.1007C38.7482 18.0797 38.7669 18.0659 38.7781 18.0583C38.7894 18.0507 38.7979 18.0461 38.8008 18.0446C38.804 18.0429 38.8048 18.0427 38.802 18.044C38.7992 18.0452 38.7945 18.0472 38.7871 18.0502C38.772 18.0564 38.7505 18.0648 38.7195 18.0764L38.9837 18.7784C39.0423 18.7563 39.1025 18.7332 39.1483 18.7093C39.1705 18.6977 39.2193 18.671 39.2654 18.6236C39.3254 18.5619 39.365 18.482 39.3755 18.3931C39.3796 18.3583 39.3782 18.3303 39.3774 18.3179C39.377 18.3116 39.3753 18.2921 39.3761 18.3022C39.3767 18.3096 39.3784 18.3335 39.3743 18.3637C39.3658 18.4248 39.3415 18.4569 39.3453 18.4515L38.7334 18.0178ZM38.7195 18.0764C38.5211 18.1511 38.3996 18.2707 38.3779 18.2878C38.3681 18.2956 38.4031 18.2646 38.465 18.2541C38.5257 18.2439 38.5609 18.2613 38.5446 18.2549L38.2709 18.9532C38.357 18.987 38.4668 19.0144 38.5899 18.9937C38.7143 18.9727 38.7995 18.9106 38.843 18.8762C38.928 18.809 38.926 18.8001 38.9837 18.7784L38.7195 18.0764ZM38.4771 18.2355C38.0492 18.155 37.9337 18.1488 37.8785 18.1488V18.8988C37.8791 18.8988 37.8776 18.8988 37.8764 18.8987C37.8756 18.8987 37.8769 18.8987 37.8809 18.899C37.8891 18.8996 37.9075 18.9013 37.9409 18.9057C38.0081 18.9144 38.1286 18.9331 38.3384 18.9726L38.4771 18.2355ZM37.8785 18.1488C37.9396 18.1488 37.9881 18.1637 38.0187 18.1761C38.0498 18.1888 38.0734 18.2033 38.0884 18.2135C38.1173 18.2333 38.1366 18.2527 38.1448 18.2613C38.1621 18.2794 38.1724 18.2943 38.174 18.2965C38.1791 18.3038 38.1794 18.3052 38.1743 18.2961C38.1655 18.2804 38.1517 18.2533 38.137 18.2208C38.1223 18.1883 38.11 18.1575 38.1022 18.134C38.1003 18.1285 38.0989 18.124 38.098 18.1206C38.0975 18.1189 38.0971 18.1176 38.0969 18.1167C38.0966 18.1158 38.0965 18.1153 38.0965 18.1153C38.0965 18.1153 38.0966 18.1155 38.0966 18.1158C38.0967 18.1161 38.0968 18.1165 38.0969 18.1171C38.0971 18.1184 38.0975 18.1204 38.0979 18.1232C38.0986 18.1282 38.0998 18.1391 38.0998 18.1543H37.3498C37.3498 18.2439 37.3765 18.3288 37.3907 18.3715C37.409 18.4263 37.4319 18.4818 37.4535 18.5296C37.4751 18.5774 37.4986 18.6246 37.5202 18.6631C37.5303 18.6811 37.5441 18.7046 37.56 18.7272C37.5669 18.7371 37.5819 18.7579 37.6031 18.7801C37.6133 18.7907 37.6343 18.8116 37.6647 18.8324C37.6858 18.8469 37.7638 18.8988 37.8785 18.8988V18.1488ZM38.0998 18.1543C38.0998 17.9969 38.0395 17.8441 38.0149 17.7901L37.3324 18.101C37.3321 18.1004 37.3338 18.1043 37.3367 18.112C37.3394 18.1193 37.3422 18.1279 37.3447 18.1368C37.3472 18.1457 37.3488 18.1529 37.3496 18.1577C37.3505 18.1631 37.3498 18.1616 37.3498 18.1543H38.0998Z" fill="#333333"/>
<path d="M39.9299 8.92995C39.803 8.92995 39.877 9.24715 39.9299 9.40574L39.6133 9.56434L39.7719 10.3573C39.8247 10.3573 39.9305 10.2939 39.9305 10.0401C39.9305 9.72294 40.2234 10.2658 40.382 10.1072C40.5406 9.94865 41.624 9.6521 41.8106 9.21439C42.0334 8.69146 41.632 8.63873 41.632 8.32153C41.632 8.00434 40.7191 8.14296 40.5605 8.14296C40.402 8.14296 40.342 8.32153 40.0248 8.32153C39.7076 8.32153 40.0885 8.92995 39.9299 8.92995Z" fill="#333333"/>
<path d="M39.9299 9.40574L40.0979 9.74103L40.3884 9.59548L40.2857 9.28716L39.9299 9.40574ZM41.8106 9.21439L41.4656 9.06738L41.4656 9.06738L41.8106 9.21439ZM39.7719 10.3573L39.4042 10.4309L39.4645 10.7323H39.7719V10.3573ZM39.6133 9.56434L39.4453 9.22905L39.1894 9.35723L39.2456 9.63789L39.6133 9.56434ZM40.2857 9.28716C40.2636 9.22099 40.2414 9.13247 40.2359 9.07353C40.2325 9.03738 40.2395 9.05337 40.2268 9.09395C40.2193 9.11792 40.198 9.17258 40.1417 9.22306C40.0779 9.28026 39.9995 9.30495 39.9299 9.30495V8.55495C39.8286 8.55495 39.7247 8.58956 39.6409 8.66473C39.5646 8.73317 39.5286 8.81385 39.511 8.87003C39.4782 8.97504 39.4832 9.08024 39.4891 9.14322C39.5021 9.28252 39.5433 9.4319 39.5742 9.52433L40.2857 9.28716ZM39.9299 9.30495C40.0009 9.30495 40.0925 9.2871 40.1772 9.22417C40.2611 9.16189 40.3032 9.08142 40.3233 9.01926C40.3573 8.91404 40.3432 8.81532 40.338 8.77995C40.3308 8.73106 40.3187 8.68172 40.3096 8.64568C40.2988 8.60276 40.291 8.57428 40.283 8.53996C40.2637 8.45792 40.2728 8.45693 40.2662 8.48995C40.2605 8.51867 40.2399 8.58349 40.1742 8.63744C40.1087 8.6913 40.0442 8.69653 40.0248 8.69653V7.94653C39.9262 7.94653 39.8042 7.97078 39.6982 8.05791C39.592 8.14513 39.5478 8.25748 39.5307 8.34324C39.5014 8.49034 39.5364 8.64146 39.5528 8.71152C39.5626 8.75326 39.5752 8.80083 39.5824 8.8292C39.5913 8.86447 39.5949 8.88167 39.5961 8.88982C39.5993 8.91149 39.5864 8.86031 39.6097 8.78836C39.6245 8.74283 39.6582 8.67544 39.73 8.62207C39.8028 8.56805 39.8788 8.55495 39.9299 8.55495V9.30495ZM40.0248 8.69653C40.2695 8.69653 40.4301 8.62275 40.545 8.55386C40.6124 8.51343 40.6056 8.51478 40.6247 8.50503C40.6255 8.50464 40.6186 8.50826 40.6061 8.51174C40.5928 8.51549 40.577 8.51796 40.5605 8.51796V7.76796C40.444 7.76796 40.3514 7.80256 40.2844 7.83669C40.2378 7.86043 40.1663 7.90643 40.1593 7.91063C40.1253 7.93102 40.0974 7.94653 40.0248 7.94653V8.69653ZM40.5605 8.51796C40.6187 8.51796 40.738 8.50654 40.8227 8.50022C40.9271 8.49244 41.0421 8.48609 41.1482 8.48822C41.2622 8.49052 41.3313 8.5024 41.3602 8.51276C41.3926 8.5244 41.257 8.48082 41.257 8.32153H42.007C42.007 8.00365 41.7573 7.85844 41.6136 7.80686C41.4663 7.75401 41.2973 7.74107 41.1633 7.73837C41.0213 7.73552 40.8784 7.744 40.767 7.75229C40.7125 7.75636 40.6589 7.76092 40.6226 7.76379C40.6031 7.76533 40.5879 7.76645 40.5759 7.76718C40.5628 7.76797 40.559 7.76796 40.5605 7.76796V8.51796ZM41.257 8.32153C41.257 8.48882 41.3125 8.61775 41.3685 8.71227C41.3943 8.75593 41.4221 8.79514 41.4409 8.82181C41.4623 8.85217 41.4746 8.86966 41.4852 8.88687C41.5023 8.91477 41.5024 8.92248 41.5027 8.92709C41.5033 8.93516 41.5047 8.97558 41.4656 9.06738L42.1555 9.3614C42.2278 9.19173 42.2626 9.02946 42.2506 8.87066C42.2384 8.7084 42.1799 8.58505 42.1245 8.49474C42.0988 8.45286 42.0714 8.41447 42.0536 8.38929C42.0332 8.36041 42.0223 8.34443 42.014 8.33037C42.0066 8.31797 42.0055 8.31377 42.0058 8.31485C42.006 8.31546 42.0064 8.31679 42.0067 8.31853C42.0068 8.31934 42.0069 8.32006 42.0069 8.32064C42.007 8.32122 42.007 8.32154 42.007 8.32153H41.257ZM41.4656 9.06738C41.4602 9.0799 41.4269 9.13081 41.3149 9.20975C41.2108 9.28313 41.0756 9.35541 40.9253 9.42656C40.7717 9.49931 40.6314 9.55779 40.4922 9.6203C40.4272 9.64952 40.3615 9.68012 40.3045 9.71058C40.2564 9.7363 40.1789 9.77998 40.1168 9.84208L40.6471 10.3724C40.6247 10.3949 40.6158 10.3946 40.658 10.372C40.6914 10.3542 40.7378 10.3322 40.7995 10.3045C40.9139 10.2531 41.0859 10.1803 41.2463 10.1044C41.41 10.0269 41.5905 9.93304 41.747 9.82276C41.8956 9.71803 42.0676 9.56773 42.1555 9.3614L41.4656 9.06738ZM40.1168 9.84208C40.162 9.79689 40.2286 9.76521 40.3016 9.76221C40.362 9.75973 40.4004 9.77794 40.4054 9.78034C40.4065 9.78086 40.3948 9.7736 40.3344 9.72417C40.3133 9.70682 40.2783 9.67809 40.2421 9.65347C40.2166 9.63619 40.1356 9.58106 40.0261 9.56711C39.9609 9.5588 39.8734 9.56353 39.7849 9.60979C39.6966 9.65591 39.6424 9.725 39.6115 9.78393C39.5586 9.88455 39.5555 9.98852 39.5555 10.0401H40.3055C40.3055 10.0124 40.3116 10.064 40.2753 10.133C40.2526 10.1761 40.2087 10.2345 40.1323 10.2745C40.0556 10.3145 39.9816 10.3175 39.9313 10.3111C39.885 10.3052 39.853 10.2909 39.8409 10.2851C39.8336 10.2816 39.8284 10.2786 39.8255 10.2769C39.8226 10.2752 39.821 10.2741 39.821 10.2741C39.8209 10.2741 39.8218 10.2747 39.8238 10.2762C39.8258 10.2776 39.8284 10.2796 39.8319 10.2823C39.8391 10.288 39.8476 10.2948 39.8591 10.3043C39.8918 10.3311 39.983 10.41 40.0836 10.4578C40.1384 10.4838 40.2257 10.516 40.3324 10.5116C40.4518 10.5067 40.5623 10.4573 40.6471 10.3724L40.1168 9.84208ZM39.5555 10.0401C39.5555 10.1195 39.5384 10.1154 39.563 10.08C39.5876 10.0445 39.6552 9.98233 39.7719 9.98233V10.7323C40.1461 10.7323 40.3055 10.3643 40.3055 10.0401H39.5555ZM40.1396 10.2838L39.981 9.4908L39.2456 9.63789L39.4042 10.4309L40.1396 10.2838ZM39.7812 9.89963L40.0979 9.74103L39.762 9.07046L39.4453 9.22905L39.7812 9.89963Z" fill="#333333"/>
<path d="M40.8616 9.65024C41.0876 9.55191 41.3297 9.56482 41.4873 9.50699C41.4885 9.48498 41.5152 9.3981 41.6127 9.22668C41.7346 9.01241 41.6905 9.01006 41.635 8.80841C41.5796 8.60676 41.4265 8.57652 41.0986 8.51489C40.7708 8.45326 40.9367 8.24133 40.6808 8.07315C40.4249 7.90497 40.1478 8.13303 40.1395 8.28714C40.1313 8.44124 40.1161 8.72742 40.0452 8.81195C39.9743 8.89648 39.8849 9.33325 39.9149 9.59976C39.9448 9.86628 40.2146 10.1897 40.204 10.3879C40.1934 10.586 40.4136 10.5977 40.4632 10.9095C40.5128 11.2212 40.4051 11.1713 40.1559 11.2905C39.9067 11.4096 39.8375 11.0527 39.3221 10.7824C38.8067 10.5121 39.227 9.25401 39.2399 9.01185C39.2528 8.76969 39.4336 8.69103 39.5299 8.54162C39.6262 8.39222 39.6819 8.17443 39.7342 8.02268C39.7864 7.87093 40.0274 7.90585 40.1712 7.69275C40.315 7.47965 40.527 7.64549 40.6996 7.72092C40.8722 7.79636 40.8942 7.79753 41.1143 7.80927C41.3345 7.82101 41.3274 7.95309 41.5683 7.98801C41.8092 8.02294 41.7492 7.90935 41.6867 7.83979C41.6242 7.77023 41.5015 7.58706 41.5942 7.5037C41.6868 7.42033 41.856 7.56181 42.0959 7.61875C42.3357 7.67569 42.2602 7.84829 42.5857 7.95395C42.9113 8.05961 42.9691 8.21724 43.1197 8.29149C43.2702 8.36575 43.3037 8.56623 43.4299 8.68334C43.5561 8.80046 43.5318 8.84331 43.6824 8.91757C43.8329 8.99183 43.6718 9.1157 43.5107 9.23957C43.3495 9.36344 43.1549 9.28683 42.9116 9.29593C42.6682 9.30503 42.7633 9.17764 42.6371 9.06053C42.5109 8.94342 42.9154 8.81045 42.788 8.71535C42.6606 8.62025 42.6107 8.72797 42.4496 8.85184C42.2884 8.97571 42.6228 9.74415 42.3956 9.86449C42.1684 9.98484 42.0155 9.95461 41.6295 10.1548C41.2435 10.355 40.9561 10.3617 40.6931 10.3256C40.4301 10.2895 40.7025 10.1495 40.6505 9.88183C40.5986 9.61414 40.6355 9.74857 40.8616 9.65024Z" fill="#333333"/>
<path d="M34.9526 10.7481C35.237 11.0458 35.0539 11.195 34.9268 11.2324C34.7507 11.4438 34.6406 11.2171 34.5422 10.9911C34.4439 10.7651 34.168 10.9712 33.826 11.1737C33.4841 11.3763 33.5061 11.3774 33.3368 11.6554C33.1674 11.9334 32.6391 11.9052 32.1641 11.7033C31.6892 11.5013 31.5005 11.3146 31.0625 11.2471C30.6246 11.1796 30.5718 10.5145 30.5941 10.0962C30.6164 9.67797 30.4708 9.09621 30.6469 9.1056C30.823 9.11499 31.1905 8.84759 31.7502 8.70081C32.31 8.55404 32.8556 8.67145 33.4941 8.70549C34.1325 8.73953 34.1783 9.53673 34.4087 9.76979C34.6391 10.0028 34.5971 10.3759 34.9526 10.7481Z" fill="#333333"/>
</svg>
