<svg width="52" height="67" viewBox="0 0 52 67" fill="none" xmlns="http://www.w3.org/2000/svg">
<path d="M24.5 12.5L22.5 15L24.5 18V19L23 24L21.5 26.5L18.5 30.5L15 41.5L14.5 44L15.5 48L18 50.5L20.5 51.5L21.5 52.5L24 53L25 54.5L26.5 58L29.5 60.1821H31.5L34 57L34.5 55L33 51.5H34.5L37 50L39.5 49L40 50.5L41 50V52L40.5 55L40 58V60.1821L43 63.5L44.5 64L47 65.5L48 64L48.5 62L49 60.1821L48.5 58.5L46 51L45.5 48L46 41L47 40L47.5 42L49 40.5L48.5 39L49 29.5L48 25.5L47 22.5L46 19.5L48.5 17L50 14L50.5 11.5L50 10L49 8.5L47 6L45.5 4.5L42 2.5L39.5 1L36.5 2L33 1L31 3L25.5 6.5L25 8.5L24.5 12.5Z" fill="white"/>
<path d="M40.7928 61.7167L43.4002 63.5792L40.7928 66.0004L33.9017 60.5992V56.5018L33.7154 54.8256L33.5292 52.0319L33.9017 51.6594L36.3229 51.1007L40.2341 56.8743L39.6753 58.3643L40.2341 59.1093L40.7928 61.7167Z" fill="black" fill-opacity="0.3"/>
<path d="M13.2283 55.5706C15.3143 58.4015 24.2789 59.4817 28.5005 59.668L24.9617 55.5706V53.1494L23.8442 54.0806L22.7267 53.1494H21.7955L20.4918 51.6594L17.5118 49.6107L15.0906 45.6995V44.0233V42.1608V39.7396C13.1661 39.0567 8.86999 37.6909 7.08202 37.6909C4.84706 37.6909 1.49481 41.2296 0.936068 44.0233C0.377329 46.817 10.6209 52.0319 13.2283 55.5706Z" fill="black" fill-opacity="0.3"/>
<path d="M22.9516 28.5661C22.9638 28.5706 22.9766 28.5748 22.9902 28.5789C22.9776 28.5744 22.9648 28.5702 22.9516 28.5661Z" fill="#333333"/>
<path d="M41.0448 49.7292C41.0527 49.7314 41.0603 49.7333 41.0676 49.7347C41.0605 49.7319 41.0529 49.7301 41.0448 49.7292Z" fill="#333333"/>
<path d="M31.6526 17.0491C31.6822 17.5244 31.7221 18.0608 31.7224 18.5876C31.6235 18.0653 31.6269 17.4205 31.6526 17.0491Z" fill="#333333"/>
<path d="M50.5471 13.3124C51.6494 12.4093 49.6433 8.0042 48.1442 7.60773C46.6451 7.21127 47.1301 4.81046 45.2342 4.30387C43.788 4.21576 40.8251 2.06458 39.5244 1C38.7969 1.49235 37.7984 1.97 36.6365 1.97C34.9169 1.97 34.7405 1 33.2415 1C31.7424 1 29.5378 4.30387 28.7221 4.30387C27.9064 4.30387 25.7239 6.46728 25.3271 6.46728C24.9303 6.46728 24.7319 10.0827 24.7319 10.9866C24.7319 11.8905 23.321 13.9848 22.8139 14.6902C22.3069 15.3957 23.4312 17.2916 24.7319 18.3939C26.0326 19.4962 26.0735 20.5851 27.223 21.1937C28.7221 21.9873 28.7221 21.6787 30.5298 21.1937C31.9562 20.811 31.7493 18.6027 31.6526 17.0491M49.8417 13.3124C49.5771 14.411 48.8673 16.7449 48.1442 17.2916C47.3406 17.8992 46.4498 18.838 45.5649 19.5345M43.4485 6.46728C44.661 6.8641 44.4405 9.26706 44.4405 10.0827C44.4405 10.8984 44.0437 12.0889 43.4485 12.7723C42.8533 13.4557 42.743 15.6823 42.236 16.7846C41.7289 17.8868 44.2421 20.4882 45.2342 19.7828C45.3442 19.7045 45.4545 19.6214 45.5649 19.5345M28.7221 7.60773C29.2218 9.14921 29.1841 12.4877 29.431 12.9198C29.7396 13.4599 31.7423 14.6902 31.6321 15.9909C31.6089 16.2653 31.6268 16.6338 31.6526 17.0491M45.5649 19.5345C45.8882 19.6687 46.5613 20.0164 46.6672 20.3339C46.7994 20.7307 47.4388 23.4423 47.571 24.1037C47.7033 24.765 47.593 25.8673 48.1442 26.0657M48.4969 28.3364C48.9305 28.9169 49.5375 30.6909 48.4969 33.1423C49.1363 35.1705 48.1442 35.6178 48.1442 36.8019C48.1442 38.1026 49.4449 39.8662 48.4969 40.9685M46.6672 40.5717C46.9685 40.7407 47.571 41.1845 47.571 41.6078C47.571 42.0311 47.3212 42.4308 47.1963 42.5778M46.6672 37.3089C46.2997 38.9403 45.5649 42.3838 45.5649 43.1069C45.5649 44.0108 45.609 48.9489 46.1381 49.6764C46.6672 50.4039 46.1381 51.881 46.6672 52.5424C47.1963 53.2037 48.056 57.2381 48.4969 58.0758C48.9379 58.9135 49.9079 60.0819 49.2024 60.4787C48.4969 60.8756 49.5772 63.521 47.571 64.1824C47.2712 64.7644 46.8435 65.5125 46.6672 65.8137C46.1822 65.123 45.0358 63.7018 44.3303 63.5431C43.6249 63.7547 43.4485 64.0575 43.4485 64.1824C43.3741 63.9266 43.1536 63.4664 42.7514 63.0557C42.5181 62.8176 42.2237 62.5961 41.8612 62.4408C40.6267 61.9117 40.296 61.4708 40.3622 59.7733C40.4283 58.0758 39.4362 58.7371 39.8992 58.0758C40.3621 57.4144 40.9353 53.336 41.0676 51.5062C41.1113 50.9011 41.1599 50.2525 41.2364 49.6324M42.236 46.8105C41.8399 47.1051 41.5888 47.7365 41.4203 48.5108M43.9335 44.6721C43.7425 45.0028 43.0605 45.7788 41.8612 46.2373M43.0297 37.3089C43.4191 38.7492 43.9644 42.0046 43.0297 43.5037C42.0949 45.0028 41.3321 45.9508 41.0676 46.2373C41.4644 46.2373 41.6187 46.6562 41.4203 46.8105C41.2219 46.9649 40.759 47.1853 40.4283 47.3396M24.7319 19.0993C24.3424 19.8268 23.5194 21.4009 23.343 21.8771C23.1226 22.4723 22.9021 23.8612 22.7037 24.28C22.545 24.6151 23.2255 24.1257 23.5855 23.8391C23.4239 24.0302 23.149 24.4784 23.343 24.743M23.343 25.9114C22.8727 26.6242 22.1746 27.9396 23.1446 27.4987C23.3033 27.6927 23.4018 27.7706 23.4311 27.7853C23.0637 27.9837 22.4611 28.4202 22.9902 28.5789C22.5346 28.4172 21.7204 28.5172 22.1084 30.2103C22.5934 32.3266 22.8799 32.9439 22.7918 33.3628C23.343 33.0762 23.828 32.3928 23.5855 34.1123C23.343 35.8319 24.6877 32.7455 24.5995 32.503C24.529 32.309 24.4526 32.1576 24.4232 32.1062M25.3796 37.1546C25.4824 37.1546 25.6573 37.3266 25.5339 38.0144C25.3796 38.8742 25.0048 40.3732 25.0709 40.6157C25.5339 40.2851 25.5559 39.7339 25.8646 39.8221C26.1732 39.9103 26.3055 40.0867 26.4598 40.1748M27.7164 40.7039C27.7311 41.1007 27.809 41.9561 28.003 42.203C28.2455 42.5117 28.3998 42.5998 28.6864 42.2912C28.973 41.9826 29.2155 41.718 29.458 41.7401M30.6484 42.5778C30.7219 42.7248 30.9615 42.9923 31.3318 42.8864C31.7022 42.7806 31.8977 42.6366 31.9491 42.5778M21.9625 26.4625C21.8964 26.4625 20.1548 28.2482 19.9343 28.5789C19.7139 28.9096 19.2289 29.6371 18.8541 29.9678C18.4793 30.2985 17.5534 31.7755 17.7518 32.4369C17.9502 33.0982 18.1487 33.1644 17.9502 33.3628C17.7518 33.5612 18.0605 32.7014 17.6416 32.7455C17.2227 32.7896 17.2448 33.2526 17.1346 33.7376C17.0243 34.2226 16.4512 36.4932 16.2087 36.9342C15.9662 37.3751 15.8118 38.6317 15.6355 39.0726C15.4591 39.5135 14.7757 40.9023 14.8859 41.3433C14.9962 41.7842 14.7756 43.0187 15.8558 43.8785C15.7236 43.8785 14.5772 42.9305 14.5331 43.5919C14.489 44.2533 15.2386 44.7823 15.3268 45.4217C15.4149 46.061 15.8559 48.0451 16.9361 48.5521L17.3329 48.8167C17.0978 48.7799 16.6892 48.7638 16.9361 48.993C17.2447 49.2796 18.6777 51.2637 19.317 51.2417C19.9563 51.2196 20.6838 51.1755 21.0586 51.4842M20.8161 52.3439C21.2056 52.6599 22.1256 53.3051 22.69 53.358C23.3954 53.4242 23.5497 54.1737 23.9686 53.9753C24.3037 53.8166 24.461 53.4977 24.4977 53.358M22.69 52.6526C23.0133 52.7261 23.7658 52.9083 24.1891 53.0494C24.6123 53.1905 25.3354 53.3139 25.6441 53.358M27.1652 44.2973C27.1211 44.3782 27.0285 44.628 27.0109 44.9808C26.9888 45.4217 26.9007 45.9508 26.9007 46.2594C26.9007 46.568 26.8126 49.2355 26.4598 49.8749C26.107 50.5142 24.2993 53.336 25.3795 55.2099C26.4598 57.0837 26.9668 58.0096 27.1652 58.186C27.3636 58.3624 27.7384 59.4206 28.047 59.641C28.3557 59.8615 28.3116 59.3324 28.6423 59.4867C28.9729 59.641 30.1414 60.9637 30.7366 60.7212C31.3318 60.4787 31.5743 59.9276 31.7286 59.641C31.8829 59.3544 32.6545 57.9435 33.0293 57.8774C33.3291 57.8245 33.0367 57.5614 32.8529 57.4365C33.3747 56.8559 34.3697 55.6464 34.1757 55.4524C33.9817 55.2584 33.7568 55.0629 33.6686 54.9894L34.3961 54.5485C34.2124 54.3721 33.8097 53.9224 33.6686 53.5344C33.4923 53.0494 33.5804 51.1314 32.4561 50.9771C32.3753 51.0212 32.1651 51.1359 31.9711 51.2417C31.9711 50.9771 32.8309 48.4419 32.4561 48.1774M32.1695 43.8785C32.3092 44.5766 32.3371 46.1933 31.3318 47.0751C32.4561 46.2373 32.5443 46.061 32.6986 46.2373C32.8529 46.4137 31.5743 47.7364 31.5082 48.1774C31.442 48.6183 32.39 47.3396 33.0293 47.0751M33.0293 49.3899C32.9117 49.772 32.875 50.4833 33.6686 50.2717M34.1757 50.6464C34.1904 50.7934 34.3079 51.0433 34.6607 50.8669C35.0134 50.6905 35.6307 50.6464 35.8952 50.6464C36.0658 50.6963 36.3118 50.7336 36.5786 50.7176M41.4203 48.5108C40.867 49.3595 40.2841 49.23 40.0618 49.0592C39.9516 48.993 39.6915 48.9004 39.5327 49.0592C39.3343 49.2576 39.0477 49.3899 37.9014 49.8749C37.6065 50.4872 37.059 50.6888 36.5786 50.7176M41.4203 48.5108C41.344 48.8614 41.2847 49.2412 41.2364 49.6324M34.1757 52.0133C34.161 51.9177 34.1845 51.6782 34.3961 51.4842C34.6607 51.2417 34.9914 51.1976 35.5205 51.0874C35.9437 50.9992 36.4023 50.8041 36.5786 50.7176M38.5848 51.4842C38.717 51.2417 38.8714 50.899 39.202 50.7176C39.5327 50.5362 40.5029 49.3899 40.8555 49.6324C40.944 49.6932 41.0135 49.7239 41.0676 49.7347M41.2364 49.6324C41.2299 49.6878 41.1858 49.7585 41.0676 49.7347M39.202 52.0133C39.202 51.903 40.7149 49.5946 41.0676 49.7347M36.5786 48.5108C36.5213 48.5108 36.4662 48.5153 36.4134 48.5237M31.6526 17.0491C31.6118 17.637 31.6272 18.9098 32.0152 19.2978C32.5002 19.7828 32.5002 19.8709 32.5664 20.5323C32.6325 21.1937 32.2136 22.2298 32.8529 22.7589C33.4923 23.288 33.2718 24.1037 33.9111 24.1037C34.5505 24.1037 35.1457 23.7289 35.763 23.2439C36.3802 22.7589 37.1739 21.2598 37.7911 21.5684C38.4084 21.8771 38.3423 21.9653 38.9595 22.0755C39.5768 22.1857 40.5248 22.4282 41.098 22.0755C41.6711 21.7228 42.3546 21.7669 42.7514 21.37C43.1482 20.9732 43.3466 20.0253 42.6411 19.2096C42.5548 18.9156 42.3528 18.2572 42.236 17.975M39.202 44.9808C39.0257 45.3266 39.302 45.1103 38.3708 46.8105C37.4396 48.5108 38.557 48.508 37.4396 49.0592C36.3221 49.6103 35.758 49.3898 35.3882 49.6324C35.4695 49.2874 35.7836 48.6243 36.4134 48.5237M38.5848 43.1069C38.1845 43.8785 37.7714 44.0761 37.4396 44.9808C37.1077 45.8854 36.7991 46.4023 36.1598 47.0751C35.5205 47.7478 37.4386 47.9882 36.4134 48.5237M35.8952 42.8864C35.8952 43.5037 35.2681 46.4365 34.8321 47.7478C34.3961 49.0592 34.0275 49.3192 33.5284 49.9828M41.7232 41.2292C41.4203 41.9742 40.5909 43.4401 40.0618 44.4765C39.5327 45.5129 39.8193 46.972 39.202 47.7478M40.8555 39.8221C40.6057 40.298 40.1888 41.4755 39.8608 42.2912" stroke="#333333"/>
<path d="M36.4957 15.8254L36.5732 16.3193L36.7523 16.2912L36.8718 16.1548L36.4957 15.8254ZM38.476 15.8254L38.7375 16.2515L38.8474 16.1841L38.911 16.0719L38.476 15.8254ZM38.0151 15.986L38.3812 15.6455L38.3382 15.5992L38.285 15.5651L38.0151 15.986ZM35.4202 18.331L35.2377 18.7965L36.2157 19.1799L35.8965 18.1791L35.4202 18.331ZM35.369 18.3792L35.6897 17.9957L35.6897 17.9957L35.369 18.3792ZM37.6736 17.9455L37.2023 17.7786L37.1349 17.969L37.2186 18.1528L37.6736 17.9455ZM38.4077 18.6041L38.5902 18.1386L38.5464 18.1214L38.5002 18.1127L38.4077 18.6041ZM36.4182 15.3314C36.3227 15.3464 36.2127 15.3846 36.1141 15.4684C36.0178 15.5502 35.9691 15.6447 35.9436 15.7084C35.9214 15.764 35.9083 15.8205 35.9053 15.8325C35.8995 15.8557 35.8992 15.8551 35.9007 15.8512C35.9093 15.8278 35.9287 15.7983 35.95 15.7816C35.9608 15.7732 35.9379 15.7956 35.8318 15.8213L36.067 16.7932C36.2596 16.7466 36.4288 16.6767 36.566 16.5693C36.7138 16.4538 36.794 16.3189 36.8389 16.1971C36.8585 16.144 36.8702 16.0959 36.8754 16.0752C36.8834 16.0432 36.8803 16.0592 36.8723 16.0794C36.8609 16.1077 36.8305 16.172 36.7617 16.2304C36.6907 16.2907 36.6175 16.3124 36.5732 16.3193L36.4182 15.3314ZM35.8318 15.8213C35.5572 15.8877 35.1754 15.9682 34.8706 16.066C34.7162 16.1155 34.5498 16.1788 34.4071 16.2637C34.2787 16.3401 34.0775 16.4873 34.0017 16.7439L34.9608 17.027C34.9277 17.1391 34.8566 17.1598 34.9182 17.1232C34.9654 17.0952 35.0487 17.0591 35.176 17.0182C35.4345 16.9353 35.7441 16.8713 36.067 16.7932L35.8318 15.8213ZM34.0017 16.7439C33.9902 16.783 33.9704 16.8312 33.9359 16.9116C33.9062 16.9807 33.862 17.0817 33.8295 17.1845C33.7661 17.3851 33.6932 17.7711 34.0059 18.088L34.7176 17.3855C34.749 17.4174 34.7694 17.4653 34.7729 17.5064C34.7751 17.5321 34.7685 17.5317 34.783 17.4858C34.7975 17.4401 34.8194 17.3885 34.8548 17.3061C34.8854 17.2349 34.9296 17.1325 34.9608 17.027L34.0017 16.7439ZM34.0059 18.088C34.0052 18.0873 34.008 18.0901 34.0144 18.0981C34.0207 18.1059 34.0289 18.1167 34.0391 18.1312C34.0598 18.1607 34.0841 18.1984 34.1128 18.2457C34.1416 18.2929 34.1715 18.3441 34.205 18.4013C34.2376 18.4571 34.2733 18.5182 34.31 18.5785C34.381 18.6956 34.4687 18.832 34.568 18.9477C34.654 19.0479 34.8168 19.216 35.056 19.2689L35.2722 18.2926C35.3663 18.3134 35.384 18.3631 35.327 18.2966C35.2833 18.2457 35.2302 18.1673 35.1647 18.0594C35.1331 18.0074 35.1015 17.9535 35.0683 17.8966C35.0358 17.8411 35.0012 17.7819 34.967 17.7257C34.9051 17.624 34.8188 17.488 34.7176 17.3855L34.0059 18.088ZM35.056 19.2689C35.0752 19.2732 35.1319 19.2985 35.2595 19.4028C35.3372 19.4663 35.3566 19.4856 35.4479 19.5612C35.5146 19.6165 35.5984 19.6828 35.6906 19.7386L36.2082 18.883C36.1289 18.835 36.0656 18.7701 35.8924 18.6285C35.7597 18.52 35.5432 18.3526 35.2722 18.2926L35.056 19.2689ZM35.6906 19.7386C35.6927 19.7399 35.691 19.739 35.6877 19.7361C35.6846 19.7332 35.6836 19.7316 35.686 19.7347C35.6915 19.7415 35.6937 19.7448 35.7118 19.7695C35.7256 19.7882 35.753 19.8254 35.7895 19.8638C35.8788 19.958 35.9968 20.0336 36.1522 20.0692C36.2846 20.0996 36.4218 20.0954 36.5518 20.0807L36.4396 19.087C36.3562 19.0964 36.3483 19.0882 36.3756 19.0945C36.3936 19.0986 36.4205 19.1075 36.4506 19.1251C36.4808 19.1427 36.5022 19.1622 36.5148 19.1754C36.5246 19.1857 36.5283 19.1918 36.5177 19.1774C36.5114 19.1689 36.4887 19.1371 36.4651 19.1078C36.4079 19.0367 36.3282 18.9556 36.2082 18.883L35.6906 19.7386ZM36.5518 20.0807C36.6888 20.0652 36.7543 20.0805 36.9052 20.1026C37.0853 20.1291 37.2941 20.1453 37.6043 20.0696L37.3674 19.0981C37.2166 19.1349 37.1438 19.127 37.0507 19.1133C36.9284 19.0953 36.7293 19.0543 36.4396 19.087L36.5518 20.0807ZM37.6043 20.0696C37.8101 20.0194 38.0191 19.9925 38.2605 19.9528C38.4693 19.9184 38.7462 19.8691 38.966 19.7527L38.4982 18.8689C38.4448 18.8971 38.3291 18.9281 38.0983 18.966C37.9001 18.9986 37.6225 19.0359 37.3674 19.0981L37.6043 20.0696ZM38.966 19.7527C39.1699 19.6448 39.3024 19.5179 39.3948 19.421C39.4498 19.3633 39.4607 19.3494 39.4914 19.3188C39.5126 19.2975 39.5166 19.2965 39.5099 19.3007L38.9785 18.4536C38.8951 18.5059 38.8307 18.5652 38.7842 18.6117C38.7471 18.6488 38.6908 18.7102 38.6712 18.7308C38.6142 18.7905 38.5674 18.8322 38.4982 18.8689L38.966 19.7527ZM39.5099 19.3007C39.5141 19.2981 39.5867 19.2545 39.6168 19.2338C39.6733 19.1949 39.7594 19.1258 39.8223 19.0074C39.877 18.9045 39.8921 18.8042 39.899 18.7483C39.9061 18.6899 39.9102 18.6196 39.9141 18.5532L38.9158 18.4943C38.9136 18.5309 38.912 18.5589 38.9103 18.5823C38.9086 18.6059 38.9073 18.6191 38.9064 18.6265C38.9054 18.6343 38.9058 18.6281 38.9093 18.6142C38.9131 18.5992 38.9216 18.5713 38.9393 18.5381C38.9579 18.503 38.9811 18.4726 39.0054 18.448C39.0275 18.4256 39.0458 18.4129 39.0498 18.4101C39.0526 18.4082 39.0517 18.4089 39.0363 18.4183C39.024 18.4257 39.0022 18.4387 38.9785 18.4536L39.5099 19.3007ZM39.9141 18.5532C39.9208 18.4385 39.9375 18.3394 39.9579 18.2627C39.9681 18.2245 39.9784 18.1946 39.9875 18.1727C39.9968 18.15 40.0027 18.141 40.0021 18.1419L39.1692 17.5886C39.0137 17.8227 38.9352 18.1654 38.9158 18.4943L39.9141 18.5532ZM40.0021 18.1419C40.1378 17.9376 40.2493 17.6288 40.2722 17.3063L39.2747 17.2356C39.2694 17.3098 39.2532 17.3849 39.2308 17.4521C39.2078 17.5212 39.1829 17.5679 39.1692 17.5886L40.0021 18.1419ZM40.2722 17.3063C40.2729 17.2968 40.2505 17.3727 40.3104 17.2317C40.3422 17.1569 40.4045 16.976 40.3137 16.7668C40.2437 16.6057 40.1152 16.5135 40.0558 16.4728L39.4911 17.2981C39.5001 17.3043 39.4913 17.2993 39.4754 17.2834C39.4592 17.2674 39.424 17.2285 39.3964 17.1652C39.366 17.095 39.3561 17.0203 39.3629 16.9511C39.3689 16.8909 39.3863 16.8495 39.3901 16.8404C39.4074 16.7998 39.2911 17.0042 39.2747 17.2356L40.2722 17.3063ZM40.0558 16.4728C40.0121 16.4429 39.9975 16.4265 39.9672 16.3911C39.9221 16.3387 39.8487 16.2488 39.7156 16.1487L39.1143 16.9476C39.1519 16.976 39.1638 16.9905 39.2084 17.0425C39.2677 17.1115 39.347 17.1995 39.4911 17.2981L40.0558 16.4728ZM39.7156 16.1487C39.7219 16.1534 39.712 16.1498 39.6513 16.047C39.628 16.0075 39.5897 15.9414 39.5447 15.8789C39.4979 15.8138 39.4304 15.7329 39.3346 15.6628L38.7441 16.4698C38.7252 16.456 38.7217 16.4473 38.733 16.463C38.7462 16.4813 38.7602 16.5046 38.7902 16.5554C38.8362 16.6334 38.9373 16.8144 39.1143 16.9476L39.7156 16.1487ZM39.3346 15.6628C39.3368 15.6644 39.331 15.6602 39.3129 15.6437C39.2952 15.6277 39.2766 15.6099 39.2493 15.5841C39.2025 15.5398 39.1278 15.4691 39.046 15.4094C38.9776 15.3595 38.8261 15.2569 38.6266 15.2463C38.5122 15.2402 38.3877 15.2648 38.2724 15.3353C38.1617 15.4029 38.0886 15.4949 38.041 15.5788L38.911 16.0719C38.8975 16.0957 38.8628 16.1464 38.7939 16.1886C38.7202 16.2336 38.6407 16.2484 38.5735 16.2449C38.5135 16.2417 38.4741 16.2247 38.4621 16.2191C38.4489 16.2129 38.4466 16.2099 38.4566 16.2172C38.4794 16.2339 38.5103 16.2615 38.5621 16.3106C38.5988 16.3453 38.6735 16.4181 38.7441 16.4698L39.3346 15.6628ZM38.2145 15.3992C38.1051 15.4663 38.0261 15.5204 37.9695 15.5598C37.9392 15.5809 37.9237 15.5918 37.9095 15.6015C37.8943 15.6117 37.9003 15.6068 37.9161 15.5987C37.9311 15.5911 37.9873 15.5634 38.0698 15.5568C38.1668 15.549 38.2537 15.5733 38.3197 15.609C38.3482 15.6243 38.3688 15.6396 38.3807 15.6491C38.3926 15.6586 38.4 15.6658 38.4017 15.6675C38.4022 15.668 38.4006 15.6663 38.3812 15.6455L37.6489 16.3265C37.6594 16.3378 37.6823 16.3627 37.7044 16.3843C37.7253 16.4046 37.7742 16.4509 37.8448 16.489C37.929 16.5344 38.0335 16.5629 38.15 16.5536C38.252 16.5453 38.3295 16.5104 38.3701 16.4897C38.4355 16.4564 38.5109 16.4013 38.5408 16.3806C38.5887 16.3472 38.6506 16.3049 38.7375 16.2515L38.2145 15.3992ZM38.285 15.5651C38.1414 15.473 37.9823 15.4078 37.8085 15.3977C37.628 15.3873 37.4822 15.4391 37.3761 15.4971C37.3263 15.5243 37.2857 15.5527 37.2581 15.5727C37.2099 15.6077 37.231 15.5935 37.2045 15.6123C37.1718 15.6355 37.2506 15.5663 37.3834 15.5663V16.5663C37.4923 16.5663 37.5821 16.5373 37.6466 16.5079C37.7079 16.48 37.7563 16.4469 37.7838 16.4274C37.7984 16.417 37.8121 16.4068 37.8216 16.3997C37.8324 16.3917 37.8388 16.3868 37.8454 16.3821C37.8581 16.3729 37.8598 16.3724 37.856 16.3745C37.8416 16.3823 37.8015 16.399 37.7505 16.3961C37.7064 16.3935 37.701 16.3785 37.7451 16.4068L38.285 15.5651ZM37.3834 15.5663C37.401 15.5663 37.4493 15.5674 37.5104 15.5865C37.5736 15.6064 37.683 15.6565 37.7639 15.7767C37.8478 15.9014 37.8532 16.0297 37.8424 16.1103C37.8326 16.1837 37.808 16.2354 37.798 16.255C37.7862 16.2783 37.7756 16.2935 37.7725 16.2979C37.7688 16.3033 37.767 16.3054 37.7692 16.3026C37.7714 16.2999 37.7745 16.2961 37.7808 16.2885C37.7861 16.2822 37.7946 16.272 37.803 16.2617C37.818 16.2434 37.8474 16.2068 37.8745 16.1625C37.8885 16.1395 37.9073 16.106 37.9236 16.0644C37.9395 16.0241 37.9595 15.9604 37.9623 15.8807C37.9653 15.7959 37.9484 15.6927 37.889 15.5925C37.8303 15.4936 37.75 15.4311 37.6798 15.3939C37.6128 15.3584 37.5499 15.3429 37.5056 15.3353C37.4599 15.3274 37.4178 15.3254 37.3834 15.3254V16.3254C37.3789 16.3254 37.3618 16.3252 37.3366 16.3209C37.3129 16.3168 37.2663 16.3065 37.2117 16.2776C37.1539 16.247 37.0822 16.1925 37.029 16.1027C36.975 16.0117 36.9603 15.9188 36.9629 15.8453C36.9654 15.777 36.9824 15.7255 36.9931 15.6981C37.0044 15.6695 37.0159 15.6496 37.0214 15.6407C37.0312 15.6247 37.0374 15.6182 37.0278 15.63C37.0239 15.6348 37.0199 15.6396 37.0128 15.6481C37.0067 15.6554 36.9977 15.6662 36.9886 15.6776C36.9796 15.6889 36.9672 15.7046 36.9544 15.7229C36.9422 15.7403 36.9239 15.7677 36.9064 15.8023C36.8907 15.8333 36.8623 15.8953 36.8512 15.9779C36.8393 16.0676 36.846 16.2039 36.9343 16.3352C37.0197 16.462 37.1366 16.5173 37.211 16.5407C37.2834 16.5634 37.3466 16.5663 37.3834 16.5663V15.5663ZM37.3834 15.3254C37.2328 15.3254 37.1099 15.3662 37.0261 15.4022C36.9845 15.4201 36.9491 15.4384 36.9253 15.4509C36.9192 15.4541 36.9135 15.4572 36.9087 15.4597C36.9036 15.4624 36.8998 15.4645 36.8961 15.4664C36.8926 15.4683 36.89 15.4696 36.8881 15.4706C36.8862 15.4716 36.8854 15.472 36.8855 15.472C36.8855 15.472 36.8869 15.4713 36.8895 15.4701C36.892 15.469 36.8963 15.4672 36.9021 15.465C36.9125 15.461 36.9345 15.4532 36.965 15.4473C37.0268 15.4354 37.1591 15.4261 37.2941 15.5119C37.4201 15.5921 37.4644 15.7028 37.4772 15.7416C37.4907 15.782 37.4906 15.8059 37.4897 15.7922L36.4919 15.8585C36.4952 15.9091 36.5031 15.9812 36.5282 16.0568C36.5528 16.1307 36.6124 16.2635 36.7574 16.3557C36.9112 16.4536 37.0661 16.4462 37.154 16.4293C37.2339 16.4139 37.297 16.3838 37.3223 16.3715C37.4739 16.2979 37.414 16.3254 37.3834 16.3254V15.3254ZM37.4897 15.7922C37.4734 15.5475 37.4908 15.5617 37.4908 15.3596H36.4908C36.4908 15.4145 36.474 15.5893 36.4919 15.8585L37.4897 15.7922ZM37.4908 15.3596C37.4908 15.2769 37.4777 15.1859 37.4475 15.0972C37.4192 15.0142 37.3606 14.8886 37.2378 14.7888C37.0933 14.6714 36.9016 14.6254 36.71 14.6737C36.5472 14.7148 36.426 14.8131 36.3436 14.897L37.0575 15.5973C37.0776 15.5768 37.0438 15.6209 36.9546 15.6434C36.8367 15.6731 36.7047 15.6442 36.6072 15.5649C36.5313 15.5033 36.5068 15.4369 36.501 15.4197C36.4931 15.3968 36.4908 15.378 36.4908 15.3596H37.4908ZM36.3436 14.897C36.127 15.1178 36.0813 15.365 36.0635 15.5095C36.0597 15.5404 36.0561 15.5767 36.0544 15.5926C36.052 15.6144 36.0508 15.6221 36.0504 15.6243C36.0488 15.6331 36.058 15.5663 36.1196 15.4959L36.8718 16.1548C36.9847 16.026 37.0194 15.8838 37.0338 15.8058C37.0414 15.7647 37.0458 15.7261 37.0486 15.6996C37.0521 15.6671 37.0534 15.6529 37.056 15.6319C37.0581 15.6144 37.06 15.6035 37.0616 15.5959C37.0632 15.5886 37.0642 15.5861 37.064 15.5864C37.0638 15.5871 37.0627 15.5896 37.0607 15.5928C37.0587 15.5961 37.0571 15.5976 37.0575 15.5973L36.3436 14.897ZM35.8965 18.1791C35.888 18.1524 35.8863 18.1425 35.8864 18.1429C35.8868 18.1456 35.8884 18.1569 35.8877 18.1724C35.887 18.1869 35.8849 18.1943 35.8866 18.187C35.8875 18.1827 35.8891 18.1762 35.8921 18.1648C35.8954 18.1521 35.8984 18.1411 35.9034 18.1221L34.9369 17.8653C34.9259 17.9068 34.8938 18.013 34.8887 18.1282C34.8828 18.2594 34.9095 18.3752 34.9438 18.4829L35.8965 18.1791ZM35.9034 18.1221C35.9193 18.0624 35.9269 18.0125 35.9307 17.988C35.9329 17.9738 35.9331 17.9728 35.933 17.9736C35.9325 17.976 35.93 17.9886 35.9241 18.0063C35.9177 18.0251 35.9082 18.0478 35.8941 18.072C35.8799 18.0962 35.8642 18.1165 35.8491 18.1328C35.8208 18.1633 35.7999 18.1738 35.8102 18.1677L35.3033 17.3057C35.2453 17.3399 35.1774 17.3865 35.1161 17.4526C35.0483 17.5257 35.0036 17.606 34.976 17.6881C34.9536 17.7548 34.9449 17.8197 34.9427 17.8333C34.9391 17.8565 34.9381 17.8608 34.9369 17.8653L35.9034 18.1221ZM35.8102 18.1677C35.8227 18.1604 35.8164 18.1653 35.7978 18.1717C35.7845 18.1762 35.7637 18.1806 35.7993 18.1727C35.8347 18.1649 35.8839 18.1524 35.9456 18.1271C36.0025 18.1038 36.0596 18.0739 36.1209 18.0372L35.6072 17.1793C35.5746 17.1988 35.5634 17.203 35.5664 17.2018C35.5743 17.1986 35.584 17.1962 35.5831 17.1964C35.5824 17.1965 35.5285 17.2069 35.4741 17.2255C35.4145 17.2459 35.3591 17.2729 35.3033 17.3057L35.8102 18.1677ZM36.1209 18.0372C36.2297 17.9721 36.3085 17.8939 36.3664 17.817C36.4175 17.7491 36.4546 17.6765 36.4598 17.6669C36.4659 17.6559 36.4607 17.6664 36.4492 17.6823C36.4365 17.6999 36.4071 17.7368 36.357 17.7718C36.3028 17.8097 36.2405 17.8341 36.1769 17.8433C36.1182 17.8518 36.0734 17.8452 36.0519 17.8407L36.2566 16.8618C36.1275 16.8348 35.9492 16.8367 35.784 16.9523C35.6561 17.0417 35.5936 17.1669 35.584 17.1842C35.5472 17.2511 35.5694 17.2019 35.6072 17.1793L36.1209 18.0372ZM36.0519 17.8407C36.0964 17.85 36.1413 17.858 36.1653 17.8626C36.1941 17.868 36.2065 17.8709 36.2142 17.873C36.2195 17.8745 36.2204 17.8751 36.2207 17.8752C36.2215 17.8756 36.2279 17.8786 36.2416 17.8883L36.8181 17.0712C36.5747 16.8994 36.3543 16.8823 36.2566 16.8618L36.0519 17.8407ZM36.2416 17.8883C36.2671 17.9063 36.2766 17.9144 36.2784 17.9159C36.2789 17.9164 36.2778 17.9155 36.2759 17.9135C36.275 17.9126 36.2742 17.9118 36.2736 17.9111C36.2729 17.9103 36.2726 17.91 36.2727 17.91C36.2731 17.9105 36.2747 17.9125 36.2798 17.9189C36.2823 17.9221 36.2941 17.9372 36.3014 17.9464C36.3215 17.9717 36.3471 18.0029 36.3821 18.0413L37.1214 17.3679C37.1052 17.3501 37.0945 17.3371 37.0847 17.3248C37.0799 17.3186 37.0545 17.2857 37.0345 17.2623C36.9733 17.1902 36.9081 17.1347 36.8181 17.0712L36.2416 17.8883ZM36.3821 18.0413C36.3818 18.0409 36.3339 17.9907 36.3101 17.8959C36.2972 17.8449 36.2942 17.7922 36.3003 17.7415C36.306 17.6936 36.3185 17.6579 36.3257 17.64C36.3316 17.6251 36.3374 17.6143 36.3315 17.626C36.3284 17.6322 36.3165 17.6556 36.3051 17.6828C36.2785 17.7463 36.2518 17.8349 36.2518 17.9455H37.2518C37.2518 18 37.2378 18.0444 37.2272 18.0697C37.2238 18.0779 37.2207 18.0837 37.226 18.073C37.2286 18.068 37.2423 18.0411 37.2546 18.0102C37.2854 17.9331 37.3185 17.8054 37.2798 17.6518C37.2464 17.5189 37.173 17.4245 37.1214 17.3679L36.3821 18.0413ZM36.2518 17.9455C36.2518 17.961 36.2513 17.9653 36.2505 17.9856C36.2498 18.0035 36.2466 18.0663 36.2627 18.1419C36.277 18.2093 36.3016 18.2628 36.3111 18.2838C36.3208 18.3051 36.3379 18.3404 36.3509 18.3679L37.2551 17.9408C37.2461 17.9217 37.2383 17.9054 37.2326 17.8934C37.2296 17.8872 37.2272 17.8823 37.2253 17.878C37.2233 17.8738 37.222 17.8711 37.2212 17.8693C37.2204 17.8675 37.2204 17.8675 37.2209 17.8687C37.2214 17.87 37.2229 17.8734 37.2248 17.8785C37.2288 17.8891 37.2354 17.9084 37.2408 17.9339C37.2435 17.9466 37.2456 17.9593 37.2471 17.9718C37.2485 17.9842 37.2493 17.995 37.2496 18.0037C37.2499 18.0121 37.2499 18.0186 37.2498 18.0218C37.2498 18.0249 37.2497 18.0265 37.2498 18.0249C37.2498 18.0243 37.2498 18.0233 37.2499 18.0217C37.2499 18.0209 37.25 18.02 37.25 18.019C37.2501 18.0181 37.2501 18.017 37.2502 18.0158C37.2504 18.0112 37.2506 18.005 37.2509 17.998C37.2514 17.9835 37.2518 17.9662 37.2518 17.9455H36.2518ZM36.3509 18.3679C36.3479 18.3616 36.3241 18.3096 36.3252 18.2287C36.3262 18.1505 36.3544 18.0838 36.3424 18.1179C36.3379 18.1304 36.3248 18.1672 36.3158 18.2142C36.3061 18.2647 36.3021 18.3202 36.3072 18.3799C36.317 18.4942 36.3572 18.5898 36.3956 18.662L37.2786 18.1928C37.2743 18.1847 37.2975 18.2241 37.3036 18.2947C37.3068 18.3325 37.3043 18.3693 37.2978 18.4029C37.2921 18.4329 37.2841 18.4543 37.2849 18.4518C37.2853 18.4508 37.2853 18.4509 37.2865 18.4476C37.2873 18.4452 37.2888 18.441 37.2905 18.4362C37.2938 18.4266 37.2988 18.4113 37.3039 18.3927C37.3147 18.3529 37.3243 18.3021 37.3251 18.2421C37.3267 18.1216 37.2922 18.0194 37.2551 17.9408L36.3509 18.3679ZM36.3956 18.662C36.434 18.7344 36.4728 18.7887 36.5034 18.8283C36.5158 18.8444 36.5315 18.8637 36.5348 18.8679C36.5417 18.8766 36.5385 18.873 36.5329 18.8647C36.5265 18.855 36.5129 18.8335 36.5004 18.8025C36.4871 18.7697 36.4774 18.7326 36.4737 18.693C36.4666 18.6165 36.485 18.5664 36.4853 18.5656L37.4279 18.8995C37.4538 18.8265 37.4808 18.7222 37.4694 18.6C37.457 18.4674 37.4049 18.3694 37.3632 18.3073C37.3448 18.2799 37.3267 18.257 37.3171 18.2449C37.3038 18.2283 37.3014 18.2255 37.2946 18.2167C37.2868 18.2067 37.2829 18.2007 37.2786 18.1928L36.3956 18.662ZM36.4853 18.5656C36.4225 18.743 36.4395 18.9221 36.4395 18.8972C36.4395 18.8907 36.4372 18.7888 36.5062 18.6806C36.5753 18.5722 36.6659 18.5332 36.6843 18.5258L37.0582 19.4533C37.1364 19.4218 37.2611 19.3567 37.3494 19.2183C37.4376 19.0799 37.4395 18.9439 37.4395 18.8972C37.4395 18.792 37.4395 18.8667 37.4279 18.8995L36.4853 18.5656ZM36.6843 18.5258C36.6597 18.5357 36.6386 18.5451 36.6217 18.5529C36.6135 18.5567 36.6058 18.5602 36.5998 18.563C36.5934 18.5661 36.5891 18.568 36.5851 18.5699C36.5772 18.5735 36.5765 18.5737 36.5791 18.5727C36.5824 18.5714 36.5904 18.5684 36.6019 18.5655C36.6137 18.5625 36.6264 18.5601 36.6395 18.5588C36.6523 18.5576 36.6626 18.5576 36.6695 18.5579C36.6819 18.5585 36.6795 18.56 36.6541 18.5534L36.4056 19.5221C36.5462 19.5581 36.6931 19.5745 36.8504 19.5341C36.919 19.5165 36.9737 19.4919 37.0027 19.4785C37.0386 19.462 37.043 19.4594 37.0582 19.4533L36.6843 18.5258ZM36.6541 18.5534C36.5814 18.5348 36.4977 18.5111 36.415 18.5C36.3291 18.4885 36.2423 18.4896 36.1543 18.4896V19.4896C36.208 19.4896 36.238 19.4896 36.2605 19.4902C36.2802 19.4907 36.2837 19.4914 36.2818 19.4911C36.2802 19.4909 36.2834 19.4911 36.3032 19.4959C36.3267 19.5016 36.353 19.5086 36.4056 19.5221L36.6541 18.5534ZM36.1543 18.4896C36.1087 18.4896 36.0666 18.4923 36.0273 18.4971C35.9876 18.502 35.9543 18.5086 35.9275 18.5149C35.9147 18.5179 35.9038 18.5207 35.8966 18.5225C35.8948 18.523 35.8931 18.5234 35.8918 18.5238C35.8904 18.5242 35.8893 18.5244 35.8884 18.5247C35.8864 18.5252 35.8858 18.5253 35.886 18.5253C35.8862 18.5252 35.8878 18.5248 35.8904 18.5243C35.893 18.5237 35.8971 18.5228 35.9023 18.5219C35.9127 18.52 35.929 18.5176 35.9495 18.5164C35.9705 18.5153 35.9946 18.5156 36.0208 18.5186C36.0471 18.5216 36.072 18.527 36.0952 18.5341C36.1407 18.5479 36.1717 18.566 36.1853 18.5747C36.1983 18.5829 36.2026 18.5873 36.1948 18.5808C36.1878 18.5748 36.1755 18.564 36.1554 18.5451L35.4702 19.2734C35.5176 19.318 35.5795 19.3744 35.6479 19.418C35.7358 19.474 35.8559 19.5231 36.0048 19.5149C36.0616 19.5118 36.1073 19.5007 36.1254 19.4962C36.1624 19.4871 36.138 19.4926 36.1543 19.4888C36.1544 19.4888 36.1522 19.4893 36.1497 19.4896C36.1474 19.4899 36.1486 19.4896 36.1543 19.4896V18.4896ZM36.1554 18.5451C36.0596 18.4549 36.062 18.4517 36.0693 18.4617C36.0696 18.4621 36.0687 18.4609 36.0637 18.4534C36.0598 18.4476 36.0505 18.4336 36.0411 18.4198C36.0198 18.3886 35.9927 18.3504 35.9523 18.2983L35.1612 18.9099C35.1891 18.9461 35.2046 18.9681 35.2148 18.9831C35.2176 18.9872 35.2445 19.0278 35.2619 19.0517C35.3161 19.1259 35.3782 19.1869 35.4702 19.2734L36.1554 18.5451ZM35.9523 18.2983C35.9251 18.263 35.9165 18.2493 35.9161 18.2486C35.916 18.2485 35.9162 18.2488 35.9166 18.2495C35.917 18.2501 35.9172 18.2505 35.9169 18.2499C35.9144 18.2454 35.9176 18.2512 35.9129 18.2425C35.9106 18.2382 35.9058 18.2295 35.8998 18.2193C35.8639 18.1585 35.824 18.1148 35.7865 18.0795C35.7596 18.0542 35.7249 18.0251 35.6897 17.9957L35.0482 18.7628C35.0671 18.7786 35.0803 18.7897 35.0899 18.7979C35.0999 18.8066 35.1024 18.8089 35.1013 18.8079C35.1 18.8067 35.0895 18.7968 35.076 18.7806C35.0601 18.7615 35.0476 18.7429 35.0387 18.7278C35.0354 18.7221 35.0332 18.7181 35.0337 18.719C35.0339 18.7195 35.0341 18.7198 35.0352 18.7218C35.036 18.7233 35.0373 18.7257 35.0388 18.7284C35.0454 18.7406 35.0544 18.7566 35.0667 18.7763C35.0903 18.8143 35.1201 18.8568 35.1612 18.9099L35.9523 18.2983ZM35.6897 17.9957C35.6559 17.9674 35.7092 18.003 35.7534 18.0833C35.7685 18.1107 35.8727 18.3014 35.7639 18.5281C35.6509 18.7636 35.4264 18.7973 35.3871 18.8024C35.3235 18.8106 35.276 18.8032 35.2657 18.8016C35.2487 18.799 35.2378 18.7961 35.2354 18.7954C35.2304 18.7941 35.2319 18.7942 35.2377 18.7965L35.6027 17.8655C35.5743 17.8544 35.537 17.8411 35.4968 17.8302C35.4827 17.8264 35.3784 17.7952 35.2586 17.8107C35.2095 17.817 34.9782 17.8541 34.8624 18.0954C34.7508 18.3279 34.8562 18.527 34.8776 18.5658C34.9344 18.6689 35.0206 18.7396 35.0482 18.7628L35.6897 17.9957ZM38.1449 18.1125C38.1903 17.9845 38.189 17.865 38.1859 17.7989C38.1841 17.7623 38.1807 17.7284 38.178 17.703C38.1747 17.6717 38.1732 17.6602 38.1713 17.6405C38.1706 17.6329 38.1701 17.6274 38.1699 17.6233C38.1696 17.6192 38.1696 17.6176 38.1696 17.6178C38.1696 17.618 38.1696 17.6212 38.1693 17.6268C38.1689 17.6323 38.1681 17.6414 38.166 17.6533C38.1619 17.6764 38.1517 17.7171 38.1252 17.7639C38.097 17.8135 38.056 17.8596 38.0037 17.8947L37.446 17.0648C37.2696 17.1833 37.2032 17.3553 37.1813 17.4789C37.162 17.5877 37.1714 17.6892 37.1759 17.7366C37.1831 17.8107 37.1856 17.8178 37.187 17.8472C37.1881 17.8695 37.1826 17.8343 37.2023 17.7786L38.1449 18.1125ZM38.0037 17.8947C37.9866 17.9062 37.9619 17.9181 37.9334 17.9257C37.9116 17.9314 37.8942 17.932 37.921 17.9296C37.9386 17.928 38.0064 17.9232 38.0816 17.9015C38.1661 17.8772 38.2474 17.8366 38.3236 17.7769L37.7066 16.9899C37.7315 16.9703 37.7659 16.9518 37.805 16.9405C37.8349 16.9319 37.859 16.9311 37.8317 16.9336C37.8137 16.9352 37.7504 16.9398 37.679 16.9585C37.6008 16.9791 37.5228 17.0131 37.446 17.0648L38.0037 17.8947ZM38.3236 17.7769C38.3438 17.761 38.3785 17.7328 38.4126 17.6954C38.4343 17.6716 38.528 17.5693 38.5485 17.4048C38.5606 17.3084 38.5451 17.2095 38.5019 17.1199C38.462 17.037 38.4084 16.9827 38.3721 16.9517C38.3104 16.899 38.2457 16.871 38.245 16.8707C38.1932 16.8464 38.3694 16.9097 38.4252 17.0935L37.4684 17.3841C37.5099 17.5209 37.5901 17.6223 37.6778 17.691C37.7496 17.7474 37.8322 17.7817 37.8193 17.7756C37.8192 17.7755 37.8093 17.771 37.7961 17.7635C37.7837 17.7566 37.7552 17.7399 37.7228 17.7123C37.6901 17.6843 37.6393 17.6333 37.6011 17.5539C37.5596 17.4679 37.5448 17.3728 37.5563 17.2807C37.5668 17.1961 37.5971 17.1333 37.6185 17.0969C37.64 17.0601 37.6616 17.0348 37.6733 17.022C37.6954 16.9978 37.7119 16.9857 37.7066 16.9899L38.3236 17.7769ZM38.4252 17.0935C38.4208 17.079 38.4142 17.0579 38.4127 17.0532C38.4096 17.0432 38.4102 17.0446 38.4116 17.0502C38.4125 17.0539 38.4352 17.1362 38.4089 17.2435C38.3786 17.3671 38.3061 17.4407 38.2704 17.4707C38.2432 17.4934 38.2259 17.5004 38.2518 17.4865L37.7783 16.6057C37.7444 16.6239 37.6844 16.657 37.628 16.7043C37.5629 16.7588 37.4744 16.8555 37.4377 17.0053C37.405 17.1387 37.4309 17.25 37.4409 17.2904C37.4495 17.3253 37.4669 17.3793 37.4684 17.3841L38.4252 17.0935ZM38.2518 17.4865C38.3177 17.4511 38.3682 17.4129 38.392 17.395C38.399 17.3898 38.4024 17.3873 38.4063 17.3843C38.4079 17.3831 38.4091 17.3823 38.4099 17.3817C38.4107 17.3811 38.411 17.3809 38.4109 17.3809C38.4109 17.381 38.4086 17.3826 38.4046 17.3851C38.4006 17.3876 38.3942 17.3914 38.3857 17.3958C38.3684 17.4047 38.3423 17.4162 38.3086 17.4245C38.274 17.433 38.2381 17.4365 38.2028 17.4348C38.134 17.4316 38.0928 17.41 38.0907 17.4089L38.554 16.5226C38.4751 16.4814 38.372 16.4417 38.2498 16.4359C38.1183 16.4298 38.0088 16.4648 37.9261 16.5076C37.8594 16.5422 37.8017 16.5878 37.7918 16.5952C37.7708 16.611 37.7722 16.609 37.7783 16.6057L38.2518 17.4865ZM38.0907 17.4089C38.1067 17.4172 38.1143 17.4215 38.117 17.4231C38.1181 17.4237 38.1166 17.4228 38.1133 17.4207C38.1101 17.4186 38.1036 17.4144 38.0952 17.408C38.0788 17.3956 38.0471 17.3695 38.015 17.3277C37.9986 17.3063 37.9842 17.2837 37.9721 17.2604C37.9602 17.2375 37.9522 17.2174 37.9471 17.203C37.9424 17.1898 37.9396 17.1798 37.9396 17.1796C37.9395 17.1793 37.9395 17.1792 37.9396 17.1796C37.9396 17.1797 37.94 17.1811 37.9402 17.1819C37.9408 17.1839 37.9418 17.1875 37.9431 17.1918C37.9457 17.2009 37.9495 17.2132 37.9546 17.2277C37.9598 17.2422 37.9658 17.2576 37.973 17.2739C38.0022 17.3399 38.0409 17.3988 38.085 17.4541L38.867 16.8308C38.8599 16.8219 38.873 16.8365 38.8878 16.87C38.8955 16.8874 38.9003 16.9024 38.9027 16.9107C38.9031 16.9121 38.9034 16.9129 38.9032 16.9123C38.903 16.9116 38.903 16.9118 38.9027 16.9105C38.9024 16.9097 38.9021 16.9083 38.9016 16.9068C38.9001 16.9015 38.896 16.8868 38.8897 16.869C38.8747 16.8269 38.8502 16.7734 38.808 16.7185C38.7693 16.6681 38.7284 16.6331 38.6984 16.6104C38.6475 16.5719 38.5904 16.5417 38.554 16.5226L38.0907 17.4089ZM38.085 17.4541C38.0206 17.3733 38.0144 17.2324 38.0326 17.3918C38.0374 17.4345 38.0555 17.6096 38.199 17.7553C38.3522 17.9109 38.5418 17.9316 38.6467 17.9316V16.9316C38.6577 16.9316 38.7918 16.9321 38.9115 17.0536C38.9678 17.1108 38.9964 17.1713 39.0106 17.213C39.0234 17.2507 39.0261 17.2782 39.0261 17.2786C39.0263 17.2801 39.0262 17.2794 39.0257 17.2737C39.0256 17.2723 39.0244 17.2565 39.0238 17.2491C39.0221 17.228 39.0188 17.1921 39.0111 17.1508C38.9949 17.063 38.958 16.945 38.867 16.8308L38.085 17.4541ZM38.6467 17.9316C38.7289 17.9316 38.8119 17.9228 38.8945 17.8983C38.9817 17.8724 39.0431 17.8361 39.0767 17.815C39.1161 17.7903 39.0802 17.8145 39.0451 17.8284C38.996 17.848 38.9552 17.8512 38.9369 17.8512V16.8512C38.8504 16.8512 38.7627 16.8646 38.6757 16.8992C38.6351 16.9153 38.6029 16.9328 38.5804 16.9461C38.5696 16.9525 38.5606 16.9582 38.5551 16.9616C38.547 16.9668 38.5485 16.9658 38.5453 16.9678C38.5435 16.969 38.5517 16.9637 38.5644 16.9575C38.5782 16.9507 38.5935 16.9445 38.6097 16.9397C38.6416 16.9302 38.6585 16.9316 38.6467 16.9316V17.9316ZM38.9369 17.8512C38.9458 17.8512 38.952 17.8513 38.957 17.8513C38.9623 17.8513 38.9636 17.8513 38.963 17.8513C38.9624 17.8513 38.9605 17.8513 38.9576 17.8511C38.9548 17.851 38.9498 17.8507 38.9433 17.8501C38.9349 17.8493 38.9024 17.8464 38.8611 17.8349C38.8303 17.8263 38.7168 17.7931 38.6211 17.6825C38.5676 17.6208 38.5287 17.5451 38.5108 17.4612C38.4936 17.3811 38.4993 17.3121 38.5086 17.2638C38.5249 17.1791 38.56 17.1205 38.565 17.112C38.5736 17.097 38.5822 17.0844 38.5781 17.0906C38.5675 17.1066 38.5102 17.189 38.4867 17.3112C38.4626 17.437 38.4812 17.5583 38.5237 17.6649L39.4526 17.2946C39.4695 17.337 39.486 17.4101 39.4688 17.4997C39.4523 17.5858 39.411 17.6441 39.411 17.644C39.4113 17.6436 39.4138 17.6398 39.4165 17.6356C39.4193 17.6314 39.4247 17.6229 39.4309 17.6121C39.4376 17.6004 39.474 17.5392 39.4907 17.4523C39.5123 17.3399 39.5014 17.1715 39.3769 17.0278C39.2798 16.9157 39.164 16.8812 39.1296 16.8716C39.0573 16.8515 38.9901 16.8517 38.9895 16.8517C38.9718 16.8512 38.951 16.8512 38.9369 16.8512V17.8512ZM38.5237 17.6649C38.5369 17.6981 38.5722 17.7947 38.6085 17.863C38.662 17.9636 38.7524 18.082 38.9118 18.157L39.3376 17.2522C39.3746 17.2696 39.4114 17.2953 39.4431 17.3284C39.4723 17.3589 39.4872 17.3855 39.4916 17.3937C39.4949 17.4 39.4939 17.3992 39.4855 17.3784C39.4817 17.3688 39.4775 17.3581 39.4718 17.3434C39.4664 17.3295 39.4598 17.3127 39.4526 17.2946L38.5237 17.6649ZM38.9118 18.157C38.9281 18.1647 38.9409 18.1702 38.9493 18.1738C38.9557 18.1765 38.9523 18.175 38.9519 18.1748C38.9507 18.1743 38.9467 18.1726 38.9414 18.1701C38.9366 18.1679 38.9261 18.1629 38.9129 18.1557C38.9014 18.1494 38.8757 18.1348 38.8461 18.1116C38.82 18.0911 38.7606 18.041 38.7146 17.9553C38.6597 17.8531 38.637 17.7243 38.6712 17.5931C38.7002 17.4814 38.7599 17.4101 38.7876 17.3802C38.8174 17.3479 38.8449 17.327 38.8546 17.3198C38.8661 17.3111 38.8755 17.305 38.8766 17.3042C38.8843 17.2991 38.8709 17.3079 38.8621 17.3141C38.7989 17.3587 38.7273 17.4297 38.6788 17.537C38.6358 17.6319 38.6247 17.7252 38.6247 17.801H39.6247C39.6247 17.8205 39.6222 17.8777 39.5899 17.9491C39.5521 18.0327 39.4932 18.0927 39.4386 18.1312C39.4319 18.1359 39.4203 18.1436 39.4296 18.1374C39.4314 18.1362 39.4415 18.1296 39.4535 18.1205C39.4638 18.1129 39.4917 18.0917 39.5219 18.059C39.5499 18.0287 39.6098 17.957 39.6389 17.845C39.6732 17.7135 39.6505 17.5843 39.5954 17.4818C39.5491 17.3958 39.4895 17.3453 39.4628 17.3244C39.4328 17.3009 39.4065 17.2859 39.3941 17.2791C39.3703 17.266 39.3495 17.2573 39.3483 17.2568C39.3454 17.2555 39.3429 17.2545 39.3418 17.254C39.3402 17.2533 39.3401 17.2533 39.3393 17.2529C39.3384 17.2526 39.3384 17.2526 39.3376 17.2522L38.9118 18.157ZM38.6247 17.801C38.6247 17.804 38.6245 17.7934 38.6282 17.7745C38.6301 17.765 38.6328 17.7545 38.6364 17.7436C38.6401 17.7326 38.644 17.7229 38.6479 17.7146C38.6549 17.6994 38.6605 17.6918 38.6546 17.7008C38.6515 17.7057 38.6483 17.7105 38.6413 17.7211C38.635 17.7304 38.6268 17.7429 38.6178 17.757L39.4609 18.2947C39.4647 18.2887 39.4688 18.2826 39.4742 18.2744C39.4789 18.2674 39.4867 18.2556 39.494 18.2445C39.5089 18.2213 39.5326 18.1836 39.5546 18.1363C39.606 18.0258 39.6247 17.9151 39.6247 17.801H38.6247ZM38.6178 17.757C38.5842 17.8097 38.5447 17.8895 38.5324 17.9926C38.5262 18.0447 38.5276 18.0976 38.5368 18.1496C38.5459 18.2011 38.5615 18.2457 38.5788 18.2828C38.6109 18.3519 38.6511 18.399 38.6632 18.4132C38.6671 18.4178 38.6704 18.4216 38.6724 18.4239C38.6734 18.425 38.6744 18.4261 38.6749 18.4267C38.6756 18.4275 38.6759 18.4278 38.6761 18.428C38.6772 18.4293 38.6731 18.4248 38.6676 18.4178C38.6564 18.4037 38.63 18.3688 38.6085 18.3166C38.5854 18.2605 38.5732 18.1974 38.5758 18.1324C38.5782 18.0707 38.5934 18.0231 38.6058 17.9936C38.6178 17.965 38.6293 17.9485 38.6314 17.9456L39.4473 18.5237C39.4974 18.4531 39.5686 18.3319 39.575 18.1722C39.5784 18.0872 39.5625 18.007 39.5332 17.9358C39.5055 17.8686 39.4704 17.8206 39.4495 17.7945C39.4392 17.7815 39.4301 17.7712 39.4263 17.7668C39.4199 17.7596 39.4232 17.7634 39.4246 17.7649C39.4273 17.7681 39.459 17.8042 39.4855 17.8612C39.5169 17.9286 39.5368 18.0153 39.5253 18.1113C39.5148 18.1994 39.4817 18.2621 39.4609 18.2947L38.6178 17.757ZM38.6314 17.9456C38.6039 17.9844 38.5772 18.0284 38.5553 18.0778C38.5327 18.1288 38.5158 18.1841 38.5076 18.2435C38.5035 18.2727 38.502 18.2995 38.502 18.3234C38.502 18.3469 38.5034 18.3657 38.5042 18.3758C38.5045 18.3796 38.505 18.3848 38.5049 18.3835C38.5049 18.3835 38.5049 18.3833 38.5049 18.3829C38.5048 18.3825 38.5048 18.3819 38.5047 18.3812C38.5046 18.3797 38.5044 18.3772 38.5042 18.374C38.5038 18.3679 38.5032 18.3572 38.5033 18.3436C38.5033 18.3299 38.504 18.3117 38.5065 18.2904C38.5091 18.2689 38.5135 18.2445 38.5208 18.2181C38.5282 18.1915 38.5382 18.1648 38.5508 18.1385C38.5766 18.0851 38.6087 18.0438 38.6381 18.0136C38.6661 17.9847 38.692 17.9656 38.7081 17.9548C38.7245 17.9437 38.7372 17.9368 38.7429 17.9338C38.749 17.9307 38.7522 17.9293 38.7509 17.9299C38.7497 17.9304 38.7464 17.9318 38.7398 17.9345C38.7263 17.94 38.7061 17.9479 38.6755 17.9594L39.0277 18.8953C39.0846 18.8739 39.1524 18.8482 39.2062 18.8201C39.2322 18.8065 39.295 18.7724 39.355 18.7108C39.4336 18.6299 39.4858 18.5247 39.4996 18.4077C39.505 18.3621 39.5031 18.3256 39.5021 18.3099C39.5016 18.3023 39.4995 18.2772 39.5007 18.2917C39.5017 18.3036 39.5041 18.3378 39.4981 18.3809C39.486 18.4681 39.4507 18.5189 39.4473 18.5237L38.6314 17.9456ZM38.6755 17.9594C38.564 18.0014 38.4778 18.0525 38.4089 18.1026C38.3761 18.1264 38.3493 18.1486 38.3308 18.1642C38.3073 18.1839 38.3058 18.1855 38.3004 18.1897C38.2962 18.1931 38.3512 18.1466 38.4442 18.1309C38.5355 18.1155 38.5949 18.1404 38.5902 18.1386L38.2252 19.0696C38.323 19.1079 38.457 19.1429 38.6107 19.1169C38.7662 19.0907 38.8714 19.0131 38.9205 18.9743C39.016 18.8987 38.9935 18.9082 39.0277 18.8953L38.6755 17.9594ZM38.5002 18.1127C38.072 18.0321 37.9464 18.0238 37.8785 18.0238V19.0238C37.8787 19.0238 37.8756 19.0238 37.8723 19.0237C37.8697 19.0236 37.8693 19.0235 37.8717 19.0237C37.877 19.0241 37.8929 19.0255 37.9247 19.0296C37.9887 19.038 38.1067 19.0562 38.3153 19.0955L38.5002 18.1127ZM37.8785 18.0238C37.9601 18.0238 38.0248 18.0437 38.0657 18.0603C38.1074 18.0772 38.1389 18.0966 38.159 18.1104C38.1978 18.137 38.2238 18.1631 38.235 18.1748C38.2588 18.1997 38.2733 18.2204 38.2764 18.2248C38.285 18.237 38.2876 18.2426 38.2834 18.235C38.2767 18.223 38.2644 18.1993 38.2509 18.1694C38.2374 18.1394 38.2268 18.1127 38.2207 18.0944C38.2177 18.0853 38.2175 18.0835 38.2185 18.0878C38.2186 18.0884 38.2248 18.114 38.2248 18.1543H37.2248C37.2248 18.2657 37.2575 18.3672 37.2722 18.4111C37.2922 18.4711 37.3169 18.5307 37.3396 18.581C37.3624 18.6315 37.3875 18.6819 37.4112 18.7242C37.4222 18.7437 37.4383 18.7714 37.4576 18.7989C37.466 18.8109 37.4852 18.8377 37.5129 18.8665C37.5261 18.8803 37.5538 18.908 37.5941 18.9356C37.622 18.9547 37.7257 19.0238 37.8785 19.0238V18.0238ZM38.2248 18.1543C38.2248 17.9701 38.1558 17.7978 38.1286 17.7383L37.2186 18.1528C37.2175 18.1504 37.2172 18.1496 37.2176 18.1504C37.2179 18.1512 37.2185 18.1527 37.2193 18.1549C37.221 18.1596 37.2228 18.1652 37.2244 18.1706C37.226 18.1763 37.2265 18.1791 37.2264 18.1788C37.2263 18.1785 37.226 18.1764 37.2257 18.1728C37.2253 18.1692 37.2248 18.1629 37.2248 18.1543H38.2248Z" fill="#333333"/>
<path d="M39.9299 8.92995C39.803 8.92995 39.877 9.24715 39.9299 9.40574L39.6133 9.56434L39.7719 10.3573C39.8247 10.3573 39.9305 10.2939 39.9305 10.0401C39.9305 9.72294 40.2234 10.2658 40.382 10.1072C40.5406 9.94865 41.624 9.6521 41.8106 9.21439C42.0334 8.69146 41.632 8.63873 41.632 8.32153C41.632 8.00434 40.7191 8.14296 40.5605 8.14296C40.402 8.14296 40.342 8.32153 40.0248 8.32153C39.7076 8.32153 40.0885 8.92995 39.9299 8.92995Z" fill="#333333"/>
<path d="M39.9299 9.40574L40.1538 9.8528L40.5413 9.65873L40.4042 9.24763L39.9299 9.40574ZM41.8106 9.21439L41.3506 9.01838L41.3506 9.01838L41.8106 9.21439ZM39.7719 10.3573L39.2816 10.4554L39.362 10.8573H39.7719V10.3573ZM39.6133 9.56434L39.3894 9.11729L39.0482 9.2882L39.123 9.6624L39.6133 9.56434ZM40.4042 9.24763C40.3837 9.18584 40.3646 9.10747 40.3603 9.06191C40.3574 9.03024 40.3664 9.06643 40.3461 9.13127C40.3345 9.1686 40.3035 9.24581 40.2252 9.31611C40.1368 9.39538 40.028 9.42995 39.9299 9.42995V8.42995C39.8001 8.42995 39.6659 8.47444 39.5575 8.57167C39.4591 8.65994 39.4135 8.76317 39.3917 8.83272C39.3513 8.96199 39.3584 9.08739 39.3647 9.15484C39.3789 9.30753 39.4233 9.46705 39.4556 9.56386L40.4042 9.24763ZM39.9299 9.42995C40.0212 9.42995 40.1408 9.40694 40.2517 9.32452C40.3616 9.24296 40.4163 9.13785 40.4422 9.05775C40.4668 8.98182 40.4704 8.91472 40.4704 8.87328C40.4703 8.82929 40.4659 8.79041 40.4616 8.76164C40.4534 8.70596 40.4399 8.65126 40.4308 8.6151C40.4194 8.56975 40.4124 8.54445 40.4046 8.51136C40.3975 8.48114 40.3949 8.46495 40.394 8.45773C40.3928 8.44715 40.3974 8.47149 40.3888 8.5144C40.3793 8.56221 40.3479 8.65655 40.2536 8.73403C40.1594 8.81138 40.0639 8.82153 40.0248 8.82153V7.82153C39.9065 7.82153 39.7535 7.85069 39.6188 7.96132C39.484 8.07208 39.4291 8.21395 39.4081 8.31879C39.3882 8.41874 39.3935 8.50963 39.4004 8.57035C39.4077 8.63443 39.4204 8.69429 39.4312 8.74012C39.4413 8.78309 39.4547 8.83384 39.4612 8.85979C39.4652 8.87563 39.468 8.88736 39.4701 8.89663C39.4722 8.90615 39.4726 8.90934 39.4724 8.90814C39.4724 8.90788 39.4704 8.89514 39.4704 8.87433C39.4704 8.85606 39.4716 8.80916 39.4908 8.74987C39.5113 8.6864 39.5577 8.59436 39.6555 8.52172C39.7545 8.44821 39.8584 8.42995 39.9299 8.42995V9.42995ZM40.0248 8.82153C40.1529 8.82153 40.2674 8.80322 40.3714 8.77017C40.4748 8.73732 40.5539 8.69426 40.6093 8.66107C40.6321 8.64737 40.6606 8.62929 40.669 8.6241C40.683 8.6154 40.6846 8.61481 40.6814 8.61642C40.6688 8.62288 40.6235 8.64296 40.5605 8.64296V7.64296C40.4183 7.64296 40.3061 7.68537 40.2277 7.7253C40.1916 7.74366 40.1607 7.7626 40.141 7.77483C40.1157 7.79056 40.1094 7.79481 40.095 7.80342C40.076 7.81487 40.0707 7.81646 40.0687 7.81709C40.0673 7.81752 40.0553 7.82153 40.0248 7.82153V8.82153ZM40.5605 8.64296C40.6039 8.64296 40.6564 8.63885 40.6915 8.63607C40.7367 8.6325 40.7789 8.62884 40.832 8.62488C40.9353 8.61718 41.0456 8.61118 41.1457 8.6132C41.1953 8.6142 41.2369 8.61709 41.2699 8.62141C41.3047 8.62596 41.3187 8.63068 41.3179 8.63041C41.3167 8.62998 41.3073 8.62656 41.2929 8.61805C41.2784 8.60952 41.2552 8.59369 41.2302 8.5674C41.1714 8.50561 41.132 8.41637 41.132 8.32153H42.132C42.132 7.92412 41.818 7.74745 41.6558 7.68922C41.4888 7.62928 41.3031 7.61616 41.1658 7.6134C41.0179 7.61042 40.8702 7.61926 40.7577 7.62764C40.703 7.63172 40.6478 7.63641 40.6127 7.63918C40.5676 7.64274 40.5568 7.64296 40.5605 7.64296V8.64296ZM41.132 8.32153C41.132 8.51815 41.1977 8.66913 41.2609 8.77592C41.2896 8.82451 41.3202 8.8676 41.3388 8.8939C41.3608 8.92512 41.3706 8.93913 41.3786 8.95223C41.3893 8.96972 41.3797 8.95816 41.3781 8.93649C41.3768 8.91944 41.3842 8.93956 41.3506 9.01838L42.2705 9.4104C42.3484 9.22776 42.3891 9.04518 42.3752 8.86126C42.361 8.67271 42.2928 8.5301 42.231 8.42939C42.2028 8.38339 42.1729 8.34152 42.1557 8.3172C42.1351 8.28796 42.1269 8.27585 42.1215 8.26672C42.1164 8.25807 42.132 8.28351 42.132 8.32153H41.132ZM41.3506 9.01838C41.359 8.9986 41.3488 9.03294 41.2429 9.10758C41.1475 9.17481 41.0198 9.2435 40.8718 9.31358C40.7193 9.3858 40.5843 9.4419 40.441 9.50627C40.3754 9.53574 40.3065 9.56777 40.2456 9.60034C40.1964 9.62658 40.1046 9.6775 40.0284 9.7537L40.7355 10.4608C40.699 10.4973 40.6757 10.5043 40.7169 10.4823C40.7463 10.4666 40.7895 10.446 40.8507 10.4185C40.961 10.369 41.1383 10.2938 41.2998 10.2174C41.4658 10.1388 41.6538 10.0414 41.819 9.92493C41.9737 9.8159 42.1688 9.64904 42.2705 9.4104L41.3506 9.01838ZM40.0284 9.7537C40.0953 9.68683 40.1914 9.64163 40.2965 9.63731C40.3847 9.63369 40.444 9.6603 40.4591 9.66743C40.4771 9.676 40.4786 9.68068 40.4137 9.62748C40.3932 9.61071 40.354 9.57835 40.3122 9.55003C40.2849 9.5315 40.1828 9.46107 40.0419 9.44312C39.9574 9.43235 39.843 9.43836 39.727 9.49901C39.6113 9.55948 39.5408 9.64982 39.5008 9.72576C39.4331 9.85464 39.4305 9.98454 39.4305 10.0401H40.4305C40.4305 10.0378 40.4307 10.0495 40.4274 10.0703C40.4244 10.0888 40.4153 10.1352 40.3859 10.1911C40.3543 10.2513 40.294 10.331 40.1902 10.3853C40.086 10.4397 39.9851 10.444 39.9155 10.4351C39.8513 10.4269 39.8059 10.407 39.7868 10.3978C39.7657 10.3877 39.7529 10.379 39.7508 10.3776C39.749 10.3763 39.7538 10.3796 39.7798 10.401C39.7993 10.4169 39.8346 10.4462 39.8714 10.4735C39.9079 10.5006 39.9629 10.5388 40.03 10.5707C40.0948 10.6015 40.203 10.642 40.3376 10.6365C40.489 10.6302 40.629 10.5673 40.7355 10.4608L40.0284 9.7537ZM39.4305 10.0401C39.4305 10.1036 39.4165 10.0717 39.4603 10.0087C39.5042 9.94555 39.6075 9.85733 39.7719 9.85733V10.8573C40.2532 10.8573 40.4305 10.3878 40.4305 10.0401H39.4305ZM40.2622 10.2593L40.1036 9.46628L39.123 9.6624L39.2816 10.4554L40.2622 10.2593ZM39.8372 10.0114L40.1538 9.8528L39.706 8.95869L39.3894 9.11729L39.8372 10.0114Z" fill="#333333"/>
<path d="M40.8616 9.65024C41.0876 9.55191 41.3297 9.56482 41.4873 9.50699C41.4885 9.48498 41.5152 9.3981 41.6127 9.22668C41.7346 9.01241 41.6905 9.01006 41.635 8.80841C41.5796 8.60676 41.4265 8.57652 41.0986 8.51489C40.7708 8.45326 40.9367 8.24133 40.6808 8.07315C40.4249 7.90497 40.1478 8.13303 40.1395 8.28714C40.1313 8.44124 40.1161 8.72742 40.0452 8.81195C39.9743 8.89648 39.8849 9.33325 39.9149 9.59976C39.9448 9.86628 40.2146 10.1897 40.204 10.3879C40.1934 10.586 40.4136 10.5977 40.4632 10.9095C40.5128 11.2212 40.4051 11.1713 40.1559 11.2905C39.9067 11.4096 39.8375 11.0527 39.3221 10.7824C38.8067 10.5121 39.227 9.25401 39.2399 9.01185C39.2528 8.76969 39.4336 8.69103 39.5299 8.54162C39.6262 8.39222 39.6819 8.17443 39.7342 8.02268C39.7864 7.87093 40.0274 7.90585 40.1712 7.69275C40.315 7.47965 40.527 7.64549 40.6996 7.72092C40.8722 7.79636 40.8942 7.79753 41.1143 7.80927C41.3345 7.82101 41.3274 7.95309 41.5683 7.98801C41.8092 8.02294 41.7492 7.90935 41.6867 7.83979C41.6242 7.77023 41.5015 7.58706 41.5942 7.5037C41.6868 7.42033 41.856 7.56181 42.0959 7.61875C42.3357 7.67569 42.2602 7.84829 42.5857 7.95395C42.9113 8.05961 42.9691 8.21724 43.1197 8.29149C43.2702 8.36575 43.3037 8.56623 43.4299 8.68334C43.5561 8.80046 43.5318 8.84331 43.6824 8.91757C43.8329 8.99183 43.6718 9.1157 43.5107 9.23957C43.3495 9.36344 43.1549 9.28683 42.9116 9.29593C42.6682 9.30503 42.7633 9.17764 42.6371 9.06053C42.5109 8.94342 42.9154 8.81045 42.788 8.71535C42.6606 8.62025 42.6107 8.72797 42.4496 8.85184C42.2884 8.97571 42.6228 9.74415 42.3956 9.86449C42.1684 9.98484 42.0155 9.95461 41.6295 10.1548C41.2435 10.355 40.9561 10.3617 40.6931 10.3256C40.4301 10.2895 40.7025 10.1495 40.6505 9.88183C40.5986 9.61414 40.6355 9.74857 40.8616 9.65024Z" fill="#333333"/>
<path d="M34.9526 10.7481C35.237 11.0458 35.0539 11.195 34.9268 11.2324C34.7507 11.4438 34.6406 11.2171 34.5422 10.9911C34.4439 10.7651 34.168 10.9712 33.826 11.1737C33.4841 11.3763 33.5061 11.3774 33.3368 11.6554C33.1674 11.9334 32.6391 11.9052 32.1641 11.7033C31.6892 11.5013 31.5005 11.3146 31.0625 11.2471C30.6246 11.1796 30.5718 10.5145 30.5941 10.0962C30.6164 9.67797 30.4708 9.09621 30.6469 9.1056C30.823 9.11499 31.1905 8.84759 31.7502 8.70081C32.31 8.55404 32.8556 8.67145 33.4941 8.70549C34.1325 8.73953 34.1783 9.53673 34.4087 9.76979C34.6391 10.0028 34.5971 10.3759 34.9526 10.7481Z" fill="#333333"/>
</svg>
