<svg width="49" height="73" viewBox="0 0 49 73" fill="none" xmlns="http://www.w3.org/2000/svg">
<path d="M10.7433 11.2212C11.0128 10.6821 11.5519 9.52303 11.5519 9.19957C11.5519 8.87612 11.5519 7.17798 11.5519 6.36935C11.6867 5.96503 12.1988 4.9138 13.1692 3.94344C14.3822 2.73048 15.9994 1.11321 16.4038 1.11321C16.8081 1.11321 18.4253 1.51753 20.0426 1.51753C20.6144 1.51753 22.8728 0.708891 23.2772 1.11321C23.6815 1.51753 28.5333 5.15639 28.5333 5.96503C28.5333 6.77366 27.3203 9.19957 27.3203 9.60389C27.3203 10.0082 27.7247 10.4125 27.7247 10.8168C27.7247 11.2212 27.7247 11.6255 27.7247 12.4341C27.7247 13.081 27.4551 13.7818 27.3203 14.0514M28.9376 6.77366C29.3419 8.39094 30.3932 11.8681 31.3635 12.8384C32.5765 14.0514 33.3851 16.4773 32.1722 19.3075C30.9592 22.1378 30.1506 22.9464 29.3419 22.9464C28.5333 22.9464 29.3419 21.7334 28.9376 20.5205C28.5333 19.3075 27.3203 17.6903 27.3203 16.8816C27.3203 16.073 28.5333 14.4557 27.7247 14.4557C27.0778 14.4557 26.916 15.2643 26.916 15.6687" stroke="black" stroke-width="0.75" stroke-linecap="round"/>
<path d="M27.7247 13.2428C27.9942 13.6471 28.5333 14.5366 28.5333 14.86C28.5333 15.1835 28.5333 16.073 28.5333 16.4773" stroke="black" stroke-width="0.75" stroke-linecap="round"/>
<path d="M11.9562 4.75204C11.8215 4.4825 11.3902 4.26686 10.7433 5.56068C10.0964 6.8545 8.85647 9.06477 8.31738 10.0082C8.18261 10.5473 7.91306 11.7063 7.91306 12.0298C7.91306 12.4341 7.10443 15.2643 7.10443 15.6686C7.10443 16.073 7.91306 16.4773 7.91306 16.8816C7.91306 17.2859 7.50875 17.6902 7.91306 17.6902C8.31738 17.6902 9.53034 16.4773 9.53034 16.8816" stroke="black" stroke-width="0.75" stroke-linecap="round"/>
<path d="M10.339 13.2428C9.53033 14.321 7.91306 16.5582 7.91306 16.8816" stroke="black" stroke-width="0.75" stroke-linecap="round"/>
<path d="M9.93466 12.0298C9.53034 12.7037 8.64084 14.3749 8.31739 15.6687" stroke="black" stroke-width="0.75" stroke-linecap="round"/>
<path d="M16.8081 7.58233C17.2124 7.31278 17.6167 6.77369 18.021 6.77369C18.8297 6.77369 18.8297 7.17801 19.234 7.17801C19.5574 7.17801 19.9078 7.17801 20.0426 7.17801" stroke="black" stroke-width="0.5" stroke-linecap="round"/>
<path d="M13.1692 5.96499C13.304 5.83022 13.5735 5.47981 13.5735 5.15636C13.5735 4.75204 13.5735 4.75204 13.9778 4.34772C14.3822 3.9434 14.3822 3.9434 14.7865 3.53908C15.1908 3.13477 15.9994 2.32613 16.4037 2.73045C16.8081 3.13477 16.8081 4.75204 16.4037 5.15636" stroke="black" stroke-width="0.5" stroke-linecap="round"/>
<path d="M13.5735 11.2212C13.1692 11.7603 12.4414 13.081 12.7649 14.0514C13.1692 15.2644 13.5735 17.2859 14.3822 17.2859C15.1908 17.2859 16.4037 15.2644 17.2124 15.2644C18.021 15.2644 18.021 15.2644 18.8297 15.6687C19.6383 16.073 20.0426 16.8816 20.4469 16.8816C20.7704 16.8816 22.7381 15.5339 23.6815 14.86C24.3553 14.4557 25.4605 14.0514 24.4901 15.6687L23.2772 17.6903" stroke="black" stroke-width="0.5" stroke-linecap="round"/>
<path d="M12.7649 13.2428C12.4953 13.5123 12.118 14.4557 12.7649 16.073C13.4118 17.6903 13.8431 19.1728 13.9778 19.7119C14.2474 20.5205 15.1908 22.2186 16.8081 22.5421C18.8296 22.9464 18.8296 22.5421 19.6383 22.5421C20.2852 22.5421 20.7165 22.2725 20.8512 22.1378" stroke="black" stroke-width="0.5" stroke-linecap="round"/>
<path d="M17.6167 15.2643C16.9698 15.2643 15.7299 16.3425 15.1908 16.8816C15.1908 17.2859 16.8081 17.2859 17.2124 16.8816C17.6167 16.4773 18.021 16.8816 20.0426 16.8816C20.0426 16.4773 18.4253 15.2643 17.6167 15.2643Z" fill="black" stroke="black" stroke-width="0.5" stroke-linecap="round"/>
<path d="M23.2772 17.6903L22.4685 16.073L22.8728 15.2644L23.6815 14.8601L24.0858 14.4557H24.8944V14.8601L23.2772 17.6903Z" fill="black" stroke="black"/>
<path d="M16.4038 17.2859C16.9429 17.825 18.1828 18.9841 18.8297 19.3075C19.6383 19.7118 20.4469 20.9248 20.4469 21.3291M20.4469 21.3291C20.4469 21.7334 22.0642 23.3507 22.4685 22.9464M20.4469 21.3291C20.4469 21.6526 19.0992 21.7334 18.4254 21.7334C16.1612 22.0569 14.2474 18.6336 13.5735 16.8816M22.4685 22.9464C22.8729 22.5421 23.6815 22.5421 23.6815 21.7334C23.6815 20.9248 23.6815 17.2859 22.4685 16.4773M22.4685 22.9464C23.1154 20.0353 21.9294 18.7684 21.2556 18.4989M13.9779 17.2859C14.6517 18.3641 16.6464 20.7226 17.6167 20.7226C18.5871 20.7226 19.5035 20.79 20.0426 20.9248" stroke="black" stroke-width="0.75" stroke-linecap="round"/>
<path d="M8.31738 18.4989C7.37397 19.3076 5.48716 21.2483 5.48716 22.5421C6.70011 21.7335 6.70011 21.3292 6.70011 22.1378C7.02357 22.1378 7.10443 22.1378 7.10443 22.1378L7.50875 21.7335M6.70011 22.9464C6.56534 22.9464 6.29579 23.0273 6.29579 23.3508" stroke="black" stroke-width="0.75" stroke-linecap="round"/>
<path d="M6.29581 24.1594C6.02626 24.6985 5.40631 25.7766 5.08285 25.7766C4.67853 25.7766 4.27422 25.3723 3.8699 25.3723C3.54644 25.3723 4.00467 24.8332 4.27422 24.5637" stroke="black" stroke-width="0.75" stroke-linecap="round"/>
<path d="M8.7217 21.3291C9.39557 21.0596 10.905 20.197 11.5519 18.9032M9.53034 22.9464C9.93466 22.2725 10.8242 20.9248 11.1476 20.9248M12.7649 18.9032C12.8997 19.5771 13.0883 21.0865 12.7649 21.7334M13.5735 19.7118L12.7649 22.9464M13.9778 21.3291C13.8431 21.7334 13.5735 22.6229 13.5735 22.9464M14.3822 22.1377C14.5169 22.5421 14.7056 23.4316 14.3822 23.755M15.1908 22.9464C15.3256 23.3507 15.5142 24.1593 15.1908 24.1593M11.1476 22.5421C10.7433 22.8116 9.85379 23.4316 9.53034 23.755C9.12602 24.1593 7.91307 26.5852 7.91307 26.9896M11.1476 23.3507C10.6085 24.1593 9.53034 25.9383 9.53034 26.5852C9.53034 27.2322 8.45216 28.2025 7.91307 28.6068M7.50875 26.9896C6.83488 27.2591 5.48716 27.9599 5.48716 28.6068C5.48716 29.4155 3.86988 29.8198 3.46557 30.2241C3.06125 30.6284 1.44397 33.0543 2.25261 34.6716M4.2742 28.2025C3.46556 27.7982 1.84829 26.8278 1.84829 26.1809C2.11783 26.3157 2.73779 26.5852 3.06124 26.5852C3.3847 26.5852 4.00465 26.8548 4.2742 26.9896M3.06124 35.0759C2.25261 35.8846 0.877926 37.5018 1.84829 37.5018M7.50875 34.2673C6.70011 35.3455 5.64888 37.8253 7.91306 39.1191C7.91306 40.0895 7.64352 41.4102 7.50875 41.9493C8.7217 40.7364 9.12602 40.3321 9.12602 40.7364C9.12602 41.1407 8.7217 42.758 9.12602 42.758C9.44947 42.758 9.79988 42.4884 9.93466 42.3537M8.7217 41.545C8.58693 42.0841 8.15565 43.324 7.50875 43.9709C6.86184 44.6178 6.43056 45.3187 6.29579 45.5882M5.08284 46.8012C5.21761 46.5316 5.56802 45.9925 5.89147 45.9925M10.7433 42.3537C10.8781 42.8927 11.0667 44.0518 10.7433 44.3752M11.5519 43.5666C11.5519 44.3753 11.6328 45.9117 11.9562 45.5882C12.3606 45.1839 12.7649 45.5882 13.1692 45.1839C13.5735 44.7796 13.5735 44.3753 13.5735 43.5666C13.5735 42.758 13.1692 42.758 13.1692 41.9493C13.1692 41.3024 13.4387 39.5234 13.5735 38.7148H13.1692M11.9562 43.1623C12.091 44.2405 12.4414 46.5586 12.7649 47.2055M14.3822 42.758C14.6517 43.0275 15.1099 44.0518 14.7865 45.9925M15.1908 43.1623C15.056 43.8362 14.8673 45.1839 15.1908 45.1839C15.5142 45.1839 16.1342 44.6448 16.4037 44.3752C16.5808 44.0212 16.8043 43.4658 16.9453 42.8716M16.8081 40.7364C17.1718 41.2819 17.1265 42.1086 16.9453 42.8716M17.6167 41.545C17.4387 41.6208 17.0551 41.9922 16.9453 42.8716M16.4037 37.5018C15.9994 38.1757 15.2717 39.6852 15.5951 40.3321M18.4253 39.1191C18.2906 39.5234 18.1019 40.4129 18.4253 40.7364M18.4253 41.545C18.5601 41.8146 18.8297 43.0006 18.8297 45.5882M20.0426 43.1623C19.6383 43.9709 18.9105 45.5882 19.234 45.5882C19.6383 45.5882 19.6383 45.1839 20.0426 45.1839C20.3661 45.1839 20.986 43.8362 21.2556 43.1623M20.8512 42.3537C21.1208 41.6798 21.4982 40.0895 20.8512 39.1191C20.0426 37.9062 20.4469 34.2673 21.2556 33.863M3.46556 37.0975C3.60034 37.0975 3.70815 37.2592 3.06125 37.9062C2.25261 38.7148 1.44397 39.5234 2.25261 39.9277M3.86988 37.5018C3.46556 37.7714 2.73779 38.7148 3.06125 40.3321C3.46556 42.3537 0.635336 44.7796 1.03965 44.7796C1.44397 44.7796 3.86988 45.5882 3.86988 45.9925C3.86988 46.3968 3.46557 47.2055 3.46557 47.6098C3.46557 48.0141 4.2742 48.0141 3.86988 48.4184C3.54643 48.7419 2.11784 50.1705 1.44398 50.8443M13.5735 26.9896C12.7649 26.8548 11.1476 26.8278 11.1476 27.7982M11.1476 27.7982C11.1476 29.0112 10.339 29.8198 11.1476 29.8198M11.1476 27.7982C11.4711 27.1513 12.6301 27.2591 13.1692 27.3939M12.3606 26.1809C11.9562 26.72 11.0667 27.8791 10.7433 28.2025C10.339 28.6068 11.1476 29.0112 9.93466 29.8198C8.96429 30.4667 8.45216 30.6284 8.31739 30.6284M15.9994 28.6068C15.4603 28.0677 14.1396 27.2322 13.1692 28.2025M9.12602 33.0543C8.99125 33.1891 8.80257 33.4587 9.12602 33.4587C9.53034 33.4587 9.12602 33.0543 9.93466 33.0543C10.7433 33.0543 10.339 32.2457 10.7433 32.2457C11.0667 32.2457 11.4172 31.7066 11.5519 31.4371C11.6867 30.898 12.118 29.7389 12.7649 29.4155C13.4118 29.092 14.1126 29.0112 14.3822 29.0112M24.8944 25.7766C25.2665 25.5906 25.5672 24.4149 25.7812 23.1418M26.1074 18.4989C25.9726 18.9032 25.7031 19.8736 25.7031 20.5205M26.1074 20.5205C26.0501 21.2076 25.9393 22.2013 25.7812 23.1418M25.7031 26.5852C25.7552 25.6374 25.8438 23.6217 25.7812 23.1418M25.7812 23.1418C26.0247 23.8853 26.5117 25.534 26.5117 26.1809C26.5117 26.8278 26.2422 27.2591 26.1074 27.3939M26.916 18.0946C26.7813 18.4989 26.5926 19.4692 26.916 20.1162C27.3203 20.9248 27.7247 21.3291 27.7247 21.7334M27.7247 19.3075C27.8594 19.9162 28.129 21.3345 28.129 22.1377C28.129 22.941 27.5899 22.742 27.3203 22.5421C27.5899 22.8116 28.129 23.5124 28.129 24.1593C28.129 24.968 28.5333 29.4155 26.5117 28.6068M28.5333 23.3507C28.9376 24.4289 29.6654 26.747 29.3419 27.3939M26.916 25.7766C26.6465 26.9896 25.7031 29.5772 24.0858 30.2241M24.4901 29.0112C24.2206 29.4155 23.6815 30.3858 23.6815 31.0327C23.6815 31.8414 24.8944 33.863 24.4901 35.0759M25.7812 33.863C25.8899 34.2673 25.9457 35.2377 25.2988 35.8846M26.1074 30.2241C25.9726 30.7632 25.7839 31.8414 26.1074 31.8414C26.4308 31.8414 26.7813 31.5718 26.916 31.4371" stroke="black" stroke-width="0.75" stroke-linecap="round"/>
<path d="M4.27421 42.758C4.13943 42.8927 3.86989 43.2431 3.86989 43.5666C3.86989 43.9709 4.67852 45.9925 4.27421 45.9925M4.27421 48.8227C4.13943 49.2271 3.95075 50.1166 4.27421 50.44C4.59766 50.7635 4.67852 51.1139 4.67852 51.2486M5.48716 49.6314C5.62193 50.0357 5.89148 50.9252 5.89148 51.2486C5.89148 51.5721 5.89148 51.9225 5.89148 52.0573M6.2958 49.2271C6.2958 49.6314 6.37666 50.6017 6.70012 51.2486C7.10443 52.0573 6.70012 52.8659 7.10443 52.8659M7.50875 52.0573C7.7783 52.8659 8.55998 54.5641 9.53034 54.8875C10.5007 55.211 10.4738 55.8309 10.339 56.1005C8.99125 57.0439 6.2958 59.335 6.2958 60.9523C6.2958 62.9739 5.89148 63.7825 6.70012 64.1868M9.93466 46.8011C9.79989 47.3402 9.61121 48.5801 9.93466 49.2271C10.339 50.0357 10.7433 52.0573 10.7433 52.8659C10.7433 53.347 10.8864 53.9713 10.832 54.4832C10.795 54.8317 10.6665 55.1281 10.339 55.2918M7.91307 62.1652C7.91307 62.4348 7.91307 63.0547 7.91307 63.3782C7.91307 63.7825 7.91307 64.5911 8.31739 64.9955C8.72171 65.3998 8.72171 66.2084 9.12602 66.2084C9.53034 66.2084 9.53034 65.8041 9.93466 65.8041C10.339 65.8041 11.5519 64.5911 12.7649 64.5911C13.9778 64.5911 17.2124 62.9739 16.8081 61.7609C16.4038 60.548 16.4038 59.7393 16.8081 58.9307C17.1315 58.2838 17.4819 57.583 17.6167 57.3134M17.6167 57.3134C18.4253 55.8309 20.0426 52.7851 20.0426 52.4616M17.6167 57.3134C18.021 57.3134 18.9914 57.3943 19.6383 57.7177C20.2852 58.0412 20.986 58.6611 21.2556 58.9307M21.2556 56.5048C21.3903 56.6396 21.6599 56.99 21.6599 57.3134C21.9833 57.3134 22.3338 56.5048 22.4685 56.1005" stroke="black" stroke-width="0.75" stroke-linecap="round"/>
<path d="M22.8728 44.7795C23.0076 46.1273 23.1963 48.9845 22.8728 49.6314C22.4685 50.44 22.4685 50.44 22.8728 50.8443C23.2772 51.2486 23.6815 54.4832 23.2772 55.6961C22.8728 56.9091 22.0642 62.1652 21.2556 62.9739C20.4469 63.7825 20.4469 65.8041 20.8512 67.017M21.6599 65.3998C21.2556 65.6693 20.6895 66.6127 21.6599 68.23C22.8728 70.2516 22.4685 70.2516 22.8728 70.6559C23.1963 70.9794 24.3553 71.8689 24.8944 72.2732C25.0292 72.0036 25.3796 71.4645 25.7031 71.4645C26.1074 71.4645 26.5117 71.8689 26.916 71.8689C27.2395 71.8689 27.8594 70.7907 28.129 70.2516C27.9942 69.5777 27.8055 68.23 28.129 68.23C28.4524 68.23 28.5333 67.9605 28.5333 67.8257M28.5333 67.8257C28.5333 67.2866 28.6142 66.2084 28.9376 66.2084M28.5333 67.8257C28.6681 68.0952 28.9376 68.796 28.9376 69.443C29.3419 69.443 29.3419 69.0386 29.7463 69.443C30.5549 69.0386 30.5549 67.8257 30.9592 67.8257C31.3635 67.8257 30.1506 62.9739 29.3419 62.1652C28.5333 61.3566 28.129 60.548 28.5333 59.7393C28.9376 58.9307 29.3419 56.5048 30.1506 56.5048C30.7975 56.5048 30.9592 55.4266 30.9592 54.8875C30.8244 53.6745 30.6358 51.2486 30.9592 51.2486M32.1722 44.7795C32.3367 46.3688 32.4862 49.7259 31.7678 50.44M22.8728 54.0789C22.7381 54.2136 22.5494 54.6449 22.8728 55.2918M25.2988 67.8257C25.0292 68.7691 24.571 70.8176 24.8944 71.4645M25.7031 67.017C25.5683 68.4995 25.4605 71.4645 26.1074 71.4645M30.9592 41.9493C30.5549 41.9493 29.7463 42.111 29.7463 42.758C29.7463 43.4049 29.2072 44.1057 28.9376 44.3752M28.129 31.437C28.3985 31.5718 28.8568 32.1648 28.5333 33.4586C28.129 35.0759 27.7247 37.5018 27.7247 38.3105C27.7247 39.1191 27.7247 43.5666 28.129 43.5666M24.4901 38.3105C24.4901 38.8495 24.571 40.1703 24.8944 41.1407C25.2988 42.3536 25.7031 44.3752 24.8944 45.5882C24.2475 46.5585 23.8163 48.4184 23.6815 49.227M32.1722 52.8659C32.4417 53.1355 32.9808 53.8363 32.9808 54.4832M31.7678 55.2918C31.9026 55.6961 32.0913 56.5856 31.7678 56.9091C31.3635 57.3134 30.5549 57.3134 30.5549 57.7177M33.3851 48.8227C33.1745 49.1387 32.8486 49.8003 32.8706 50.3832M33.3851 52.4616C33.3851 52.192 33.3043 51.4912 32.9808 50.8443C32.9101 50.703 32.8768 50.5461 32.8706 50.3832M32.1722 51.653C32.2335 51.3455 32.459 50.6611 32.8706 50.3832M34.1938 52.0573C34.3285 51.7877 34.6789 51.1678 35.0024 50.8443C35.3258 50.5209 35.6763 49.9009 35.811 49.6314M34.1938 52.8659C34.4633 52.7311 35.0833 52.3807 35.4067 52.0573C35.811 51.653 36.2153 50.44 36.6197 50.44C36.9431 50.44 37.5631 50.1705 37.8326 50.0357M37.8326 51.653C38.3717 51.3834 39.5308 50.7635 39.8542 50.44C40.2585 50.0357 41.0672 48.8227 41.4715 48.8227C41.8758 48.8227 41.8758 48.8227 42.2801 48.4184C42.4854 48.2132 42.7015 47.8885 42.8664 47.6098M43.0888 47.2055C43.0395 47.304 42.9615 47.4493 42.8664 47.6098M42.8664 47.6098C43.0753 47.8793 43.4931 48.3375 43.4931 48.0141C43.4931 47.6098 43.8974 45.5882 44.3017 45.9925C44.6252 46.316 44.9756 46.3968 45.1103 46.3968C45.6494 45.723 46.7276 44.4561 46.7276 44.7795C46.7276 45.1839 47.5363 43.1623 46.7276 42.3536C47.0511 42.3536 47.1319 42.3536 47.1319 42.3536C46.7276 41.6798 45.919 40.0895 45.919 39.1191C45.919 37.9061 46.3233 36.6932 45.919 35.8845C45.5955 35.2376 44.9756 34.5368 44.706 34.2673C44.3017 32.9195 43.0888 30.3858 41.4715 31.0327M44.3017 35.0759C44.8408 35.615 45.919 36.8549 45.919 37.5018M35.811 23.755C36.8892 24.6984 39.0456 26.6661 39.0456 26.9895C39.0456 27.3939 40.6628 27.3939 40.6628 32.2457M38.6413 31.0327C38.5065 32.5152 37.9943 35.9654 37.024 37.9061M37.024 40.332C37.4377 37.719 38.5022 32.3625 39.4499 31.8414M40.2585 32.2457C40.2585 32.65 38.2369 33.4586 37.8326 36.2889M41.8758 42.758C41.4715 43.297 40.6628 44.4561 40.6628 44.7795M35.811 39.9277C35.6763 40.1973 35.4067 40.8981 35.4067 41.545C35.4067 42.1919 35.1372 43.4318 35.0024 43.9709M36.2153 26.1809C36.6197 26.72 37.2666 28.2834 36.6197 30.2241C36.0934 31.8029 35.7098 33.1319 35.5125 33.863M34.5981 36.6932C35.0024 36.6932 35.811 35.0759 35.811 34.6716C35.811 34.3481 35.2719 34.8064 35.0024 35.0759L35.4067 34.2673C35.4318 34.1667 35.4673 34.0306 35.5125 33.863M35.0024 37.0975C34.7936 37.6297 34.433 38.4123 33.9796 39.1787M31.7678 41.545C31.8024 41.5316 31.837 41.5168 31.8715 41.5009M33.9796 39.1787C34.1858 39.9675 34.3555 41.7876 33.3851 42.758M33.9796 39.1787C33.3904 40.1749 32.6444 41.144 31.8715 41.5009M31.8715 41.5009C32.611 42.6358 33.8682 45.2039 32.9808 46.3968M33.3851 15.2643C33.7894 16.073 34.5172 17.9328 34.1938 18.9032C32.9808 18.9032 32.5765 18.4989 33.3851 20.1161C34.1938 21.7334 35.0024 21.3291 35.0024 22.1377C35.0024 22.7846 34.7328 22.6768 34.5981 22.542M33.3851 18.4989C33.7894 19.1727 34.6789 21.2482 35.0024 24.1593C35.3258 27.0704 35.4773 31.8414 35.5125 33.863" stroke="black" stroke-width="0.75" stroke-linecap="round"/>
<path d="M44.3017 46.3969C44.3017 46.8012 44.3826 47.6907 44.706 48.0141C45.1103 48.4184 45.919 49.2271 46.3233 50.0357C46.7276 50.8444 47.5362 50.8444 47.9406 53.6746C47.9824 53.9675 47.9976 54.2365 47.991 54.4832M39.4499 50.8444C39.4499 51.8147 40.5281 53.6746 41.0671 54.4832C41.2384 54.7401 41.5838 55.1602 41.9788 55.4324M42.2801 52.0573C41.9444 52.8249 41.4142 54.5745 41.9788 55.4324M41.9788 55.4324C42.2055 55.5886 42.4485 55.6962 42.6844 55.6962C43.3313 55.6962 44.3017 57.0439 44.706 57.7178L45.5146 57.3134L45.919 57.1113M44.3017 52.4616C44.5052 53.783 44.8709 56.5225 44.706 56.9091M45.919 57.1113L46.3233 56.9091C46.91 56.7918 47.9461 56.1432 47.991 54.4832M45.919 57.1113C45.6494 56.7744 45.1912 56.1005 45.5146 56.1005C45.8381 56.1005 45.919 55.5614 45.919 55.2919C46.0537 55.4266 46.4041 55.6962 46.7276 55.6962C47.0511 55.6962 47.1319 55.9657 47.1319 56.1005M47.1319 52.8659C47.4564 53.1355 48.0824 53.8363 47.991 54.4832" stroke="black" stroke-width="0.75" stroke-linecap="round"/>
<path d="M18.4254 11.6255C18.3758 12.2981 18.2914 13.7246 18.351 14.0496M18.351 14.0496C18.3774 14.0508 18.4023 14.0514 18.4254 14.0514V13.2428C18.6949 13.108 19.4766 12.5959 20.4469 11.6255C21.6599 10.8169 20.8513 9.60393 20.4469 9.19961C20.0426 8.79529 19.234 8.79529 18.8297 8.79529C18.4254 8.79529 18.4254 8.39098 18.021 8.39098C17.6167 8.39098 16.8081 8.79529 16.4038 8.79529C15.9994 8.79529 15.1908 10.8169 15.5951 11.2212C15.9186 11.5447 16.5385 10.8169 16.8081 10.4126C16.8081 9.19961 17.6167 9.60393 18.021 10.0082C18.4254 10.4126 17.6167 10.8169 17.2124 11.2212C16.8081 11.6255 16.4038 11.6255 16.4038 12.0298C16.4038 12.4342 17.6167 13.2428 17.6167 13.6471C17.6167 13.943 18.0677 14.0359 18.351 14.0496Z" stroke="black" stroke-width="0.75" stroke-linecap="round"/>
<path d="M18.8296 10.8169C18.8296 10.4934 18.7797 10.5624 18.8296 10.4126C18.9003 10.2007 19.0221 10.0789 19.234 10.0082C19.3838 9.95831 19.6383 10.0082 19.6383 10.0082C19.6383 10.0082 19.972 10.2007 20.0426 10.4126C20.0925 10.5624 20.0925 10.6671 20.0426 10.8169C19.972 11.0287 19.8501 11.1506 19.6383 11.2212C19.4885 11.2711 19.234 11.2212 19.234 11.2212C19.0992 11.2212 18.8296 11.1403 18.8296 10.8169Z" fill="black"/>
<path d="M16.8303 10.6369C16.8303 10.3134 16.7803 10.3824 16.8303 10.2326C16.9009 10.0207 17.0227 9.89888 17.2346 9.82826C17.3844 9.77833 17.6389 9.82826 17.6389 9.82826C17.6389 9.82826 17.9726 10.0207 18.0432 10.2326C18.0931 10.3824 18.0931 10.4871 18.0432 10.6369C17.9726 10.8487 17.8507 10.9706 17.6389 11.0412C17.4891 11.0911 17.2346 11.0412 17.2346 11.0412C17.0998 11.0412 16.8303 10.9604 16.8303 10.6369Z" fill="black"/>
<path d="M22.8728 8.79528C22.5494 8.79528 22.4685 7.98664 22.4685 7.58232C22.6033 7.7171 23.1154 7.98664 24.0858 7.98664C24.7327 7.66319 24.8944 8.12142 24.8944 8.39096C25.164 8.25619 25.7031 7.90578 25.7031 7.58232C25.7031 7.17801 25.2988 7.17801 25.2988 6.77369C25.2988 6.36937 23.6815 5.56073 22.4685 5.56073C21.4982 5.56073 21.5251 6.90846 21.6599 7.58232V8.39096L22.4685 9.1996C22.8728 9.60392 23.2772 8.79528 22.8728 8.79528Z" fill="black"/>
<path d="M13.1692 8.3909C12.8457 8.3909 12.4953 8.12136 12.3606 7.98658C11.9562 7.98658 13.1692 7.17795 13.1692 6.77363C13.1692 6.36931 14.7865 5.15636 15.1908 5.15636C15.5142 5.15636 16.4037 6.23454 16.8081 6.77363C16.6733 6.77363 16.4037 6.85449 16.4037 7.17795C16.4037 7.58227 14.3822 8.3909 13.9778 7.98658C13.5735 7.58227 13.5735 8.3909 13.1692 8.3909Z" fill="black"/>
</svg>
