<?xml version="1.0" standalone="no"?>
<!DOCTYPE svg PUBLIC "-//W3C//DTD SVG 20010904//EN"
 "http://www.w3.org/TR/2001/REC-SVG-20010904/DTD/svg10.dtd">
<svg version="1.0" xmlns="http://www.w3.org/2000/svg"
 width="1280.000000pt" height="744.000000pt" viewBox="0 0 1280.000000 744.000000"
 preserveAspectRatio="xMidYMid meet">
<metadata>
Created by potrace 1.15, written by Peter Selinger 2001-2017
</metadata>
<g transform="translate(0.000000,744.000000) scale(0.100000,-0.100000)"
fill="#000000" stroke="none">
<path d="M11100 7425 c-73 -16 -280 -54 -305 -55 -11 0 -36 -1 -55 0 -116 2
-325 -53 -360 -94 -7 -10 -38 -29 -69 -44 -31 -14 -80 -41 -109 -59 -29 -18
-56 -33 -60 -33 -12 0 -45 -39 -99 -118 -25 -37 -55 -78 -65 -91 -22 -29 -136
-121 -150 -121 -5 0 -27 -13 -47 -29 -20 -15 -54 -38 -77 -49 -23 -12 -65 -42
-95 -67 -30 -26 -63 -50 -74 -55 -11 -4 -48 -28 -82 -54 -34 -25 -91 -59 -125
-76 -35 -17 -72 -36 -83 -43 -83 -51 -141 -80 -187 -93 -29 -9 -57 -20 -63
-24 -5 -5 -70 -20 -144 -34 -73 -14 -143 -32 -156 -40 -12 -8 -40 -17 -61 -20
-22 -2 -68 -12 -104 -21 -92 -23 -102 -25 -135 -30 -16 -3 -55 -13 -85 -22
-30 -9 -62 -18 -70 -19 -8 -2 -44 -8 -80 -14 -36 -7 -94 -23 -130 -36 -36 -13
-87 -27 -115 -30 -27 -3 -67 -15 -87 -25 -21 -11 -59 -23 -85 -28 -181 -36
-225 -41 -303 -37 -127 6 -386 27 -515 41 -27 3 -134 7 -237 9 -102 2 -191 7
-196 10 -5 3 -45 -1 -88 -10 -82 -16 -98 -18 -229 -30 -90 -8 -153 -8 -240 0
-33 3 -118 8 -190 11 -71 3 -146 8 -165 10 -58 8 -243 8 -280 0 -52 -11 -376
-8 -520 5 -69 6 -138 12 -155 12 -55 3 -269 -13 -355 -27 -47 -8 -105 -16
-130 -19 -47 -6 -316 -93 -385 -125 -113 -53 -106 -52 -236 -47 -96 3 -145 -1
-214 -16 -194 -41 -239 -48 -298 -48 -34 -1 -78 -6 -97 -13 -19 -7 -48 -11
-65 -10 -16 2 -34 3 -40 3 -5 1 -26 -3 -45 -9 -143 -41 -236 -61 -282 -61 -20
0 -39 -4 -42 -9 -3 -5 -32 -12 -63 -16 -32 -4 -63 -11 -69 -16 -7 -5 -16 -9
-20 -7 -10 2 -194 -17 -324 -34 -47 -6 -118 -21 -158 -34 -40 -13 -80 -24 -90
-24 -9 -1 -42 -10 -72 -21 -30 -12 -82 -23 -115 -24 -33 -2 -76 -6 -95 -9 -41
-8 -154 -23 -225 -31 -27 -4 -57 -8 -65 -10 -8 -2 -48 -7 -88 -10 -40 -4 -86
-11 -103 -15 -17 -5 -34 -9 -38 -8 -3 1 -23 -2 -44 -6 -24 -6 -42 -4 -51 3
-11 10 -21 9 -45 -3 -16 -9 -32 -20 -36 -25 -3 -6 -19 -8 -35 -6 -17 2 -30 0
-30 -4 0 -9 -2 -9 -215 -10 -114 -1 -193 3 -214 10 -71 25 -228 -14 -232 -57
-1 -8 -2 -20 -3 -26 -1 -7 12 -32 29 -55 16 -23 38 -53 48 -67 10 -14 25 -26
33 -26 8 0 38 -12 67 -27 29 -14 72 -28 97 -29 57 -4 268 -4 340 1 30 1 93 5
140 8 47 2 114 12 150 22 36 9 90 18 120 20 143 10 180 14 200 25 12 6 33 9
48 5 15 -3 48 1 72 10 47 17 89 23 205 32 39 3 75 8 80 12 6 4 24 8 42 9 18 1
43 6 56 11 13 5 50 12 83 16 32 4 68 12 78 17 28 15 105 21 251 20 150 -1 265
-8 315 -18 42 -9 60 -11 122 -17 26 -3 60 -13 75 -23 23 -15 51 -18 158 -20
72 -1 140 -6 151 -11 21 -8 21 -9 -17 -88 -21 -44 -50 -111 -64 -150 -15 -38
-33 -83 -40 -100 -18 -39 -33 -120 -40 -215 -6 -82 -12 -119 -25 -165 -5 -16
-14 -64 -20 -105 -6 -41 -17 -113 -25 -160 -15 -91 -41 -347 -50 -495 -6 -105
-19 -153 -66 -252 -27 -56 -54 -105 -59 -108 -6 -3 -10 -13 -10 -22 0 -9 -11
-26 -25 -39 -14 -13 -25 -30 -25 -39 0 -9 -4 -14 -10 -10 -5 3 -17 -7 -27 -22
-10 -15 -51 -59 -91 -98 -39 -39 -72 -79 -72 -88 0 -9 -7 -17 -17 -17 -9 0
-14 -3 -10 -6 5 -5 -148 -144 -261 -237 -26 -21 -54 -44 -62 -50 -8 -7 -45
-34 -82 -61 -38 -26 -68 -51 -68 -55 0 -4 -24 -21 -52 -36 -29 -16 -67 -40
-84 -54 -18 -14 -55 -39 -83 -56 -28 -16 -51 -33 -51 -37 0 -5 -7 -8 -14 -8
-26 0 -132 -68 -168 -108 -73 -81 -102 -225 -69 -342 8 -29 13 -115 13 -245 2
-342 -1 -406 -21 -490 -11 -44 -24 -111 -30 -150 -14 -85 -68 -238 -96 -268
-11 -12 -18 -22 -16 -22 2 0 -6 -19 -18 -43 -22 -43 -22 -44 -4 -90 9 -26 33
-74 52 -107 45 -77 47 -128 8 -209 -29 -58 -38 -135 -23 -182 9 -28 84 -87
115 -91 15 -2 62 -7 106 -11 44 -4 90 -13 103 -21 45 -25 128 -21 218 10 86
30 159 34 188 10 11 -9 25 -7 57 6 24 9 50 23 57 30 38 37 63 252 39 337 -13
46 -79 113 -141 145 -24 12 -49 28 -56 36 -7 8 -18 15 -25 15 -21 0 -99 69
-117 104 -14 27 -16 56 -14 163 2 72 6 135 9 140 3 5 8 31 12 59 5 41 12 73
31 139 6 19 11 40 19 80 4 22 12 48 17 59 6 10 11 28 13 40 3 29 45 148 57
163 5 7 7 17 3 23 -3 5 -2 10 3 10 10 0 48 89 44 103 -1 4 2 7 8 7 5 0 10 6
10 13 0 7 14 27 30 46 17 18 41 54 54 80 14 26 52 76 85 112 33 35 61 67 61
71 0 3 20 28 45 55 25 26 45 51 45 55 0 5 5 8 11 8 6 0 23 10 38 23 15 12 40
31 55 42 16 11 34 26 41 33 8 6 16 12 19 12 2 0 31 18 64 40 33 22 80 47 104
56 23 10 50 23 59 31 8 7 19 13 23 13 4 0 42 15 84 34 43 18 93 37 112 41 19
4 48 17 65 29 39 29 115 64 153 72 8 1 21 6 30 10 9 4 19 8 22 8 3 1 16 8 28
15 13 7 26 10 29 7 3 -3 26 6 52 19 25 14 49 25 54 25 4 0 25 11 48 25 22 14
44 23 49 20 6 -4 10 -1 10 4 0 6 7 11 15 11 8 0 15 5 15 11 0 5 4 7 10 4 10
-6 92 34 98 48 2 4 15 7 28 7 13 0 24 5 24 10 0 6 7 10 15 10 9 0 18 6 21 14
3 9 12 12 21 9 9 -4 22 1 29 12 8 10 14 15 14 11 0 -4 22 9 49 28 27 20 53 36
58 35 4 -1 37 12 73 29 42 19 69 27 75 21 5 -6 11 -45 13 -87 7 -137 -62 -354
-148 -470 -52 -69 -165 -178 -248 -240 -46 -34 -88 -62 -92 -62 -5 0 -15 -6
-22 -14 -8 -7 -28 -20 -44 -29 -17 -9 -45 -30 -63 -46 -32 -30 -33 -33 -28
-94 9 -93 23 -146 54 -202 6 -11 14 -35 18 -52 3 -18 11 -35 16 -39 21 -13
129 -204 129 -229 0 -11 78 -166 105 -210 18 -27 38 -68 45 -90 7 -22 18 -46
24 -54 6 -8 10 -16 8 -18 -1 -2 8 -24 21 -51 21 -40 24 -59 21 -127 -4 -109
21 -181 87 -242 60 -56 99 -121 99 -166 0 -78 10 -97 64 -124 35 -17 70 -26
111 -28 33 -1 80 -8 104 -14 25 -7 58 -10 74 -7 16 3 37 1 48 -4 10 -6 38 -14
61 -18 59 -10 359 -6 367 4 3 5 23 10 44 10 21 1 46 9 58 20 28 25 51 72 43
85 -3 6 -8 34 -10 61 -3 27 -9 58 -14 68 -6 10 -10 31 -10 47 0 34 -34 93 -54
93 -8 0 -16 4 -18 8 -1 5 -30 16 -63 26 -83 24 -95 27 -135 32 -33 5 -84 23
-122 44 -10 6 -26 10 -36 10 -9 0 -27 7 -38 15 -12 8 -24 12 -27 9 -3 -3 -9
10 -12 30 -4 20 -11 36 -15 36 -4 0 -11 12 -14 26 -4 14 -16 35 -27 47 -25 27
-123 225 -125 252 0 11 -4 27 -7 35 -3 8 -6 22 -6 30 -1 22 -10 109 -16 155
-3 22 -11 95 -17 162 -12 132 -2 214 32 250 9 10 15 24 12 31 -2 6 1 12 6 12
6 0 13 8 16 18 6 17 41 63 81 103 8 9 15 21 15 27 0 7 3 12 8 12 4 0 30 22 57
50 28 27 55 50 60 50 6 1 30 21 55 45 25 25 65 55 90 67 25 13 46 26 48 30 2
4 23 17 48 29 24 13 53 31 63 40 11 10 39 27 63 38 24 12 61 37 83 56 22 19
43 35 47 35 12 0 134 124 141 143 3 9 10 17 15 17 5 0 15 13 22 30 7 17 17 30
22 30 5 0 6 4 3 10 -3 5 1 10 9 10 9 0 16 5 16 10 0 12 9 24 68 84 23 24 42
47 42 51 0 5 7 16 16 26 48 54 108 192 130 302 1 4 3 10 4 15 1 4 1 12 0 17
-1 6 -4 28 -7 50 -2 21 -6 42 -8 46 -3 3 0 21 5 39 6 21 6 38 0 45 -15 18 -4
188 14 221 61 109 88 147 131 187 26 24 105 59 105 47 0 -6 5 -10 11 -10 11 0
111 -79 117 -92 2 -5 9 -8 15 -8 7 0 23 -10 37 -23 14 -12 38 -31 55 -41 16
-11 34 -23 40 -28 20 -17 120 -78 136 -83 9 -3 34 -21 54 -41 21 -19 39 -33
42 -31 6 6 192 -90 231 -119 17 -14 32 -22 32 -18 0 4 8 0 18 -8 9 -8 58 -35
107 -60 50 -25 104 -53 120 -62 17 -9 39 -16 50 -16 11 0 47 -12 80 -26 33
-14 85 -32 115 -41 30 -8 64 -23 75 -33 13 -12 32 -17 55 -15 50 5 103 -9 205
-55 145 -66 323 -110 450 -110 102 -1 228 -18 300 -41 35 -11 100 -16 227 -19
21 -1 52 -6 70 -12 18 -6 60 -14 93 -18 33 -4 97 -21 141 -37 91 -33 139 -76
151 -134 3 -19 10 -36 14 -39 5 -4 12 -21 15 -39 6 -31 2 -37 -66 -100 l-72
-68 -9 -79 c-4 -43 -8 -82 -8 -86 -1 -4 -20 -27 -43 -50 -42 -42 -74 -72 -275
-256 -118 -108 -155 -163 -155 -231 0 -65 28 -143 67 -185 19 -21 51 -59 72
-87 21 -27 48 -52 60 -55 37 -10 124 16 150 44 13 14 23 22 23 18 0 -4 44 23
98 59 81 56 179 145 228 207 13 17 60 99 64 113 3 11 51 77 62 85 3 3 20 23
37 44 17 21 31 35 31 30 0 -5 7 2 16 14 11 16 24 22 42 20 15 -2 27 -8 27 -15
0 -6 3 -14 7 -18 4 -4 4 -13 1 -21 -3 -8 -1 -14 5 -14 5 0 13 -8 17 -17 8 -19
33 -129 40 -178 3 -16 9 -50 15 -75 5 -25 12 -65 15 -90 4 -25 10 -63 15 -85
13 -65 12 -254 -1 -322 -11 -57 -11 -70 6 -118 15 -46 33 -68 116 -147 104
-98 119 -121 170 -263 33 -91 37 -155 14 -240 -16 -63 -12 -82 35 -152 17 -24
30 -47 30 -50 0 -12 36 -32 58 -33 13 0 40 -8 61 -18 32 -16 42 -17 72 -6 19
7 51 13 72 13 23 1 36 5 32 11 -3 5 -1 10 4 10 6 0 11 -6 11 -14 0 -7 10 -17
23 -21 33 -11 144 -7 167 5 21 11 50 12 190 6 82 -3 85 -3 111 25 15 16 29 38
32 49 5 20 -11 72 -35 115 -6 11 -13 31 -15 45 -9 58 -10 62 -48 146 -24 52
-74 95 -119 102 -11 1 -29 9 -41 16 -11 7 -24 13 -28 14 -5 0 -21 11 -35 25
-15 13 -44 30 -64 37 -21 6 -40 16 -44 21 -3 5 -9 7 -14 4 -14 -9 -60 62 -60
95 0 20 -6 33 -17 37 -10 4 -24 13 -31 19 -15 15 -24 94 -11 94 5 0 9 7 9 16
0 8 -3 13 -8 10 -13 -8 -39 19 -46 49 -3 17 -8 35 -9 41 -2 7 -7 18 -13 25 -6
8 -11 30 -13 49 -1 19 -7 53 -13 75 -6 22 -12 67 -14 100 -5 101 -14 173 -24
200 -5 14 -6 25 -2 25 4 0 8 14 9 30 1 17 -2 30 -8 30 -5 0 -7 11 -3 26 5 19
4 25 -5 20 -7 -5 -11 1 -12 16 -1 13 -2 28 -3 33 -3 13 -14 90 -31 205 -8 52
-12 105 -8 118 4 16 -1 29 -16 43 -11 11 -22 33 -22 49 -1 17 -2 33 -3 38 -6
24 -19 139 -24 207 -9 134 -8 469 2 483 5 7 5 12 0 12 -14 0 -26 418 -13 456
4 11 10 47 13 80 9 84 25 136 49 162 11 12 17 22 12 22 -4 0 -1 8 7 18 8 9 18
31 22 47 4 17 23 60 41 96 19 37 32 69 29 72 -3 2 5 22 17 43 12 22 34 62 49
89 14 28 38 68 53 90 15 22 27 44 27 49 0 5 11 24 25 42 14 18 25 37 25 42 0
6 7 12 15 16 8 3 14 9 13 13 -4 13 34 93 44 93 4 0 8 5 8 10 0 6 17 33 38 61
20 27 35 53 34 56 -2 3 1 9 6 12 5 3 19 27 30 52 12 25 28 51 36 58 8 7 24 31
36 54 12 23 41 67 64 97 23 30 48 69 56 85 8 17 17 32 20 35 3 3 12 19 20 35
19 39 27 50 72 97 20 22 40 48 43 58 8 26 70 117 105 155 15 17 31 40 35 53 3
12 13 22 21 22 8 0 12 5 9 10 -3 6 -2 10 3 10 5 0 14 10 21 23 19 37 45 72 78
108 97 102 129 139 125 144 -3 3 0 5 6 5 15 0 82 65 82 79 0 10 14 15 34 12 5
-1 6 6 2 15 -5 14 -4 15 9 4 8 -7 15 -8 15 -2 0 5 24 19 53 31 28 12 60 26 70
32 10 5 22 7 27 4 6 -4 10 -2 10 4 0 5 15 12 33 16 35 7 49 12 117 43 42 19
115 38 133 34 4 -1 17 3 28 8 17 10 36 11 109 9 8 0 51 3 95 7 99 10 187 10
240 0 85 -15 167 -25 178 -21 7 2 37 7 67 10 117 14 135 17 140 23 3 4 14 9
25 10 29 6 75 31 75 42 0 6 6 10 13 10 16 0 67 44 67 59 0 6 6 11 13 11 8 0
20 11 27 25 7 14 17 25 20 25 9 0 55 101 52 113 -1 4 2 7 7 7 4 0 8 10 7 23
-1 12 2 25 7 28 4 3 10 21 12 40 9 77 25 156 37 190 20 55 69 127 90 132 10 3
18 12 18 21 0 9 4 16 8 16 4 0 8 10 9 23 0 12 8 51 18 86 9 36 17 78 18 95 0
41 -40 102 -78 116 -16 7 -38 16 -47 21 -10 5 -27 9 -39 9 -11 0 -29 5 -39 10
-24 13 -63 17 -250 26 -192 8 -205 10 -255 23 -22 5 -66 12 -98 15 -42 4 -68
13 -93 32 -18 15 -34 30 -34 35 0 12 -72 133 -82 137 -4 2 -8 8 -8 14 0 17
-81 88 -108 94 -15 4 -32 10 -37 15 -6 4 -69 20 -140 34 -117 24 -161 28 -260
23 -16 -1 -39 1 -50 4 -11 3 -45 0 -75 -7z m-257 -317 c9 1 36 1 60 2 81 3
145 -57 118 -108 -11 -21 5 -106 27 -149 6 -10 12 -29 13 -42 2 -13 31 -52 64
-86 47 -48 63 -59 74 -51 12 9 12 8 4 -9 -8 -15 -8 -23 2 -32 7 -6 16 -9 21
-5 4 4 4 2 1 -4 -4 -6 2 -19 12 -28 14 -12 19 -14 18 -4 -1 32 4 45 18 45 8 0
12 -4 9 -9 -3 -4 6 -12 20 -18 14 -5 26 -15 26 -22 0 -7 11 -22 24 -33 18 -16
25 -34 29 -75 3 -30 6 -57 7 -60 7 -19 -1 -173 -10 -190 l-12 -22 -25 24 c-23
21 -25 28 -20 86 3 34 1 64 -3 67 -4 2 -5 16 -2 30 3 18 1 24 -9 21 -8 -2 -26
-7 -41 -10 -17 -4 -29 -16 -36 -35 -8 -23 -16 -29 -32 -26 -17 3 -20 0 -15
-16 6 -17 3 -20 -17 -17 -16 2 -23 9 -22 25 0 12 -3 20 -8 17 -4 -3 -8 -1 -8
5 0 5 -5 22 -12 38 -6 15 -10 32 -9 38 1 5 -6 15 -16 23 -12 8 -14 15 -7 20
23 14 43 67 33 85 -9 16 -11 16 -27 1 -10 -11 -17 -13 -20 -5 -5 14 -29 15
-37 1 -3 -5 0 -7 8 -4 8 3 14 -2 14 -11 0 -8 -4 -15 -8 -15 -4 0 -10 -11 -13
-25 -6 -24 -36 -36 -36 -15 0 6 6 10 14 10 9 0 12 8 8 25 -5 27 -22 35 -22 10
0 -8 -5 -15 -11 -15 -5 0 -7 -5 -3 -12 4 -6 3 -8 -3 -5 -12 7 -39 -20 -30 -29
9 -10 -27 -41 -42 -36 -8 3 -12 1 -8 -5 3 -5 0 -10 -8 -10 -19 0 -19 16 0 23
8 4 15 17 15 31 0 19 4 24 16 19 8 -3 13 -2 9 3 -3 5 2 16 10 24 8 9 15 23 15
31 0 9 5 16 11 16 5 0 7 5 4 10 -3 6 -1 10 6 10 8 0 8 4 1 13 -6 7 -13 29 -15
49 -3 30 -1 35 12 31 13 -4 13 -2 -1 10 -10 8 -18 19 -18 24 0 6 -12 10 -27 9
-26 -1 -28 2 -25 32 2 18 -1 32 -7 32 -7 0 -7 8 -2 23 6 18 2 28 -26 55 l-34
34 -41 -46 c-23 -25 -48 -46 -55 -46 -8 0 -11 -5 -8 -11 5 -7 1 -7 -14 0 -58
30 -60 31 -67 20 -4 -7 -12 0 -19 18 -8 18 -20 29 -34 30 -11 1 -21 -2 -21 -6
0 -11 -76 -18 -87 -8 -2 3 -2 15 2 27 4 12 9 19 12 17 5 -6 30 12 74 53 15 14
33 27 40 28 51 14 69 16 109 14 25 0 66 -4 91 -7 64 -7 77 23 17 40 -5 2 -9 4
-10 5 -10 10 -168 18 -168 9 0 -4 -7 -6 -15 -3 -9 4 -15 0 -15 -7 0 -11 -2
-11 -10 1 -7 12 -14 10 -40 -15 -23 -22 -29 -25 -24 -11 5 14 4 17 -4 12 -7
-4 -12 -13 -12 -21 0 -7 -9 -17 -21 -20 -11 -4 -18 -9 -15 -12 3 -3 -20 -19
-51 -34 -43 -21 -59 -25 -65 -16 -9 14 -11 33 -2 24 3 -3 17 5 31 19 14 14 30
23 36 22 5 -2 21 6 33 19 13 13 37 26 54 29 16 4 30 11 30 17 0 6 3 7 7 4 3
-4 12 -2 19 4 7 6 33 13 56 15 66 6 98 15 98 26 0 7 13 8 38 3 20 -4 45 -7 55
-7z m505 -21 c20 -19 25 -47 8 -47 -7 0 -19 -9 -29 -20 -21 -25 -33 -25 -55 1
-9 12 -22 26 -28 32 -15 15 -6 45 15 50 32 7 71 1 89 -16z m142 -27 c-13 -10
-28 -16 -33 -13 -15 9 4 -40 27 -69 11 -15 29 -38 39 -52 10 -14 24 -26 31
-26 24 0 26 -29 4 -44 -18 -13 -23 -13 -35 0 -15 15 -33 19 -33 7 0 -5 -27 -8
-60 -7 -67 1 -100 21 -96 57 6 52 19 77 42 83 13 3 24 12 24 19 0 8 9 17 20
20 11 3 25 15 31 26 6 12 17 18 24 15 8 -3 17 -1 21 5 3 6 9 7 12 4 4 -4 -4
-15 -18 -25z m500 -169 c0 -12 -50 -44 -57 -37 -6 6 37 45 50 46 4 0 7 -4 7
-9z m280 -21 c41 -5 81 -10 88 -11 17 -3 15 -24 -3 -39 -8 -7 -15 -23 -15 -36
0 -21 2 -22 30 -12 41 14 79 3 112 -33 26 -28 27 -31 12 -54 -9 -13 -14 -35
-12 -48 1 -13 -3 -31 -10 -40 -7 -9 -15 -31 -17 -49 -3 -18 -9 -34 -15 -36 -6
-2 -8 -7 -5 -12 3 -4 -4 -10 -15 -13 -29 -7 -58 37 -42 63 9 14 7 21 -7 34
-10 9 -24 16 -32 16 -22 0 -66 -50 -74 -83 -4 -15 -11 -30 -16 -33 -13 -8 -11
-40 4 -52 16 -14 84 -19 117 -8 14 4 21 4 15 -1 -12 -10 -53 -105 -67 -156
-13 -48 -74 -93 -110 -81 -37 11 -67 34 -63 47 3 7 -9 27 -25 46 -17 18 -30
45 -30 58 0 32 36 101 71 137 33 34 37 66 12 88 -16 14 -56 31 -75 33 -3 0
-10 3 -14 7 -4 4 -13 3 -19 -2 -9 -8 -17 -3 -30 16 -16 24 -16 26 -1 21 9 -4
16 -2 16 4 0 6 5 7 10 4 13 -8 35 14 44 42 9 28 -24 64 -52 57 -10 -3 -26 -19
-36 -35 -16 -27 -21 -29 -54 -23 -20 4 -39 8 -41 10 -2 2 -10 -3 -18 -11 -21
-21 -28 -19 -31 11 -1 14 -7 34 -12 45 -12 22 7 92 22 83 4 -3 8 0 8 6 0 6 4
9 9 6 5 -4 12 0 15 6 3 7 4 -6 2 -29 -4 -48 15 -83 45 -83 23 0 85 53 92 79 2
10 -2 26 -9 36 -29 39 -19 45 69 39 45 -3 116 -9 157 -14z m-1710 -75 c-7 -8
-9 -15 -4 -15 4 0 3 -5 -3 -11 -16 -16 -44 -4 -36 16 5 13 7 14 14 3 7 -10 9
-9 9 4 0 9 6 18 13 21 18 6 21 -1 7 -18z m-735 -124 c9 -42 65 -99 126 -130
143 -73 209 -115 209 -136 0 -8 9 -19 20 -25 11 -6 20 -20 20 -30 0 -11 5 -20
11 -20 5 0 7 -4 4 -10 -3 -5 1 -32 9 -60 8 -27 13 -50 10 -50 -3 0 0 -8 5 -18
5 -10 12 -38 15 -62 7 -50 16 -91 39 -162 8 -27 13 -48 11 -48 -2 0 8 -24 22
-52 29 -56 49 -77 76 -78 9 0 29 -5 45 -12 15 -6 40 -12 55 -12 15 -1 35 -9
46 -19 11 -10 35 -17 58 -17 22 0 46 -6 53 -12 11 -10 12 -10 7 -1 -5 9 -2 11
8 7 9 -3 16 -10 16 -16 0 -5 5 -6 10 -3 6 3 10 1 10 -4 0 -6 -7 -11 -15 -11
-19 0 -57 -21 -68 -37 -8 -13 -102 -63 -117 -63 -5 0 -2 13 7 28 21 37 12 67
-16 52 -27 -14 -34 -13 -27 5 10 27 -25 31 -46 6 -32 -41 -23 -77 19 -72 6 1
15 -8 18 -20 5 -15 9 -18 15 -9 5 7 10 8 14 2 6 -10 -31 -63 -42 -60 -12 4
-122 -45 -122 -54 0 -4 -6 -5 -13 -2 -7 2 -22 -4 -32 -16 -10 -11 -23 -20 -30
-20 -16 0 -213 -204 -227 -235 -6 -14 -15 -25 -19 -25 -4 0 -15 -17 -26 -37
-10 -21 -32 -58 -48 -83 -16 -25 -50 -88 -76 -140 -50 -100 -58 -109 -184
-217 -108 -92 -175 -163 -175 -186 0 -10 -11 -38 -25 -62 -19 -31 -22 -44 -13
-47 7 -3 -2 -5 -21 -5 -22 0 -40 -7 -50 -20 -9 -11 -22 -18 -29 -15 -10 3 -10
7 0 19 7 9 11 38 10 73 -1 32 1 61 6 64 4 3 7 32 6 65 -2 43 2 65 12 76 9 8
11 15 5 15 -7 0 -8 8 -3 23 5 12 8 31 8 42 -1 11 3 23 7 26 4 3 10 28 12 55 6
80 70 197 154 282 39 39 74 72 76 72 3 0 5 -7 5 -16 0 -24 30 -43 65 -44 24 0
39 10 73 49 23 28 42 58 42 68 0 33 -29 63 -62 63 -25 0 -29 3 -23 18 4 9 8
22 9 29 1 7 9 20 19 30 23 26 34 103 15 103 -31 0 -79 -23 -89 -42 -6 -11 -17
-17 -25 -14 -8 3 -14 1 -14 -4 0 -5 -7 -7 -15 -4 -11 5 -13 10 -5 19 5 6 7 15
3 18 -3 4 -1 7 5 7 6 0 9 7 6 15 -4 8 -1 15 5 15 6 0 11 7 11 15 0 8 6 15 13
15 6 0 23 14 36 30 13 17 29 30 36 30 7 0 15 6 18 14 3 8 19 17 35 21 30 6 60
26 94 60 86 88 114 115 123 115 20 0 62 46 73 79 7 19 12 61 12 94 l0 60 -42
-7 c-51 -8 -71 -30 -64 -69 4 -21 1 -29 -12 -33 -40 -14 -82 -36 -98 -51 -18
-18 -54 -25 -54 -11 0 5 -10 13 -23 19 -29 13 -46 55 -37 90 4 14 5 43 1 65
-5 31 -11 40 -30 42 -22 4 -35 -1 -101 -32 -33 -16 -36 -44 -8 -86 18 -26 32
-36 56 -38 18 -2 32 -6 32 -10 0 -12 -71 -146 -86 -163 -8 -8 -14 -21 -14 -28
0 -7 -4 -10 -9 -6 -5 3 -9 18 -9 34 1 45 -13 58 -29 27 -8 -15 -16 -35 -18
-44 -8 -41 -77 -171 -88 -166 -7 2 -23 -12 -35 -33 -20 -36 -22 -36 -22 -12 0
14 9 52 19 85 13 37 16 63 10 69 -15 15 -25 -4 -68 -132 -23 -67 -52 -139 -66
-159 -14 -20 -26 -43 -26 -50 -1 -8 -2 -20 -3 -26 -1 -7 -5 -16 -9 -19 -5 -4
-9 -23 -10 -44 -1 -35 -2 -36 -32 -32 -16 3 -24 3 -18 1 10 -4 10 -9 -1 -20
-8 -7 -14 -29 -14 -48 0 -18 -5 -43 -12 -56 -6 -12 -9 -28 -6 -36 3 -9 -4 -16
-19 -20 -23 -6 -30 -15 -26 -37 1 -5 -6 -7 -16 -5 -12 2 -18 13 -18 31 -1 15
3 27 7 27 4 0 8 11 8 25 0 14 -4 25 -10 25 -5 0 -6 -8 -3 -17 5 -13 3 -13 -13
3 -10 10 -20 29 -21 42 0 13 -3 26 -7 29 -9 10 -36 -6 -42 -24 -8 -27 -21 -52
-52 -108 -22 -38 -35 -51 -56 -53 -18 -2 -26 0 -22 7 9 14 -21 84 -33 77 -5
-3 -12 -23 -15 -43 -15 -82 -25 -102 -54 -100 -22 2 -28 -4 -40 -38 -7 -22
-21 -49 -31 -60 -10 -11 -23 -29 -29 -40 -16 -33 -44 -247 -37 -292 9 -58 -11
-156 -46 -233 -33 -70 -51 -90 -82 -90 -11 0 -34 -10 -51 -23 -37 -28 -93 -24
-88 7 3 17 -14 46 -27 46 -4 0 -27 -28 -51 -61 -25 -34 -55 -68 -66 -76 -12
-8 -25 -24 -28 -37 -5 -22 -59 -72 -119 -109 -15 -10 -33 -29 -39 -42 -7 -17
-22 -26 -49 -30 -75 -13 -119 -70 -119 -154 0 -68 7 -81 42 -81 24 0 32 6 44
36 8 19 18 34 22 32 4 -2 29 -14 55 -27 35 -16 52 -31 59 -52 5 -16 14 -29 18
-29 4 0 6 -8 3 -18 -3 -12 1 -19 11 -19 8 0 13 3 11 6 -2 4 9 14 25 23 25 14
31 14 41 2 9 -11 8 -14 -5 -14 -10 0 -15 -4 -12 -8 3 -5 -4 -14 -14 -22 -10
-8 -17 -17 -14 -22 3 -4 0 -8 -5 -8 -6 0 -11 6 -11 13 0 8 -3 7 -9 -3 -6 -8
-8 -17 -5 -21 5 -9 44 1 44 11 0 4 20 4 44 0 26 -4 52 -2 63 4 10 6 24 11 32
12 13 3 120 -34 166 -56 21 -10 146 -40 250 -60 76 -15 118 -42 191 -125 38
-42 97 -90 165 -135 58 -38 113 -79 121 -92 9 -13 26 -34 40 -48 13 -14 39
-47 57 -74 48 -70 50 -161 5 -216 -7 -8 -15 -26 -19 -40 -7 -29 -92 -147 -142
-199 -18 -18 -33 -37 -33 -43 0 -5 -3 -7 -7 -5 -9 6 -34 -19 -27 -25 9 -9 -42
-73 -68 -86 -15 -7 -36 -27 -47 -45 -11 -17 -35 -40 -53 -50 -18 -10 -48 -38
-67 -63 -32 -42 -51 -55 -51 -34 0 18 -19 10 -57 -25 -36 -33 -83 -47 -83 -25
0 5 -7 7 -15 4 -17 -7 -21 21 -4 31 19 12 28 53 19 84 -5 20 -5 31 1 31 6 0 7
5 4 10 -3 6 0 13 8 16 9 3 18 17 22 31 6 24 7 25 25 8 24 -21 76 -14 114 16
33 26 37 84 6 94 -21 7 -60 -10 -73 -32 -15 -24 -27 -3 -14 25 13 29 13 29 46
53 30 22 46 128 22 152 -14 14 5 48 24 41 21 -9 19 30 -2 58 -34 44 -128 128
-160 143 -18 9 -79 30 -135 47 -57 17 -105 35 -108 39 -7 10 -87 28 -95 21 -3
-3 -5 -1 -5 5 0 11 -145 24 -290 27 -58 1 -95 7 -115 18 -53 29 -109 54 -195
88 -47 18 -95 42 -107 53 -24 22 -52 39 -98 61 -32 15 -130 89 -156 118 -9 10
-21 18 -28 18 -6 0 -11 5 -11 10 0 6 -5 10 -11 10 -23 0 -112 79 -187 165 -89
102 -97 136 -44 180 53 45 123 115 157 159 17 22 49 59 72 84 23 25 40 49 37
54 -3 4 -1 8 4 8 10 0 94 174 100 205 8 48 8 102 1 125 -5 14 -10 36 -12 50
-2 14 -9 37 -15 51 -6 15 -8 36 -5 47 4 17 -1 23 -23 28 -16 4 -47 15 -69 25
-49 21 -131 12 -152 -17 -15 -21 -17 -38 -3 -29 6 3 10 -1 10 -9 0 -9 4 -16 9
-16 5 0 27 -15 50 -32 22 -18 54 -43 69 -55 16 -12 29 -28 30 -35 9 -90 8
-160 -2 -180 -7 -13 -16 -37 -20 -53 -8 -32 -104 -131 -204 -209 -34 -27 -62
-53 -62 -58 0 -5 -4 -7 -9 -4 -5 3 -20 -9 -35 -28 -28 -37 -85 -96 -92 -96 -3
0 -3 9 1 19 3 11 -1 36 -9 55 -9 21 -11 38 -5 41 22 14 46 85 48 144 3 65 -8
91 -39 91 -10 0 -20 7 -24 15 -8 22 -37 18 -43 -5 -3 -11 -10 -20 -15 -20 -5
0 -6 -5 -2 -11 3 -6 1 -15 -5 -19 -10 -5 -10 -21 -2 -65 14 -72 14 -88 1 -80
-5 3 -18 1 -29 -5 -23 -12 -36 -1 -70 54 -16 25 -27 33 -41 29 -16 -4 -18 -9
-9 -25 21 -39 1 -28 -22 11 -17 31 -25 38 -35 30 -8 -6 -12 -21 -11 -32 1 -17
-4 -22 -20 -22 -12 0 -25 -4 -29 -8 -4 -4 -16 1 -27 10 -19 17 -20 17 -14 1 4
-10 2 -18 -3 -18 -6 0 -10 -12 -10 -28 0 -29 -24 -72 -41 -72 -6 0 -7 5 -4 10
3 6 2 10 -4 10 -5 0 -13 9 -16 20 -3 11 -17 23 -30 26 -16 4 -28 19 -40 50
-15 41 -45 61 -45 31 0 -8 -9 -22 -19 -31 -27 -24 -60 -12 -68 24 -3 16 -13
36 -23 45 -17 15 -19 15 -33 -6 -14 -19 -21 -21 -74 -14 -31 4 -77 16 -101 27
-23 11 -45 18 -47 16 -3 -3 -1 -27 4 -54 5 -27 6 -53 2 -57 -4 -4 -30 14 -58
40 -80 77 -92 83 -163 88 -25 2 -54 6 -65 9 -116 31 -150 35 -225 20 -46 -8
-99 -12 -135 -8 -81 8 -167 -17 -197 -57 -18 -24 -52 -43 -103 -55 -36 -10
-156 -59 -208 -87 -75 -39 -196 -156 -296 -286 -60 -80 -90 -111 -103 -111 -4
0 -8 10 -8 23 0 33 -11 40 -27 17 -11 -16 -18 -18 -34 -10 -14 8 -19 7 -19 -2
0 -8 -9 -21 -19 -30 -19 -16 -20 -15 -23 14 l-3 32 -27 -40 c-16 -22 -28 -55
-30 -78 -1 -21 -8 -41 -16 -43 -7 -3 -11 -11 -9 -17 3 -6 -2 -17 -9 -24 -12
-11 -14 -8 -14 13 0 14 -5 25 -12 25 -6 0 -19 7 -27 14 -21 19 -29 13 -69 -50
-41 -65 -66 -88 -91 -81 -11 3 -30 -5 -46 -19 -21 -18 -31 -21 -41 -13 -7 6
-18 8 -24 4 -5 -3 -13 1 -16 10 -4 10 -9 12 -13 6 -4 -5 -19 -12 -35 -15 -16
-3 -34 -10 -39 -15 -7 -7 -15 -7 -24 1 -11 8 -20 6 -42 -9 -22 -17 -69 -30
-113 -33 -4 0 -4 -8 -1 -17 6 -16 5 -16 -10 -4 -17 13 -17 15 2 35 19 21 28
60 37 152 2 27 6 66 8 86 4 38 -8 57 -38 62 -8 1 -24 10 -35 20 -11 10 -38 20
-60 23 -49 7 -67 -6 -118 -85 -49 -76 -51 -97 -12 -133 18 -17 39 -27 47 -24
16 6 112 -53 112 -70 0 -6 -13 -24 -30 -40 -16 -16 -30 -33 -30 -38 0 -13 -40
-47 -55 -47 -6 0 -24 -13 -40 -30 -32 -34 -51 -40 -33 -11 7 11 16 18 20 15 4
-3 5 2 2 11 -8 19 -29 14 -28 -7 1 -10 -7 -15 -22 -15 -15 0 -21 4 -17 13 3 8
1 14 -3 15 -5 0 -21 2 -35 4 -21 3 -38 -9 -85 -56 -32 -32 -65 -59 -74 -59
-13 0 -13 1 0 10 13 8 12 10 -3 10 -10 0 -28 -5 -40 -12 -12 -6 -37 -12 -56
-14 -19 -1 -38 -9 -42 -16 -5 -7 -9 -9 -9 -4 0 13 -71 -41 -111 -86 -32 -35
-39 -39 -57 -29 -17 9 -26 6 -55 -22 -18 -17 -38 -39 -43 -48 -5 -8 -37 -28
-72 -44 -50 -23 -73 -42 -112 -91 -26 -33 -77 -83 -112 -109 -34 -26 -67 -54
-71 -62 -5 -7 -12 -11 -18 -8 -5 4 -9 -1 -9 -9 0 -9 -4 -16 -8 -16 -5 0 -23
-13 -41 -29 -28 -25 -44 -30 -114 -37 -45 -4 -110 -7 -144 -5 -55 2 -66 -1
-88 -23 -28 -28 -31 -54 -13 -120 10 -37 9 -55 -6 -112 -24 -93 -79 -245 -110
-304 -7 -14 -16 -41 -20 -61 -3 -19 -23 -78 -44 -130 -21 -52 -42 -103 -46
-114 -4 -11 -9 -47 -11 -80 -2 -33 -11 -80 -20 -105 -9 -25 -23 -79 -30 -120
-7 -41 -20 -105 -29 -141 -9 -36 -15 -92 -13 -125 2 -53 -1 -64 -25 -93 -33
-38 -33 -42 -11 -70 16 -19 21 -20 43 -8 21 11 28 11 38 1 7 -7 12 -17 12 -21
1 -21 112 -124 160 -148 133 -67 160 -105 160 -222 0 -50 -4 -67 -24 -90 -13
-15 -26 -38 -30 -51 -5 -16 -13 -21 -29 -18 -49 9 -54 15 -50 59 13 139 -12
227 -65 227 -11 0 -37 6 -59 14 -79 28 -81 -20 -3 -56 42 -19 50 -28 60 -63
26 -96 -29 -198 -105 -193 -20 1 -35 8 -35 14 0 7 -4 14 -10 16 -10 3 -21 78
-11 78 4 0 6 21 5 46 -1 31 -8 53 -22 68 -64 68 -82 88 -82 97 0 15 -46 40
-64 33 -9 -3 -16 -16 -16 -28 -1 -22 55 -140 78 -164 9 -10 11 -27 6 -55 -11
-71 -38 -95 -66 -61 -17 20 -39 41 -61 57 -19 13 -21 27 -14 107 3 33 -2 53
-16 73 -14 20 -18 38 -13 60 28 147 32 183 24 216 -4 20 -10 47 -12 61 -3 14
-14 35 -26 47 -26 29 -25 37 5 53 28 15 75 79 75 102 0 24 -21 34 -34 16 -6
-8 -21 -20 -34 -27 -28 -15 -38 3 -22 43 5 15 10 42 10 61 0 19 4 36 8 39 5 3
8 15 7 28 -2 13 4 33 12 46 8 13 13 33 11 45 -1 12 2 28 6 36 5 8 10 24 12 35
2 12 6 32 9 46 3 14 6 65 6 115 0 49 3 94 7 100 3 5 7 75 8 154 2 142 5 157
34 163 8 2 20 15 27 30 7 16 28 35 50 45 35 17 91 65 94 81 12 64 19 171 18
256 0 85 8 103 67 142 l55 37 15 -22 c11 -15 23 -20 41 -16 33 5 73 43 66 61
-3 8 1 14 8 15 8 1 25 2 39 2 19 2 26 8 28 29 3 24 6 26 28 18 17 -7 32 -6 45
0 20 11 26 30 9 30 -5 0 -10 5 -10 11 0 6 7 9 15 5 26 -10 47 5 41 29 -5 19 0
23 37 31 39 9 42 12 41 42 -2 29 1 32 30 33 61 1 77 6 119 36 23 16 57 35 74
42 37 15 37 15 22 42 -15 29 2 45 66 63 29 9 58 23 66 32 11 14 10 19 -7 33
-30 24 -35 48 -20 85 10 24 24 35 55 46 28 9 43 20 47 36 3 12 12 25 20 28 16
6 19 36 4 36 -5 0 -10 6 -10 13 0 9 62 43 85 46 14 2 45 44 45 60 0 11 9 23
20 26 11 4 27 20 35 36 9 16 33 40 54 53 21 13 45 40 55 60 9 20 22 33 29 30
7 -2 24 7 37 21 22 23 22 26 7 43 -15 16 -14 19 15 42 17 14 34 27 37 30 26
21 31 38 16 53 -13 14 -12 21 15 72 17 31 30 63 30 70 0 16 -27 27 -35 15 -4
-6 -14 -10 -23 -10 -10 0 0 11 23 27 51 34 57 42 50 73 -13 61 -14 85 -3 91 6
4 13 38 15 75 3 38 11 80 19 94 22 41 49 104 49 115 0 6 -6 15 -15 22 -13 10
-1 26 78 105 93 94 97 99 89 121 -5 15 -73 -18 -81 -39 -3 -8 -16 -14 -28 -14
-21 1 -21 2 -5 11 23 13 42 60 28 69 -7 4 -6 15 3 31 18 34 6 61 -34 74 -28
10 -34 17 -35 41 0 16 -4 35 -9 42 -5 8 -3 24 5 38 13 26 46 31 80 14 15 -9
42 -3 122 25 56 19 103 39 105 45 2 5 13 10 24 10 11 0 49 12 85 26 91 36 165
53 193 42 14 -5 36 -4 57 3 19 6 35 9 37 7 1 -1 10 -22 20 -45 14 -31 26 -44
47 -48 26 -6 77 11 66 21 -3 3 -1 21 4 40 11 39 0 69 -30 79 -46 14 -43 102 5
140 24 19 33 21 70 13 52 -11 77 0 100 44 14 27 14 32 1 45 -12 12 -22 12 -56
3 -23 -6 -47 -8 -53 -4 -6 4 -25 7 -42 6 -45 -2 -56 9 -61 58 -3 33 0 47 13
56 14 10 18 8 29 -17 7 -16 18 -29 26 -29 23 0 187 199 187 228 0 5 9 17 20
27 11 10 20 24 20 31 0 15 74 96 82 89 3 -3 18 0 34 6 27 10 163 21 275 22 28
0 65 -9 91 -22 24 -11 49 -21 55 -21 6 0 16 -14 22 -31 9 -27 13 -30 44 -24
26 5 45 0 80 -20 39 -21 51 -24 69 -14 46 25 145 103 186 147 88 97 89 98 128
100 22 2 62 9 89 17 28 8 70 15 95 17 43 3 44 2 51 -32 4 -19 10 -45 14 -57 7
-21 -17 -44 -119 -116 -29 -20 -33 -52 -11 -77 14 -16 13 -20 -15 -46 -50 -48
-34 -114 44 -179 26 -21 60 -63 77 -92 17 -29 37 -53 44 -53 9 0 13 -11 13
-30 -2 -48 35 -80 93 -80 50 0 59 -10 59 -73 0 -30 4 -33 73 -42 44 -6 47 -8
47 -35 0 -37 26 -65 46 -49 11 9 11 16 -2 41 -9 16 -13 32 -11 35 8 7 -21 70
-41 92 -9 11 -25 30 -34 44 -12 18 -24 24 -38 20 -11 -3 -20 -9 -20 -14 0 -5
-6 -9 -12 -9 -13 0 -15 11 -20 86 -2 28 -6 34 -19 31 -10 -3 -26 3 -36 12 -10
9 -25 16 -33 16 -19 0 -20 24 -2 53 8 12 12 34 9 50 -3 15 -1 42 6 59 10 29 8
35 -9 48 -10 8 -29 14 -41 11 -19 -2 -23 1 -23 20 0 13 4 24 10 24 5 0 9 3 8
8 -5 15 25 72 37 72 8 0 15 5 17 10 2 6 20 13 40 17 31 5 39 2 44 -13 3 -11 9
-26 14 -34 4 -10 2 -23 -5 -34 -17 -22 -10 -42 16 -49 11 -3 19 -11 18 -19 -4
-29 2 -48 14 -48 15 -1 46 -42 50 -69 2 -12 9 -27 15 -33 15 -15 16 -48 2 -48
-5 0 -10 -9 -10 -19 0 -11 5 -23 10 -26 15 -9 12 -36 -7 -57 -20 -22 -14 -29
34 -37 31 -5 38 -11 40 -31 0 -14 2 -28 3 -32 1 -5 3 -18 4 -30 0 -13 11 -28
26 -35 13 -7 30 -20 37 -29 6 -9 16 -13 21 -10 5 3 17 -3 27 -14 10 -11 29
-20 43 -20 20 0 23 -4 18 -24 -3 -13 2 -45 11 -71 15 -45 15 -49 -2 -78 -27
-46 -57 -77 -67 -71 -13 9 -30 54 -33 92 -4 44 -10 48 -40 32 -36 -19 -45 -89
-16 -126 19 -24 19 -28 5 -55 -26 -52 2 -66 47 -23 l27 26 44 -44 c25 -24 44
-51 42 -60 -1 -9 7 -19 20 -22 11 -3 33 -17 48 -30 27 -24 27 -25 13 -73 -19
-61 -19 -94 0 -119 8 -10 15 -29 15 -42 0 -13 12 -34 26 -47 16 -15 24 -32 22
-47 -2 -18 2 -23 19 -22 16 0 24 -7 28 -27 4 -16 15 -29 27 -32 11 -3 17 -10
14 -16 -4 -6 2 -19 13 -30 10 -10 22 -29 26 -41 4 -13 10 -18 14 -13 3 6 20
14 38 17 26 6 32 4 38 -12 6 -20 35 -39 35 -24 0 15 75 3 86 -13 13 -18 45
-10 38 10 -3 7 0 16 7 21 8 5 10 3 4 -7 -4 -8 2 -4 14 9 24 25 43 29 35 8 -8
-22 48 -11 68 13 9 12 20 21 25 21 14 1 48 34 67 66 10 16 31 39 46 49 16 11
28 22 27 25 -3 9 26 74 40 91 14 17 16 24 27 104 11 78 56 200 87 238 40 49
94 73 125 56 32 -16 68 0 89 41 8 16 23 30 32 30 19 0 65 48 58 60 -5 8 29 26
68 35 15 3 31 13 34 23 4 9 17 28 30 41 13 13 23 30 23 37 0 8 5 14 10 14 6 0
18 16 27 35 20 42 48 43 48 2 1 -35 17 -51 44 -42 17 5 21 13 19 42 -1 24 3
38 15 44 18 11 52 68 44 76 -3 2 -1 18 4 35 11 40 -3 66 -47 84 -32 13 -47 47
-26 56 4 2 18 20 30 41 18 31 20 41 9 57 -6 11 -20 20 -29 20 -24 0 -23 35 2
85 26 51 25 68 -4 90 -23 17 -26 55 -4 55 5 0 7 4 4 9 -3 5 5 19 18 32 13 13
28 40 35 60 9 28 30 50 87 92 66 49 79 54 99 45 27 -12 132 15 151 39 6 7 22
13 35 13 16 0 42 19 78 55 29 30 57 52 61 50 5 -3 21 0 37 6 15 6 35 12 43 14
8 2 35 10 60 19 25 8 58 17 75 20 30 6 109 28 180 52 59 19 115 27 115 15 0
-5 -4 -21 -9 -34 -8 -19 -4 -32 16 -61 15 -20 33 -36 41 -36 8 0 20 -7 27 -17
7 -9 21 -17 31 -18 10 -1 27 -6 38 -10 11 -5 26 -3 37 3 11 7 20 8 24 2 3 -6
17 -10 31 -10 14 0 35 -7 49 -16 18 -12 28 -13 44 -5 17 10 18 15 10 40 -14
40 -30 52 -76 54 -25 2 -38 8 -38 17 0 9 8 14 18 12 9 -2 17 2 17 8 0 5 6 10
13 10 8 0 20 12 28 26 12 23 12 27 -6 40 -11 8 -30 12 -42 9 -13 -3 -23 -1
-23 5 0 5 4 10 9 10 5 0 11 14 15 30 7 36 18 38 31 8 12 -28 47 -35 68 -13 14
14 16 11 19 -27 2 -35 7 -44 25 -46 18 -3 24 4 33 38 14 51 8 60 -38 60 -26 0
-33 3 -22 9 8 6 18 7 22 5 4 -3 18 5 30 17 30 29 80 59 97 59 7 0 35 11 61 24
39 20 49 22 54 10 8 -21 50 -17 73 9 25 26 30 44 19 75 -10 29 10 57 30 42 7
-6 31 -11 53 -12 34 0 45 5 68 32 16 17 49 54 76 81 48 51 54 63 37 74 -16 10
-12 21 13 33 32 16 35 15 42 -17z m1165 -188 c0 -15 2 -16 10 -3 5 8 10 10 10
5 0 -15 -39 -47 -50 -40 -9 6 11 55 23 55 4 0 7 -8 7 -17z m1430 -18 c-7 -8
-16 -12 -21 -9 -16 9 -10 20 12 21 17 2 18 -1 9 -12z m-3335 -216 c-5 -16 -9
-18 -15 -9 -4 7 -3 19 3 25 16 17 20 11 12 -16z m-145 -50 c-7 -11 -14 -19
-16 -16 -7 7 7 37 17 37 6 0 5 -9 -1 -21z m-2356 -326 c-10 -7 -24 -11 -31 -9
-7 3 -13 1 -13 -5 0 -6 -4 -7 -10 -4 -5 3 -10 10 -10 14 0 13 43 28 64 23 18
-5 18 -5 0 -19z m246 -4 c0 -12 -5 -16 -14 -13 -14 5 -29 -7 -153 -124 -35
-32 -65 -57 -67 -55 -2 3 -7 -9 -11 -26 -4 -17 -11 -31 -16 -31 -5 0 -9 -6 -9
-12 0 -18 -45 -58 -63 -58 -9 0 -27 -11 -40 -24 l-24 -23 -10 28 c-12 30 2 99
19 99 4 0 8 6 8 13 0 7 6 19 13 26 6 6 12 15 13 19 2 21 26 61 53 90 17 18 31
38 31 43 0 6 5 7 10 4 6 -3 10 2 10 11 0 10 3 14 6 11 4 -4 15 3 25 14 10 12
22 18 28 15 5 -3 11 -2 13 4 1 5 13 7 25 4 21 -6 21 -6 2 -25 -10 -10 -23 -19
-27 -19 -5 0 -15 -11 -22 -25 -7 -14 -19 -25 -27 -25 -7 0 -13 -4 -13 -8 0 -7
-37 -55 -72 -93 -10 -11 -18 -23 -18 -29 0 -5 -5 -10 -11 -10 -5 0 -7 -4 -4
-10 3 -6 -1 -7 -9 -4 -17 7 -21 -12 -7 -34 7 -11 9 -10 15 3 3 9 10 14 15 10
6 -3 16 2 23 10 7 9 30 33 51 55 20 22 37 43 37 48 0 5 21 31 47 58 26 27 47
52 46 56 -2 4 4 5 12 2 8 -4 15 -1 15 6 0 6 4 9 9 6 5 -3 11 4 14 15 3 12 10
18 16 15 5 -4 12 -2 15 3 10 15 46 0 46 -20z m287 20 c43 8 75 0 54 -14 -7 -4
-18 -4 -26 -1 -8 3 -15 1 -15 -5 0 -16 -42 -48 -62 -49 -10 0 -33 -9 -53 -20
-19 -11 -35 -17 -35 -15 0 3 -14 -2 -30 -10 -17 -9 -35 -13 -40 -10 -6 3 -10
1 -10 -5 0 -6 -4 -9 -10 -5 -13 8 -1 35 16 35 8 0 14 5 14 11 0 14 57 70 73
73 7 1 21 7 32 13 11 7 26 8 35 3 8 -4 34 -5 57 -1z m398 -19 c11 -12 16 -29
13 -45 -3 -14 0 -32 6 -38 21 -22 19 -85 -3 -116 -21 -29 -21 -29 -1 -54 19
-23 24 -77 9 -77 -4 0 -15 7 -23 16 -9 8 -25 17 -36 19 -34 7 -37 13 -37 78 0
39 -7 76 -17 99 -16 34 -17 61 -1 114 9 28 66 31 90 4z m-1860 -170 c-3 -5
-11 -10 -16 -10 -6 0 -7 5 -4 10 3 6 11 10 16 10 6 0 7 -4 4 -10z m-45 -45
c-7 -8 -17 -15 -22 -15 -6 0 -5 7 2 15 7 8 17 15 22 15 6 0 5 -7 -2 -15z
m1430 -10 c0 -8 -9 -25 -20 -37 -12 -13 -27 -30 -35 -39 -8 -9 -15 -19 -15
-23 0 -4 -13 -22 -30 -39 -16 -18 -43 -47 -60 -65 -17 -18 -27 -38 -24 -44 4
-7 2 -8 -5 -4 -6 4 -14 0 -17 -8 -3 -9 -10 -13 -15 -10 -5 3 -6 -2 -3 -10 4
-9 -1 -18 -10 -22 -9 -3 -16 -12 -16 -20 0 -8 -3 -14 -7 -14 -9 1 -49 30 -42
31 37 6 54 10 58 15 3 3 -3 5 -14 3 -11 -2 -26 0 -34 5 -10 6 -12 5 -7 -2 10
-16 -9 -15 -22 1 -7 8 -7 18 -2 27 6 8 10 11 10 6 0 -10 37 30 43 47 2 7 10 7
23 2 17 -7 17 -8 2 -12 -10 -3 -18 -10 -19 -16 0 -7 -2 -20 -4 -30 -2 -11 1
-16 8 -14 7 2 11 14 10 26 -2 13 3 21 12 21 8 0 15 7 15 16 0 8 5 12 10 9 6
-3 10 1 10 10 0 9 7 23 15 31 8 9 15 27 15 41 l0 26 -22 -20 c-13 -11 -29 -18
-35 -16 -7 3 -13 -2 -13 -9 0 -8 -11 -21 -25 -28 -13 -7 -27 -21 -30 -31 -4
-10 -12 -18 -18 -16 -7 1 -11 -4 -9 -10 1 -7 -2 -13 -7 -13 -5 0 -12 6 -14 13
-3 6 -6 2 -6 -11 -1 -13 -5 -21 -10 -17 -6 3 -6 18 -1 37 5 17 7 35 4 40 -3 5
6 21 20 35 14 14 26 30 26 35 0 5 4 7 8 4 5 -3 14 4 22 14 8 10 18 17 22 14 5
-3 15 -1 23 6 10 8 19 8 34 0 16 -8 27 -8 44 1 12 7 36 15 52 19 17 4 29 12
27 19 -2 8 4 10 18 6 11 -4 20 -3 19 2 -4 22 3 33 21 33 11 0 20 -7 20 -15z
m296 -66 c1 -5 2 -18 3 -30 0 -11 5 -18 11 -14 5 3 5 -8 -2 -26 -7 -20 -13
-27 -18 -19 -6 9 -13 9 -29 1 -27 -15 -27 -20 2 -14 18 4 19 3 7 -6 -8 -6 -21
-11 -28 -11 -16 0 -42 24 -42 40 0 6 -6 8 -12 4 -7 -4 -5 2 5 13 10 12 29 24
43 27 13 4 23 10 23 14 -3 19 2 23 15 13 12 -10 13 -8 9 11 -4 13 -2 20 3 15
5 -5 10 -13 10 -18z m-4846 -79 c6 -22 11 -25 49 -24 32 1 41 -2 36 -13 -7
-21 13 -53 34 -53 10 0 26 12 36 26 9 14 19 23 22 21 2 -3 36 3 74 14 66 18
119 17 119 -2 0 -5 17 -9 39 -9 71 0 102 -11 122 -44 18 -30 18 -31 -4 -42
-14 -8 -24 -25 -27 -46 -5 -30 -8 -33 -38 -33 -19 0 -36 3 -38 7 -3 4 -23 0
-46 -8 -51 -18 -58 -18 -58 2 0 13 -10 15 -60 12 -59 -3 -59 -3 -45 19 23 35
-8 41 -78 14 -21 -8 -38 -7 -69 3 -39 14 -43 13 -77 -10 -35 -23 -36 -24 -43
-4 -6 17 -31 26 -60 21 -5 0 -8 6 -8 14 0 12 -8 14 -40 9 -29 -5 -47 -2 -65
10 -26 17 -36 15 -68 -12 -10 -9 -38 -16 -62 -17 -24 0 -52 -8 -62 -16 -27
-24 -53 -31 -46 -13 3 7 11 14 19 14 16 0 16 2 8 24 -8 21 -42 19 -79 -5 -36
-23 -38 -24 -92 -36 -30 -7 -43 -7 -46 1 -3 8 -12 8 -33 0 -21 -7 -35 -7 -46
0 -12 7 -26 5 -51 -9 -29 -15 -38 -16 -51 -6 -16 13 -43 4 -79 -27 -15 -13
-20 -14 -26 -3 -5 8 -14 10 -20 6 -17 -10 -61 -14 -61 -5 0 4 -7 11 -16 14
-10 4 -37 -12 -76 -44 -40 -33 -68 -50 -82 -48 -12 2 -20 9 -19 15 5 22 -27
21 -61 -2 -28 -19 -36 -21 -36 -9 0 23 -25 27 -59 9 -18 -9 -36 -13 -42 -10
-12 8 -58 -21 -77 -47 -16 -22 -29 -23 -48 -3 -11 11 -12 15 -3 15 10 0 10 3
2 11 -9 9 -21 6 -47 -11 -39 -24 -116 -38 -116 -20 0 21 -41 10 -52 -15 -10
-22 -13 -23 -37 -11 -29 14 -40 14 -58 3 -9 -5 -11 -3 -7 6 8 21 -12 30 -36
17 -17 -9 -22 -7 -31 17 -7 16 -13 23 -16 15 -5 -12 -23 -7 -23 6 0 12 48 13
55 2 3 -6 21 -10 40 -10 19 0 44 -4 58 -9 18 -7 26 -5 35 10 7 10 17 19 23 19
5 0 20 11 32 23 12 13 28 22 35 19 19 -6 97 15 159 44 30 13 59 24 65 24 6 0
16 7 22 14 14 19 33 24 36 11 7 -37 21 -45 73 -40 99 9 127 17 142 38 8 11 25
22 37 24 13 1 34 6 48 10 14 3 31 5 38 4 8 -1 19 2 25 7 12 9 57 23 87 27 8 1
33 5 56 9 22 4 56 9 75 11 32 3 216 38 239 45 3 1 27 2 54 2 26 0 64 5 83 10
20 5 54 11 77 13 22 1 53 8 69 14 18 7 36 7 52 1 28 -11 29 -13 14 -41 -23
-45 36 -58 79 -19 11 11 22 23 23 28 5 13 90 51 109 49 8 -1 17 -13 20 -27z
m4980 7 c0 -18 -35 -49 -44 -40 -4 4 -4 0 0 -10 3 -10 1 -17 -5 -17 -16 0 -14
27 5 55 17 27 44 34 44 12z m3056 -64 c-4 -9 -9 -13 -12 -10 -3 3 -19 -10 -36
-29 -17 -19 -36 -34 -44 -34 -7 0 -18 -10 -25 -22 -6 -13 -29 -40 -50 -60 -22
-21 -36 -38 -32 -38 5 0 4 -4 -2 -8 -5 -4 -17 -20 -25 -37 -9 -16 -22 -31 -30
-31 -8 -1 -20 -2 -27 -3 -7 0 -10 -8 -7 -16 4 -8 1 -15 -6 -15 -6 0 -8 -5 -4
-12 5 -7 2 -9 -9 -5 -11 4 -14 2 -10 -9 3 -8 0 -21 -7 -29 -6 -8 -9 -19 -5
-25 3 -5 -1 -13 -9 -16 -9 -3 -13 -10 -10 -15 3 -5 -1 -18 -9 -30 -14 -19 -16
-20 -25 -3 -9 16 -12 15 -36 -11 -15 -16 -29 -39 -32 -51 -3 -13 -15 -26 -27
-30 -18 -6 -18 -7 -4 -16 22 -12 21 -18 -6 -49 -13 -16 -31 -25 -45 -24 -15 1
-21 -3 -18 -11 3 -8 0 -11 -9 -8 -11 5 -12 10 -3 24 7 10 16 16 22 13 5 -3 6
-1 2 5 -4 7 2 22 13 34 12 12 21 25 21 30 0 4 7 8 16 8 10 0 14 6 11 14 -3 8
0 16 6 19 7 3 22 23 32 46 11 22 23 41 28 41 4 0 7 9 7 20 0 11 5 20 10 20 6
0 14 8 17 18 4 9 19 29 35 45 15 15 28 32 28 37 0 6 5 10 10 10 6 0 9 3 8 8
-3 10 35 72 44 72 4 0 8 8 8 17 0 9 3 13 6 10 4 -4 24 11 45 33 22 22 46 40
54 40 8 0 14 5 13 11 -2 6 6 16 16 22 26 16 58 47 49 47 -5 1 8 9 27 20 35 18
47 13 36 -17z m-3856 -57 c0 -3 -4 -8 -10 -11 -5 -3 -10 -1 -10 4 0 6 5 11 10
11 6 0 10 -2 10 -4z m55 -36 c3 -6 -1 -13 -9 -16 -9 -3 -13 -10 -10 -15 3 -5
-2 -9 -10 -9 -9 0 -16 -8 -16 -17 0 -15 -2 -16 -10 -3 -8 13 -10 12 -10 -2 0
-10 -4 -18 -10 -18 -5 0 -10 6 -10 13 1 17 25 47 39 47 6 0 11 7 11 15 0 17
25 20 35 5z m795 -4 c0 -3 -4 -8 -10 -11 -5 -3 -10 -1 -10 4 0 6 5 11 10 11 6
0 10 -2 10 -4z m-117 -45 c-2 -6 2 -11 7 -11 18 0 10 -18 -10 -23 -14 -3 -24
1 -31 14 -5 11 -15 17 -20 13 -7 -4 -7 1 0 14 9 17 16 19 34 13 12 -5 21 -14
20 -20z m-638 9 c8 -13 -16 -38 -32 -33 -10 4 -10 9 0 24 13 21 23 24 32 9z
m2602 -63 c-8 -19 -20 -38 -27 -42 -8 -5 -9 -10 -1 -14 7 -4 3 -17 -10 -36
-19 -28 -20 -28 -13 -5 4 14 8 34 9 45 1 11 3 25 4 31 1 15 42 66 48 61 2 -3
-2 -21 -10 -40z m-2757 -17 c0 -5 -5 -10 -11 -10 -5 0 -7 5 -4 10 3 6 8 10 11
10 2 0 4 -4 4 -10z m-6080 -62 c0 -5 -7 -8 -16 -8 -8 0 -12 5 -9 10 9 15 -2
12 -19 -6 -9 -8 -16 -11 -16 -6 0 5 -11 8 -25 7 -15 -2 -25 2 -25 9 0 7 10 12
23 11 12 -1 33 1 47 5 23 6 39 -3 40 -22z m8896 -40 c-4 -30 -16 -58 -25 -58
-13 0 -12 63 1 72 21 13 27 9 24 -14z m-2935 -55 c13 -16 12 -17 -3 -4 -10 7
-18 15 -18 17 0 8 8 3 21 -13z m321 -5 c-7 -7 -12 -8 -12 -2 0 14 12 26 19 19
2 -3 -1 -11 -7 -17z m-330 -23 c0 -5 -5 -11 -10 -13 -5 -1 -9 4 -9 13 0 9 4
14 9 13 5 -2 10 -8 10 -13z m308 -9 c0 -3 -4 -8 -10 -11 -5 -3 -10 -1 -10 4 0
6 5 11 10 11 6 0 10 -2 10 -4z m2573 -79 c-2 -18 -5 -38 -5 -44 -1 -7 -8 -13
-17 -13 -14 0 -14 -2 -1 -10 13 -9 13 -11 0 -20 -8 -5 -11 -10 -7 -10 5 0 5
-6 0 -12 -12 -21 -17 -60 -28 -258 -4 -73 -9 -98 -22 -107 -11 -9 -18 -32 -21
-73 -4 -58 -21 -88 -42 -75 -6 3 -8 11 -5 16 4 5 0 9 -8 9 -8 0 -17 -7 -21
-15 -4 -10 1 -15 14 -15 11 0 20 -5 20 -11 0 -6 -8 -8 -19 -4 -11 3 -21 0 -24
-9 -3 -8 -16 -16 -29 -18 -16 -2 -34 -23 -63 -75 -22 -39 -53 -84 -69 -100
-15 -15 -51 -58 -78 -94 -50 -68 -79 -85 -127 -72 -11 3 -21 1 -21 -4 0 -5
-10 -19 -21 -32 -18 -19 -30 -22 -78 -20 -31 2 -66 0 -78 -5 -13 -4 -31 -2
-43 4 -16 9 -26 7 -49 -10 -16 -11 -33 -20 -39 -20 -5 0 -23 -7 -41 -16 -47
-23 -65 -13 -58 36 3 22 2 41 -1 41 -4 1 -17 3 -30 4 -12 1 -26 6 -30 10 -4 5
1 5 11 2 9 -4 17 -2 17 4 0 6 6 7 17 1 11 -7 30 -3 61 13 25 13 51 21 59 18 7
-3 20 0 28 7 8 6 37 13 65 15 28 1 59 9 68 17 29 25 42 30 36 15 -3 -8 2 -17
12 -21 12 -5 25 2 40 21 13 15 23 31 24 36 0 4 16 30 35 57 19 28 32 50 28 50
-5 0 -3 4 2 8 18 12 31 56 31 98 -1 23 5 47 12 53 9 9 12 9 13 -1 0 -7 2 -23
5 -35 2 -12 -2 -23 -11 -27 -8 -3 -15 -11 -15 -18 0 -9 3 -9 12 0 7 7 17 12
23 12 5 0 3 -4 -5 -10 -8 -5 -11 -12 -7 -16 15 -16 26 13 29 78 2 38 7 68 12
68 4 0 6 7 2 15 -3 8 -1 26 4 40 7 18 6 25 -2 25 -9 0 -9 3 -1 11 6 6 9 28 6
50 -4 27 -2 39 7 39 9 0 9 4 2 13 -5 7 -6 21 -1 32 6 16 8 16 8 3 1 -9 6 -18
13 -20 15 -5 21 -78 7 -78 -6 0 -8 -4 -5 -8 3 -4 1 -25 -4 -45 -4 -20 -5 -37
-1 -37 3 0 6 -13 6 -29 0 -16 -4 -27 -8 -24 -5 3 -4 -4 3 -17 7 -13 17 -19 27
-16 8 3 21 6 29 6 8 0 14 10 14 23 0 13 3 27 7 31 7 7 10 21 21 106 4 31 11
53 17 50 6 -3 9 -8 7 -12 -1 -5 3 -8 9 -8 6 0 9 -6 6 -13 -3 -8 -2 -20 3 -27
6 -9 9 -8 14 7 4 11 17 25 29 30 15 7 28 26 35 52 9 28 22 46 42 56 19 10 30
24 31 38 9 160 17 201 45 226 13 11 25 29 26 38 0 10 2 23 3 28 2 6 3 12 4 15
0 3 10 6 20 7 16 1 19 -3 14 -30z m601 -175 c2 -4 -4 -9 -15 -9 -11 -1 -17 2
-14 8 7 11 22 12 29 1z m-6785 -123 c-7 -4 -17 -5 -22 -2 -5 3 -3 9 4 14 7 4
17 5 22 2 5 -3 3 -9 -4 -14z m5801 -50 c0 -5 -4 -9 -10 -9 -5 0 -10 7 -10 16
0 8 5 12 10 9 6 -3 10 -10 10 -16z m783 -81 c-3 -18 -10 -34 -15 -36 -4 -2 -8
-10 -8 -18 0 -8 -4 -14 -10 -14 -5 0 -9 -4 -7 -8 2 -8 -32 -56 -86 -118 -16
-18 -34 -32 -40 -30 -7 1 -9 1 -4 -1 12 -7 8 -24 -5 -21 -23 4 -58 -13 -58
-28 0 -8 -4 -14 -10 -14 -5 0 -12 -11 -16 -25 -3 -14 -10 -25 -15 -25 -5 0 -9
-6 -9 -12 0 -7 -16 -29 -36 -48 -20 -19 -50 -54 -66 -77 -16 -24 -33 -43 -38
-43 -6 0 -10 -6 -10 -13 0 -8 -11 -19 -25 -25 -14 -6 -25 -15 -25 -20 0 -11
-86 -75 -105 -78 -9 -1 -15 6 -15 17 0 11 5 17 10 14 9 -6 14 8 11 28 0 4 6 7
14 7 9 0 12 6 8 15 -3 9 -2 15 3 13 9 -3 45 24 74 56 25 27 44 46 69 67 11 11
21 28 21 40 0 11 14 33 31 48 38 35 67 86 44 77 -12 -4 -13 -2 -3 14 7 10 21
21 32 24 16 4 17 7 6 21 -11 13 -10 15 6 9 16 -6 17 -5 7 7 -15 16 -17 33 -3
24 6 -3 10 -1 10 5 0 6 22 33 49 60 34 34 55 48 66 44 20 -8 65 15 65 32 0 8
10 16 23 19 13 4 30 15 37 26 21 28 30 23 23 -13z m-913 -38 c0 -5 -2 -10 -4
-10 -3 0 -8 5 -11 10 -3 6 -1 10 4 10 6 0 11 -4 11 -10z m-5660 -33 c0 -14
-41 -67 -52 -67 -3 0 -4 9 -1 20 3 11 10 20 15 20 5 0 6 5 3 10 -3 6 1 10 9
10 9 0 16 5 16 10 0 6 2 10 5 10 3 0 5 -6 5 -13z m5639 -84 c-12 -15 -12 -16
2 -11 14 5 15 3 5 -18 -15 -32 -25 -30 -21 4 2 15 4 30 4 35 1 4 6 7 12 7 8 0
7 -6 -2 -17z m435 -75 c3 -13 2 -26 -3 -31 -5 -5 -11 5 -13 22 -5 36 7 42 16
9z m-6189 -60 c-28 -29 -51 -54 -51 -56 -1 -2 -5 2 -9 8 -7 12 79 100 98 100
6 0 -11 -24 -38 -52z m6345 -28 c0 -5 -5 -10 -11 -10 -5 0 -7 5 -4 10 3 6 8
10 11 10 2 0 4 -4 4 -10z m-742 -157 c-14 -18 -19 -12 -11 16 4 16 8 19 14 10
4 -7 3 -19 -3 -26z m468 -188 c-3 -9 -11 -13 -17 -9 -8 4 -9 3 -5 -5 4 -6 12
-9 17 -6 5 4 9 1 9 -4 0 -6 -7 -11 -15 -11 -8 0 -15 -5 -15 -12 0 -9 -3 -9
-12 0 -14 14 -32 16 -24 4 3 -5 -9 -6 -25 -4 -16 2 -28 6 -26 8 4 4 44 12 66
13 8 1 11 8 8 20 -3 14 -1 18 10 14 7 -3 13 -2 12 3 -3 20 2 27 12 17 7 -7 9
-19 5 -28z m-872 3 c-4 -7 -19 -29 -34 -48 -14 -19 -31 -47 -38 -62 -13 -32
-28 -35 -53 -12 -17 15 -17 19 -3 52 17 43 29 52 67 52 16 0 35 7 43 15 19 18
28 20 18 3z m-2207 -124 c-3 -3 -12 -4 -19 -1 -8 3 -5 6 6 6 11 1 17 -2 13 -5z
m2370 -100 c-16 -16 -28 -21 -32 -14 -3 6 -12 7 -18 3 -15 -8 21 35 48 58 19
17 20 17 23 -2 2 -12 -7 -31 -21 -45z m869 -334 c4 -77 16 -131 40 -188 8 -18
10 -31 5 -28 -5 4 -12 2 -16 -4 -13 -20 -42 -9 -115 46 -41 31 -88 64 -105 73
-18 9 -30 22 -27 29 2 7 0 11 -5 10 -4 -2 -9 2 -11 7 -1 6 6 10 15 11 20 1
132 75 159 105 10 11 26 19 37 17 16 -3 19 -14 23 -78z m-5711 -251 c4 -5 0
-18 -9 -28 -9 -10 -13 -20 -10 -23 3 -4 -4 -9 -16 -13 -30 -10 -43 7 -35 44 5
26 11 31 35 31 16 0 32 -5 35 -11z m1102 -69 c15 -11 34 -18 44 -15 18 6 83
-28 73 -38 -3 -3 6 -22 21 -42 25 -32 27 -38 15 -63 -19 -39 -20 -51 -6 -65
19 -18 9 -36 -55 -101 -49 -49 -64 -59 -94 -60 -28 -1 -47 -11 -81 -44 -25
-23 -57 -50 -72 -59 -15 -10 -33 -24 -41 -31 -57 -54 -92 -51 -120 13 -20 46
-48 62 -78 46 -22 -11 -120 -171 -129 -209 -4 -15 -17 -48 -30 -74 -14 -28
-20 -49 -14 -53 6 -3 10 -17 10 -30 0 -17 9 -29 28 -38 31 -15 35 -15 85 2 72
25 73 6 3 -63 -36 -35 -66 -68 -66 -72 0 -4 -17 -23 -38 -43 -49 -45 -97 -136
-112 -208 -13 -58 -9 -160 11 -303 20 -151 16 -222 -13 -204 -14 9 -28 -15
-28 -47 0 -33 38 -62 63 -47 12 6 17 5 17 -3 0 -6 13 -33 28 -58 15 -25 36
-72 45 -103 10 -32 22 -60 28 -63 11 -8 39 -70 45 -105 7 -33 31 -70 52 -77 9
-3 24 -12 32 -19 16 -13 121 -40 191 -49 23 -3 46 -8 53 -12 6 -4 20 -7 31 -8
28 0 33 -35 6 -35 -27 0 -50 -45 -32 -63 9 -9 16 -9 32 1 17 11 26 10 51 -3
17 -8 37 -15 45 -15 7 0 13 -4 13 -9 0 -5 16 -28 35 -51 30 -36 35 -49 35 -95
0 -68 -28 -95 -91 -89 -22 2 -45 6 -50 9 -5 4 -9 2 -9 -4 0 -5 -7 -8 -15 -7
-18 3 -32 16 -16 16 8 0 9 5 1 19 -6 12 -6 22 -1 26 6 3 6 17 1 35 -5 17 -7
30 -4 30 2 0 -2 10 -10 23 -8 12 -21 48 -30 79 -12 40 -22 59 -37 63 -28 9
-38 -2 -55 -71 -9 -32 -22 -67 -29 -77 -16 -22 -1 -67 22 -67 19 0 16 -34 -4
-53 -10 -8 -29 -17 -43 -19 -23 -3 -25 0 -25 42 0 25 -4 65 -8 90 -5 25 -9 53
-11 62 -1 10 -5 21 -9 24 -4 4 -7 27 -7 50 0 53 -18 66 -69 52 -48 -13 -50
-16 -51 -73 -2 -56 3 -84 20 -115 16 -30 -2 -50 -28 -32 -25 18 -102 52 -118
52 -15 0 -15 0 -19 75 -5 82 -15 108 -62 150 -24 22 -45 47 -46 55 -2 8 -6 21
-10 28 -11 16 49 80 77 84 16 2 20 9 18 28 -2 14 -3 55 -2 92 0 77 -4 86 -90
161 -11 9 -20 14 -20 10 0 -5 -6 1 -12 11 -8 15 -8 21 0 24 7 2 12 8 12 13 0
6 9 20 21 32 20 22 20 22 0 25 -11 2 -29 -2 -40 -8 -20 -10 -21 -8 -21 30 0
57 -24 110 -49 110 -20 0 -46 -32 -34 -43 3 -4 0 -20 -7 -37 l-13 -31 -21 33
c-11 18 -26 39 -33 46 -7 8 -26 30 -41 50 -93 124 -138 162 -157 132 -11 -17
-23 -11 -33 18 -5 15 -9 30 -8 33 1 3 -11 20 -26 38 -16 18 -29 38 -29 44 -1
7 -3 22 -4 34 -1 13 -8 29 -14 37 -9 10 -9 16 -1 21 6 4 7 12 2 18 -11 16 -4
127 9 127 4 0 10 16 13 36 4 19 16 44 27 55 10 10 19 21 19 24 0 11 45 55 56
55 8 0 11 6 8 14 -6 15 19 17 32 3 13 -13 51 -7 75 11 47 36 86 46 98 25 14
-26 34 -9 66 53 17 33 33 61 36 64 4 3 9 14 13 25 3 11 22 37 41 59 19 21 41
60 49 86 8 27 21 59 30 72 15 23 61 165 72 222 10 49 35 77 66 70 19 -4 30 0
40 15 8 11 27 22 42 25 16 3 39 14 51 26 12 11 33 20 47 20 17 0 34 11 49 30
19 23 32 30 61 30 20 0 40 5 43 10 3 6 10 10 16 10 9 0 7 -23 -6 -52 -8 -19
-1 -48 12 -48 17 0 31 18 68 85 38 68 68 105 87 105 6 0 21 -9 35 -20z m-797
-610 c0 -5 -7 -7 -15 -4 -8 4 -15 8 -15 10 0 2 7 4 15 4 8 0 15 -4 15 -10z
m-29 -37 c-8 -15 -10 -15 -11 -2 0 17 10 32 18 25 2 -3 -1 -13 -7 -23z m555
-119 c-3 -17 -34 -40 -42 -31 -6 6 27 47 37 47 4 0 6 -7 5 -16z m5009 -135
c15 -48 16 -67 8 -90 -11 -29 -4 -78 17 -124 5 -11 14 -42 20 -68 6 -27 17
-65 26 -85 8 -20 14 -54 13 -76 -1 -23 3 -56 9 -73 12 -36 10 -38 -17 -21 -32
20 -51 3 -51 -45 0 -51 26 -83 59 -72 16 5 21 2 22 -12 3 -44 -4 -79 -18 -95
-22 -24 -13 -52 19 -56 20 -2 27 -10 33 -35 9 -44 10 -86 2 -123 -4 -17 -2
-46 4 -65 6 -19 12 -47 15 -62 2 -15 8 -36 14 -47 5 -10 10 -37 10 -59 0 -32
5 -44 25 -57 14 -9 25 -22 25 -29 0 -18 50 -68 83 -83 16 -7 25 -8 22 -2 -3 5
-2 10 4 10 6 0 13 -11 17 -25 3 -14 10 -25 14 -25 14 0 20 -31 9 -51 -7 -14
-7 -31 2 -57 15 -47 19 -51 52 -54 15 -1 29 -10 33 -20 3 -9 15 -20 27 -23 22
-7 73 -56 93 -90 11 -21 -3 -65 -21 -65 -15 0 -73 57 -80 80 -8 26 -35 25 -79
-1 -22 -13 -37 -30 -41 -49 -9 -43 -49 -70 -102 -70 -37 0 -44 3 -41 18 1 9
-1 23 -6 30 -4 7 -5 16 -1 20 4 4 10 1 12 -5 7 -21 33 -15 44 10 22 48 -25
103 -50 59 -9 -15 -12 -15 -20 -2 -8 11 -6 17 7 21 32 12 42 32 29 56 -44 75
-47 84 -41 108 3 14 9 25 13 25 16 0 -3 69 -23 82 -5 3 -11 13 -12 22 -1 8
-11 25 -23 37 -11 12 -23 31 -27 41 -3 10 -8 18 -12 18 -4 1 -17 9 -30 20 -18
15 -21 23 -14 37 15 26 -7 64 -48 82 -30 14 -35 21 -35 51 0 33 -13 47 -59 63
-5 2 -10 30 -10 64 -1 35 -7 67 -15 77 -9 10 -10 20 -4 29 5 6 8 48 6 92 -2
44 -3 94 -4 112 0 18 -4 35 -9 38 -16 10 -43 67 -45 95 -2 14 -6 47 -10 74 -4
28 -3 58 3 70 16 33 25 60 24 69 -4 16 7 5 47 -48 44 -58 63 -66 93 -38 29 26
22 49 -27 89 -38 31 -51 36 -78 31 l-34 -5 2 70 c1 43 7 73 14 78 8 4 14 36
15 81 3 72 3 74 30 77 15 2 30 10 33 18 10 26 20 14 38 -47z m-1031 -311 c-8
-44 -30 -77 -59 -90 -31 -14 -51 -5 -57 24 -5 28 0 50 11 44 4 -3 22 8 40 24
18 17 41 30 51 30 17 0 19 -5 14 -32z m-4414 -897 c0 -5 -10 -11 -22 -15 -35
-9 -40 -7 -26 9 14 16 48 20 48 6z m6225 -448 c1 -10 6 -34 13 -53 6 -19 13
-51 16 -70 4 -29 2 -36 -12 -37 -14 -1 -18 6 -18 30 0 18 -4 41 -9 52 -11 27
-13 117 -1 105 5 -5 10 -17 11 -27z"/>
<path d="M11285 6519 c6 -33 15 -36 15 -6 0 15 -4 27 -9 27 -6 0 -8 -10 -6
-21z"/>
<path d="M11290 6460 c-12 -8 -10 -10 8 -10 13 0 20 4 17 10 -7 12 -6 12 -25
0z"/>
<path d="M12161 6782 c-8 -15 -7 -23 4 -32 21 -18 47 -4 43 22 -4 29 -34 35
-47 10z"/>
<path d="M12293 6744 c-7 -18 11 -39 26 -30 17 11 13 46 -4 46 -9 0 -18 -7
-22 -16z"/>
<path d="M9705 6427 c-27 -26 -45 -53 -45 -66 0 -34 38 -77 82 -92 29 -9 45
-22 56 -46 13 -27 21 -33 46 -33 55 0 75 11 86 44 14 45 9 85 -15 106 -11 10
-45 43 -77 74 -31 31 -63 56 -72 56 -9 0 -36 -19 -61 -43z"/>
<path d="M9443 6069 c-16 -16 -4 -49 18 -49 25 0 35 26 19 45 -15 18 -22 19
-37 4z"/>
<path d="M9170 5996 c-33 -33 19 -69 102 -69 46 0 55 8 60 48 l3 30 -77 1
c-43 0 -82 -4 -88 -10z"/>
<path d="M10197 5874 c-15 -15 -7 -45 11 -42 9 2 17 12 17 22 0 20 -16 31 -28
20z"/>
<path d="M9198 5723 c-47 -60 -57 -68 -83 -65 -27 3 -34 -3 -68 -54 -20 -31
-37 -61 -37 -65 0 -5 -12 -9 -26 -9 -24 0 -57 -28 -64 -55 -2 -5 -10 -15 -19
-22 -9 -7 -12 -13 -7 -13 4 0 1 -12 -8 -26 -10 -14 -16 -35 -15 -47 1 -12 -3
-33 -8 -47 -6 -14 -17 -41 -25 -60 -16 -39 -14 -60 8 -60 7 0 11 -6 9 -12 -3
-7 -1 -20 4 -28 8 -11 14 -12 33 -2 13 6 34 12 47 14 33 4 51 35 30 51 -11 9
-13 21 -8 45 5 26 3 35 -12 42 -16 9 -17 14 -4 55 7 25 10 45 6 45 -12 0 12
69 26 74 17 7 63 -17 63 -33 0 -8 -7 -22 -15 -31 -8 -9 -16 -27 -17 -41 -4
-30 28 -37 75 -17 18 7 45 13 62 13 25 0 34 8 63 55 18 30 38 74 44 98 6 23
15 42 20 42 5 0 7 4 4 9 -3 5 6 29 20 55 24 43 24 47 10 73 -8 15 -20 40 -27
56 -6 15 -15 27 -19 27 -5 0 -33 -30 -62 -67z m-45 -146 c-3 -5 4 -11 15 -14
24 -6 37 -43 16 -43 -8 0 -14 6 -14 14 0 7 -7 19 -15 26 -8 7 -15 24 -14 39 0
23 1 24 8 6 5 -11 6 -24 4 -28z"/>
<path d="M8654 5760 c-25 -10 -64 -61 -64 -83 0 -30 31 -26 70 9 22 20 40 42
40 49 0 21 -23 33 -46 25z"/>
<path d="M10184 5714 c3 -8 2 -13 -3 -10 -18 11 -156 -207 -147 -231 8 -20 38
-2 56 34 8 15 30 48 48 72 30 40 82 132 82 146 0 3 -9 5 -21 5 -15 0 -19 -5
-15 -16z"/>
<path d="M10238 5713 c-29 -35 -51 -81 -45 -97 8 -20 41 -21 57 -1 10 12 16
13 26 4 15 -12 81 -4 101 13 15 12 28 72 19 87 -5 7 -21 5 -48 -6 -38 -15 -41
-15 -50 0 -12 22 -41 22 -60 0z"/>
<path d="M4625 5691 c-3 -5 -21 -8 -40 -6 -19 2 -35 -1 -35 -6 0 -5 -4 -9 -9
-9 -4 0 -41 -18 -81 -40 -40 -22 -80 -40 -89 -40 -40 -1 -64 -43 -39 -68 7 -7
12 -26 13 -44 0 -27 5 -33 38 -44 37 -13 41 -12 82 16 56 38 137 118 131 128
-6 9 29 48 67 75 15 11 23 25 20 33 -6 16 -49 19 -58 5z"/>
<path d="M7958 5633 c-47 -54 -46 -93 2 -93 16 0 30 -5 30 -10 0 -20 44 -29
63 -12 24 21 23 86 -3 112 -25 25 -72 26 -92 3z"/>
<path d="M5069 5551 c-43 -42 -45 -49 -26 -75 12 -17 15 -17 57 0 25 9 51 22
58 27 28 22 3 87 -35 87 -8 0 -33 -17 -54 -39z"/>
<path d="M9440 5529 c0 -5 5 -7 10 -4 6 3 10 8 10 11 0 2 -4 4 -10 4 -5 0 -10
-5 -10 -11z"/>
<path d="M9914 5515 c-4 -9 -2 -21 4 -27 15 -15 44 -1 40 19 -4 23 -36 29 -44
8z"/>
<path d="M4704 5486 c-39 -39 -45 -83 -16 -109 26 -24 49 -21 77 9 46 49 41
134 -6 134 -12 0 -36 -15 -55 -34z"/>
<path d="M4957 5363 c-11 -10 -8 -51 3 -58 22 -14 50 6 50 36 0 24 -4 29 -23
29 -13 0 -27 -3 -30 -7z"/>
<path d="M7865 5323 c-53 -54 -59 -103 -14 -103 11 0 34 -10 50 -22 l31 -23
20 25 c16 20 19 35 16 83 -6 87 -43 102 -103 40z"/>
<path d="M4357 5292 c-19 -21 -23 -67 -7 -77 18 -11 45 4 64 35 14 25 15 34 6
45 -17 20 -44 19 -63 -3z"/>
<path d="M9030 5265 c-11 -13 -11 -19 3 -33 16 -15 18 -15 32 3 8 11 13 25 11
30 -5 17 -32 17 -46 0z"/>
<path d="M8347 5252 c-21 -23 -22 -68 -3 -75 27 -11 60 45 44 76 -11 22 -21
22 -41 -1z"/>
<path d="M8728 5117 c-60 -54 -71 -79 -40 -93 37 -16 63 4 103 79 19 36 20 68
2 67 -4 -1 -34 -24 -65 -53z"/>
<path d="M4544 5035 c-19 -19 -23 -31 -18 -47 7 -22 28 -48 38 -48 14 0 46 46
46 66 0 58 -26 69 -66 29z"/>
<path d="M5395 4971 c-32 -14 -75 -58 -75 -79 0 -21 18 -42 38 -42 8 0 26 9
40 20 l26 21 13 -26 c16 -29 25 -31 47 -9 20 20 12 34 -20 34 -21 0 -23 4 -18
24 6 24 -10 67 -24 65 -4 0 -16 -4 -27 -8z"/>
<path d="M7953 4953 c-20 -7 -15 -31 8 -44 17 -9 25 -8 37 5 13 12 13 18 2 30
-13 16 -25 18 -47 9z"/>
<path d="M5898 4845 c-14 -31 0 -50 30 -41 27 9 34 32 16 51 -22 21 -33 19
-46 -10z"/>
<path d="M4135 4785 c-21 -20 -25 -34 -25 -79 0 -30 4 -57 8 -60 5 -3 21 2 37
10 23 12 34 12 61 2 19 -7 34 -17 34 -24 0 -18 29 -25 51 -14 10 6 19 21 19
33 0 23 -33 67 -50 67 -4 0 -18 15 -29 33 -17 28 -56 57 -77 57 -3 0 -16 -11
-29 -25z"/>
<path d="M3870 4696 c-16 -25 -30 -47 -30 -51 0 -3 -4 -11 -10 -18 -5 -7 -39
-52 -75 -100 -36 -48 -73 -96 -83 -106 -101 -107 -215 -220 -249 -248 -29 -24
-43 -43 -43 -60 0 -37 22 -37 86 1 59 36 110 48 101 24 -2 -7 -10 -12 -16 -10
-7 1 -10 -2 -7 -7 4 -5 -2 -14 -11 -20 -10 -6 -14 -11 -10 -11 4 0 -5 -17 -20
-37 -15 -20 -22 -33 -14 -28 11 6 13 4 8 -8 -10 -26 33 -17 61 12 13 14 29 26
37 27 8 1 22 9 31 18 22 22 35 11 23 -21 -18 -47 15 -85 47 -53 6 6 21 12 33
15 41 8 112 47 126 69 13 19 12 28 -9 79 -12 31 -33 65 -44 76 -12 10 -22 23
-22 30 0 6 -4 11 -9 11 -14 0 -1 37 20 56 10 9 19 23 19 30 0 6 29 52 65 100
66 89 77 120 50 130 -16 7 -21 54 -6 54 9 0 31 53 31 76 0 8 -11 14 -25 14
-17 0 -32 -12 -55 -44z"/>
<path d="M5570 4701 c0 -20 13 -41 25 -41 18 0 26 15 19 34 -6 17 -44 23 -44
7z"/>
<path d="M5142 4627 c-17 -18 -32 -36 -32 -40 0 -21 -46 -67 -67 -67 -13 0
-40 -17 -64 -40 -23 -22 -45 -40 -48 -40 -4 0 -17 -17 -29 -38 -31 -56 -153
-178 -196 -196 -20 -8 -39 -23 -43 -33 -15 -41 -46 -71 -67 -67 -15 3 -30 -6
-53 -33 -27 -32 -37 -37 -80 -38 -52 -2 -103 -19 -116 -38 -6 -9 -12 -6 -24
11 -18 25 -69 32 -60 8 4 -10 1 -13 -8 -9 -8 3 -12 9 -9 14 3 5 -1 9 -9 9 -8
0 -18 -11 -21 -25 -3 -13 -19 -39 -34 -57 -17 -19 -36 -61 -46 -100 -10 -37
-24 -69 -32 -72 -8 -3 -14 -1 -14 4 0 6 -7 10 -15 10 -8 0 -19 -17 -25 -42
-18 -71 -42 -142 -56 -168 -7 -14 -20 -41 -29 -60 -8 -19 -28 -55 -45 -80 -16
-25 -34 -54 -39 -65 -5 -11 -30 -41 -56 -68 -27 -26 -45 -50 -42 -53 20 -21
114 49 162 120 11 16 44 52 73 80 29 28 71 74 92 102 22 28 50 56 63 63 12 6
37 34 56 61 32 46 78 71 92 49 3 -5 18 4 34 21 15 16 31 27 35 25 4 -3 15 4
25 15 10 11 23 20 28 20 6 0 59 51 118 113 60 61 128 132 152 157 24 25 61 68
82 95 21 28 50 60 64 72 14 13 26 29 26 36 0 16 50 67 65 67 5 0 10 4 10 9 0
5 35 34 78 66 42 31 106 88 141 127 52 56 63 73 54 87 -18 29 -56 25 -91 -12z
m-891 -680 c-6 -6 -11 -18 -11 -27 0 -9 -7 -25 -15 -36 -11 -15 -11 -9 2 33 9
29 21 49 26 46 5 -3 4 -10 -2 -16z"/>
<path d="M7692 4627 c-50 -53 -49 -157 1 -141 12 4 35 17 50 30 33 28 40 29
56 10 15 -18 45 -26 61 -16 38 23 -12 112 -70 123 -15 4 -38 9 -52 12 -17 4
-30 0 -46 -18z"/>
<path d="M5868 4567 c-32 -30 -44 -73 -22 -81 27 -10 33 -7 60 34 41 62 14 95
-38 47z"/>
<path d="M5652 4382 c-32 -27 -32 -27 -22 -85 11 -72 48 -119 108 -141 42 -15
46 -15 89 8 31 17 55 23 76 19 25 -4 37 1 54 19 38 41 34 73 -11 92 -19 8 -39
23 -45 34 -7 13 -26 22 -58 27 -26 4 -52 13 -58 21 -5 8 -25 15 -43 17 -17 2
-35 7 -39 10 -10 11 -16 8 -51 -21z"/>
<path d="M5183 4363 c-37 -18 -53 -50 -42 -79 10 -28 29 -34 74 -24 21 5 60 6
86 3 43 -5 48 -3 64 21 11 16 15 35 11 50 -5 20 -13 24 -58 29 -29 3 -64 8
-78 10 -14 3 -39 -2 -57 -10z"/>
<path d="M7042 4217 c-6 -7 -24 -12 -40 -11 -26 2 -28 -1 -25 -30 1 -17 11
-61 21 -98 13 -47 16 -69 8 -72 -6 -2 -3 -5 7 -5 10 -1 15 -5 12 -11 -3 -5 -1
-10 4 -10 6 0 14 0 18 0 4 0 8 6 9 13 0 6 2 20 2 30 1 9 7 17 13 17 5 0 7 -4
4 -10 -3 -5 -1 -10 4 -10 6 0 10 -6 9 -12 -2 -7 4 -13 12 -13 22 0 24 67 4
144 -23 88 -38 107 -62 78z"/>
<path d="M4946 4151 c-20 -22 -15 -51 7 -51 20 0 39 26 35 46 -5 25 -22 27
-42 5z"/>
<path d="M3547 3866 c-18 -19 -45 -48 -61 -66 l-30 -33 -15 32 c-26 55 -62 33
-121 -74 -17 -30 -49 -115 -50 -132 0 -1 7 -8 15 -16 13 -14 20 -13 62 8 27
13 58 33 70 44 12 12 28 21 35 21 23 1 82 35 122 70 88 78 96 88 96 119 0 26
-6 33 -36 46 -49 20 -51 20 -87 -19z"/>
<path d="M7439 3734 c-36 -19 -69 -134 -58 -199 5 -28 12 -70 15 -95 4 -25 17
-60 31 -78 24 -32 37 -35 92 -17 28 9 19 54 -21 113 -26 38 -33 56 -32 97 0
49 25 101 63 131 7 5 12 19 9 30 -4 24 -67 36 -99 18z"/>
<path d="M8100 3540 c0 -11 -5 -20 -11 -20 -14 0 -7 -42 9 -48 7 -2 10 2 6 12
-5 12 -2 15 10 10 9 -3 14 -9 11 -13 -2 -4 2 -8 10 -8 12 0 12 3 0 20 -7 11
-11 26 -8 35 5 11 3 13 -7 7 -10 -6 -12 -4 -7 8 3 10 2 17 -3 17 -6 0 -10 -9
-10 -20z"/>
<path d="M4165 3460 c-8 -14 3 -30 21 -30 8 0 14 9 14 20 0 21 -24 28 -35 10z"/>
<path d="M7645 3432 c-3 -11 1 -32 10 -48 8 -16 15 -32 15 -36 0 -21 76 -121
121 -161 43 -38 57 -45 81 -40 17 3 28 1 28 -6 0 -13 39 -14 59 -2 9 6 28 4
51 -5 24 -10 44 -12 59 -6 19 7 29 2 56 -25 30 -30 39 -33 92 -33 48 0 60 4
71 21 7 11 10 29 7 39 -8 24 -71 64 -91 56 -10 -4 -20 6 -31 29 -13 27 -26 38
-56 46 -21 6 -45 8 -53 5 -7 -3 -17 2 -22 10 -10 18 -33 20 -85 10 -34 -6 -41
-4 -58 18 -11 14 -29 26 -40 26 -10 0 -19 4 -19 10 0 17 -51 60 -72 60 -11 0
-31 11 -44 25 -27 30 -70 33 -79 7z"/>
<path d="M4001 3311 c-23 -32 -27 -56 -11 -66 18 -11 72 58 63 81 -8 22 -30
16 -52 -15z"/>
<path d="M2800 3207 c-75 -36 -130 -78 -126 -96 11 -57 30 -59 116 -12 50 28
100 86 100 119 0 18 -39 13 -90 -11z"/>
<path d="M3050 3105 c-35 -43 -66 -72 -72 -69 -6 4 -8 3 -5 -3 3 -5 -3 -22
-15 -39 -20 -29 -21 -20 -3 31 6 20 6 20 -9 1 -18 -22 -55 -62 -86 -90 -11
-11 -20 -25 -20 -32 0 -7 -13 -18 -30 -26 -16 -7 -30 -20 -29 -28 0 -10 2 -11
6 -2 2 6 9 12 14 12 6 0 7 -4 4 -10 -3 -5 -1 -10 4 -10 6 0 11 4 11 8 0 4 14
16 32 26 28 17 31 17 25 3 -9 -24 10 -21 25 3 7 11 18 20 25 20 6 0 13 5 15
10 2 6 14 12 28 15 14 3 26 9 28 14 2 6 10 7 18 4 8 -3 14 1 14 11 0 9 4 16 8
16 5 0 24 14 42 30 18 17 37 30 41 30 15 0 20 41 14 95 -4 30 -11 55 -16 55
-4 0 -35 -34 -69 -75z"/>
<path d="M8541 3151 c-12 -8 -13 -14 -3 -35 9 -21 19 -26 49 -26 26 0 56 -12
93 -35 30 -19 60 -35 66 -35 18 0 79 -58 70 -67 -4 -4 -11 -1 -16 7 -6 8 -10
11 -10 5 0 -5 -6 -3 -13 5 -23 29 -71 49 -88 37 -30 -19 -3 -61 79 -123 99
-74 114 -94 126 -159 6 -35 14 -45 35 -45 10 0 35 -13 56 -30 67 -53 85 -36
61 58 -9 33 -16 78 -16 101 0 33 -5 44 -29 62 -16 12 -27 27 -25 34 5 13 -27
47 -95 104 -42 35 -61 47 -116 75 -16 8 -55 29 -85 46 -55 30 -111 38 -139 21z"/>
<path d="M2750 2922 c-8 -3 -23 -13 -32 -22 -29 -30 -87 -127 -81 -134 4 -3
-2 -6 -11 -6 -13 0 -17 -6 -13 -20 3 -10 0 -21 -7 -24 -6 -2 -2 -5 9 -5 12 0
45 25 79 59 50 51 63 59 85 54 25 -6 25 -6 7 8 -18 14 -19 28 -2 69 8 18 -10
29 -34 21z m-90 -176 c0 -3 -4 -8 -10 -11 -5 -3 -10 -1 -10 4 0 6 5 11 10 11
6 0 10 -2 10 -4z"/>
<path d="M9211 2811 c-10 -10 -30 -21 -45 -25 -20 -5 -26 -12 -26 -34 1 -37
51 -126 74 -130 24 -5 44 28 48 76 1 8 14 23 30 35 33 24 35 45 9 75 -23 27
-65 28 -90 3z"/>
<path d="M2213 2491 c-64 -54 -93 -95 -77 -111 6 -6 35 -17 65 -24 53 -14 55
-14 92 11 69 47 72 73 18 132 l-39 42 -59 -50z"/>
<path d="M9076 2474 c-11 -10 -15 -25 -12 -38 3 -12 6 -26 6 -32 0 -20 31 -25
53 -9 12 8 17 15 11 15 -5 0 -11 12 -12 27 -1 15 -8 34 -16 41 -11 11 -16 11
-30 -4z"/>
<path d="M8924 2356 c-9 -24 4 -48 23 -44 12 2 18 12 18 28 0 29 -32 41 -41
16z"/>
<path d="M1743 2273 c-28 -19 -30 -43 -5 -43 21 0 52 29 52 48 0 16 -20 14
-47 -5z"/>
<path d="M1490 1724 c-54 -62 -21 -98 45 -49 36 28 44 52 23 73 -19 19 -34 14
-68 -24z"/>
<path d="M1523 1570 c-41 -17 -37 -44 15 -99 29 -30 58 -51 70 -51 32 0 70 20
75 41 7 26 -21 61 -45 57 -12 -2 -25 5 -32 17 -23 41 -44 50 -83 35z"/>
<path d="M1457 1243 c-10 -10 -8 -71 2 -77 16 -10 41 6 41 26 0 38 -26 69 -43
51z"/>
<path d="M4637 2799 c-24 -14 -12 -29 24 -29 24 0 30 4 27 17 -4 21 -26 27
-51 12z"/>
<path d="M3933 2202 c-20 -13 -26 -65 -10 -86 30 -41 72 19 48 70 -11 25 -18
28 -38 16z"/>
<path d="M3593 2018 c-47 -60 -75 -193 -58 -272 11 -51 52 -96 89 -96 19 0 59
43 63 69 5 40 5 130 -2 163 -6 29 -3 42 17 68 l23 32 -30 24 c-32 26 -86 32
-102 12z"/>
<path d="M3907 1965 c-49 -62 -19 -112 37 -60 21 19 27 33 24 58 -4 44 -27 45
-61 2z"/>
<path d="M4042 1968 c-15 -15 3 -48 27 -48 23 0 35 28 20 46 -14 17 -31 18
-47 2z"/>
<path d="M3756 1693 c-32 -34 -42 -61 -28 -75 22 -22 68 22 74 71 4 35 -16 36
-46 4z"/>
<path d="M4177 793 c-13 -12 -7 -41 9 -47 22 -8 47 24 32 41 -11 14 -31 17
-41 6z"/>
<path d="M4140 675 c0 -8 6 -15 14 -15 8 0 16 7 20 15 4 10 -1 15 -14 15 -11
0 -20 -7 -20 -15z"/>
</g>
</svg>
